<svg xmlns="http://www.w3.org/2000/svg" viewBox="0 0 94.43 94.73"><defs><style>.cls-1{opacity:0.5;}.cls-2{fill:#f4eeee;}</style></defs><title>bg_dot</title><g id="圖層_2" data-name="圖層 2"><g id="圖層_1-2" data-name="圖層 1"><g id="l8PcEJ" class="cls-1"><path class="cls-2" d="M0,58.43a1.38,1.38,0,0,0,.29-.24c.22-.32.5-.63.82-.23a1.2,1.2,0,0,1,.2,1c-.22.45-.65.37-1,0A2.24,2.24,0,0,0,0,58.76Q0,58.6,0,58.43Z"/><path class="cls-2" d="M0,16.83a.74.74,0,0,0,.16,0c.48-.08,1-.08,1.11.48.05.31-.29.69-.48,1.09L0,17.82Z"/><path class="cls-2" d="M0,55.62l.92.2L0,56.95Z"/><path class="cls-2" d="M64.88,80.39c1.18,0,1.53.75,1.88,1.5.47-.71,1.09-1,1.59-.71s.75.4.5.95-.92.74-1.74.48c.13.58,0,.94-.67,1-.93,0-1.69-.44-1.71-1.16A19.54,19.54,0,0,1,64.88,80.39Z"/><path class="cls-2" d="M41.65,57.44c1.08,0,1.43.3,1.43,1.21a1.52,1.52,0,0,1-1.46,1.64,1.45,1.45,0,0,1-1.39-1.6C40.24,57.78,40.62,57.44,41.65,57.44Z"/><path class="cls-2" d="M85.53,61c-.09,1-.92,1.9-1.52,1.83a1.62,1.62,0,0,1-1.28-1.48c0-.54,1.21-1.74,1.6-1.51A6.12,6.12,0,0,1,85.53,61Z"/><path class="cls-2" d="M29.26,92.73c0,.91-.33,1.35-1.19,1.4s-1.36-.32-1.39-1a1.55,1.55,0,0,1,1.43-1.67C29.1,91.4,29.2,91.51,29.26,92.73Z"/><path class="cls-2" d="M54.43,16.34A1.33,1.33,0,0,1,53,15.39a1,1,0,0,1,.47-1.3c.16-.09.21-.36.33-.54a1.44,1.44,0,0,1,.4-.45.44.44,0,0,1,.4.17,11.77,11.77,0,0,1,.67,2.12C55.38,16,54.84,16.25,54.43,16.34Z"/><path class="cls-2" d="M25.17,37.27c-.82.06-1-.22-.76-1.15,0-.11-.06-.25-.06-.38a3,3,0,0,1,.1-1.24,1,1,0,0,1,1.41-.42c.58.37.45,1,.17,1.53Z"/><path class="cls-2" d="M9.13,27.88c-.35.61-.63,1.14-.95,1.63A1.16,1.16,0,0,1,6.74,30c-.7-.22-.57-.89-.43-1.31a1.58,1.58,0,0,1,1-.9A6.6,6.6,0,0,1,9.13,27.88Z"/><path class="cls-2" d="M25.34,44.56c.75,0,1.39.46,1.4,1a1.57,1.57,0,0,1-1.42,1.33c-.69,0-1.06-.46-1-1.28S24.6,44.56,25.34,44.56Z"/><path class="cls-2" d="M57.1,27.67a7.94,7.94,0,0,1,1.22-1,.93.93,0,0,1,.88.11A2.4,2.4,0,0,1,59.83,28c0,.21-.33.66-.58.74C58.18,29,57.65,28.71,57.1,27.67Z"/><path class="cls-2" d="M22.71,71.48c1.29.48,1.65,1.05,1.23,1.94s-.94.9-2,.31Z"/><path class="cls-2" d="M25.94,49.6c1.13.58,1.16.73.57,1.58-.12.18-.06.47-.11.7s-.07.77-.28,1a.88.88,0,0,1-.86,0,1.57,1.57,0,0,1,0-1,9.51,9.51,0,0,1,.35-1.26C25.68,50.25,25.81,49.93,25.94,49.6Z"/><path class="cls-2" d="M70.18,33.23a1,1,0,0,1-1.1,1.09.93.93,0,0,1-1-.86c-.06-.54.65-1.12,1.28-1.12S70.2,32.6,70.18,33.23Z"/><path class="cls-2" d="M14.27,61.37c-.4-.63-.91-1.08-.83-1.37a1.65,1.65,0,0,1,1-1c.39-.08,1.19.18,1,.86C15.33,60.35,14.8,60.74,14.27,61.37Z"/><path class="cls-2" d="M81.07,76.76a.9.9,0,0,1-1-.89c0-.41.31-.9-.24-1.23,0,0,.12-.4.24-.44a.63.63,0,0,1,.57.12,11.88,11.88,0,0,1,1.05,1.56C81.94,76.4,81.69,76.75,81.07,76.76Z"/><path class="cls-2" d="M80.2,37.29a8.23,8.23,0,0,1-1.52-.53,2.19,2.19,0,0,1-.82-.92.88.88,0,0,1,.26-.77.75.75,0,0,1,.74,0C79.39,35.71,80.19,36.21,80.2,37.29Z"/><path class="cls-2" d="M87.91,28.16a1.12,1.12,0,0,1,.41.07c.34.22.95.5.93.71a2.65,2.65,0,0,1-.65,1.4c-.37.41-.76.15-.93-.31A1.64,1.64,0,0,1,87.91,28.16Z"/><path class="cls-2" d="M39.71,80.56c-.21,0-.49,0-.56-.07a3.91,3.91,0,0,1-.36-.84,3,3,0,0,1,.83-.08,1.76,1.76,0,0,1,.86.38c.27.25.6.62.58.92a1.11,1.11,0,0,1-.7.8C39.52,81.78,39.9,81,39.71,80.56Z"/><path class="cls-2" d="M57.49,90.13c.44.47,1.24.69.87,1.5a1.4,1.4,0,0,1-.89.75c-.26,0-.72-.35-.86-.65C56.24,90.89,57.11,90.67,57.49,90.13Z"/><path class="cls-2" d="M48.77,79.93a3.45,3.45,0,0,1,2.65-.47c.11,0,.35.63.3.68-.35.28-.8.7-1.14.65A7.21,7.21,0,0,1,48.77,79.93Z"/><path class="cls-2" d="M4.61,41.45c-.12.43-.15,1-.88,1s-1-.29-1.07-1,.47-.85,1.08-.87S4.6,40.81,4.61,41.45Z"/><path class="cls-2" d="M22.31,21.75c1-.6,1.46-.56,1.73.24a1.09,1.09,0,0,1-.11.94,1.14,1.14,0,0,1-1,.23c-.31-.13-.53-.55-.71-.88-.07-.12.07-.36.11-.55Z"/><path class="cls-2" d="M64.59,30c-.16.68-.26,1.2-.9,1.21a.9.9,0,0,1-1-1c0-.7.41-1.21,1.1-1.08C64.12,29.15,64.33,29.65,64.59,30Z"/><path class="cls-2" d="M41.46,91c.58.54,1,1,.7,1.73-.14.4-.12.94-.77.81a1,1,0,0,1-.71-1.34A8.49,8.49,0,0,1,41.46,91Z"/><path class="cls-2" d="M65.39,86.51c.77.83.8,1.41.09,1.87a.89.89,0,0,1-1.31-.19A.81.81,0,0,1,64.53,87C64.81,86.8,65.1,86.66,65.39,86.51Z"/><path class="cls-2" d="M26,70.53l-.39.18c-.46-.45-.82-.85-1.23-1.19s-.58-.66-.25-1.1.79-.32,1.13,0a2,2,0,0,1,.48.82A11,11,0,0,1,26,70.53Z"/><path class="cls-2" d="M44,47.57c.33.09.94.18.9.91s-.56.82-1.1.86c-.71,0-.73-.44-.72-1S43.14,47.47,44,47.57Z"/><path class="cls-2" d="M74.06,48.77c-.39.25-.8.7-1.17.67s-.67-.66-.7-1,.41-.68.64-1l1.22,1Z"/><path class="cls-2" d="M67.75,50.27c-.17.74-.36,1.32-1,1.18a1.54,1.54,0,0,1-.84-.92c-.14-.37.71-1.1,1.2-1C67.39,49.64,67.58,50.08,67.75,50.27Z"/><path class="cls-2" d="M65.91,23.28c.89-.16.86.51.94,1.06s-.22.79-.76.78-1-.45-.94-1.16C65.16,23.49,65.34,23.16,65.91,23.28Z"/><path class="cls-2" d="M45.93,92c0,1-.51,1.69-1.25,1.53-.26-.06-.56-.63-.56-1C44.12,91.9,44.74,91.73,45.93,92Z"/><path class="cls-2" d="M48.53,60.8c-.45.4-.68,1.28-1.52.83s-.41-1.05-.22-1.64C47.39,60.16,48.2,59.84,48.53,60.8Z"/><path class="cls-2" d="M68,74.65c-.37.35-.2,1.27-1,1.08a1.24,1.24,0,0,1-.73-.83c-.06-.27.25-.87.44-.89a4.27,4.27,0,0,1,1.35.3Z"/><path class="cls-2" d="M94.43,44.72c-.46.44-.72.88-1.05,1a.76.76,0,0,1-.88-.89,1.27,1.27,0,0,1,.76-.94C93.52,43.8,93.89,44.3,94.43,44.72Z"/><path class="cls-2" d="M13.09,61.43c.77.13,1,.49,1.09,1a.77.77,0,0,1-.85.87,1.36,1.36,0,0,1-.8-.93C12.47,62.11,12.89,61.75,13.09,61.43Z"/><path class="cls-2" d="M35.3,74.78c-.08.71-.6,1.21-1.1,1-.28-.1-.7-.64-.64-.73a2,2,0,0,1,.94-.89C34.76,74.11,35.47,74.18,35.3,74.78Z"/><path class="cls-2" d="M13.93,57.19c-.54.41-.83.79-1.14.83a.76.76,0,0,1-.91-.78.85.85,0,0,1,.93-.89C13.1,56.34,13.39,56.76,13.93,57.19Z"/><path class="cls-2" d="M57.61,4.67c.81,0,1.32.26,1.27.93a1.13,1.13,0,0,1-.59.77c-.23.11-.6-.05-.91-.09Z"/><path class="cls-2" d="M6.94,85c.76.1,1,.45,1,.95s-.18.84-.75.84-.93-.32-.86-.85C6.35,85.65,6.72,85.35,6.94,85Z"/><path class="cls-2" d="M60.23,80.36a4,4,0,0,1-1,.5A.73.73,0,0,1,58.4,80c.07-.32.6-.55.93-.82Z"/><path class="cls-2" d="M36.49,10.72c.31-.85,1-1.45,1.33-1.13a1.39,1.39,0,0,1,.33,1.18C37.92,11.39,37.41,11.35,36.49,10.72Z"/><path class="cls-2" d="M9.44,4.45c.11.77-.37,1.1-1,1.28-.42.12-.81.07-.92-.49s.22-.74.66-.78A12.26,12.26,0,0,1,9.44,4.45Z"/><path class="cls-2" d="M58.9,1.4l-1.06,1c-.24-.27-.67-.53-.67-.81a.91.91,0,0,1,1-1C58.36.7,58.55,1.05,58.9,1.4Z"/><path class="cls-2" d="M91,72.77c-.07.8-.38,1.13-.92,1-.22,0-.59-.52-.56-.58a9.45,9.45,0,0,1,.92-1.09Z"/><path class="cls-2" d="M22.34,21.72l-.62.9a4,4,0,0,1-.68-.37c-.26-.22-.89-.27-.42-.88s.72-.68,1.22-.23a4.39,4.39,0,0,1,.47.62Z"/><path class="cls-2" d="M37.93,80.29c-.41.4-.73.9-.9.85-.33-.09-.84-.53-.81-.76s.49-.65.76-1Z"/><path class="cls-2" d="M32.82,44.45c-.17.36-.26.83-.54,1s-.72-.17-.94-.41,0-.58,0-.89h1.33Z"/><path class="cls-2" d="M76.63,64.85c.88.12,1.3.44,1.1,1.25a.59.59,0,0,1-.9.39C75.92,66.07,76.8,65.44,76.63,64.85Z"/><path class="cls-2" d="M30.17,49a13.16,13.16,0,0,1,1,1.3s-.46.53-.57.49a2.62,2.62,0,0,1-1-.75C29.52,50,29.87,49.53,30.17,49Z"/><path class="cls-2" d="M9.68,55.69c.24.62.49,1.25-.31,1.51a1.07,1.07,0,0,1-.89-.56C8.26,55.69,9.13,55.9,9.68,55.69Z"/><path class="cls-2" d="M77.27,43c-.48.29-.79.6-.93.53a4.23,4.23,0,0,1-.9-.76c.28-.23.56-.64.84-.63S76.81,42.57,77.27,43Z"/><path class="cls-2" d="M28.76,43.28a8.76,8.76,0,0,1-.58-1.08c-.07-.18,0-.55.08-.62A1,1,0,0,1,29,41.5a.7.7,0,0,1,.35.57,6.28,6.28,0,0,1-.3,1.16Z"/><path class="cls-2" d="M52.65,68.32c-.41.33-.61.64-.82.65-.63,0-.79-.52-.78-1,0-.21.51-.62.57-.58A7.25,7.25,0,0,1,52.65,68.32Z"/><path class="cls-2" d="M41.34,88.47c.35.49.66.76.71,1.07s-.37.54-.62.59c-.48.09-.89-.17-.79-.73C40.68,89.14,41,88.93,41.34,88.47Z"/><path class="cls-2" d="M9.36,83.31c-.34-.5-.71-.8-.67-1s.46-.68.69-.67a1,1,0,0,1,.69.69C10.11,82.53,9.73,82.82,9.36,83.31Z"/><path class="cls-2" d="M29.66,59.16c-.25-.32-.57-.58-.53-.7.11-.29.45-.76.59-.73a3.13,3.13,0,0,1,1,.64Z"/><path class="cls-2" d="M24,10.45c.21.28.55.55.61.86.09.5-.32.76-.76.68a.82.82,0,0,1-.52-.6,2.49,2.49,0,0,1,.34-.9Z"/><path class="cls-2" d="M69.27,2.49A8.18,8.18,0,0,1,68.41,1c0-.12.59-.47,1-.82V2.41Z"/><path class="cls-2" d="M7.58,74.05l-.81-.8.78-.78c.24.25.58.46.67.75S7.89,73.67,7.58,74.05Z"/><path class="cls-2" d="M60.31,16.24c-.24.09-.57.32-.7.24a6.93,6.93,0,0,1-1-.95c.19-.16.49-.5.56-.46a10.25,10.25,0,0,1,1.15.89Z"/><path class="cls-2" d="M28.66,86.2c.35.49.68.76.7,1s-.34.49-.54.74a3.6,3.6,0,0,1-.73-.85C28,87,28.36,86.67,28.66,86.2Z"/><path class="cls-2" d="M56.43,49.44c-.24-.39-.52-.69-.46-.78a1.67,1.67,0,0,1,.78-.72c.15,0,.46.39.69.6Z"/><path class="cls-2" d="M83.57,63.53C84.08,65,84,65.09,81.91,65Z"/><path class="cls-2" d="M21.1,14.74a10.49,10.49,0,0,1-.76,1.08,1.11,1.11,0,0,1-.6-.39c-.1-.2-.06-.67.06-.73a4.31,4.31,0,0,1,1.12-.25Z"/><path class="cls-2" d="M54.23,5.44c-.07-.79.25-1.2.85-1.06.27.07.47.44.7.68a2.9,2.9,0,0,1-.69.36A4,4,0,0,1,54.23,5.44Z"/><path class="cls-2" d="M69.72,21.91c-.31-.42-1-.72-.47-1.39.11-.14.55,0,.84,0l0,1.4Z"/><path class="cls-2" d="M7.54,40.68c.32.09.73.08.93.29s.07.59,0,.85-.55.27-.58.23A9.1,9.1,0,0,1,7.31,41Z"/><path class="cls-2" d="M67.12,77.66c.17-.63.08-1.28.83-1.22.21,0,.59.4.57.58C68.43,77.86,67.74,77.5,67.12,77.66Z"/><path class="cls-2" d="M51.76,2.16c-.28-.39-.56-.61-.55-.82s.29-.45.46-.68l.81.67Z"/><path class="cls-2" d="M5.83,59.14c.29.41.62.74.57.84a1.18,1.18,0,0,1-.73.55c-.14,0-.49-.39-.5-.61S5.49,59.51,5.83,59.14Z"/><path class="cls-2" d="M72,31.17c-.58,0-1.14.12-1.26-.58,0-.15.3-.52.48-.53C71.87,30,72,30.5,72,31.17Z"/><path class="cls-2" d="M44.44,10.84l.87,1.09-.12.27c-.39-.05-.89,0-1.13-.2s0-.69,0-1.06Z"/><path class="cls-2" d="M10.71,38.17l1.14.77a4.92,4.92,0,0,1-1,.65c-.13,0-.56-.24-.55-.34A5.17,5.17,0,0,1,10.71,38.17Z"/><path class="cls-2" d="M41.39,61c-.46.32-.71.63-1,.67s-.5-.27-.75-.42a7,7,0,0,1,1-.66C40.75,60.56,41,60.79,41.39,61Z"/><path class="cls-2" d="M58.74,82c.41-.53.88-.67,1.33-.21a.79.79,0,0,1,0,.76C59.48,82.95,59.12,82.53,58.74,82Z"/><path class="cls-2" d="M19.55,62.3c-.47-.29-1.2-.27-.88-1a.83.83,0,0,1,.77-.27C20.12,61.27,19.78,61.75,19.55,62.3Z"/><path class="cls-2" d="M41.44,30.89c.16.39.34.78.46,1.18,0,.07-.21.33-.32.32-.46,0-.88-.21-.8-.79a2.54,2.54,0,0,1,.35-.7Z"/><path class="cls-2" d="M10.31,73.92c-.28-.37-.59-.63-.54-.74a1.27,1.27,0,0,1,.63-.67c.14,0,.63.36.61.5S10.66,73.51,10.31,73.92Z"/><path class="cls-2" d="M86.35,45.18c-.32-.37-.66-.6-.63-.77s.38-.59.55-.57.48.35.72.54Z"/><path class="cls-2" d="M78.07,54.07c.37.41.92.72.43,1.33a.68.68,0,0,1-.66.06C77.34,55,77.6,54.51,78.07,54.07Z"/><path class="cls-2" d="M90.74,89.22l1.4.39c-.16.26-.28.68-.5.74C91.05,90.5,90.82,90.08,90.74,89.22Z"/><path class="cls-2" d="M26.14,85c.35-.31.63-.66.71-.62a1.31,1.31,0,0,1,.64.65c0,.15-.33.58-.52.59S26.52,85.31,26.14,85Z"/><path class="cls-2" d="M16.87,43.26c.43.19,1.1.17.91.93,0,.17-.45.25-.69.37l-.53-1.15Z"/><path class="cls-2" d="M37.46,92.57c0,.59-.08,1.13-.82,1-.18,0-.48-.33-.46-.46C36.3,92.35,36.9,92.56,37.46,92.57Z"/><path class="cls-2" d="M58.59,44.64l-.81-.94.84-.43L59,44.4Z"/><path class="cls-2" d="M77,57.59l-.89-.78.62-.67.67,1.12Z"/><path class="cls-2" d="M20,48.34c-.15-.59-.16-1.1.53-1.23.16,0,.54.26.53.36C21,48,20.75,48.44,20,48.34Z"/><path class="cls-2" d="M46.44,13.07c.46.35.62.8.15,1.09-.29.18-.78,0-1.18,0l0-.25Z"/><path class="cls-2" d="M89.1,90.61c-.66.06-.93-.28-.91-.76s.36-.7.91-.51Z"/><path class="cls-2" d="M84.81,59.75l1.09-.95.27.16c-.07.33,0,.77-.25,1s-.62.1-.94.14Z"/><path class="cls-2" d="M76.63,27l.25-1.25c.28.11.76.15.81.33C77.91,26.75,77.34,26.82,76.63,27Z"/><path class="cls-2" d="M65.41,25.58c-.34.24-.57.53-.72.49a1,1,0,0,1-.6-.53c-.05-.14.23-.4.37-.61Z"/><path class="cls-2" d="M67.7,83.07c.34.36.71.62.67.72-.1.26-.38.44-.59.66-.19-.19-.48-.36-.54-.58S67.46,83.46,67.7,83.07Z"/><path class="cls-2" d="M59.37,18.61l-.85,1c-.42-.32-.88-.66-.4-1.12C58.28,18.3,58.83,18.54,59.37,18.61Z"/><path class="cls-2" d="M76.2,84.61l.29-1.2a3.62,3.62,0,0,1,.87.38.63.63,0,0,1-.08.57A5,5,0,0,1,76.2,84.61Z"/><path class="cls-2" d="M56.31,33.2a1.32,1.32,0,0,1,.44-1.86C57,31.65,57,31.65,56.31,33.2Z"/><path class="cls-2" d="M71.7,72.64l1.09.53-.55.61L71.42,73Z"/><path class="cls-2" d="M59.9,54c-.5-.35-.66-.74-.27-1.18.12-.13.53-.23.6-.15C60.76,53.3,60.14,53.6,59.9,54Z"/><path class="cls-2" d="M26.41,73.88c-.12-.21-.36-.43-.33-.62s.28-.42.44-.62c.18.19.47.36.52.58s-.19.43-.3.65Z"/><path class="cls-2" d="M16.11,73.77c-.26-.4-.54-.7-.49-.77a1.53,1.53,0,0,1,.69-.5c.08,0,.43.33.4.42A3.93,3.93,0,0,1,16.11,73.77Z"/><path class="cls-2" d="M64.41,3.66l-.73-.92c.27-.09.71-.32.77-.24a3.23,3.23,0,0,1,.38.93Z"/><path class="cls-2" d="M78.12,81.59a4.14,4.14,0,0,1,.71-.68c.06,0,.35.28.54.44l-.88.66Z"/><path class="cls-2" d="M21.71,16.56c-.42.21-.66.42-.88.41s-.34-.29-.52-.45c.19-.18.37-.49.58-.51S21.31,16.27,21.71,16.56Z"/><path class="cls-2" d="M30.32,11.22a3.45,3.45,0,0,1-.87,0c-.2-.05-.36-.27-.53-.42.2-.13.45-.41.6-.37a4,4,0,0,1,.91.58Z"/><path class="cls-2" d="M13.48,78.55l-.87.79-.38-.55.94-.64Z"/><path class="cls-2" d="M54.35,16.64l.22,1-.75.09v-1Z"/><path class="cls-2" d="M71.45,87.75l.75-.91.27.06a3,3,0,0,1-.17,1c-.07.13-.51.05-.78.07Z"/><path class="cls-2" d="M59.48,24.23l-.31,1.43c-.34-.36-.73-.66-.69-.75a4.54,4.54,0,0,1,.73-.89Z"/><path class="cls-2" d="M58.39,35.08l-.59.72-.66-.72.18-.2h.91Z"/><path class="cls-2" d="M14.14,14.54a11.7,11.7,0,0,1-.2-1.17c0-.05.29-.13.45-.19l.28,1.25Z"/><path class="cls-2" d="M84.09,84.13,83,84.22a2.1,2.1,0,0,1,.16-.82.63.63,0,0,1,.62-.07C84,83.5,84,83.81,84.09,84.13Z"/><path class="cls-2" d="M90.62,56.53l.49.79a5,5,0,0,1-.78.42c-.06,0-.34-.28-.32-.34A6.62,6.62,0,0,1,90.62,56.53Z"/><path class="cls-2" d="M81.54,86.1l-.67.7-.47-.64.87-.43Z"/><path class="cls-2" d="M23.86,40.15c-.4.63-.76.78-1.15.4-.1-.1,0-.44.06-.68Z"/><path class="cls-2" d="M68.75,93.62l-.57,1.11a3.3,3.3,0,0,1-.44-.35c.2-.35.44-.68.67-1Z"/><path class="cls-2" d="M76,34.1c-.3.27-.47.54-.61.52s-.39-.25-.59-.39c.15-.18.27-.48.45-.52S75.63,33.9,76,34.1Z"/><path class="cls-2" d="M10.53,7.81c0,.29.11.68,0,.84s-.55.12-1.09.21l.77-1.15Z"/><path class="cls-2" d="M61.94,10.36l-.6.57c-.14-.19-.4-.4-.39-.58s.29-.37.5-.47S61.71,10.13,61.94,10.36Z"/><path class="cls-2" d="M31.62,73.16l-.81,1-.28-.11L30.7,73Z"/><path class="cls-2" d="M21.67,56.26l-1,.32c0-.22-.14-.6-.09-.63a4.14,4.14,0,0,1,.88-.21Z"/><path class="cls-2" d="M16.34,39.06c.23.34.45.53.46.73s-.33.45-.39.42a1.08,1.08,0,0,1-.52-.5C15.85,39.6,16.11,39.38,16.34,39.06Z"/><path class="cls-2" d="M36.45,20.1l.84.65c-.14.12-.36.38-.41.35a6.38,6.38,0,0,1-.76-.62Z"/><path class="cls-2" d="M11.59,52.46l.72-.78a3.15,3.15,0,0,1,.33.52,6.49,6.49,0,0,1-.79.58Z"/><path class="cls-2" d="M21.08,72l.28-.87.64.28-.54.78Z"/><path class="cls-2" d="M41.44,22.2c-.23.05-.54.22-.67.13s-.28-.45-.41-.69l.21-.25.91.48Z"/><path class="cls-2" d="M9.94,22.6l-.26,1-.23.07a2.9,2.9,0,0,1-.32-.89c0-.12.4-.25.62-.37Z"/><path class="cls-2" d="M67.73,37.82l-1.38-.25.74-1Z"/><path class="cls-2" d="M53.24,34.12l-.47,1.59C52.23,34.93,52.12,34.47,53.24,34.12Z"/><path class="cls-2" d="M24,31.57l1.17.56C24.17,32.69,24.13,32.68,24,31.57Z"/><path class="cls-2" d="M46.65,85l1-.66.28,1.11Z"/><path class="cls-2" d="M45.38,85.41l-.79-.48c.13-.14.34-.42.39-.4a4.14,4.14,0,0,1,.69.5Z"/><path class="cls-2" d="M41.77,67.22l1.16-.53-.25,1-.9-.17Z"/><path class="cls-2" d="M31.08.84,31.51,0,32,.28l-.51.8Z"/><path class="cls-2" d="M80.49,3.18,81,2.25a3,3,0,0,1,.38.27c-.15.3-.34.58-.52.86Z"/><path class="cls-2" d="M8.08,42.87l1,.55-.68.73Z"/><path class="cls-2" d="M90.36,44.6h1.15C91.1,45.56,90.74,45.25,90.36,44.6Z"/><path class="cls-2" d="M3.57,16.87l-.64.76a2.92,2.92,0,0,1-.33-.33c.19-.26.42-.49.63-.73Z"/><path class="cls-2" d="M63,9.57a2.25,2.25,0,0,1,.71.28c.07.06-.1.39-.16.6L62.8,10Z"/><path class="cls-2" d="M48,23.39l-.57-.72.82-.26.05,1Z"/><path class="cls-2" d="M44.2,84.78l-.71-.64c.16-.1.39-.33.48-.29a2.69,2.69,0,0,1,.58.54Z"/><path class="cls-2" d="M21.88,18.82l-.49.76c-.14-.14-.42-.36-.39-.4a4.41,4.41,0,0,1,.55-.63Z"/></g></g></g></svg>