<svg xmlns="http://www.w3.org/2000/svg" viewBox="0 0 88 105.86"><defs><style>.cls-1{fill:#fff;}</style></defs><title>icon_play</title><g id="圖層_2" data-name="圖層 2"><g id="圖層_1-2" data-name="圖層 1"><path class="cls-1" d="M82.5,43.25c-1.91-1.24-3.83-2.45-5.75-3.67L60.64,29.34Q39.24,15.72,17.84,2.09c-5-3.21-9.28-2.13-12-.66A11.14,11.14,0,0,0,0,11.85Q0,26.91,0,42V63.79Q0,78.92,0,94a11.09,11.09,0,0,0,5.83,10.34,11.1,11.1,0,0,0,5.44,1.48,11.94,11.94,0,0,0,6.44-2L48.4,84.29l34-21.66a11.25,11.25,0,0,0,.07-19.39Zm-71.82,51q0-13.47,0-26.94V46.68q0-17.55,0-35.09a1.15,1.15,0,0,1,.25-.83.24.24,0,0,1,.18-.05h.1a3.79,3.79,0,0,1,1.17.58q11.09,7,22.14,14.07l13.31,8.47L76.71,52.19c.53.34.58.49.59.82,0,.12-.09.32-.64.67q-9.41,6-18.79,11.95L44.25,74.29,12,94.83a1.57,1.57,0,0,1-.79.33C10.89,95.08,10.68,95,10.68,94.29Z"/></g></g></svg>