<svg xmlns="http://www.w3.org/2000/svg" viewBox="0 0 352.26 520.37"><title>icon_happy</title><g id="圖層_2" data-name="圖層 2"><g id="圖層_1-2" data-name="圖層 1"><g id="jBIKer"><path d="M140.77,228.3c-14.7-5.79-29.59-11.11-44.31-16.85a25,25,0,0,1-8.23-5.31C73.37,191.53,58.71,176.74,44,162c-1.24-1.24-2.55-2.42-3.08-2.92L20.35,179.73c14.53,14.53,29.42,29.56,44.51,44.38A39.69,39.69,0,0,0,74.49,231q27.33,14,54.9,27.5c4.82,2.36,6.88,5.56,6.8,10.94-.5,33.79.89,67.6-2.85,101.35-3.93,35.42-6.63,71-9.85,106.47-.87,9.57-1.67,19.15-2.52,29h31.94c1.75-16.52,3.49-32.73,5.2-48.95q5-47.45,10-94.9c.49-4.59,3.63-7.53,7.77-7.64,4.32-.11,7.69,2.92,8.21,7.74q5.09,47.69,10.07,95.4c1.69,16,3.41,32.07,5.15,48.38h32c-.74-8.1-1.45-15.86-2.16-23.62q-4.3-47.27-8.59-94.55c-1.54-17.25-3.68-34.49-4.26-51.77-.74-22.31-.06-44.66-.26-67,0-5.42,2.08-8.55,6.87-10.89,18.83-9.21,37.56-18.64,56.26-28.13a29.24,29.24,0,0,0,7.21-5.19c14.23-14.05,28.33-28.23,42.46-42.38,1.24-1.24,2.39-2.58,2.87-3.1L311.31,159c-15.43,15.44-31.14,31.29-47,46.94a26.23,26.23,0,0,1-8.64,5.57c-14.56,5.69-29.31,10.92-43.85,16.66,0,0-15.65,5.53-31.82,5.53S140.77,228.3,140.77,228.3Zm92.34,51.35c-.08-.1,1.34,90.54,6.23,135.81l1.3,16.31c2.16,23.77,5.57,60.18,7.88,85.51a2.83,2.83,0,0,1-2.82,3.09H187a2.83,2.83,0,0,1-2.82-2.53c-2.17-20.85-5.4-53.44-7.46-73h-1.22c-2.06,19.57-5.27,52.13-7.46,73a2.83,2.83,0,0,1-2.82,2.53h-58.4a2.83,2.83,0,0,1-2.83-3l.78-10.76,6.5-71.13,1.08-15.19c5.53-49.7,9.95-98,7.19-147.53L100.71,262c-7.53-3.52-14.74-7.78-22.39-11-14.2-6-25.72-15.17-36.07-26.66A470.57,470.57,0,0,0,7.81,189.7c-9.25-8.34-10.29-11.58-3.08-18.8q13.77-13.8,27.56-27.58c6.24-6.22,9.56-6.18,15.91.16,16.46,16.43,32.88,32.91,49.44,49.24a20.74,20.74,0,0,0,7.16,4.6c17.87,6.83,35.74,13.67,53.81,19.91,4.53,1.56,9.82.9,14.75,1.34,11.51,1,22.3-1.28,33-5.74,13.65-5.7,27.72-10.38,41.54-15.69a19.48,19.48,0,0,0,6.68-4.33c16.58-16.34,33-32.81,49.52-49.24,6.38-6.35,9.66-6.39,15.89-.18q14.16,14.12,28.27,28.28c5.38,5.41,5.35,9-.08,14.45q-26.31,26.36-52.7,52.63a27.57,27.57,0,0,1-6.89,4.81c-14.67,7.45-29.42,14.76-45.12,22.6,0,0-10,1.52-10,4.52S233.11,279.65,233.11,279.65Z"/></g><path d="M172.11,124.68a30.1,30.1,0,1,1-30.1,30.1,30.14,30.14,0,0,1,30.1-30.1m0-20a50.1,50.1,0,1,0,50.1,50.1,50.1,50.1,0,0,0-50.1-50.1Z"/><rect x="138.25" y="25.8" width="68" height="16.4" transform="translate(206.25 -138.25) rotate(90)"/><rect x="31.2" y="63.95" width="68" height="16.4" transform="translate(95.08 -20.39) rotate(60)"/><rect x="245.03" y="64.95" width="68" height="16.4" transform="translate(481.9 -131.92) rotate(120)"/></g></g></svg>