<svg xmlns="http://www.w3.org/2000/svg" viewBox="0 0 467.85 468.73"><title>icon_dumbbell</title><g id="圖層_2" data-name="圖層 2"><g id="圖層_1-2" data-name="圖層 1"><g id="_401hBt" data-name="401hBt"><path d="M397.19,20.66c12.44-10.58,25.51-10.2,38.56-3.2,13.55,7.26,22.82,18.23,25.25,34,1.38,8.91-.83,16.95-7,23.55-2.25,2.4-2.25,4.05-.72,6.83C462.24,98,468.65,115,467.77,134c-.53,11.4-4.29,21.52-12.38,29.71-2.11,2.14-2.57,4-2.1,7,3.62,23.25-.76,43.92-19.14,60.43C425,239.41,416.37,248.3,408,257.32c-15.95,17.13-35.85,21.35-58,18.34-22.73-3.09-42.92-12.73-62-25-1.68-1.08-3.36-2.16-5-3.23-.13-.08-.32-.08,0,0l-41.19,41.2c.55.88,1.48,2.4,2.44,3.91,12,18.82,21.37,38.74,25.06,61,2.07,12.49,2.56,25.14-2.4,36.93A74.66,74.66,0,0,1,254,410.87c-9.75,10.92-20.59,20.86-30.92,31.27-10,10.07-22.31,15-36.17,15.94-6.76.45-13.61-.52-20.42-.69-1.88,0-4.28-.16-5.59.86-14.58,11.31-31.09,12.56-47.94,8-11-3-21.32-8.21-32-12.39-1.64-.64-3.54-1.72-5.07-1.4-18.79,3.93-42.3-13.44-48.06-34.2-.44-1.6-1.15-3.32-.95-4.87.82-6.19-2.47-10.61-5.67-15.34-10.84-16-19-33.2-20.9-52.81-1.3-13.59,1.27-26.13,9.8-37.2,1.09-1.41,1.27-4,1-5.91-2.34-17.67-1-34.6,9.53-49.77A39.89,39.89,0,0,1,25.11,247c10.21-10.29,20.74-20.28,30.67-30.83,15.15-16.09,34-20.83,55.08-18.48,26.9,3,50.14,15,71.91,30.29l3.81,2.68,38.62-38.85c-4.39-6.95-9.33-14.23-13.71-21.83-10.23-17.77-17.62-36.57-19.18-57.26-1.49-19.76,3.42-37.2,18.21-51.29,10-9.54,19.82-19.31,29.33-29.34C254.19,17,272,11.93,292.06,13.81c6.81.64,12,0,17.93-4.57C324.41-2,341.26-1.42,358.18,2.75,372.24,6.22,384.91,12.79,397.19,20.66Zm-104,203.9c9.16,8.43,31.84,20.73,47.4,24.44a106.42,106.42,0,0,0,27.08,3c15.59-.4,26.19-11.21,28.14-26.63,1.5-11.89-.53-23.36-4.81-34.28-19.88-50.67-55.62-86.51-104.26-109.89-12.25-5.89-25.31-9.34-39.09-8.92-16.06.49-27.22,8.79-30.38,23.16a57.28,57.28,0,0,0-1,16.35c1.08,14.51,6.1,28,13.08,40.55,5.51,10,11.85,19.47,18.1,29.63,12.24-12.27,23.59-23.54,34.81-34.93A20.35,20.35,0,0,1,301,140.95c12.2,1.89,21.08,8.85,27.47,19,6.52,10.33,7.7,22.89-3.72,33.36C313.83,203.26,303.71,214.1,293.24,224.57ZM87.11,429.75c15.57,8.85,29.66,15.79,46.28,14.53,10.41-.79,17.62-6.64,18.25-17,.48-7.93,0-16.61-2.77-23.92-15-39.63-42.82-67.19-81.94-83.05-6.74-2.73-14.54-3.65-21.9-3.87C33.23,316,26,322.84,24.51,334.49a43.65,43.65,0,0,0,.24,11.9C27,361.3,33.85,374.23,42.63,387c6.48-6.54,12.44-12.55,18.41-18.55a19.35,19.35,0,0,1,17.37-5.64c13.53,2,23.13,9.8,29.45,21.59,6.22,11.61,4.6,21-4.74,30.27C98.17,419.51,93,424.19,87.11,429.75Zm164-374c43,3.94,76.55,26.21,106,55.55s51.8,63.12,55.74,106.25c14.5-10.35,20.32-24,17-41.08-1.66-8.61-3.63-17.33-6.9-25.42-13.45-33.2-35.55-60-63.44-82-18.19-14.41-38-25.73-61.12-30.38C279.25,34.81,262.78,38.54,251.14,55.78ZM230.93,399.64c11.68-8.6,17.26-19.73,15.67-33.56-1-9-2.59-18.23-5.72-26.68-14-37.86-39.09-67.38-71.21-91.14-18.11-13.4-37.79-23.63-60.57-26.61C92.76,219.5,79,223.58,68.83,238a117.24,117.24,0,0,1,38.56,8.66C168.1,270.88,229.36,342.49,230.93,399.64Zm-56.93,33,1.07,1.55c3.81,0,7.65.3,11.44-.05,15.16-1.4,25.66-11.32,27.21-26.51a71.08,71.08,0,0,0-.7-19.82c-4.42-24-16.34-44.56-31.34-63.35-22.83-28.59-50.16-51.49-84.84-64.51-12.44-4.67-25.25-7.27-38.67-4.75-16.17,3-27.13,18.59-22.84,39.2,3.05-3.19,5.79-6.06,8.54-8.91,7.08-7.35,15.95-11.3,25.92-11.06,8.55.2,17.39,1.09,25.51,3.59,26,8,46.79,24.29,64.6,44.46,15.29,17.32,27.3,36.55,32.35,59.45,4,18.27,1.68,34.86-13.78,47.55C177,430.59,175.48,431.56,174,432.61ZM220.86,273.8c.32-.11.51-.12.6-.22q47-46.91,93.88-93.93c1.31-1.32,1.9-4.35,1.46-6.26-1.75-7.51-7.08-12.17-13.78-15.41-4.19-2-7.53-1.52-11.1,2.08Q248,204.4,203.74,248.41c-1.24,1.24-2.38,2.56-3.5,3.77ZM169.59,415.52c5.3-4,8.55-9.85,8.05-16.87-.52-7.39-1.21-15.06-3.62-22-9.85-28.33-28.6-50-52.53-67.52-12.35-9-25.73-16.09-41.05-18.46-10.57-1.64-20.61-.81-27.18,8.27C113.69,316.25,152.48,354.63,169.59,415.52ZM323.25,28.9c53.78,24.68,91.72,63.86,116,118,1.46-3.49,2.86-5.94,3.53-8.58,2.39-9.42.44-18.56-2.72-27.4-10.09-28.22-28.63-50-52.51-67.49C375,34.2,361.29,27,345.59,24.7,337.92,23.56,330.39,23.79,323.25,28.9ZM85.9,409.49c1.62-1.67,3.89-4.35,6.51-6.61,3.15-2.72,3.68-5.83,2.09-9.4-3.3-7.39-8.69-12.54-16.68-14.52-1.48-.37-3.72-.41-4.7.45-4.17,3.65-8,7.68-11,10.61Zm325.5-368L431.78,63c6.55-5.53,7.57-8.3,3.09-14.32a41.87,41.87,0,0,0-12.06-10.65C417.45,34.88,415.24,36.06,411.41,41.45ZM73,426.87c-.19-9-11.94-20.57-19.32-20.56-3,0-3.13,1.76-2.94,4,.65,7.47,11.18,18,18.78,18.41C70.8,428.75,72.19,427.29,73,426.87Z"/></g></g></g></svg>