<svg xmlns="http://www.w3.org/2000/svg" viewBox="0 0 423.33 512.4"><defs><style>.cls-1{fill:#bf1a20;}</style></defs><title>moveicon</title><g id="圖層_2" data-name="圖層 2"><g id="分離模式"><g id="X2DRdm"><path class="cls-1" d="M32.63,0c1.56,1.25,3.16,2.45,4.68,3.75q50.94,43.5,101.91,87a23.56,23.56,0,0,1,7.43,10.34c8.24,23.23,16.65,46.41,25,69.59q28.3,78.24,56.63,156.48c3.27,9.05,2,12.7-6.13,18.09a218.07,218.07,0,0,1-37.27,20.25c-2.19.91-4.39,1.53-3,4.93,5.47,13.6,10.53,27.38,18.25,39.95,18.28,29.73,43.69,41.31,78,35.68,22.31-3.66,43.62-10.71,64.69-18.66,7.11-2.68,13.52-.22,15.78,5.92s-.77,12.24-7.8,15a372.47,372.47,0,0,1-56.23,17.54c-17.5,3.89-35.1,5.79-53,2-27.08-5.74-46.07-22.15-60.19-45.1-8.33-13.55-14.44-28.15-19.88-43-1.38-3.76-3.11-4.76-7.06-3.63-6.55,1.88-13.28,3.13-19.95,4.59-6.19,1.35-6.27,1.42-4.23,7.55q13.36,40.06,26.75,80.11c3.22,9.64,6.6,19.23,9.55,28.95,2.73,9-4,16.6-12.85,14.86-5.27-1-7.5-5-9.05-9.64q-18.11-54.54-36.34-109c-3.62-10.8-1.55-9.07-12.56-9.1-9.88,0-12.22-1.49-15.41-10.75Q40.61,258.1.88,142.55a15.6,15.6,0,0,1-.73-7.37c1.66-12,3.24-24.08,4.84-36.12,3.83-28.87,7.7-57.73,11.43-86.62C17.1,7.18,19,2.85,23.63,0Zm117.5,191c3.32.07,4.63-1,3.34-4.49q-11.39-31.2-22.56-62.48c-1.35-3.8-3.1-3.38-5.87-1.62a176.89,176.89,0,0,1-57,23.32A197.42,197.42,0,0,1,32.87,150c-4.07.17-5.52,1.13-3.89,5.29,1.89,4.8,3.5,9.71,5.05,14.63,1,3.28,3.69,4.57,6.44,5.79,13.85,6.15,28.62,8.75,43.46,10.85A497.63,497.63,0,0,0,138.64,191C142.47,191,146.3,190.95,150.13,191Zm-37.22-87.44c3-1.84,3.15-3,.42-5.33q-36.53-31.1-72.9-62.4c-2.63-2.25-4-2.52-4.58,1.68C32.22,65.75,28.5,94,24.55,122.13c-.57,4.07.68,5.13,4.31,5,2.49-.12,5,0,7,0A159.85,159.85,0,0,0,112.91,103.58ZM78.19,298.43c1.07,3.23,3.48,4.72,6.32,5.89,11.62,4.81,23.83,7.3,36.17,9.35,25.53,4.24,51.32,4.81,77.09,5.81,2.95.11,3.57-.8,2.6-3.45-4.18-11.41-8.35-22.83-12.4-34.29-1-2.89-3-3.61-5.73-3.67-14.64-.32-29.28-.74-43.9-1.68-23-1.47-45.74-3.92-68-9.89-.78-.21-1.59-.26-3.1-.49C71,277.31,74.7,287.84,78.19,298.43ZM56.27,234.6c1.16,3.46,4.11,4.65,7,5.82,13.53,5.43,27.75,8.12,42.08,10.19,23.08,3.32,46.35,4.07,69.62,4.77,2.85.09,3.15-.84,2.31-3.16-4.18-11.4-8.37-22.8-12.43-34.24-1.08-3.05-3.12-3.83-6.1-3.93q-20.69-.71-41.37-1.71c-23.29-1.14-46.36-4-69-9.93-.79-.21-1.62-.29-3.32-.59C49,213.21,52.68,223.89,56.27,234.6Zm46.92,98.75c-3.26-.67-6.5-1.43-9.7-2.33-2.63-.74-4.07-.44-3,2.71,2.82,8.36,5.73,16.68,8.48,25.06,1.06,3.23,3.54,3.08,6.06,2.91a211.15,211.15,0,0,0,51.37-9.57,150.16,150.16,0,0,0,25.24-10.27C155.19,340.64,129,338.68,103.19,333.35Z"/><path class="cls-1" d="M359.66,383.89c-.23-4.15.37-8.32-.52-12.45-1.16-5.37-5.71-9.36-10.79-9.44a11.11,11.11,0,0,0-11.09,9.61,89.76,89.76,0,0,0,0,24.87,11,11,0,0,0,10.7,9.45c5.16.11,9.63-3.62,11-9.11C360.12,392.55,359.44,388.2,359.66,383.89Z"/><path class="cls-1" d="M359.8,489.43c-.18-2.84-.14-7-.77-11.11a10.84,10.84,0,0,0-11-9.52,10.71,10.71,0,0,0-10.77,9.79,92.26,92.26,0,0,0,.06,24.37c.8,5.84,4.93,9.23,10.52,9.36,5.87.14,10-3.19,11.31-9.14C360,499.07,359.47,494.89,359.8,489.43Z"/><path class="cls-1" d="M401.71,448.33c3.49,0,7,.08,10.48,0,6.12-.17,10.47-4.15,11.08-10,.56-5.4-2.92-10.89-8.59-11.75a83,83,0,0,0-26.3,0,10.66,10.66,0,0,0-8.77,11.63,11.18,11.18,0,0,0,11.12,10.08C394.39,448.44,398.05,448.33,401.71,448.33Z"/><path class="cls-1" d="M377.92,418.31c4.08-.17,6.54-1.41,8.62-3.49,4.7-4.71,9.48-9.33,14.08-14.14,5.21-5.44,5.41-11.7.74-16.42s-11.21-4.56-16.74.86c-4.87,4.77-9.73,9.55-14.42,14.51-3.45,3.65-3.8,8-1.73,12.51A10.4,10.4,0,0,0,377.92,418.31Z"/><path class="cls-1" d="M317.84,418.28c4.29-.13,7.79-1.81,9.83-5.69s2.31-8.4-.67-11.74a229.77,229.77,0,0,0-17.55-17.67c-4-3.64-10.09-2.94-14.15.73s-5.07,9.72-1.7,14a129,129,0,0,0,18.58,18.69A8.18,8.18,0,0,0,317.84,418.28Z"/><path class="cls-1" d="M378.52,456.47c-4.51,0-8.14,1.83-10.1,6s-1.94,8.4,1.11,11.74a223.7,223.7,0,0,0,17.29,17.2c4.47,3.92,10.91,2.91,14.8-1.41s4.18-10.38,0-14.88c-5.1-5.46-10.5-10.64-15.82-15.9A9.43,9.43,0,0,0,378.52,456.47Z"/></g></g></g></svg>