<svg xmlns="http://www.w3.org/2000/svg" viewBox="0 0 155.42 67.71"><defs><style>.cls-1{opacity:0.5;}.cls-2{fill:#f0f0f0;}</style></defs><title>pomo</title><g id="圖層_2" data-name="圖層 2"><g id="Layer_1" data-name="Layer 1"><g class="cls-1"><path class="cls-2" d="M129.11,55.37a6,6,0,0,0,1.91-.21s0-.06-.07-.08l-1,.11C129.68,55.22,129.32,55.16,129.11,55.37Z"/><path class="cls-2" d="M132.06,60.27c-.13-.15-.52-.06-.67,0C131.64,60.34,131.91,60.42,132.06,60.27Z"/><path class="cls-2" d="M127.38,59.57a.51.51,0,0,0,.54,0C127.83,59.38,127.43,59.36,127.38,59.57Z"/><path class="cls-2" d="M132,39.14c-.12-.24-.42,0-.34.22C131.81,39.39,131.89,39.26,132,39.14Z"/><path class="cls-2" d="M130.23,53.31c-.14-.33-.68-.06-.87.08C129.62,53.31,130,53.42,130.23,53.31Z"/><path class="cls-2" d="M123.34,53.75a1.7,1.7,0,0,0-.55.29C123,54.12,123.28,53.87,123.34,53.75Z"/><path class="cls-2" d="M123.62,52.7a.67.67,0,0,0-.48-.54c-.32-.06-.47.23-.67.39C122.4,53.23,123.59,53.41,123.62,52.7Z"/><path class="cls-2" d="M124.55,64.39c.2.23.7.48,1,.29C125.45,64.46,124.74,64.22,124.55,64.39Z"/><path class="cls-2" d="M128.59,46.82c.26-.21.65-.31.75-.68-.07,0,0-.07-.14-.07a33.94,33.94,0,0,0-3.08,2.34,1.59,1.59,0,0,0,.91-.35A19.44,19.44,0,0,0,128.59,46.82Z"/><path class="cls-2" d="M105.77,53.44c0-.1-.05-.13-.14-.17s-.05.06-.06.11S105.7,53.48,105.77,53.44Z"/><path class="cls-2" d="M122.57,63.36c-.08-.23-.7-.36-.84-.16C121.91,63.31,122.42,63.67,122.57,63.36Z"/><path class="cls-2" d="M122.16,64.75c.12-.26-.2-.26-.41-.33C121.66,64.65,122,64.77,122.16,64.75Z"/><path class="cls-2" d="M121.46,61.2c0,.05-.12,0-.12.09s.1.16.24.16S121.5,61.29,121.46,61.2Z"/><path class="cls-2" d="M133.16,43.35a.7.7,0,0,0,.52-.3A.41.41,0,0,0,133.16,43.35Z"/><path class="cls-2" d="M115.88,55s.05.1.16.11a.22.22,0,0,0,0-.18C116,54.87,115.93,54.94,115.88,55Z"/><path class="cls-2" d="M134.49,54.84c-.14,0-.26,0-.31.1C134.33,55,134.45,55,134.49,54.84Z"/><path class="cls-2" d="M122.63,55.78c-.09-.12-.23,0-.3,0C122.49,55.87,122.58,56,122.63,55.78Z"/><path class="cls-2" d="M122.47,66.06c-.34.15.47.86.62.48C123.17,66.35,122.68,66,122.47,66.06Z"/><path class="cls-2" d="M122.88,64.88a2.6,2.6,0,0,0,1.45,1C124.26,65.43,123.43,65.07,122.88,64.88Z"/><path class="cls-2" d="M135,55.38a6.29,6.29,0,0,0-1.5.1A3.47,3.47,0,0,0,135,55.38Z"/><path class="cls-2" d="M115.39,50.76c-.13-.1-.3-.41-.52-.3C115,50.62,115.19,50.9,115.39,50.76Z"/><path class="cls-2" d="M113.86,44.11c-.07.05-.24.27-.13.37C113.82,44.41,114,44.23,113.86,44.11Z"/><path class="cls-2" d="M115.3,42.27c-.05.05-.17.11-.12.22S115.38,42.34,115.3,42.27Z"/><path class="cls-2" d="M115,54.61c.11-.08.35-.35.26-.49A1.31,1.31,0,0,0,115,54.61Z"/><path class="cls-2" d="M107,50.29c0,.12,0,.22.19.24a.35.35,0,0,0,.08-.29A.23.23,0,0,0,107,50.29Z"/><path class="cls-2" d="M109.41,52.38c.07,0,.1,0,.14-.06s0-.06-.11-.06Z"/><path class="cls-2" d="M116.38,52c.05-.11-.13-.21-.21-.15S116.25,52.06,116.38,52Z"/><path class="cls-2" d="M109.45,47.44c.13,0,.22,0,.19-.14S109.42,47.36,109.45,47.44Z"/><path class="cls-2" d="M121.49,53.4l-.12,0c-.1.11-.08.33-.1.48C121.46,53.86,121.46,53.56,121.49,53.4Z"/><path class="cls-2" d="M108.28,48.66l.18,0s.05-.2,0-.27C108.29,48.35,108.24,48.51,108.28,48.66Z"/><path class="cls-2" d="M119.6,57c.22-.05.47,0,.62-.21a1,1,0,0,0-.59,0C119.61,56.88,119.57,57,119.6,57Z"/><path class="cls-2" d="M120.92,49.68s0-.06-.07-.08-.43.22-.46.41C120.59,49.92,120.81,49.9,120.92,49.68Z"/><path class="cls-2" d="M117,55.24a.58.58,0,0,1,.54-.36A.34.34,0,0,0,118,55c0-.1-.12-.1-.07-.21.25-.2.77-.17.82-.59a3.39,3.39,0,0,0-.94.47,7.32,7.32,0,0,0-1,.53C116.93,55.17,116.94,55.23,117,55.24Z"/><path class="cls-2" d="M119.13,50.86a.56.56,0,0,0,.05.39A.38.38,0,0,0,119.13,50.86Z"/><path class="cls-2" d="M120.51,41.67c-.08.11,0,.32,0,.44C120.65,42,120.71,41.7,120.51,41.67Z"/><path class="cls-2" d="M119.43,55.2c-.14-.14-.3,0-.36.15C119.24,55.39,119.4,55.39,119.43,55.2Z"/><path class="cls-2" d="M118.2,54.78c-.09.1,0,.1,0,.17s-.12,0-.13.12a1.4,1.4,0,0,0,.74-.43C118.57,54.56,118.44,55,118.2,54.78Z"/><path class="cls-2" d="M117.68,55.55a1.73,1.73,0,0,0,.76,0A.71.71,0,0,0,117.68,55.55Z"/><path class="cls-2" d="M111.54,60.54l0-.15c0-.07-.22-.06-.25-.13-.07.09-.26.24-.16.36C111.25,60.53,111.43,60.6,111.54,60.54Z"/><path class="cls-2" d="M112.22,66a3.93,3.93,0,0,1,1.32,1.17c.1.13.27.31.43.51h1.2c-.41-.5-.83-1-1.2-1.48Z"/><path class="cls-2" d="M115.11,61.13c.05-.18-.32-.37-.45-.22C114.72,61,114.95,61.24,115.11,61.13Z"/><path class="cls-2" d="M100,67c-.06.26-.27.46-.28.67h.34l.37-.05A.55.55,0,0,0,100,67Z"/><path class="cls-2" d="M113,62.09c-.06,0-.07.14-.09.23S113,62.14,113,62.09Z"/><path class="cls-2" d="M124.24,67.54l-.1.17h2.48l-2.6-.3Z"/><path class="cls-2" d="M123.11,66.83l-.1.46,1,.12C123.69,67.22,123.4,67,123.11,66.83Z"/><path class="cls-2" d="M110.46,67.56a.51.51,0,0,0-.62.15h.49Z"/><path class="cls-2" d="M40.42,38.16c.07-.13,0-.18-.14-.19S40.38,38.09,40.42,38.16Z"/><path class="cls-2" d="M25.23,38.21a1,1,0,0,0-.77.51C24.83,38.94,25.22,38.47,25.23,38.21Z"/><path class="cls-2" d="M35.68,42.94c.17.12.23.31.38.45.1-.09.18-.2.33-.19C36.47,42.81,35.91,42.87,35.68,42.94Z"/><path class="cls-2" d="M29.68,49.06c.06-.14,0-.22.07-.36s-.14,0-.17,0S29.63,49,29.68,49.06Z"/><path class="cls-2" d="M33.88,42.54c0-.09-.09-.1,0-.2s-.1,0-.18,0C33.66,42.44,33.77,42.49,33.88,42.54Z"/><path class="cls-2" d="M34.31,42.47c-.13-.1-.25-.08-.28.11C34.16,42.61,34.27,42.6,34.31,42.47Z"/><path class="cls-2" d="M35.1,39.74c0,.07.06.13,0,.23s-.32.44-.08.42c0-.1,0-.32.17-.27a.93.93,0,0,0,.15.38c-.3.18,0,.5.22.59a.16.16,0,0,0,0,.1c-.08.06-.21,0-.22.22.16,0,.22.12.35.09s0-.2,0-.21c.07.21.3.32.54.43-.17.21-.73-.22-.94-.13-.07.45-.52.58-.67.85.49,0,1,.52,1.42.19l.18,0c.31-.32,0-.54-.08-.87.3-.07.56-.25.51-.61s-.32-.36-.46-.5c0,.07-.29,0-.33-.06.1-.28.33-.34.46-.56-.14-.78-1.52-.83-1.82-.11.09.06.22.21.33.18C35,40,34.91,39.74,35.1,39.74Zm1.24,2.5c0,.16-.32.29-.46.19A1.39,1.39,0,0,1,36.35,42.23ZM35.91,40c.14,0,.25.07.2.21s-.19,0-.26-.07S35.91,40.1,35.91,40Z"/><path class="cls-2" d="M107.34,60.07c0,.1-.12.13-.14.28S107.38,60.15,107.34,60.07Z"/><path class="cls-2" d="M107.24,61.14a1.14,1.14,0,0,0-.17.27C107.16,61.42,107.34,61.19,107.24,61.14Z"/><path class="cls-2" d="M107.92,66.4a2.19,2.19,0,0,0,.8.18.5.5,0,0,0,0-.22c.1.05.13,0,.19,0,.1-.28.07-.49-.12-.6a.53.53,0,0,0-.14.28A.41.41,0,0,0,107.92,66.4Z"/><path class="cls-2" d="M107.69,60.38c-.07.24-.26.25-.35.47C107.56,60.9,107.69,60.57,107.69,60.38Z"/><path class="cls-2" d="M108.09,60.08c-.14,0-.34.2-.25.34A.83.83,0,0,0,108.09,60.08Z"/><path class="cls-2" d="M106.87,61.82c.21,0,.07.24.19.34a.58.58,0,0,0,.89-.51C107.53,61.61,107.07,61.5,106.87,61.82Z"/><path class="cls-2" d="M106.38,63.39c.05-.13,0-.2-.13-.22a.25.25,0,0,0-.05.2A.27.27,0,0,0,106.38,63.39Z"/><path class="cls-2" d="M107.28,54.1c-.08,0-.17-.06-.19,0S107.26,54.27,107.28,54.1Z"/><path class="cls-2" d="M106.62,61.91c-.09.2-.35.3-.36.5C106.45,62.39,106.6,62.08,106.62,61.91Z"/><path class="cls-2" d="M106.55,61.14c0,.06-.12.17,0,.21.27-.24.5-.53.75-.8,0,0-.11-.07-.12-.13-.19.25-.39.46-.59.69,0,0,0-.08,0-.09s-.11.09-.14.18S106.49,61.14,106.55,61.14Z"/><path class="cls-2" d="M110.36,63.64a.22.22,0,0,0-.08-.3A.33.33,0,0,0,110.36,63.64Z"/><path class="cls-2" d="M111.78,62c0,.08-.1.22,0,.27A.24.24,0,0,0,111.78,62Z"/><path class="cls-2" d="M110.6,61.7a2.86,2.86,0,0,0,.43-.89A2.83,2.83,0,0,0,110.6,61.7Z"/><path class="cls-2" d="M110.09,51.72c.15.08.22-.12.19-.23S110.05,51.61,110.09,51.72Z"/><path class="cls-2" d="M110.38,62.86c0-.17-.27-.14-.27.08C110.24,63,110.36,63,110.38,62.86Z"/><path class="cls-2" d="M109,61c-.12-.09-.21.13-.07.14S108.94,61,109,61Z"/><path class="cls-2" d="M106.61,66c0-.09.13-.2.08-.29C106.38,65.59,106.33,66.07,106.61,66Z"/><path class="cls-2" d="M110.19,63.32c0-.1.07-.2,0-.23S110,63.33,110.19,63.32Z"/><path class="cls-2" d="M106.37,64.23a.85.85,0,0,0,.23-.5C106.54,63.91,106.21,64.07,106.37,64.23Z"/><path class="cls-2" d="M99.57,43.86a.15.15,0,0,0,0,.2s.07,0,.1,0S99.67,43.84,99.57,43.86Z"/><path class="cls-2" d="M99.19,39.18c.13-.37-.27-.39-.3-.14S99,39.27,99.19,39.18Z"/><path class="cls-2" d="M97.64,31c-.09,0-.11-.1-.22-.12S97.59,31,97.64,31Z"/><path class="cls-2" d="M96.19,38.25a.18.18,0,0,0-.34.1c0,.07.13.11.25.13S96.18,38.37,96.19,38.25Z"/><path class="cls-2" d="M110.26,49.32c.06-.08.17-.25.13-.37l-.09,0C110.19,49,110.14,49.25,110.26,49.32Z"/><path class="cls-2" d="M97.65,45.51c-.27-.07-.37.41-.27.52C97.64,46.11,97.74,45.68,97.65,45.51Z"/><path class="cls-2" d="M102.29,40.86c.62-.43-.46-.76-.26-.1A.65.65,0,0,0,102.29,40.86Z"/><path class="cls-2" d="M100.75,48.07c.15,0,.24-.21.3-.42C100.94,47.18,100.49,47.9,100.75,48.07Z"/><path class="cls-2" d="M102.49,48.38q.2.09.27-.05a.23.23,0,0,0-.21-.15A.19.19,0,0,0,102.49,48.38Z"/><path class="cls-2" d="M100.83,49.63c.07-.09.18-.08.26-.15C101,49.44,100.73,49.54,100.83,49.63Z"/><path class="cls-2" d="M101.47,50.43c0,.09-.18-.09-.17.05S101.59,50.52,101.47,50.43Z"/><path class="cls-2" d="M43.48,67.71h.66a4.6,4.6,0,0,0-.5-.18C43.56,67.55,43.52,67.62,43.48,67.71Z"/><path class="cls-2" d="M51.38,54.75a.42.42,0,0,0,.26-.49c-.12,0-.3-.07-.38,0A.37.37,0,0,0,51.38,54.75Z"/><path class="cls-2" d="M50.24,56.79c.05-.45.71-.2,1.07-.24,0-.43-.41-.71-.22-1.16a.87.87,0,0,1-.43,0c-.1-.5-.64-.17-.89-.3.17.42-.36.73-.38,1.06S49.89,56.58,50.24,56.79Z"/><path class="cls-2" d="M50.46,57.14c0,.17,0,.33,0,.5s.14.17.29.2a.69.69,0,0,0,.15-.34A1.55,1.55,0,0,0,50.46,57.14Z"/><path class="cls-2" d="M52.16,54c-.19-.19-.48.06-.32.26A3.29,3.29,0,0,0,52.16,54Z"/><path class="cls-2" d="M49.31,55c-.28-.18-.51.08-.64.3a.49.49,0,0,0,.31.15C49.08,55.29,49.19,55.15,49.31,55Z"/><path class="cls-2" d="M46.38,63.88a.22.22,0,0,0-.3,0C46.23,64,46.33,64,46.38,63.88Z"/><path class="cls-2" d="M104.72,36.25c.27.07.37-.45.05-.43A.22.22,0,0,0,104.72,36.25Z"/><path class="cls-2" d="M57.1,59.61c.12.06.1-.14.21-.1s.21.47.54.43c0,0,0-.06,0-.05,0-.4-.33-.67-.33-1.09a.48.48,0,0,0,0-.64C56.78,57.72,56.57,59.39,57.1,59.61Zm.5-.46c-.07.28-.29.28-.51.27C57.17,59.21,57.36,59,57.6,59.15Z"/><path class="cls-2" d="M96.84,61.54a3,3,0,0,0,.54.08C97.46,61.32,96.86,61,96.84,61.54Z"/><path class="cls-2" d="M99.19,52.6c0-.12.05-.25,0-.29C99.15,52.41,99.1,52.55,99.19,52.6Z"/><path class="cls-2" d="M96.53,64.56c-.51,0-.54.71-.13.84C97,65.59,97.27,64.58,96.53,64.56Z"/><path class="cls-2" d="M63.85,65.17c-.27-.09-.52-.32-.71-.38a8.09,8.09,0,0,1,.51.89A4.47,4.47,0,0,1,63.85,65.17Z"/><path class="cls-2" d="M61.88,66.17c-.09-.08-.08-.22,0-.38a.39.39,0,0,1,.26,0c-.06-.36-.55-.82-.29-1.36-.41.12-.63.57-.93.88a.91.91,0,0,0-1.36.29c-.05.15.09.23,0,.37-.28,0-.46-.22-.7-.22s-.3.26-.5.36c-1.22-.16-1.47-1.08-1.83-1.81.28-.33,0-.86.15-1.24.22-.59.83-.75,1.23-1.2.13,0,.12.09.22.12.7,0,.29-1.33.14-1.69-.1.26,0,.67-.37.68a.29.29,0,0,1-.07.36c-.25,0-.24-.22-.27-.39a.12.12,0,0,1,.18-.08.72.72,0,0,0-.76-.55c0,.11-.09.19-.22.22s.2.11.26.2c-.1.05-.26-.06-.35-.09-.06.21,0,.35,0,.56-.27.16-.44.5-.67.73-.18-.07-.28-.29-.5-.35s-.65.09-1-.13a2.38,2.38,0,0,0-.08,2c.06.22.28,1.31-.16,1.28s-.47-.78-.53-1.05a4.84,4.84,0,0,1-.21-1.22.89.89,0,0,1,.08-.17c0-.32-.45-.59-.54-.9a2.48,2.48,0,0,0-1.21-.26s.13.32,0,.46-.19,0-.17-.17a6.9,6.9,0,0,0-.47.59c-.19-.21-.45-.63-.19-.93-.1-.05-.23.23-.42.17s0-.27.07-.48c-.09.09-.14.25-.28.24s0-.46,0-.71c-.34-.09-.17.43-.35.6a.48.48,0,0,1-.34,0c-.1-.12,0-.35-.17-.42s-.09.25-.11.41c-.33.17-.71-.17-.94-.35,0,.21.15.33.14.54a.78.78,0,0,1-.83.06c-.13.15,0,.3-.1.5s-.26,0-.43,0c.15.32.09.55-.34.57-.1.17.18.26.06.36s-.33-.18-.43,0,.27.16.3.3a.66.66,0,0,1,0,.27c0,.16-.21,0-.26.15s.34.28.2.53c0,.09-.12.13-.28.11a1,1,0,0,1,.36.63c0,.12-.13,0-.16.12.25-.08.47-.21.71-.31a.43.43,0,0,1,0-.34.48.48,0,0,1,.25,0c.05.1,0,.29,0,.41s.39.26.55.28c1.11-.74,1.91-2,3.19-2.43-.55,1.43-1.76,1.72-2.64,2.58,0,.29,0,.47.17.54s.39-.24.51-.14.09.24-.05.42.08,0,.15,0-.24,0-.36.06c0,.21.13.32.11.53.12.06.15,0,.26,0s0,.19.12.25.07-.1.17,0c0,.33-.29.36-.5.21,0,.6-.73.63-.53,1.08H59.27a1.45,1.45,0,0,1,.88-.31.61.61,0,0,1,.54.31h2.65a19.8,19.8,0,0,1-1-1.74A.35.35,0,0,1,61.88,66.17ZM48.81,63.72A1.9,1.9,0,0,1,47.56,63c-.16-.25-.31-.84.18-.89.14,0,.25.12.37.13s.43-.18.66-.13A.83.83,0,0,1,48.81,63.72Zm1.64-1.31c-.42.52-1.33-.31-.73-.92a.51.51,0,0,1,.38-.12A.63.63,0,0,1,50.45,62.4Zm2.22,3.39c.25,0,.59,0,.73.2C53.24,66.33,52.62,66.21,52.67,65.79Zm3.08-2.68c-.25-.1.2-.89.52-.77C56.3,62.48,55.9,63.17,55.75,63.11Z"/><path class="cls-2" d="M112.65,52.47c-.14-.07-.22.13-.19.23S112.68,52.57,112.65,52.47Z"/><path class="cls-2" d="M112.7,48.19c0-.14-.21-.26-.28-.26S112.51,48.24,112.7,48.19Z"/><path class="cls-2" d="M111.81,39.73s0-.05,0-.1-.33-.13-.38,0S111.74,39.92,111.81,39.73Z"/><path class="cls-2" d="M83.22,60.54c.4.22.72-.15.79-.73a1.76,1.76,0,0,0-.67-.31C83.19,59.84,82.89,60.35,83.22,60.54Z"/><path class="cls-2" d="M107.31,40.71c0-.18-.37-.32-.39.05A.2.2,0,0,0,107.31,40.71Z"/><path class="cls-2" d="M111.87,53.14c.1-.1.29-.06.37-.21C112.09,52.91,111.87,53,111.87,53.14Z"/><path class="cls-2" d="M112.45,47.71a.45.45,0,0,0,.3.18C113.05,47.66,112.55,47.4,112.45,47.71Z"/><path class="cls-2" d="M111.91,54.15a.15.15,0,0,0,.08.18.3.3,0,0,0,.2-.26C112.07,54.05,111.95,54,111.91,54.15Z"/><path class="cls-2" d="M113.12,52.91c.17.05.25,0,.33-.16C113.27,52.67,113.1,52.78,113.12,52.91Z"/><path class="cls-2" d="M111.3,52.82c-.09.14.14.18.21.15S111.41,52.83,111.3,52.82Z"/><path class="cls-2" d="M113,48.41c.08-.16-.13-.16-.15,0Z"/><path class="cls-2" d="M105.17,46.22c.11,0,.13-.24.09-.32A.18.18,0,1,0,105.17,46.22Z"/><path class="cls-2" d="M91,62.34a.46.46,0,0,0,0,.29C91,62.52,91.08,62.39,91,62.34Z"/><path class="cls-2" d="M110.63,51.45s.11,0,.11.06-.13.18-.1.26.31-.17.28-.33.25,0,.31-.1C111.09,51.15,110.76,51.34,110.63,51.45Z"/><path class="cls-2" d="M100.46,52.17a3.73,3.73,0,0,1-.27-.39C100.23,51.92,100.29,52.18,100.46,52.17Z"/><path class="cls-2" d="M101.89,57.13l.15,0c0-.08,0-.16,0-.17S101.9,57.05,101.89,57.13Z"/><path class="cls-2" d="M100,57.56a.24.24,0,0,0,.29-.27C100,56.86,99.62,57.46,100,57.56Z"/><path class="cls-2" d="M105.13,33.23a.33.33,0,0,0,.13-.47C104.84,32.54,104.73,33.19,105.13,33.23Z"/><path class="cls-2" d="M102.67,61.23a.59.59,0,0,0,.38.1C103.15,61,102.77,61.16,102.67,61.23Z"/><path class="cls-2" d="M93.23,49.68l0,.12a.17.17,0,0,0,.13,0C93.35,49.73,93.31,49.7,93.23,49.68Z"/><path class="cls-2" d="M92.06,66.84c-.4.73.89,1,.82.22a.09.09,0,0,1,0,.07C93.1,66.85,92.28,66.46,92.06,66.84Z"/><path class="cls-2" d="M112.32,54.13c.13,0,.35.12.41,0C112.6,54.13,112.4,54,112.32,54.13Z"/><path class="cls-2" d="M86.79,54.5c-.25-.05-.62,0-.66.23s.93.7,1,.19C87.23,54.71,87.09,54.57,86.79,54.5Z"/><path class="cls-2" d="M88.6,65.49c-.14,0-.28,0-.35.13A.51.51,0,0,0,88.6,65.49Z"/><path class="cls-2" d="M89.72,46.29c-.06,0-.09.16,0,.16S89.79,46.32,89.72,46.29Z"/><path class="cls-2" d="M91.64,67.23a.13.13,0,0,0,0-.17A.09.09,0,0,0,91.64,67.23Z"/><path class="cls-2" d="M89.15,67.15a.92.92,0,0,0,.4-.43C89.42,66.87,89.23,66.92,89.15,67.15Z"/><path class="cls-2" d="M114.18,8.22a3.84,3.84,0,0,0,.38-2.69,1,1,0,0,0-.3-.4c-.45-.23-.83.35-.94.69a2,2,0,0,0,.1,1.25C113.6,7.69,113.51,8.17,114.18,8.22Z"/><path class="cls-2" d="M119.57,14.07c1.11.3,2.14-1.21,2.48-2.22s.49-2.14-.11-2.51a.76.76,0,0,0-.38-.1,8.69,8.69,0,0,0-2.26,1.65C119,11.89,118.43,13.75,119.57,14.07Z"/><path class="cls-2" d="M82.62,3.49c.64.26,1.17-.4,1.37-.89A2.48,2.48,0,0,0,83.4.15,1,1,0,0,0,83,0c-.66-.08-1.17.63-1.21,1.46A2.76,2.76,0,0,0,82.62,3.49Z"/><path class="cls-2" d="M110.27,10.65c0-.13,0-.29.08-.42.21-.69.81-1.12,1-1.73a.87.87,0,0,0-.33-.06c-.57,1.07-1.54,1.44-2,2.73A1,1,0,0,0,110.27,10.65Z"/><path class="cls-2" d="M133.83,20.16a2.92,2.92,0,0,0-1,.2c0,.51.22.91.25,1.41C133.89,22.41,134.06,20.62,133.83,20.16Z"/><path class="cls-2" d="M122.17,19.06c.13-.52,0-1.19-.52-1.33a1.15,1.15,0,0,0-.93.19c-.14.12-.23.39-.38.59s-.18.15-.22.22a2.27,2.27,0,0,0,0,1.23C121.06,20,122,20,122.17,19.06Z"/><path class="cls-2" d="M105.43,19.16c.17.11.14.25.32.34s.21-.07.27,0a2,2,0,0,0,2,2.14c.17-.77,1.13-.8,1.41-1.5a4.23,4.23,0,0,0,0-2.51,2,2,0,0,0-1.75-1.07c-.1.12-.08.14-.22.13-.42,0-.1-1-.4-1.2a1.15,1.15,0,0,0-.62-.14c-1.05.08-1.8,1.6-2.42,2.36.19.22-.06.47-.26.49,0,.43-.12.74.08,1C104.3,19.74,105,18.86,105.43,19.16Z"/><path class="cls-2" d="M121.73,21.3a3.35,3.35,0,0,0-.16.46c0,.36.59.74.91.81a1.24,1.24,0,0,0,1.31-.65c.38-.87-.25-1.45-.55-2-.37.06-1,.12-1.22.46A2.84,2.84,0,0,0,121.73,21.3Z"/><path class="cls-2" d="M116.25,20.92c.07-.25.22-.35.29-.61-.3-.27-1.16-.39-1.31,0C115,20.86,115.72,21,116.25,20.92Z"/><path class="cls-2" d="M95,17.73c.14-.79.32-1.73-.42-1.93C94.61,16.51,94.39,17.36,95,17.73Z"/><path class="cls-2" d="M129.76,31.17a1.57,1.57,0,0,0,1.71-.54c.4-.81-.37-1.49-.7-2.07,0,0,0,0,0,0-.88-.21-1.19.56-1.62,1.13C129.17,30.27,129.17,31,129.76,31.17Z"/><path class="cls-2" d="M113,25.18c.09,0-.06-.06,0-.12s.19,0,.26,0c0-.29,0-.59-.45-.65-.06.22-.23.28-.23.5A.75.75,0,0,0,113,25.18Z"/><path class="cls-2" d="M103.28,24.26s0-.21.11-.28.22,0,.32,0c.3-.72.24-2-.65-1.9S102.33,24.14,103.28,24.26Z"/><path class="cls-2" d="M125.35,31.37a2.66,2.66,0,0,0,.29-1.08C125.08,30.23,124.89,31.12,125.35,31.37Z"/><path class="cls-2" d="M100.55,30.18a1.32,1.32,0,0,0,1.57-.93c.09-.58-.69-1.21-1.23-1.27C99.84,27.86,99.6,29.88,100.55,30.18Z"/><path class="cls-2" d="M148.46,44.65a1.49,1.49,0,0,0-1.28-1.32A2,2,0,0,0,148.46,44.65Z"/><path class="cls-2" d="M30.46,18c.1-.06.22-.07.28-.21a7.26,7.26,0,0,0-1.82-2c-.1,0-.21,0-.26.15A3.92,3.92,0,0,0,30.46,18Z"/><path class="cls-2" d="M148.05,59.56c0,.12.15.15.11.28a1,1,0,0,1-.23.38c.25.05.09.34.11.53.63.69,1.09,2.2,2.48,2.55a2.74,2.74,0,0,0,2.61-.49,2.26,2.26,0,0,0,1.57-.71,3,3,0,0,1-.1-.68c.38-.08.42-.77.82-.82-.28-1.45-.55-3.32-2.26-4a4.47,4.47,0,0,0-2.41-.15,2.5,2.5,0,0,0-1.51.6c-.17.24-.23.53-.39.74s-.39.35-.52.55A2.81,2.81,0,0,0,148.05,59.56Z"/><path class="cls-2" d="M39.45,29s0,0,0-.07a.26.26,0,0,0-.18,0,.19.19,0,0,0,0,.15C39.35,29.07,39.42,29.05,39.45,29Z"/><path class="cls-2" d="M27.9,27.48c.35.17.69-.21.77-.64C28.31,26.06,27.31,27.19,27.9,27.48Z"/><path class="cls-2" d="M34.43,32.47c0,.07-.15,0-.19.11.15,0,.19.16.21.28s-.16,0-.16.11.19.05.27,0c0,.25.24.37.42.52a3.1,3.1,0,0,0,1.1-.11c0-.33.37-.43.46-.66.17-.44-.27-1.1-.56-1.31-.11-.23-.13-.52-.31-.71-.26.12-.06.43,0,.62-.26,0-.36.21-.7,0-.06.11,0,.12,0,.2-.18,0-.25.11-.34.22s-.52-.16-.7-.09a.4.4,0,0,0-.08.29C34.08,32.14,34.37,32.24,34.43,32.47Z"/><path class="cls-2" d="M48,34.12s0-.06-.11-.06-.06.09-.08.17A.12.12,0,0,0,48,34.12Z"/><path class="cls-2" d="M42.23,33.66a.42.42,0,0,0,.09-.82A.42.42,0,1,0,42.23,33.66Z"/><path class="cls-2" d="M34.53,30.93l0-.15a.17.17,0,0,0-.13,0C34.44,30.85,34.43,30.92,34.53,30.93Z"/><path class="cls-2" d="M41.16,33.65c.3-.5-.45-1.08-.75-.92C40.47,33.13,40.61,33.71,41.16,33.65Z"/><path class="cls-2" d="M47.59,34.6c-.08.19,0,.29.16.33C47.95,34.81,47.84,34.55,47.59,34.6Z"/><path class="cls-2" d="M26.91,29.16l-.2-.05c0,.07,0,.08,0,.15a2.07,2.07,0,0,0,.25.13C27,29.33,26.92,29.24,26.91,29.16Z"/><path class="cls-2" d="M44.59,36.21c0,.19.11.27,0,.5l.26.07c-.13.3.14.33.36.32s0,.16.13.19a1.46,1.46,0,0,0,1.07-.37,1.28,1.28,0,0,1,.32-.6c-.25-.27-.16-.73-.5-.95-.22.15-.35-.12-.52-.17s-.37.12-.62.08a.5.5,0,0,0-.71-.63,1.64,1.64,0,0,0-.53.8A.8.8,0,0,0,44.59,36.21Z"/><path class="cls-2" d="M8.84,46.21c0-.35.29-.57.35-.82-.12-.41-.49-.81-.34-1.28.09.11.08.28.14.41.7.53.39,1.65,1.63,1.88A3.54,3.54,0,0,0,12.19,45a5,5,0,0,0,.89-1.67c.19-.7-.18-1.23-.06-1.87,1-.06,1.16,1,2,1.38l.28.11c1.1.33,2.38.11,2.76-.92a1,1,0,0,0,1.58,1,1.35,1.35,0,0,0,.17-1.33c-.28-.44-1.16-.43-1.49-.28a7.39,7.39,0,0,0,1.17-2.13c.19,0,.27.3.47.35s.59-.18.79-.26a2.11,2.11,0,0,1,.81-.22,6.66,6.66,0,0,1,.7.19c2.31.4,3.35-1.49,5.1-1.92-.1.24.51.83.7.41.05-.12-.06-.33-.09-.47-.21-.94.7-.8,1-1.47.39-1-.62-1.82,0-2.79-.93-.56-.53-2.21-1.25-2.94A1.34,1.34,0,0,0,26,30.13a.85.85,0,0,0-1.22,0c.18.64-.65.74-1.11.61s-.83-.55-1.17-.44c-.17.21.09.5,0,.64C20.93,31,20,32.15,19,33.36c-.37,0-1.25-.78-1.34-.27-.05.31.71.49,1,.59a3,3,0,0,0,.05,1.9c-.1.15-.29.15-.37.34.22.17.51.42.33.75a5.58,5.58,0,0,1-1-1.09c-.29.26-.5,0-.79-.12a5.66,5.66,0,0,0-1.84-.15c-1.72,0-3.38.67-3.95,2.32A2.65,2.65,0,0,0,12.27,41l-2-.55c-.27-.35-.58-.88-1.08-1-.15,0-.35,0-.53,0a2.28,2.28,0,0,0-.55-.15,2.41,2.41,0,0,0-1.78,1.25.16.16,0,0,0,.08.18c-.65.91.1,2.16.3,3-.53.17-.86.67-1.26,1.07a5.54,5.54,0,0,0-3.85.44,7.23,7.23,0,0,1,.22.81A1.44,1.44,0,0,0,.07,47.11a1.34,1.34,0,0,0,.72,1.73c1.15.47,1.8-.36,2.65-.51.63-.11,2-.17,2.37.39a4,4,0,0,0,1.85-.47,1.15,1.15,0,0,0,1.32,0C9.76,47.51,8.81,46.68,8.84,46.21Zm16.39-8c0,.26-.4.73-.77.51A1,1,0,0,1,25.23,38.21Z"/><path class="cls-2" d="M33.44,31.7c-.07,0-.07-.07-.17-.08a.26.26,0,0,0,0,.18A.13.13,0,0,0,33.44,31.7Z"/><path class="cls-2" d="M50.16,36.7c-.11-.06-.16,0-.19.11s.07.07.17.08S50.18,36.75,50.16,36.7Z"/><path class="cls-2" d="M9.63,27.32a2,2,0,0,0-.05-.61A.82.82,0,0,0,8.81,26a1.13,1.13,0,0,0-1.21,1C7.59,28,9.41,28.52,9.63,27.32Z"/><path class="cls-2" d="M56.22,40.06c.36-.7-.34-1.33-1.19-1.39-.16.21-.45.19-.76.14,0,.49-.09,1,.27,1.33S56,40.55,56.22,40.06Z"/><path class="cls-2" d="M66.83,42.92c-.37-.23-.68.75-.53,1A1.53,1.53,0,0,0,66.83,42.92Z"/><path class="cls-2" d="M118.47,56.83c-.17-.08-.24,0-.4,0,0,.15-.18.28-.1.38C118.24,57.24,118.29,56.92,118.47,56.83Z"/><path class="cls-2" d="M58.7,41.45a.63.63,0,0,0,0,.6C59.7,42.41,59.4,40.91,58.7,41.45Z"/><path class="cls-2" d="M49.94,39.15c-.08,0,0-.08-.1-.09s-.1.05-.11.16l.15,0C49.88,39.2,49.93,39.21,49.94,39.15Z"/><path class="cls-2" d="M47.76,39.07c.19.22.54.23.6,0s-.09-.14-.08-.3c-.23-.1-.34,0-.48.06A.65.65,0,0,1,47.76,39.07Z"/><path class="cls-2" d="M107.5,54.91c-.05,0,0-.1-.13-.1S107.46,55,107.5,54.91Z"/><path class="cls-2" d="M123.27,59.69c.15.18.45.09.68.15C124,59.57,123.33,59.12,123.27,59.69Z"/><path class="cls-2" d="M107.35,55.12c.14,0,0,.25,0,.35C107.64,55.5,107.55,55,107.35,55.12Z"/><path class="cls-2" d="M34.32,36.14c.17,0,.25-.22.33-.41C34.4,35.6,34.31,35.95,34.32,36.14Z"/><path class="cls-2" d="M35.52,37c.56-.79-.41-1.51-1-.83-.06.16,0,.25-.08.42a3.35,3.35,0,0,1,.42.52A1.36,1.36,0,0,0,35.52,37Z"/><path class="cls-2" d="M46.12,39.47c-.09,0-.18,0-.21.1a.16.16,0,0,0,.14.19c.11,0,.09-.17.19-.13,0,.25.24.32.38.32a.55.55,0,0,0,.49-.53.82.82,0,0,0-.31-.37A.49.49,0,0,0,46.12,39.47Z"/><path class="cls-2" d="M45,39.42c-.08,0-.18,0-.19.11l.18,0C45,39.49,44.94,39.48,45,39.42Z"/><path class="cls-2" d="M65,48.42c0,.31-.07.64.12.82l.59.16a.68.68,0,0,1,.07.43c.22.1.23-.23.44-.23s.28.26.46.28.28-.14.38-.15.33.12.48,0a1.36,1.36,0,0,0,.88.93c0,.82,1.39,1.51,1.79.57a2.32,2.32,0,0,0-.28-2.11,11,11,0,0,0-1.23-1.27.53.53,0,0,1-.15-.36c-.13,0-.21,0-.3,0a.63.63,0,0,1,.11-.41c-.26-.22-.3-.81-.8-.65-.87-.94-2.26-.1-2.67.82.17.24-.21.66-.06.92,0,.06-.1.08-.11.19S64.92,48.31,65,48.42Z"/><path class="cls-2" d="M41.4,39.9c.12,0,.23.05.29,0S41.44,39.8,41.4,39.9Z"/><path class="cls-2" d="M30.53,37.85c-.26-.17-.43-.4-.69-.56,0,.13.13.15.22.25S30.25,37.88,30.53,37.85Z"/><path class="cls-2" d="M40.68,40.8c.22.19.42.52.69.59C41.13,41.22,41,40.87,40.68,40.8Z"/><path class="cls-2" d="M36.1,40.23c.06-.14-.05-.18-.2-.21s-.06.07-.07.14S36,40.22,36.1,40.23Z"/><path class="cls-2" d="M118.51,63.77a.65.65,0,0,1,0-.27c-.27-.22-.31-.56-.57-.78-.24.16-.43.4-.81.32a.43.43,0,0,0,.21.37c.18,0,.25-.2.49-.09-.09.29.17.38.29.55A.7.7,0,0,1,118.51,63.77Z"/><path class="cls-2" d="M71.76,50.8a1,1,0,0,0-1,.63A1.08,1.08,0,0,0,71.76,50.8Z"/><path class="cls-2" d="M41,42.86c.08-.1.09-.28,0-.32C41,42.64,40.86,42.8,41,42.86Z"/><path class="cls-2" d="M50.11,45.38c0-.14,0-.31-.12-.38A.37.37,0,0,0,50.11,45.38Z"/><path class="cls-2" d="M40,42.37c0,.05.06.21.11.16S40.08,42.38,40,42.37Z"/><path class="cls-2" d="M41.11,42.7a.16.16,0,0,1-.06.11.13.13,0,0,0,.24-.06C41.24,42.67,41.2,42.74,41.11,42.7Z"/><path class="cls-2" d="M36.35,42.23a1.39,1.39,0,0,0-.46.19C36,42.52,36.36,42.39,36.35,42.23Z"/><path class="cls-2" d="M67.23,51.08a2.39,2.39,0,0,0-.91,1.39,1,1,0,0,0,.67-.38,1.67,1.67,0,0,0,1.23-1.21C67.79,50.62,67.6,51.21,67.23,51.08Z"/><path class="cls-2" d="M28.55,40.89a.4.4,0,0,0,.27-.08A.3.3,0,0,0,28.55,40.89Z"/><path class="cls-2" d="M32.77,41.9s-.13.18,0,.18S32.87,41.88,32.77,41.9Z"/><path class="cls-2" d="M48.09,46.47c.12,0,.15.1.29.11C48.64,46.3,48.11,46.05,48.09,46.47Z"/><path class="cls-2" d="M46.44,46.08a.39.39,0,0,0-.64-.3A.36.36,0,1,0,46.44,46.08Z"/><path class="cls-2" d="M57.95,49.81c.22-.59-.63-1.3-1.09-.86-.17.17-.17.36-.23.63.17.22.37.43.55.65C57.42,50,57.83,50.13,57.95,49.81Z"/><path class="cls-2" d="M47.24,46.71c0-.2-.26-.37-.56-.37,0-.14-.07-.18-.23-.19,0,.1-.06.1-.08.17s.18,0,.12.13-.12.07-.16.14A.46.46,0,1,0,47.24,46.71Z"/><path class="cls-2" d="M62.43,52.74a1.87,1.87,0,0,0,.71.28c.39-.29.91-.36,1-1A1.2,1.2,0,0,0,63.44,51a.91.91,0,0,0-1.28,1.25A5.33,5.33,0,0,1,62.43,52.74Z"/><path class="cls-2" d="M38.57,44.81c-.27-.16-.36.2-.13.25S38.56,44.92,38.57,44.81Z"/><path class="cls-2" d="M48.84,47.89c.05-.11-.09-.11-.18-.14S48.75,47.93,48.84,47.89Z"/><path class="cls-2" d="M118.32,66.74l.48.06a.55.55,0,0,1-.07-.15A1.47,1.47,0,0,1,118.32,66.74Z"/><path class="cls-2" d="M119.21,67.71h0l0,0Z"/><path class="cls-2" d="M46.5,47.82c.14,0,.38-.19.31-.23C46.73,47.7,46.56,47.66,46.5,47.82Z"/><path class="cls-2" d="M69.47,54.29c-.11-.4-.61-.33-.6,0S69.43,54.67,69.47,54.29Z"/><path class="cls-2" d="M25.43,43.18s.09.06.17.08c.27-.22.68-.19.91-.48A1.58,1.58,0,0,0,25.43,43.18Z"/><path class="cls-2" d="M30.55,43.84c-.29-.12-.4.39-.23.5A.52.52,0,0,0,30.55,43.84Z"/><path class="cls-2" d="M67.43,55.25A1.61,1.61,0,0,0,67.94,57c.24-.13.38.06.58.06a1.32,1.32,0,0,0,1-.73c.22-.67-.44-1.21-.79-1.62C68.25,54.84,67.64,54.71,67.43,55.25Z"/><path class="cls-2" d="M39.47,47.06c.14.09.28-.1.17-.17C39.61,47,39.46,46.88,39.47,47.06Z"/><path class="cls-2" d="M37.8,46.61c.07,0,.09-.19,0-.2S37.66,46.61,37.8,46.61Z"/><path class="cls-2" d="M37.17,46.75c.21.07.32,0,.38-.24C37.36,46.31,37,46.54,37.17,46.75Z"/><path class="cls-2" d="M44.88,48.49c-.13-.06-.17,0-.16.11S44.87,48.59,44.88,48.49Z"/><path class="cls-2" d="M47.27,49.51c.16.05.26,0,.3-.17a.81.81,0,0,1-.22-.12C47.28,49.31,47.23,49.38,47.27,49.51Z"/><path class="cls-2" d="M74.23,56.55c-.4,0-.58.65-.29.83C74.59,57.78,74.93,56.58,74.23,56.55Z"/><path class="cls-2" d="M39.24,47.22c-.06,0-.05,0-.11-.06s-.1.08-.11.19S39.22,47.35,39.24,47.22Z"/><path class="cls-2" d="M41.19,47.87a.36.36,0,0,0-.66.26A.37.37,0,0,0,41.19,47.87Z"/><path class="cls-2" d="M70.36,57A1,1,0,0,0,69.7,57c0,.08,0,.11,0,.19.32.34.59-.09.74-.05s.14.24.18.27a1.69,1.69,0,0,0,.6.22c.17-.22.42-.12.54-.36.4-.79-.6-1.51-1.16-1.07A.93.93,0,0,0,70.36,57Z"/><path class="cls-2" d="M54.74,51.83l0,.12c.23.22.47.55.8.62A1.07,1.07,0,0,0,54.74,51.83Z"/><path class="cls-2" d="M43.51,49.87a.2.2,0,0,0,0-.15l-.09,0C43.38,49.8,43.42,49.84,43.51,49.87Z"/><path class="cls-2" d="M68.85,57.2a1.82,1.82,0,0,0-1.15.19C67.94,57.65,68.88,57.64,68.85,57.2Z"/><path class="cls-2" d="M40.52,49.91c.15.08.45.23.46-.07C40.83,49.78,40.53,49.64,40.52,49.91Z"/><path class="cls-2" d="M67.25,57.65c.15,0,.28.06.35,0s-.06-.39-.39-.42C67.15,57.39,67.23,57.5,67.25,57.65Z"/><path class="cls-2" d="M46,52.52c-.15,0-.22.2-.26.4A.4.4,0,0,0,46,52.52Z"/><path class="cls-2" d="M68,58.95a.88.88,0,0,0,.58-.28A.35.35,0,0,0,68,58.95Z"/><path class="cls-2" d="M33.43,50.26a1.23,1.23,0,0,0-1-.41C32.56,50.14,33.07,50.28,33.43,50.26Z"/><path class="cls-2" d="M26.52,48.65a.28.28,0,0,0,.29-.14A.59.59,0,0,0,26.52,48.65Z"/><path class="cls-2" d="M68.11,60.29c.07-.32-.58-.65-.75-.83,0,0,0,0-.07,0C66.75,60.09,68,60.91,68.11,60.29Z"/><path class="cls-2" d="M57.6,59.15c-.23-.18-.42.06-.51.27C57.31,59.43,57.53,59.43,57.6,59.15Z"/><path class="cls-2" d="M69.88,64.44c.35-.54-.51-1.38-1-1.4s.06.74.2.9S69.51,64.49,69.88,64.44Z"/><path class="cls-2" d="M23.69,51c0,.26.45.4.68.4C24.6,51.05,23.94,51,23.69,51Z"/><path class="cls-2" d="M14.87,49c0-.38-.75-.46-1.08-.42A.93.93,0,0,0,14.87,49Z"/><path class="cls-2" d="M70.73,65.11c.18-.12.09-.42.06-.58l-.09,0C70.61,64.68,70.58,65,70.73,65.11Z"/><path class="cls-2" d="M55.75,63.11c.15.06.55-.63.52-.77C56,62.22,55.49,63,55.75,63.11Z"/><path class="cls-2" d="M70.19,66.4a7.84,7.84,0,0,1,.22.81,2.83,2.83,0,0,0,.09.49h.18A1.22,1.22,0,0,0,70.19,66.4Z"/><path class="cls-2" d="M19.09,53.8c.13-.55-1.31-1.09-1.78-1.29a9.38,9.38,0,0,0-2.57-.82c-.17,0-.25-.05-.35,0-.55,1,1.13,1.61,2,1.91C17,53.85,18.92,54.52,19.09,53.8Z"/><path class="cls-2" d="M26.83,55.32c-.07,0-.12,0-.13.15a3.56,3.56,0,0,0,1.95.68A4.32,4.32,0,0,0,26.83,55.32Z"/><path class="cls-2" d="M31.62,57.55c-.28-.39-1-.48-1.63-.59l-1-.22c-.33-.06-.82-.28-.91.13a9.21,9.21,0,0,0,2.27.55A5.33,5.33,0,0,0,31.62,57.55Z"/><path class="cls-2" d="M60.14,67.4a1.45,1.45,0,0,0-.88.31h1.42A.61.61,0,0,0,60.14,67.4Z"/><path class="cls-2" d="M12.81,60.7a.45.45,0,0,0,.27.26,9.6,9.6,0,0,0,2,.31,6.94,6.94,0,0,0,2,.18,16.5,16.5,0,0,0-2.89-.81C13.68,60.55,13.09,60.35,12.81,60.7Z"/><path class="cls-2" d="M70.25,67.36c0,.11-.05.23-.08.35h.22A1.9,1.9,0,0,0,70.25,67.36Z"/><path class="cls-2" d="M100,67a.55.55,0,0,1,.43.62l-.37.05h9.75a.51.51,0,0,1,.62-.15l-.13.15H114c-.16-.2-.33-.39-.43-.51A3.93,3.93,0,0,0,112.22,66l1.75.2-.57-.73c.2-.29,0-.49,0-.68-.07-.75.56-1.18,1-1.64.06,0,.16.08.18,0a6.14,6.14,0,0,0-1-2c-.21,0-.3.28-.5.34a1.92,1.92,0,0,0,.1-.5c-.36,0-.53.48-.59.78s0,.78-.09,1.14c0,.15-.16.26-.17.39,0,.29.35.58.19.93s-.42.16-.55.29-.1.44-.18.77c-.08,0-.11.1-.23,0a2,2,0,0,1,.14-.62c0-.23,0-.49.06-.7s.17-.46.22-.69c.15-.77-.26-1.36-.34-2-.06.15,0,.44-.16.49-.12-.19.15-.61,0-.81.34-.19.07-.67.23-.85-.11-.07-.29-.1-.39-.17a.35.35,0,0,0-.67-.18c0,.18.18.25.07.43-.09,0-.16-.11-.29-.08-.33.31,0,.75-.34,1,0,.07.14.2.06.24-.28-.21-.57-.43-.29-.89-.54-.14-.82.17-1.23.26a.93.93,0,0,0-.37-.82c-.15-.08-.3,0-.38-.1-.07.08-.07.27-.15.34-.08-.19-.23-.24-.17-.42s.31-.15.34-.32-.54-.51-.24-1c-.2-.09-.19-.31-.44-.37-.21.23-.13.67-.16,1-.72-.06,0-1,.2-1.2a4.72,4.72,0,0,0-.52-1.46c.13-.17.4-.09.51-.27a.31.31,0,0,0-.18-.27,1.85,1.85,0,0,1-.66.36.59.59,0,0,1,.18.14c-.17.06-.29.45-.47.34,0-.14.19-.28.15-.43-.5.37-.5-.17-.59-.5-.21-.07-.3.06-.46.07.07-.09.19-.11.23-.25a1.35,1.35,0,0,1,0-.84s.13,0,.18-.11,0-.1,0-.15a1.13,1.13,0,0,1,1.46.17c.18,0,.3-.16.47-.22a.4.4,0,0,1-.18-.36c.1,0,.14.13.15,0s.2-.23.18-.33c-.3-.24-.65.24-1,.07-.16-.07-.1-.23-.32-.31s-.18.28-.36.28c-.24-.2,0-.65-.2-.9s-.25.14-.37,0c.11-.23.27-.41.1-.6.22-.13,0-.35.15-.68.09,0,.25,0,.28-.11s0-.51.17-.64.09.15.2.08c.23-.47.94-.11,1.31-.33a.3.3,0,0,0,.13.32c.14,0,.28-.08.32.09.11-.06.13-.26.33-.16-.07.27-.41.21-.33.51.15,0,.57,0,.8.18-.13.11-.38.21-.39.4s.37.14.35.31-.21,0-.22.13c.34.62.75-.19,1.17-.16.12-.22.19-.52.45-.51a6.23,6.23,0,0,1,.24,1c.13-.24.28-.67.53-.58-.06.26-.35.46-.53.68.49,0,.48.37.84.48.11,0,0-.14,0-.15s.3-.11.43,0c-.14.23-.4.24-.6.37-.07.33.52.28.54.55,0,.08-.17.16-.12.22a.08.08,0,0,1,.1,0c-.12.1-.27.17-.32.38a2.52,2.52,0,0,0,1.15.62c.2-.05.17-.51.39-.52s.15.4.51.45c.23-.27.22-1,.58-1,.27.34-.5.68-.07,1,.37-.15.4-1.1.9-.89,0,.18-.15.15-.2.26.36.36-.79.53-.22.94a3.48,3.48,0,0,1,1.09-.8c.58-.7,1.13-1.43,1.75-2.07a3.78,3.78,0,0,1-.62.9,6.42,6.42,0,0,0-.7.85c0,.08,0,.19-.07.26s-.83.8-.33,1c.67.24,1.26-.52,1.79-.58-.31.37-.77.47-1.07.84.28.13.51.05.54.33s-.22.47.06.58c.11-.27.22-.55.34-.82a1.65,1.65,0,0,1,.7.44,2.87,2.87,0,0,1,.86-.05c.28,0,.74,0,.81.25-.14.24-.5.09-.67.29.08.2.44.25.64.2a.88.88,0,0,0,.5.36c.13,0,.16-.2.33-.16.09.3-.23.49-.06.8a4.86,4.86,0,0,0,1.92.9,9.87,9.87,0,0,1,2.2.56c.08.07-.15.12,0,.15s.53-.1.69.12-.08.2-.17.3a1.59,1.59,0,0,1,0,.57c-.46.16-.61-.46-.94-.57a3.48,3.48,0,0,0-.91.1,4,4,0,0,1-1,.06c-.14,0-.24-.12-.37-.13a1.21,1.21,0,0,0-1,.4,1.22,1.22,0,0,0,.53.58c-.1,0-.2,0-.29-.08-.14.33.11.43.17.64s-.19.16-.26.28c.08.22.28.38.22.69-.66-.35-1.1.1-1.48.48a7.36,7.36,0,0,1,1.46,3.44c.15.09.31.17.32.34s-.28.05-.43,0l-.32.13,2.1.25.1-.46c.3.2.58.4.9.58l2.6.3h3.83a.42.42,0,0,1-.05-.08,2.24,2.24,0,0,1,1.89-.49c0-.11-.12-.1,0-.23h.25a6.78,6.78,0,0,0,0-1c.17.12.15-.08.22-.13a1.1,1.1,0,0,1,.39.07c0,.13,0,.33.18.36a4.71,4.71,0,0,1-.08-.65,12.81,12.81,0,0,1,1.14-1.1c.1.17,0,.47,0,.69s.15.09.21.15A12.49,12.49,0,0,0,135,67c0,.13,0,.26.05.39a1.19,1.19,0,0,0,.17.34h1.51a1.52,1.52,0,0,0-1.17-1.2s0,0-.05,0c-.46-.3-.49-1-.94-1.29a8.53,8.53,0,0,0,0-1.15,2,2,0,0,1,1.41.82c.13.17.29.44.4.49.28.1.84-.21,1.07-.37,1-.66,1.72-1.63,2.94-1.72a8.46,8.46,0,0,1,.66-1.42c.1-.14.25-.21.32-.35a4,4,0,0,0,.2-1.92.9.9,0,0,0,.2-.38A9.34,9.34,0,0,1,140.57,57a3,3,0,0,0-.25-.6c-.66-.09-.67-.79-1.13-.93-.13,0-.33.06-.47,0s-.13-.23-.27-.29-.18.14-.32.13c-.75-.32-1.52-.62-1.51-1.38a4.17,4.17,0,0,1-1.74-1.22c-.23-.33-.25-.86-.92-.91-.49-.58-.23-1.11.15-1.75a7.51,7.51,0,0,1,1.73-2.11,1.61,1.61,0,0,1-.39-.64c-.1-.19-.35-.44-.35-.66a2.87,2.87,0,0,1,.18-.67,2.33,2.33,0,0,0-.06-1.4,1.65,1.65,0,0,1,1-1c.24-.13.88-.35.94-.56s-.2-.35-.33-.4a3.55,3.55,0,0,0-1.63,0c-.41-.46-1.16-1.2-1-2,.14-.56.7-.87.85-1.53-.68-.14-1.52.59-2-.09a2.31,2.31,0,0,1-.15-1.54c.11-.32.43-.49.47-.81s-.14-.47-.08-.65c-.58,0-1.24-.15-1.58.27-.65-.39-1.71-.55-2.26-.92-.1-.51.21-.87.12-1.25s-.67-.35-.58-.75a2.16,2.16,0,0,0-.86.4c-.76-.14-1.28-.16-1.87-.28-.88-.19-.37-1.17-.7-1.57a.75.75,0,0,0-.73-.1c-.34.16-.5.72-.86,1s-.58.2-1.05.19c.07-.14-.08-.15-.13-.22s.07-.41.06-.58c-1.09-.18-1.17,1.51-2.15,1.33-.8-.14-.67-1.3-1.28-1.41-.38-.07-.66.45-.82.72a.54.54,0,0,1,.13.69,4.85,4.85,0,0,1-1.61,1.79c.08-.14-.07-.15-.13-.22a8.18,8.18,0,0,1,.63-1.74,7,7,0,0,0,.45-1c0-.25-.11-.69-.29-.77-.61-.25-.86.64-1,1-.57-.13-.64-.89-1.26-.91-.31,0-.49.37-.83.4-.14.92-.15,1.76.9,2a6.88,6.88,0,0,0-.31.92c.1.05.24.12.25.25,0,.35-.61.86-.92,1.1a4.54,4.54,0,0,1-1.14.73c-.48,0-.66-.44-.7-.88-.32.17-.87-.05-1.11.27a1.12,1.12,0,0,1-.87-1.3,3,3,0,0,0,1-1.58.84.84,0,0,0-.63-.92c-.32,0-.83.5-1.18.78-.18.14-1,.88-1.15.88-.7,0-.63-.86-1.08-1,.48-1.17,1.74-1.28,2.52-1.89s.07-1.42-.54-1.59c-1-.28-1.65.69-2.32,1-.06,0-.06-.09-.16-.11A6.93,6.93,0,0,1,105,32.46c-.29-.08-1-.24-1.07-.7,0-.29.22-.56.26-1a6.49,6.49,0,0,0-.64-1.11c.08-.62.59-1.39.29-1.77,0-.09.12-.06.11-.19a1.72,1.72,0,0,0-1-1.35,9.66,9.66,0,0,0-.62,1.37c.26.23,0,.79-.11,1.23.8.56.15,2-.43,2.52-.64-.15-.5-.75-.88-1-1.08-.38-1.4.57-2,1-.12-.36-.71-.2-1.1-.36.23-.31.61-.51.66-.95s-.27-.7-.42-1a1,1,0,0,0-1,.54c-.37-.25-.56-.6-1-.82-.28.28-.54.28-.71.53-.45.67.11,1.46-.15,2.09a1.24,1.24,0,0,1-.32.38,1.76,1.76,0,0,1-1.58.3c-.75-.21-.67-1.09-1-1.58-.2-.33-1-.61-1.17-.19-.35.71.37,1.22.31,1.87,0,.31-.17.62-.4.68-.43-.5-.28-1.79-.78-2.34a1,1,0,0,0-1-.18c-.09-.05-.07-.17-.08-.27-.49,0-1.17-.79-1.62-.4a2,2,0,0,0-.44-.21,7,7,0,0,0,1,4.06c.16.28.4.55.24,1-.84.12-1.18.94-2.22.56-1.87-.67-1.84-3.21-3.38-4.11-.09,1.23,1.26,1.63,1.4,2.73.44.54.6,1.23,1.21,1.67,0,.2-.2.46-.16.71,0,.08.14.11.2.18-.3.52-.86.59-1.3.87-.18-.15-.11-.45-.35-.56l-.09.35c-1.1.31-2.2.61-3.25,1,0,.56.45.86.69,1.28a1.31,1.31,0,0,1,.18,1c-.09.21-.49.31-.73.4a3.53,3.53,0,0,0-.79.35,1,1,0,0,0-.38.49,2.68,2.68,0,0,0,.27.76,2.8,2.8,0,0,0,.59.94c-.23,1.13-.74,1.84-1.86,1.66-.19,0-.38-.15-.58-.19-.44-.07-1.45.29-1.53.66-.12.58,1.18.83,1.71,1.09a5.23,5.23,0,0,1,.6,3.7c-.11.56-.32.78-.65.89-.52.18-1.46-.12-1.17.75-.39,0-.52.61-.63.93.35.24.79.21,1.09.39s.28.56.43.84c-.41.13-.69.67-1.29.59a2.45,2.45,0,0,1-1.57-.68c-.18,0-.38.05-.56.1a1.83,1.83,0,0,0-.16.24c-.5.13-1,.24-1.51.38a8.91,8.91,0,0,0,1.5-.22,2.42,2.42,0,0,0,1.46,2.84c.62-.25.88-1.14,1.37-1.61.17.09.22.25.45.31s.06-.27.19-.23a.8.8,0,0,1,.59.38A11.18,11.18,0,0,1,77.58,58c-.55-.17-.71-.58-1.3-.54-.16.1-.23.37-.4.46-.62-.16-1.45-.49-1.47.23a4.94,4.94,0,0,0,1.61.43c.1.52.39,1.9,1,2.17.83.4,1.06-.71,1.18-1.35.47,0,.33.65.31,1.06a2.51,2.51,0,0,0-1.39.85c-1,1-1.82,2.23-2.68,3.2a3.74,3.74,0,0,0,0,.44.8.8,0,0,1,.21.15,3.8,3.8,0,0,1-.38,2.22,2.89,2.89,0,0,1,.13.41H99.76C99.77,67.5,100,67.29,100,67Zm12.94-5c.07.05,0,.23-.09.23S112.91,62.12,113,62.09ZM111.78,62a.24.24,0,0,1,0,.27C111.68,62.18,111.78,62,111.78,62Zm-.45-1.69c0,.07.22.06.25.13l0,.15c-.1.06-.29,0-.37.09C111.07,60.51,111.26,60.36,111.33,60.27Zm-.3.54a2.86,2.86,0,0,1-.43.89A2.83,2.83,0,0,1,111,60.81Zm-.67,2.83a.33.33,0,0,1-.08-.3A.22.22,0,0,1,110.36,63.64Zm0-.78c0,.15-.14.13-.27.08C110.11,62.72,110.35,62.69,110.38,62.86Zm-.22.23c.1,0,.06.13,0,.23S110.09,63.12,110.16,63.09Zm-3.56.64a.85.85,0,0,1-.23.5C106.21,64.07,106.54,63.91,106.6,63.73Zm0,2.29c-.29.05-.23-.43.08-.29C106.74,65.82,106.64,65.93,106.61,66ZM109,61c-.07,0,0,.1-.07.14S108.89,60.87,109,61Zm-.92-.88a.83.83,0,0,1-.25.34C107.75,60.28,107.94,60.08,108.09,60.08Zm-.14,1.56a.58.58,0,0,1-.89.51c-.12-.09,0-.36-.19-.34C107.07,61.5,107.53,61.61,107.95,61.64Zm-.88-.24a1.14,1.14,0,0,1,.17-.27C107.34,61.19,107.16,61.42,107.07,61.41Zm.62-1c0,.18-.13.52-.35.47C107.43,60.64,107.62,60.62,107.69,60.38Zm-.35-.31c0,.08,0,.29-.14.28S107.3,60.17,107.34,60.07Zm-.79.95s0,.06,0,.09c.2-.23.41-.44.59-.69,0,.06.08.09.12.13-.25.27-.48.56-.75.8-.1,0,0-.15,0-.21s-.05.11-.14.06S106.5,61.08,106.55,61Zm.07.9c0,.17-.17.48-.36.5C106.27,62.21,106.53,62.11,106.62,61.91Zm-.37,1.25c.14,0,.18.09.13.22a.27.27,0,0,1-.18,0A.25.25,0,0,1,106.25,63.16Zm1-9.07c0,.17-.14.07-.19,0S107.21,54.08,107.28,54.1Zm-1.66-.83c.09,0,.17.07.14.17s-.14,0-.2-.06S105.61,53.33,105.62,53.27ZM116,55.11c-.11,0-.11-.07-.16-.11s.09-.13.21-.07A.22.22,0,0,1,116,55.11Zm5.53,6.35c-.14,0-.22,0-.24-.16s.09,0,.12-.09S121.63,61.32,121.58,61.46Zm1,1.9c-.15.31-.66,0-.84-.16C121.87,63,122.49,63.13,122.57,63.36Zm-.41,1.4c-.2,0-.5-.1-.41-.33C122,64.49,122.28,64.49,122.16,64.75Zm.31,1.3c.21-.09.7.29.62.48C122.94,66.92,122.13,66.2,122.47,66.06Zm.41-1.17c.55.19,1.38.55,1.45,1A2.6,2.6,0,0,1,122.88,64.88Zm11.61-10c0,.14-.16.15-.31.1C134.23,54.81,134.35,54.81,134.49,54.84Zm.51.55a3.47,3.47,0,0,1-1.5.1A6.29,6.29,0,0,1,135,55.38ZM133.68,43a.7.7,0,0,1-.52.3A.41.41,0,0,1,133.68,43Zm-6.3,16.52c.05-.21.45-.19.54,0A.51.51,0,0,1,127.38,59.57ZM132,39.14c-.09.12-.17.25-.34.22C131.56,39.13,131.86,38.9,132,39.14Zm.08,21.13c-.14.15-.42.07-.67,0C131.54,60.21,131.93,60.11,132.06,60.27Zm-1-5.11a6,6,0,0,1-1.91.21c.21-.2.56-.15.86-.18l1-.11S131,55.14,131,55.16Zm-.79-1.84c-.24.1-.61,0-.87.08C129.55,53.25,130.09,53,130.23,53.31Zm-4.72,11.36c-.25.19-.76-.05-1-.29C124.74,64.22,125.45,64.46,125.51,64.68ZM122.79,54a1.7,1.7,0,0,1,.55-.29C123.28,53.87,123,54.12,122.79,54Zm-.16,1.75c-.05.18-.15.09-.3,0C122.4,55.77,122.54,55.66,122.63,55.78Zm-1.26-2.41.12,0c0,.16,0,.46-.21.45C121.3,53.7,121.27,53.48,121.37,53.37Zm-.86-11.71c.2,0,.14.35,0,.44C120.48,42,120.43,41.77,120.51,41.67Zm.34,7.93s0,.07.07.08c-.11.22-.34.25-.53.33C120.42,49.82,120.68,49.68,120.85,49.6Zm-.63,7.23c-.15.17-.4.15-.62.21,0-.05,0-.16,0-.24A1,1,0,0,1,120.22,56.83Zm-1.09-6a.38.38,0,0,1,.05.39A.56.56,0,0,1,119.13,50.86Zm.3,4.35c0,.19-.19.18-.36.15C119.14,55.22,119.3,55.07,119.43,55.2Zm-1.75.34a.71.71,0,0,1,.76,0A1.73,1.73,0,0,1,117.68,55.55Zm1.18-.9a1.4,1.4,0,0,1-.74.43c0-.09.07-.11.13-.12s-.14-.07,0-.17C118.44,55,118.57,54.56,118.86,54.64Zm-.09-.49c0,.42-.56.39-.82.59-.05.11.1.11.07.21a.34.34,0,0,1-.48-.07.58.58,0,0,0-.54.36c-.07,0-.08-.07-.13-.1a7.32,7.32,0,0,1,1-.53A3.39,3.39,0,0,1,118.78,54.15ZM116.38,52c-.12.06-.19-.07-.21-.15S116.43,51.89,116.38,52ZM115,54.61a1.31,1.31,0,0,1,.26-.49C115.37,54.26,115.12,54.53,115,54.61Zm.28-12.34c.08.07,0,.27-.12.22S115.25,42.32,115.3,42.27Zm.1,8.49c-.2.14-.44-.14-.52-.3C115.09,50.35,115.26,50.66,115.39,50.76Zm-1.53-6.65c.16.12,0,.31-.13.37C113.62,44.38,113.79,44.16,113.86,44.11Zm-6.65,6.42c-.17,0-.2-.12-.19-.24a.23.23,0,0,1,.27-.05A.35.35,0,0,1,107.21,50.53Zm1.25-1.83-.18,0c0-.15,0-.31.22-.22C108.51,48.51,108.5,48.67,108.45,48.7Zm1,3.67,0-.12c.06,0,.07,0,.11.06S109.48,52.4,109.41,52.38Zm0-4.94c0-.07.08-.19.19-.14S109.59,47.48,109.45,47.44Zm.64,4.28c0-.11,0-.31.19-.23S110.24,51.79,110.09,51.72Zm.18-2.4c-.12-.07-.07-.32,0-.4l.09,0C110.44,49.07,110.33,49.23,110.26,49.32Zm.65,2.12c0,.17-.1.39-.28.33s0-.25.1-.26-.07,0-.11-.06c.13-.11.46-.3.6-.12C111.17,51.45,111,51.36,110.92,51.44Zm.38,1.39c.11,0,.23,0,.21.15S111.21,53,111.3,52.82Zm.69,1.5a.15.15,0,0,1-.08-.18c0-.12.16-.1.27-.08A.3.3,0,0,1,112,54.33Zm-.12-1.19c0-.12.22-.22.37-.21C112.16,53.07,112,53,111.87,53.14Zm.45,1c.08-.11.28,0,.41,0C112.67,54.25,112.46,54.12,112.32,54.13Zm.32-1.67c0,.11,0,.31-.19.23S112.5,52.4,112.65,52.47Zm.48.44c0-.13.15-.24.33-.16C113.38,52.86,113.29,53,113.12,52.91Zm.17-2.15c-.2.24,0,.42.09.59s-.17.07-.29.14-.19.27-.34.32c-.48.16-.82-.3-1.1-.58a.5.5,0,0,0,.06-.46A.82.82,0,0,1,113.29,50.76ZM113,48.41l-.15,0C112.83,48.24,113,48.25,113,48.41Zm-.2-.52a.45.45,0,0,1-.3-.18C112.55,47.4,113.05,47.66,112.75,47.89Zm0,.3c-.19.06-.21-.17-.28-.26S112.73,48,112.7,48.19Zm-.9-8.55s0,.06,0,.1c-.07.19-.35.07-.39-.07S111.69,39.54,111.81,39.63Zm-4.49,1.08a.2.2,0,0,1-.39.05C106.94,40.4,107.31,40.53,107.31,40.71Zm-.41,2c0-.17-.17-.25-.13-.44.27-.08.55.33.76.08s0-.28.07-.36.23.12.36.16.18-.26.31-.32c.4.15.79,0,1.08.17s.2.64.51.8a2.14,2.14,0,0,0,.69-.82c.46.15,1,.25,1,.72s-.32.59-.53.92a4.5,4.5,0,0,1,.69,1.06c.26.06.54.12.46.38-.15,0-.37,0-.49.06-.06.32.27.42.35.66s-.14.17-.17.3.07.25,0,.32-.36.15-.42.29c-.17.4.59.63.7,1-.31-.26-1-.51-1.27-.87-.21,0-.36.05-.57,0a.92.92,0,0,1-.32.38c.48.49-.64.54-.16,0-.24-.18-.65-.31-.87-.14-.15-.1-.14-.3-.38-.35s-.16.26-.3.3a.71.71,0,0,1-.4-.36c-.13,0-.17.16-.32.13A4.45,4.45,0,0,1,107,46c-.13,0-.17.13-.35,0s0-.24,0-.4-.23-.46-.5-.6c.22-.36.2-.63-.1-.81,0-.2.2-.15.28-.24,0-.28-.25-.4-.37-.6C106.22,43,106.61,43,106.9,42.7ZM91,62.34c.1,0,.06.18,0,.29A.46.46,0,0,1,91,62.34ZM89.72,46.29c.06,0,0,.09,0,.16S89.66,46.32,89.72,46.29ZM88.25,65.62c.07-.12.21-.13.35-.13A.51.51,0,0,1,88.25,65.62Zm.91,1.53c.08-.23.27-.28.4-.43A.92.92,0,0,1,89.15,67.15Zm2.49.08a.09.09,0,0,1,0-.17A.13.13,0,0,1,91.64,67.23Zm1.28-.09a.09.09,0,0,0,0-.07c.08.73-1.22.51-.82-.22C92.28,66.46,93.1,66.85,92.92,67.13Zm.08-1.8c0,.1.19.09.2.18s-.15-.08-.25,0a.11.11,0,0,0,0,.17.29.29,0,0,0-.2.38.57.57,0,0,1-.2,0,.68.68,0,0,1-.08.29c0,.1.2.13.18.27-.12,0-.16-.14-.22-.22a1.31,1.31,0,0,0-.92.5c0-.06,0-.14-.11-.19a.49.49,0,0,1-.54,0c-.07,0,0,.16-.11.16s-.07-.19-.15-.26a.21.21,0,0,0-.21.07,1,1,0,0,0-.37-.38.54.54,0,0,0-.34.22c.19-.24.08-.73-.26-.67a.39.39,0,0,0-.24-.6c.15-.19.15-.51.37-.68,0-.11-.18-.07-.21-.15s.23-.08.3-.2-.07-.09,0-.19.16-.09.25-.12,0-.1,0-.18a.48.48,0,0,0,.31-.1c0-.11-.1-.12,0-.26a.77.77,0,0,1,.16.1.27.27,0,0,0,.15-.09c0-.13-.11-.18-.1-.31.12,0,.1.17.19.24.25.06.38-.08.46-.31.11.18.46.31.52-.05a.48.48,0,0,0,.83.29l-.13.15a.5.5,0,0,0,.25.35c.14-.09.24-.25.44-.23-.09.14-.25.13-.37.21a1,1,0,0,0,.12.35c.08,0,.11,0,.19,0s-.1,0-.12.09c.15.2,0,.57.43.62-.06.09-.2,0-.28.11S93.1,65.14,93,65.33Zm.2-15.53,0-.12c.08,0,.12,0,.09.12A.17.17,0,0,1,93.2,49.8Zm7,2a3.73,3.73,0,0,0,.27.39C100.29,52.18,100.23,51.92,100.19,51.78ZM102,57.17l-.15,0c0-.07.07-.08.1-.13S102.06,57.09,102,57.17Zm.63,4.06c.11-.06.48-.21.38.1A.59.59,0,0,1,102.67,61.23ZM104.25,56c-.14-.1-.32-.38-.55-.28a.84.84,0,0,0-.36-.5A1.5,1.5,0,0,1,104,54a1.2,1.2,0,0,1,1.25.59.31.31,0,0,0,.11.41C105.25,55.7,104.74,55.87,104.25,56Zm1-23.28a.33.33,0,0,1-.13.47C104.73,33.19,104.84,32.54,105.25,32.76Zm-.08,13.46a.18.18,0,1,1,.09-.32C105.3,46,105.28,46.18,105.17,46.22Zm-.4-10.39c.32,0,.22.49-.05.43A.22.22,0,0,1,104.77,35.83Zm-2.49,5a.65.65,0,0,1-.26-.1C101.83,40.1,102.91,40.44,102.29,40.86Zm0,2.92a.73.73,0,0,1,.38,0,.79.79,0,0,1,.46.16.88.88,0,0,1-.27,1.24C102,45.48,101.6,44.12,102.31,43.79Zm.44,4.54q-.07.14-.27.05a.19.19,0,0,1,.06-.2A.23.23,0,0,1,102.75,48.33Zm-1,1.74c.06-.48.39-.5.6-.72-.16-.74,1-.42,1.23-.74.05-.05.1.1.19.11s.19-.21.34-.22c.22.16.09.51.14.76.29,0,.64,0,.89.18s0,.82.38,1a3.7,3.7,0,0,1-.67,1.1c-.06.18.16.19.05.39,0-.07-.21-.08-.31-.11s-.16.09-.19.23c.14.09.34.15.47.25-.18.2-.46,0-.71,0a1.38,1.38,0,0,0-.85,0,2,2,0,0,0-.77-.52c-.17,0-.17.39-.45.26,0-.32.21-.51.23-.75,0-.42-.46-.41-.57-.78,0-.16.19-.11.2-.29S101.88,50.09,101.75,50.07Zm-.29.36c.13.09-.06.11-.17.05S101.45,50.51,101.47,50.43Zm-.63-.8c-.1-.09.13-.19.26-.15C101,49.55,100.9,49.54,100.83,49.63Zm.22-2c-.06.21-.15.37-.3.42C100.49,47.9,100.94,47.18,101.05,47.65ZM99.91,38.5a.56.56,0,0,1,.54.8.58.58,0,0,1-.73.27A.56.56,0,0,1,99.91,38.5Zm-.72.68c-.16.09-.32,0-.3-.14S99.33,38.81,99.19,39.18Zm-.6,1.88c.2-.56.89-.6,1.48-.48a.92.92,0,0,1,.66.81,1.72,1.72,0,0,1,0,.79c-.12.35-.47.25-.64.61a4.13,4.13,0,0,1-.82,0A1.55,1.55,0,0,1,98.59,41.06Zm1.08,6.59a.76.76,0,0,1-.13-1.51C100.45,46.13,100.49,47.59,99.67,47.66Zm-.11-3.79c.11,0,.19,0,.14.17s-.08,0-.1,0A.15.15,0,0,1,99.57,43.86Zm-2.14-13c.11,0,.13.09.22.12S97.35,31,97.42,30.87Zm.23,14.64c.09.17,0,.6-.27.52C97.28,45.92,97.38,45.44,97.65,45.51Zm-1.46-7.26c0,.12-.07.13-.09.23s-.22-.06-.25-.13A.18.18,0,0,1,96.19,38.25Zm-.83.87c.39-.77,1.74-.42,1.87.41a1.28,1.28,0,0,1-.59,1c-.29-.14-.35.13-.62.08A1.13,1.13,0,0,1,95.35,39.12ZM99.19,52.6c-.08-.06,0-.19,0-.29C99.24,52.36,99.21,52.49,99.19,52.6Zm0-.76c0-.11-.22-.11-.19-.24-.15,0-.17-.08-.24-.16s-.08.1-.13.12,0-.17-.06-.24l-.2-.05a.69.69,0,0,1,0-.19c-.08,0-.07,0-.12,0a.81.81,0,0,0,0-.26c-.08,0-.11,0-.19,0s.09-.06.11-.16,0,0,0-.07-.18,0-.29,0c.05-.11.2,0,.26-.15s0-.08,0-.15c-.21.3-.73.09-.75-.23.07-.51.49-.4.78-.32a.37.37,0,0,0,.18-.55c.07.21.26.08.39,0,0-.13-.15-.23-.11-.4.09.07.07.21.11.31s.26,0,.29-.14c.09.11.49.14.53-.11.09,0,0,.18.09.24.11-.11.32.1.41-.11.08.06-.1.14,0,.21.19-.12.09.23.31.15a.14.14,0,0,1,0,.2c.21.19.28,0,.43,0-.37.09-.2.65,0,.85,0,.06-.13,0-.14.06a.29.29,0,0,0,0,.2l-.13.15c0,.06.06.08.09.12s-.14,0-.21.07.05.1,0,.19a.36.36,0,0,0-.33.19c0,.14.13.17.1.31a.36.36,0,0,0-.46-.16l0,.18A.3.3,0,0,0,99.14,51.84Z"/><path class="cls-2" d="M43.64,67.53a4.6,4.6,0,0,1,.5.18h4.58c-.2-.45.51-.48.53-1.08.21.15.48.11.5-.21-.1,0-.07.11-.17,0s-.05-.18-.12-.25-.14.08-.26,0c0-.21-.13-.32-.11-.53.12,0,.3.06.36-.06s-.14.05-.15,0,.16-.34.05-.42-.32.21-.51.14-.15-.26-.17-.54c.88-.86,2.09-1.15,2.64-2.58-1.28.43-2.09,1.7-3.19,2.43-.16,0-.5-.07-.55-.28s.07-.3,0-.41a.48.48,0,0,0-.25,0,.43.43,0,0,0,0,.34c-.24.1-.46.23-.71.31,0-.08.15,0,.16-.12a1,1,0,0,0-.36-.63c.17,0,.23,0,.28-.11.13-.25-.13-.36-.2-.53s.23,0,.26-.15a.66.66,0,0,0,0-.27c0-.14-.33-.13-.3-.3s.37.17.43,0-.16-.19-.06-.36c.43,0,.49-.24.34-.57.17.05.34.11.43,0s0-.36.1-.5a.78.78,0,0,0,.83-.06c0-.21-.15-.33-.14-.54.23.17.61.52.94.35,0-.16-.06-.37.11-.41s.07.31.17.42a.48.48,0,0,0,.34,0c.18-.17,0-.69.35-.6-.08.25-.24.57,0,.71s.19-.15.28-.24c0,.22-.18.31-.07.48s.32-.22.42-.17c-.26.3,0,.72.19.93a6.9,6.9,0,0,1,.47-.59c0,.14,0,.17.17.17s.06-.43,0-.46a2.48,2.48,0,0,1,1.21.26c.09.31.5.58.54.9a.89.89,0,0,0-.08.17,4.84,4.84,0,0,0,.21,1.22c.07.27.25,1,.53,1.05s.21-1.05.16-1.28a2.38,2.38,0,0,1,.08-2c.32.23.69.05,1,.13s.32.28.5.35c.23-.23.4-.57.67-.73.05-.21,0-.34,0-.56.09,0,.25.15.35.09-.06-.08-.32,0-.26-.2s.26-.12.22-.22a.72.72,0,0,1,.76.55.12.12,0,0,0-.18.08c0,.16,0,.35.27.39a.29.29,0,0,0,.07-.36c.37,0,.27-.43.37-.68.15.35.56,1.65-.14,1.69-.1,0-.09-.11-.22-.12-.4.45-1,.61-1.23,1.2-.14.39.13.92-.15,1.24.36.73.62,1.65,1.83,1.81.2-.1.25-.36.5-.36s.41.25.7.22c.09-.14,0-.22,0-.37a.91.91,0,0,1,1.36-.29c.3-.31.52-.76.93-.88-.26.55.23,1,.29,1.36a.39.39,0,0,0-.26,0c-.06.16-.07.3,0,.38a.35.35,0,0,0,.4-.21,19.8,19.8,0,0,0,1,1.74h5.26a.33.33,0,0,1-.1-.1,2.45,2.45,0,0,0,.33-.76c.15.12.4.32.56.12,0-.27-.33-.35-.48-.54.12-.19-.08-.36-.07-.55s.2-.5.28-.8a1.38,1.38,0,0,0,.34.25,3,3,0,0,0-.57-1c-.4.16,0,.53.12.72-.87-.39-1.33-1.22-2.51-1.27.12-.16.2-.39.35-.5-.22-.56-.22-1.24-.91-1.53-.16.21.2.56.17.64s-.4.16-.52.3a.83.83,0,0,0,.16,1.14,3,3,0,0,0-1.63.94c-.23-.43-1.43-.76-1.41-1.29a1.06,1.06,0,0,1,.87-.89.44.44,0,0,0,.81,0c.1-.25-.11-.58,0-.73s.35,0,.54,0c.24-.29-.17-.39-.4-.49.25-.24,0-.54-.12-.72.06-.06.21,0,.24-.09s-.09-.23,0-.28a3.89,3.89,0,0,0,1.06.13c.16.08.12.28.39.29,0-.18-.27-.16-.22-.34a1.83,1.83,0,0,0,.23-.63c-.32-.24-.71-.45-.52-1,.29-.14.8,0,.86.29.17-.1.4-.08.58-.16a7.76,7.76,0,0,0-.67-.78c.37-.65,1.11-1.2.28-1.74-.33.22-.74,0-.95-.32.15,0,.27,0,.28-.24a5.51,5.51,0,0,1-.28-.83c.78-.36-.77-1.3-1.07-1.51-.14,0-.15.14-.3.08-.16-.27-.51-.08-.72-.23-.11.12-.21.27-.37.31s-.07-.17-.23-.19c0,.4-.37.39-.39.65-.17-.08-.19-.24-.35-.32s-.15.19-.3.17c.09-.64-.25-1.46-1.06-1.41-.16,0-.29.17-.51.14a1.38,1.38,0,0,0-2,.68c.13,0,.3-.08.37,0-.55.75-2.16.41-2,1.84,0,.14-.22.07-.25.25s.15.1.17.17c-.88.63.74,1.33.73,1.83a.36.36,0,0,1-.68.19c.5-.67,0-1.17-.66-1.15,0-.12.09-.15.11-.29-.13,0-.31-.06-.33-.18.69-.06,0-1.1.06-1.49.38-.16.76-.31,1.13-.48-.14-.14-.36.12-.48,0,.18-.72-1-.7-.77.07-.16.06-.48.21-.61.05s0,0,0-.07c0-.2.31-.08.36-.28s-.27.22-.35.13c0-.24.29-.23.26-.4-.53-.16-.94.41-1.36-.08-.31.24-.86,0-1.25.1-.17,0-.24.22-.38.15-.43-.48.36-.45.54-.61,0-.26-.31-.35-.27-.64.45,0,1.19-.69.75-1.15-.16-.17-.49-.17-.71-.29,0-.09.15-.15.1-.25s-.23,0-.39.05a1.49,1.49,0,0,1-1.09-.61c-.56.23-.51-.38-.57-.69-.33,0-.29.31-.58.28-.13,0-.18-.14-.33-.18s-.27,0-.44,0-.13-.21-.27-.26c-.09.17-.32.11-.46.19s0,.18-.08.2c-1,0-1.77,1.5-1.72,2.77-.2.14-.89.25-.51.61.21,0,.3-.23.53-.2.3.29.23.81.17,1.24.17.13.45-.1.56.15-.28.5-1,.12-1.34-.27s-.32-.85-.82-.79c-.19.16-.21.41-.46.41-.49,0-.74-.92-1.22-.58.12.57-.56.83-1.09.8-.12-.29-.63-.41-.46-.87.08-.22.42-.25.54-.48s.11-.5-.1-.56-.55.76-.85.71c-.37-.25-.51-.87-.94-1s-.65.21-1.11.17a3.07,3.07,0,0,1,.63-1.77c-.21-.12-.49-.3-.48-.54s.12-.25.13-.37a1.05,1.05,0,0,0-.64-1,2.22,2.22,0,0,1-.37-.13c-.14-.1-.18-.47-.35-.56-.39-.21-1.24.24-1.72-.12a3.65,3.65,0,0,0-2.07,2.11c-.09.36.27.63,0,1,.35.68.52,1.47,1.24,1.93.41-.23,1.1.06,1.08.54a1.08,1.08,0,0,1-.12.31c-.14.38-.23.66-.37,1a5.78,5.78,0,0,0-.34.79c-.05.39.39.71.51,1a3.21,3.21,0,0,1,.18,1c.4-.12.64.22.75.48.6-.17.9.4,1.21.73,0-.32.23-.49.45-.28-.26.59-1.4.75-2,.62-.41-.09-.72-.45-1.12-.49.6.76,1.7,1.47,1.79,2.43a.79.79,0,0,1,0,.4c-.07.14-.33.15-.37.34s.18.25.16.36c-.5-.06-1-.13-1.54-.23a.55.55,0,0,0-.09.45c1.7.45,2.85,1.42,2.92,2.89a3.11,3.11,0,0,1,1.18,1.45c.11,0,.2-.08.27,0s0,.17-.08.29c.53.36.91.82,1.43,1.19h1.46C43.52,67.62,43.56,67.55,43.64,67.53Zm13.88-9.37a.48.48,0,0,1,0,.64c0,.43.29.69.33,1.09,0,0,0,0,0,.05-.34,0-.37-.3-.54-.43s-.09.16-.21.1C56.57,59.39,56.78,57.72,57.52,58.16ZM52.16,54a3.29,3.29,0,0,1-.32.26C51.68,54,52,53.77,52.16,54Zm-1.42,3.88c-.15,0-.18-.14-.29-.2s0-.33,0-.5a1.55,1.55,0,0,1,.43.37A.69.69,0,0,1,50.74,57.84Zm.52-3.56c.08-.09.27,0,.38,0a.42.42,0,0,1-.26.49A.37.37,0,0,1,51.26,54.28Zm-1.5.79c.25.13.79-.2.89.3a.87.87,0,0,0,.43,0c-.19.44.25.72.22,1.16-.36,0-1-.21-1.07.24-.35-.22-.88-.29-.86-.67S49.93,55.49,49.76,55.07ZM49.31,55c-.12.14-.23.29-.34.44a.49.49,0,0,1-.31-.15C48.8,55.09,49,54.83,49.31,55Zm-2.92,8.87c-.05.1-.16.1-.3,0A.22.22,0,0,1,46.38,63.88Z"/><path class="cls-2" d="M69.25,67.69l0,0h.06Z"/><path class="cls-2" d="M124,67.4l-1-.12-.09.42h1.21l.1-.17Z"/><path class="cls-2" d="M140.3,56.34l0,0h0S140.31,56.34,140.3,56.34Z"/><path class="cls-2" d="M30.16,38.41c0,.22,0,.38-.08.54-.19-.07-.62-.21-.7.06.18.13.15.37.26.54-.53.24-1.19-.06-1.64.15,0,.16.26.13.39.2a3.76,3.76,0,0,1,1.24-.07,3.7,3.7,0,0,1,0,.54c.22.07.18.29.33.4a2.25,2.25,0,0,0,.68-.07c.48.49-.45.41-.62.68.35.14.85-.42,1.17.07-.12,0-.22.2-.36.06a3.27,3.27,0,0,1-.18.33c-.12.15-.49.38-.23.63.07-.1.11-.51.38-.49s.2,0,.37,0c.1-.31.38-.32.72-.21.1.14,0,.42.28.45a.32.32,0,0,0,.13-.37c.2-.28.71-.11.79.21-.25,0-.63,0-.6.37.23.1.24-.19.42-.17s.16.17.17.3c-.16.25-.38,0-.62,0s-.88.61-.7,1a5,5,0,0,0-.57.13c.06.56-.4,1.08-.22,1.63-.13-.05-.22.14-.29,0s.2-.25-.08-.3c-.06.14.1.14,0,.29-.21,0-.27.25-.48.25,0-.29-.13-.58,0-.87-.29.15,0,.59-.18.89a1.24,1.24,0,0,0-.27.18c-.56-.18-1-.3-1.12-.74.21,0,.26-.24.53-.11a2.67,2.67,0,0,0,.65-.55c-.05-.18.11-.31.18-.42-.11-.2,0-.54,0-.77-.22-.07-.13-.32-.29-.42s-.21-.21-.36-.29a.86.86,0,0,0-1.07.12,2.26,2.26,0,0,0-.47-.13c.22.08-.1.19-.15.31s-.23-.15-.31,0,.21.11.12.25-.25.11-.36.18,0,.21-.09.32c.25.16,0,.44.17.64-.1,0,0,.05-.08.17.18.1.43.16.47.35s-.13.2-.08.29c.31,0,.58-.13.85,0s.45.62.69.81c-.06.07-.2,0-.32,0s-.08.2-.18.2a1.42,1.42,0,0,0-2.27.74,1.28,1.28,0,0,0,.84,1.64s0,0,0,.06c.27-.05.64.05.87-.08,0,0,0,0,0,.05.17,0,.21-.26.39-.27-.09.12,0,.17,0,.26a1.1,1.1,0,0,0-.63,1.05c.29.77,1.53,1.16,1.91.23.14-.35.07-.53.22-.94.06,0,.07-.07.16,0s0,.22.09.24.19-.38.35-.47a1,1,0,0,0,.85-.59,1.13,1.13,0,0,0,.87-.33c.24.22.87.44,1.13.24a2.41,2.41,0,0,0,1.09.14c-.52.56.57,1.07.86.54a.48.48,0,0,0-.4-.74,10.2,10.2,0,0,0,2-1.94c.29,0,.39-.29.76-.14-.06.13.08.33.31.37s.21-.13.3-.2a.56.56,0,0,0-.26-.45c.14-.19.21-.26.34-.44a.54.54,0,0,1-.05-.27c.32-.26,0-.6,0-.93a1.17,1.17,0,0,1,.48,0c0-.18.11-.19.25-.12.06-.31.21-.3.38-.46s-.09-.18-.07-.3c.25-.19.28-.5.46-.66a.68.68,0,0,0,.28.14c-.1-.06,0-.15,0-.25a.44.44,0,0,1-.28-.14s0,.11-.09.1.07-.43.13-.59c.11,0,.11.08.23.09s0-.26.11-.28.17.33.35.44a1.25,1.25,0,0,0-.28-.48c.06-.27.25-.38.32-.51s-.1-.16,0-.29a2.17,2.17,0,0,1,.45-.16c-.19,0-.31-.1-.27-.26a.49.49,0,0,1,.65,0,.25.25,0,0,0-.14-.19c-.37.12-.56-.4-.38-.67.12,0,.07.17.16.23.49,0,1.51-.05,1,.61a.55.55,0,0,0,.17.17c.19-.08.07-.46.24-.53.39.23.45-.44.91-.22a.6.6,0,0,0,1,0c.19-.37-.11-.69-.49-.85,0-.18-.15-.26,0-.51.1,0,.27,0,.28-.21-.52-.17-.26-.51-.05-.86a.87.87,0,0,0-.49-.29c0-.16-.05-.27,0-.42-.35-.12-.31-.69-.77-.52a7.65,7.65,0,0,1,0-1.58.74.74,0,0,0-.16-.11,8.57,8.57,0,0,1,0,1.63.68.68,0,0,1-.48,0,1.42,1.42,0,0,1-.13-.32c-.17.34-.74.18-.7.75-.19.11-.57.19-.6.47s.15.18.18.36a.25.25,0,0,1-.32,0,1.13,1.13,0,0,1,.12.82c-.12,0-.18,0-.28,0,0-.3-.39-.35-.39-.64.21,0,.23-.59.37-.81a1.84,1.84,0,0,0-.39.77,9.37,9.37,0,0,1-.83-.66c-.07-.12,0-.32-.18-.39-.13.09,0,.31-.1.38s-.18-.19-.38-.23-.16.36-.37.31c-.06-.12-.05-.28-.22-.34-.19.1,0,.25,0,.4s-.11.15-.22.13-.1-.22-.27-.26c0,.08-.12,0-.12.09a.37.37,0,0,1-.07.51c-.16,0-.24-.19-.45-.21a.08.08,0,0,1-.08.07c0,.27.22.53.19.83,0,.09-.09.2-.12.31-.07.4.08.5-.28.71a2.07,2.07,0,0,1-1.32.24.59.59,0,0,1,0-.64,2.26,2.26,0,0,0,.82.44c-.18-.25-.5-.42-.59-.72-.21,0-.26-.14-.41-.11s.11.22,0,.26-.22-.21-.39-.29-.7-.07-.85-.35c0,.06-.09,0-.14.06s.07.22,0,.27-.08-.16-.2-.18-.24.34-.45.38c-.56.11-.44-.56-.85-.7,0,.07,0,.26-.08.29s0-.13-.15-.13.05.13,0,.25-.31.05-.47.1a.43.43,0,0,0-.37-.26c0,.09,0,.12,0,.21-.23.06-.65-.24-.82-.22A.6.6,0,0,0,30.16,38.41Zm-.49,10.66c0-.09,0-.23-.1-.31s.1-.06.17,0S29.74,48.92,29.68,49.06ZM40.28,38c.13,0,.2.06.14.19C40.38,38.09,40.22,38.09,40.28,38Zm-4.22,5.42c-.15-.13-.21-.32-.38-.45.23-.06.79-.12.72.25C36.25,43.18,36.16,43.29,36.07,43.38Zm.32-3.3c-.13.22-.36.28-.46.56,0,.07.28.12.33.06.14.15.43.25.46.5s-.21.54-.51.61c0,.32.39.55.08.87l-.18,0c-.47.33-.93-.24-1.42-.19.15-.28.6-.4.67-.85.21-.09.77.33.94.13-.24-.11-.47-.22-.54-.43-.07,0,.07.18,0,.21s-.19-.08-.35-.09c0-.19.14-.16.22-.22a.16.16,0,0,1,0-.1c-.24-.09-.51-.41-.22-.59a.93.93,0,0,1-.15-.38c-.12,0-.21.17-.17.27-.24,0-.1-.41.08-.42s0-.15,0-.23c-.2,0-.13.23-.2.41-.11,0-.24-.12-.33-.18C34.87,39.26,36.25,39.3,36.39,40.08Zm-2.08,2.39c0,.13-.15.14-.28.11C34.05,42.39,34.17,42.37,34.31,42.47Zm-.47-.13c0,.1.07.11,0,.2s-.22-.11-.22-.22C33.74,42.37,33.75,42.3,33.84,42.34Z"/><path class="cls-2" d="M29,40.64c.12,0,.26,0,.35-.13C29.24,40.48,29,40.67,29,40.64Z"/><path class="cls-2" d="M28.3,40.91c0,.05-.21.06-.16.11S28.37,41,28.3,40.91Z"/><path class="cls-2" d="M57.84,52.32a2,2,0,0,0,.75-.46c.11-.08.57-.38.53-.45s-.25.11-.33.16A7,7,0,0,0,57.84,52.32Z"/><path class="cls-2" d="M25.87,49a7.12,7.12,0,0,0,.65-.33C26.29,48.74,26,48.85,25.87,49Z"/><path class="cls-2" d="M114.71,62.27c0-.37.38-.48.56-.7-.23-.58.48-.67.81-.82a1.36,1.36,0,0,0-.91-.34c.09-.18-.21-.17-.28-.14a.59.59,0,0,1-.33.63.88.88,0,0,1-.1.6,10.7,10.7,0,0,1,.34,1.78c.3.05.55.27.8.28a.41.41,0,0,1,0-.44c.1,0,.25.06.34,0s-.08-.25,0-.31c.28.13.13.47.39.54s.38-.34.68-.41a4.48,4.48,0,0,1-1.68-1.11C115.18,62.1,115,62.31,114.71,62.27Zm.4-1.15c-.16.11-.39-.11-.45-.22C114.79,60.76,115.16,60.95,115.11,61.13Z"/><path class="cls-2" d="M46.18,42.28a.82.82,0,0,0,.15-.34c-.07,0-.1,0-.18,0a1.46,1.46,0,0,0-.21-.75c-.13,0-.18.12-.31.1-.31-.13-.29-.44-.6-.57,0-.11,0-.25-.07-.33s-.17.14-.2.29c-.38.17-.5-.39-.88-.36-.09.13,0,.25-.08.42a6.83,6.83,0,0,1-1.16-.34c-.23.18,0,.43.13.57-.16.09-.3.22-.46.31s-.22-.17-.37-.13c-.14.27.23.24.23.44-.37-.07-.26.31-.38.46.3,0,.24.29.2.53-.1-.05-.12,0-.21,0a7.17,7.17,0,0,1-.69.57c-.46,0-.36-.42-.63-.58,0,.12-.07,0-.09,0-.13.21.1.3.16.35a.27.27,0,0,1-.25,0s0,.07-.05.08a4.57,4.57,0,0,0-.94.34c-.17.31-.33.63-.5.93a4.24,4.24,0,0,0,.37.6c0,.08-.06.16,0,.21s-.19-.08-.23,0,.28.17.21.37c-.08.05-.11,0-.2-.05s-.31.17-.39.4a.44.44,0,0,0-.35.38,1.05,1.05,0,0,1,.27-.18.37.37,0,0,0,.4,0l.09-.32a.68.68,0,0,1,.65.71c.27.08.2.35.41.46s.08-.18.19-.14a.46.46,0,0,0,.56.37c.24,0,.41-.4.65-.32.18-.31.54-.29.62-.78.06-.06.13-.09.19-.14.06-.27-.09-.43,0-.7a.28.28,0,0,0,.22-.25,1.63,1.63,0,0,1-.41-.8s.06,0,.1,0c.35.35.32.92.48,1.38-.12.15-.44.56-.15.68a.66.66,0,0,0,.4-.8c.35-.07.48-.5.92-.41.06.24-.14.64.18.74a1.37,1.37,0,0,1,.55-.76c.14.17.38,0,.61.07.08-.13,0-.16,0-.28.29,0,.57.08.76-.27a.87.87,0,0,1,0-.34c.07-.07.16-.1.23-.16a1.08,1.08,0,0,1,0-.3,1.09,1.09,0,0,0,.46-.41c.24,0,.57.07.68-.19C47.08,42.65,46.41,42.72,46.18,42.28Z"/></g></g></g></svg>