<svg xmlns="http://www.w3.org/2000/svg" viewBox="0 0 84.55 67.38"><defs><style>.cls-1{fill:#fff;}</style></defs><title>random</title><g id="圖層_2" data-name="圖層 2"><g id="圖層_1-2" data-name="圖層 1"><path class="cls-1" d="M84.55,13.55,71,0V8.07H69.06c-1.42,0-2.82,0-4.22,0a32.48,32.48,0,0,0-12.23,2.55,38.7,38.7,0,0,0-11.69,7.76c1.75,2.11,3.4,4.22,5,6.29A31.22,31.22,0,0,1,55.73,18,24.54,24.54,0,0,1,65,16.08c1.35,0,2.7,0,4.08,0h2v11Z"/><path class="cls-1" d="M84.55,53.83,71,40.28v8.85H68.76l-2.3,0c-1,0-1.93,0-2.91.07l-1,0A14.32,14.32,0,0,1,51.89,44.4c-2.44-2.54-4.65-5.27-7-8.16l-.81-1C42.69,33.53,41.31,31.75,40,30c-2-2.55-4-5.2-6.2-7.73A41,41,0,0,0,18.38,10.62,32.49,32.49,0,0,0,6.15,8.08H0v8H6A24.54,24.54,0,0,1,15.27,18a33.2,33.2,0,0,1,12.41,9.49c2,2.4,4,5,6,7.46,1.37,1.76,2.78,3.57,4.22,5.34l.81,1c2.35,2.9,4.77,5.89,7.45,8.67A22.19,22.19,0,0,0,62.59,57.2c.47,0,.94,0,1.41,0,.8,0,1.61-.06,2.44-.06l2.2,0H71V67.38Z"/><path class="cls-1" d="M27.33,39.85l-2-2.61c-2,2.52-4,4.92-6.19,7.16A14.32,14.32,0,0,1,7.45,49.17c-1.77-.1-3.52-.07-5.21,0L0,49.14v8l2.35,0c1.62,0,3.16,0,4.65,0q.71,0,1.41,0A22.2,22.2,0,0,0,24.87,50c1.94-2,3.74-4.14,5.48-6.26C29.33,42.4,28.32,41.12,27.33,39.85Z"/></g></g></svg>