<svg xmlns="http://www.w3.org/2000/svg" viewBox="0 0 107.69 420.13"><defs><style>.cls-1{fill:#010101;}</style></defs><title>resulttitle</title><g id="圖層_2" data-name="圖層 2"><g id="圖層_1-2" data-name="圖層 1"><path class="cls-1" d="M76.32,25.84A8.79,8.79,0,0,1,74,21c0-.76-.24-1-.6-.92A1.63,1.63,0,0,1,71.72,19a3,3,0,0,1,.68-2.32,8.06,8.06,0,0,1,3.24-2.16l.68-.12A2.6,2.6,0,0,1,78.08,16a3.35,3.35,0,0,1-.6,1.88,6.64,6.64,0,0,0,.16,5.16c.8,1.08,1.2,1.92,1,2.48A1.61,1.61,0,0,1,76.32,25.84Zm28.88,7.64c-.92,0-1,.28-.8.76.28.76-.32,1.32-1.4,1.44a40.81,40.81,0,0,1-17.16-1.48,19.44,19.44,0,0,1-4-1.8,5.23,5.23,0,0,0-4.52-.68c-2.6.76-4.32.88-5.08.2a4.87,4.87,0,0,1-.52-2.68c.08-1.16.84-1.72,2.12-1.64a12,12,0,0,0,2.28-.48,10.27,10.27,0,0,1,5.56.48A17.12,17.12,0,0,1,79.92,21a19.16,19.16,0,0,1-.16-4.6c.6-1.6,1.72-1.68,3.2-.44.4-.08.84-.2,1.32-.32l.32-.08a7,7,0,0,1-1.36-4.24C83.16,9.44,83.12,7.68,83,6a15.29,15.29,0,0,1,.52-2.68,1.29,1.29,0,0,0,.2-1.2C83.28.88,83.72.12,85,0a5.63,5.63,0,0,1,2.36,1.08A27,27,0,0,0,91.43.52,1.23,1.23,0,0,1,93.31.8a1.9,1.9,0,0,1-1.2,2.28A2.43,2.43,0,0,0,91,4.32a11.81,11.81,0,0,1-2.12.92c-1.44.52-2,1.92-1.68,4.4.16,1.24.24,2.52.4,3.84a2.85,2.85,0,0,1-.2,1.6,2.09,2.09,0,0,0,.92-.32c.12-1.68.24-3.36.36-5a1.94,1.94,0,0,1-1-1.4c.08-.72.6-1.16,1.56-1.4a12.84,12.84,0,0,0,2.56-.84,1.12,1.12,0,0,1,1.72.72,2.7,2.7,0,0,1-.48,2.08,3.06,3.06,0,0,1-1.76.72c.28,1.16-.28,2.84-1.56,5,.72-.12,1.44-.2,2.2-.28-.12-1.6.12-2.6,1-2.6.12.08.16,0,.2-.16a7.79,7.79,0,0,0,.24-1.4c.4-3.72.44-5.48.16-5.64-.52-.36-.48-1.16-.12-2.16C94,.72,94.87-.08,96.07.16c1.52.16,2.2,2,2.08,5.28,0,1.24-.12,2.68-.08,4.32a5.67,5.67,0,0,1-1.4,3.2,3.52,3.52,0,0,0-.48,1c1.6-.36,2.64-.16,2.76.84,1.76-.2,2.76.68,3,2.6-.12,5.48-1.32,9-3.64,10.52a23.14,23.14,0,0,0-3.2,1.92c-.6.44-1.16.24-1.64-.52a2,2,0,0,0-.68-.84,1.83,1.83,0,0,1-.72-1c.4-.32.28-.92-.76-2A6.21,6.21,0,0,0,89,26c-1,.32-1.72.12-2.12-.64-.28-1.12-.48-2-.6-2.6a4.83,4.83,0,0,1,.08-3.28,1.55,1.55,0,0,1,2.12-.32,14.27,14.27,0,0,1,3.28-.44,2.61,2.61,0,0,1,2-.68c1,.36,1.16,1.28.72,2.64-.24.44-.48.92-.72,1.4a3.78,3.78,0,0,1,.52,1.68c-.08.44-.48.72-1.12.88a3.31,3.31,0,0,0,1.8,0c1.56-.28,2.68-3,3.24-8.32-.32-.28-.88-.28-1.76.2A17.53,17.53,0,0,1,91,18a9.6,9.6,0,0,0-3.36.6c-3.24.76-4.36,2-3.68,3.76.2.8.4,1.6.6,2.36.32,1.44.2,2.44-.44,2.8a2.54,2.54,0,0,0-.52.88c5.44,2.64,15,2.32,20.88,2.16,2.16,0,3.24.8,2.88,2.36A4.23,4.23,0,0,1,105.19,33.47ZM76.88,9.28a27.61,27.61,0,0,1-3.52-.6A2,2,0,0,1,72,6.4a2.65,2.65,0,0,1,2-1.12,5.12,5.12,0,0,0,1.24-.6L76,4.56c1.6.08,2.68,1.16,3.32,3.16C79.12,8.8,78.28,9.28,76.88,9.28ZM89.68,21.6a3.58,3.58,0,0,0-.12,1.6,3.12,3.12,0,0,1,2-.68,3.9,3.9,0,0,0,0-1.52A2.43,2.43,0,0,0,89.68,21.6Z"/><path class="cls-1" d="M101.79,61.92c-2.88,0-5.76.24-8.6.52V70a12,12,0,0,1-1.32,3.88,5.79,5.79,0,0,0-1.24,2.28c-.28,1.12-.92,1.08-1.64.12Q87.8,72,88.28,63c-1.8,0-5.4.72-10.72,2.24A25.93,25.93,0,0,0,74,66.56c-1.6,1-2.88.72-3.72-.76a3.63,3.63,0,0,1,1.88-4.2c1.76-.48,3.48-1,5.16-1.52l2.2-.48c-.36-2-.32-3.32.44-3.6,1.4,0,2.6,1,3.64,2.72,1.48-.28,3-.52,4.44-.76a11.22,11.22,0,0,0,.2-2.56c-2,.36-3.44.12-4.36-.72a3.07,3.07,0,0,1-1-2.64,1.69,1.69,0,0,1,1.88-1.64c1.32-.24,2.68-.48,4-.68a9.44,9.44,0,0,0-.12-2.64c-1.92,0-2.56-1-3.72-2.28C82.48,46,80,47.16,77.56,48.4a17.24,17.24,0,0,1-3,1.08C74,48.4,75.64,47,76.36,46.32c.36-.32.72-.6,1-.88,1.32-1.12,2.6-2.36,4-3.56a4.36,4.36,0,0,0,1-1.12c1-1.16,2-1.56,2.88-.84a2.86,2.86,0,0,1,1.12,2,9.84,9.84,0,0,0,3.36-.56c1-.4,2.08-.8,3.08-1.2a4,4,0,0,1,4.28.52,3.52,3.52,0,0,1,1,2.92,1.39,1.39,0,0,1-1.56,1.32,4.8,4.8,0,0,0-3.72,3.72,2.24,2.24,0,0,1,2.52.2A3.13,3.13,0,0,1,97.51,51c.16,1.28-.52,2.28-2,3l-2,.48a7.83,7.83,0,0,0-.44,3.08c2.08-.32,4.12-.64,6.16-.84a8.65,8.65,0,0,1,4.16.72,3.89,3.89,0,0,1,1.24,2.92C104.67,61.44,103.55,61.88,101.79,61.92Z"/><path class="cls-1" d="M104.19,110.86a6.56,6.56,0,0,1-2.52,3.2c-1.12.48-2.24,1-3.4,1.64a1.26,1.26,0,0,1-1.88-.32,10.39,10.39,0,0,1-1.16-2.68c-.32-.64.2-1,1-1.08s1.72-.6,2.84-1.8a49,49,0,0,0,.12-5.4c-.16-7.08-.44-14.08-.92-21a1.43,1.43,0,0,0-1.6-1.12,3.7,3.7,0,0,1-1.76.76,8.47,8.47,0,0,0-.84,2.28q1.2-.36,2.64-.72a.94.94,0,0,1,1.08,1,2.21,2.21,0,0,1-.32,2,10.86,10.86,0,0,0-3.4,1.08,7.21,7.21,0,0,0-.16,2.08,12.85,12.85,0,0,0,2.88-.76,1.64,1.64,0,0,1,1.76.88c.24.56-.16,1.12-1,1.72a6,6,0,0,0-2.32.64,3.2,3.2,0,0,1-1.32.36,3.52,3.52,0,0,1,1.24,1.08,2,2,0,0,1-.72,2A3.91,3.91,0,0,0,93,97.1a1.62,1.62,0,0,1-.12,1.48,8,8,0,0,0,0,1,3.14,3.14,0,0,1,2.72-.16,2.25,2.25,0,0,1,1.24,2.44,3.52,3.52,0,0,1-2.32,1.72,3.37,3.37,0,0,0-1.52.2,29.89,29.89,0,0,1-.16,5.8A24.91,24.91,0,0,0,91,112.29c-.68.72-1.24.68-1.36-.28a53.4,53.4,0,0,1-.44-7.56,11.7,11.7,0,0,0-2.76.72c0,.92,0,1.88,0,3a7.83,7.83,0,0,1-1.48,2.2c-.56.72-1,.28-1.24-.68q-.12-1.68-.12-3.48a7.5,7.5,0,0,1-2,.52,2.18,2.18,0,0,1-1.72-.68,1.73,1.73,0,0,1-.4-2.2,10.75,10.75,0,0,1,4.32-2.08A4.58,4.58,0,0,0,84,99.82a2.2,2.2,0,0,1-2.2-.28,19.75,19.75,0,0,1-1.08-1.88,1.46,1.46,0,0,1-2-.8l-.8-1.4c-.28-.48.12-.88.68-1.2,1.36-.8,2.56-1.56,3.64-2.2a9.92,9.92,0,0,0,.36-1.92,6.84,6.84,0,0,1-2.36.44,1.32,1.32,0,0,1-1.6-1c0-1.48.48-2.4,1.44-2.52a11.73,11.73,0,0,1,2.52-.48c.16-1.72-.08-2.56-.56-2.76a3.29,3.29,0,0,0-2.68.68A12.47,12.47,0,0,0,78,89.22a140.57,140.57,0,0,0-.12,22.08,29.23,29.23,0,0,1-.84,3.12c-.48.64-1,.32-1.44-.44a25.64,25.64,0,0,1-1.92-2.8,24.24,24.24,0,0,1-.64-6.2A112,112,0,0,1,74.56,83.9a7.78,7.78,0,0,1,1.28-3.52,2,2,0,0,1,1.72,0,6.62,6.62,0,0,1,1.2,1.12,5.28,5.28,0,0,0,2.64-.6A1.37,1.37,0,0,1,83,81.1a.87.87,0,0,0,.36.32,3,3,0,0,1,.72-.64,4.09,4.09,0,0,1,1.4.2,2.45,2.45,0,0,1,1.8,1.88,19,19,0,0,1-.64,3.68,11.48,11.48,0,0,0-.36,2A3.93,3.93,0,0,1,85.84,90a6.75,6.75,0,0,1,.32.8,4.67,4.67,0,0,1,.16,2.92,16.07,16.07,0,0,1-2.56,1.8A17,17,0,0,0,87.6,95c1.44-.36,2.76-.72,3.88-1a1.79,1.79,0,0,1-1.16-1.12A18,18,0,0,1,90.08,88a21.94,21.94,0,0,1,1.12-5.4c.48-1.4,1.08-2.2,1.76-2.32a2.11,2.11,0,0,1,1.32.2,10.48,10.48,0,0,1,3.92-.4,3.94,3.94,0,0,1,2.28-.48,2.8,2.8,0,0,1,1.88,1.68,108.7,108.7,0,0,1,1.92,18.24A97.85,97.85,0,0,1,104.19,110.86ZM89,98.66a2.91,2.91,0,0,0-2.12.76v1.36c.72-.2,1.44-.4,2.24-.56A11.07,11.07,0,0,1,89,98.66Z"/><path class="cls-1" d="M106.47,153.12c-.84.72-2.52.84-5,.4-.36,0-.44.68-.44,2-.28.84-1.16,1-2.44.8a44.3,44.3,0,0,1-15-2.32,11.43,11.43,0,0,1-1.52-.72l-2.28-1.16a11.82,11.82,0,0,0-5.84.84,1.83,1.83,0,0,1-2.2-1.44,24.78,24.78,0,0,1-.48-2.48c.36-.88,1.24-1.28,2.56-1.28a15.89,15.89,0,0,1,4.56,0,1.64,1.64,0,0,0-.92-2.24,6.16,6.16,0,0,1-3.12-3.76c-.12-.84-.2-1.72-.24-2.6l-.84.8c-.8,1-1.76.84-2.68-.32a1.66,1.66,0,0,1,.36-2.44,14.25,14.25,0,0,0,4.52-3.24,1,1,0,0,1,1.6-.48,18.89,18.89,0,0,1,1.68,1.08,1,1,0,0,1-.28,1.36,5.53,5.53,0,0,0-1.68,3.6,2.8,2.8,0,0,0,1.2,2.44c1.12.6,1.68,1.36,1.52,2.4a21.36,21.36,0,0,0,.32,3.6A28.64,28.64,0,0,0,89.08,150c-.08-1.28-.16-2.4-.24-3.44a26,26,0,0,0-3.6,1.12,1.75,1.75,0,0,1-2.08-.24,4.45,4.45,0,0,1-.56-1.92c-.08-.72.4-1.32,1.28-1.64,3.08-1,4.6-1.8,4.88-2.36a3.92,3.92,0,0,1-1.76.56,2.34,2.34,0,0,1-2.52-1.48,23,23,0,0,1-2.2-6.92,4.8,4.8,0,0,1,1.56-3.24,1.43,1.43,0,0,1,1.88.16,14.08,14.08,0,0,0,3.56-.64l0-.2a3.21,3.21,0,0,1-1.88-.16c-.52-.12-1-.68-1.36-1.6-.08-.64.48-1.28,1.52-1.92a2.68,2.68,0,0,0,1.2-.44,4.19,4.19,0,0,0,.12-1.48,40.12,40.12,0,0,0-4,.8c-.52.2-.88,1.08-.84,2.76a1.85,1.85,0,0,1-1.32,2.12c-.76,1-1.52,1-2.2,0a16.22,16.22,0,0,1-.28-6.44l.84-2.72a1.56,1.56,0,0,1,1.56-.88,6.27,6.27,0,0,1,2.8.92c7.64.16,12.08,0,13.32-.32a1.4,1.4,0,0,1,1.84-.08c.8.84,1.16,2.32,1.12,4.44-.28.8-1.16,1.16-2.56,1.16a8.66,8.66,0,0,0-1.72.12,5.8,5.8,0,0,0-1.92,1.36c-.52.2-.8,0-.68-.48a11.39,11.39,0,0,1,2-3.92c-.16-.16-.48-.16-1,0-1,.2-2.08.44-3.2.6,0,1.12.36,1.64.84,1.72,1,.36,1.28,1.16,1,2.32A8.37,8.37,0,0,1,92,129l0,.32c1.28-.2,2.4-.4,3.32-.52a2.73,2.73,0,0,1,2.88.24,5.62,5.62,0,0,1,.28,3.84,16.76,16.76,0,0,1-1.48,4.6,4,4,0,0,1-1.36,1.56,5.47,5.47,0,0,1-3.24,1.44l-.12.76c1.84-.16,3.72-.24,5.6-.24,1.44,0,2.4.48,2.76,1.48a5,5,0,0,1-.08,2c-.36.84-1.2,1.16-2.4,1a35.24,35.24,0,0,0-6,.6c.2,1,.64,2.08-.16,3a1.82,1.82,0,0,0-.48,1.28c5.48.16,8.56.36,9.16.68a45.65,45.65,0,0,1,5.88.6C107.23,152.08,107.07,152.6,106.47,153.12Zm-29-22.92a1.74,1.74,0,0,1-2.4-.08,5.47,5.47,0,0,1-3.52-2.28c-.44-1.28.08-2,1.44-2.32.56-.4,1.52-.32,2.84.16a3.8,3.8,0,0,1,2.2,2.4A2,2,0,0,1,77.52,130.2ZM89,138a1.12,1.12,0,0,1-1-.44,2.84,2.84,0,0,1-.56-1.72,3,3,0,0,1,1.48-1.2v-.44l-2.24.72a6.53,6.53,0,0,0,1,3.92l1.52-.48Zm3.24-4.84.08.56a1.33,1.33,0,0,1,1.4.24v1c0,.8,0,1.4-.52,1.48a1.68,1.68,0,0,0-1.28,1,2.32,2.32,0,0,0,1.44-.76c.76-.76,1.2-2.28,1.28-4.56A6.83,6.83,0,0,1,92.27,133.12Z"/><path class="cls-1" d="M103.19,191.14a2.31,2.31,0,0,1-2.44,2,2.5,2.5,0,0,0-1.32.92,2.1,2.1,0,0,1-2.72,0,3.79,3.79,0,0,0-1.32-1.88c-.44-1.44-.24-2.32.92-2.24l1.36.48c.32,0,.44-.16.44-.56a137.06,137.06,0,0,0,.12-17.2c-.88.44-1.8,1-2.76,1.52v2c1.08-.32,1.84-.16,2.12.68.08,1.08-.76,2-2.32,2.88v1.56c1.56-.52,2.6-.44,2.92.52a4.19,4.19,0,0,1-1.2,3.24l-1.92.8a49.45,49.45,0,0,1-.48,6.2,5.66,5.66,0,0,0-1.2,3.28c-.8,1-1.44.72-1.88-.56a73.87,73.87,0,0,1-.64-7.88,6.3,6.3,0,0,1-2.52.24c.12,1.28.16,2.48.2,3.6s-.4,2-1.48,2.16c-.76.36-1.64-.48-2.6-2.12a90.89,90.89,0,0,1,.28-12.8,4.14,4.14,0,0,1-3.12.4,1.79,1.79,0,0,1-.56-.52,10.73,10.73,0,0,0-.92,2.44,4.26,4.26,0,0,1,3.32.76c.88,1.24,1.12,2.24.36,2.8-.56.64-1.56.4-2.88-.44-.28-.4-.56-.76-.88-1.16a97.4,97.4,0,0,1,.12,10.64,2.68,2.68,0,0,1-1.68,1.88c-.84-.6-1.36-1.88-1.68-3.8q.12-4.32.36-8.52c-1.4,1.88-2.64,3.6-3.72,5.08a2.76,2.76,0,0,1-1.4.8c-1,.76-1.52.32-1.32-1a45.72,45.72,0,0,1,4.2-8.76,6.16,6.16,0,0,1-2.52-.4l-.72-.6c-.8-1.2-.92-2.16-.16-2.76a20,20,0,0,0,7.56-4.68,2.06,2.06,0,0,1,2.28.08c1.2.6,1.44,2,.84,4a14,14,0,0,0,2.64,1.4,5.41,5.41,0,0,1,1.6-3.16c.92-.64,1.68-.64,2.2.12a4.8,4.8,0,0,1,2.4-.56v-1.88l-2.08.2a1.92,1.92,0,0,1-1-.76,14.15,14.15,0,0,0-2.48-2.2,1.14,1.14,0,0,1,.32-1.6,30.32,30.32,0,0,1,5.44-1.52,7.45,7.45,0,0,0-.2-2.44,2.35,2.35,0,0,1,.84-1.8,2.94,2.94,0,0,1,2.28.4,13.7,13.7,0,0,1,1.88,2.44c1.48-1.08,2.68-1.32,3.44-.48,1.56,1.36,2,2.64.92,3.76a12.86,12.86,0,0,1-1.8.92c-1.16.52-2.24,1-3.24,1.36l0,2.4a16.73,16.73,0,0,1,3.84-.64,1.94,1.94,0,0,1,2.88.4,76.79,76.79,0,0,1,1.28,10.36A84.69,84.69,0,0,1,103.19,191.14ZM83.32,167.31c-.76.8-1.8.76-3,0a8.15,8.15,0,0,0-3.92-1.48c-1-.32-1.56-.68-1.56-1.2A2.43,2.43,0,0,1,75,164a3.68,3.68,0,0,1,2-1.8,5.36,5.36,0,0,1,3.08-.24,15,15,0,0,1,1.4.72c1.44,1,2.24,2,2.36,2.8A1.76,1.76,0,0,1,83.32,167.31ZM91,181.66a6.72,6.72,0,0,1-2.72-.72v3A13.75,13.75,0,0,0,91,182.86Zm-.12-5.8a14.69,14.69,0,0,0-2.16.64,3.38,3.38,0,0,0-.24,1.56,21,21,0,0,0,2.4-.72ZM103,166.55l-.68-1.76c-.32-1.2-.16-2.08.64-2.4a2,2,0,0,1,2.44.24c1.16,2,1.44,3.52.68,4.56C104.59,167.79,103.55,167.59,103,166.55Z"/><path class="cls-1" d="M79.64,230.78a3.87,3.87,0,0,0-.48,1.88,1.83,1.83,0,0,1-2.68.52,10.87,10.87,0,0,1-1.92-3.28c0-1.6.84-2.2,2.48-1.8a1.76,1.76,0,0,0,1.44.56,2.27,2.27,0,0,1,1.44-.32c.28.08.36.44,0,1A6.11,6.11,0,0,0,79.64,230.78Zm26.2,3.24A7.24,7.24,0,0,1,102,235.3c-3.08,0-5.32-1.12-6.44-3.24a17.73,17.73,0,0,1-1.72-7.84c-1.6.16-3.24.4-5,.72-.52,0-.52.72-.52,2.16,0,3.32-.52,5.68-1.52,7A3.64,3.64,0,0,1,85.16,236c-1.84.88-3.08.92-3.4-.4.08-1.16-.16-1.8-.64-2.08a.36.36,0,0,1-.08-.64,2.48,2.48,0,0,1,1-.6c1.8-.32,2.6-1.28,2.48-2.88,0-1.12.08-2.28.08-3.48-1.36.52-2.68.92-4,1.32-2.64.8-4.4.84-5-.24a1.78,1.78,0,0,0-.48-1,2.53,2.53,0,0,1,2.2-3.12l1.6-.32A13.82,13.82,0,0,0,78,221.3a11.8,11.8,0,0,1-.76-3.6,1.7,1.7,0,0,1,2.36-1c-.2-1,.4-1.88,1.72-2.48a60.72,60.72,0,0,1,9-2.68,20.9,20.9,0,0,1,5-1.52c.76-1.2,1.6-1.8,2.6-1.64.72.72.92,2,.52,3.76a8.58,8.58,0,0,1-.88,2.64,31,31,0,0,0-.84,5.76,21.81,21.81,0,0,0,.28,5.72c.52,2.76,1.88,4.12,3.76,4.28a6.35,6.35,0,0,0,2.44-.08c.4-.16.52-.4.36-.76-.16-1.24-.12-2.08.4-2.44a2.31,2.31,0,0,1,1.52,1.84c.08.16.32.28.84.36a1.49,1.49,0,0,1,1.28,2.08A5.41,5.41,0,0,1,105.83,234Zm-11-30.31c-.84.4-1.92.76-3.16,1.4-2.8.6-4.6.84-5.4.2A9.09,9.09,0,0,1,84.8,204a3.56,3.56,0,0,1-2.52,2.2c-.84-.08-2,.44-3.48,1.64-1.68.84-2.88,1-3.16,0a3.91,3.91,0,0,1,1.52-3.36,32.89,32.89,0,0,1,3.16-3.2,5.38,5.38,0,0,1,2-1.08l.44-.2A1.5,1.5,0,0,1,85,201.3c0,.36.12.52.92.24,1.24-.48,2.72-1,4.44-1.52,1.72-1,3.08-1.36,4.12-.92a2.15,2.15,0,0,1,1.64,2.2C96.43,201.95,95.87,202.79,94.79,203.71Zm-11,16.16a1.18,1.18,0,0,0-.64-.52,2,2,0,0,0-1-.56,4.13,4.13,0,0,1-.88-.12c-.16.08-.16.36,0,.84.4.84.56,1.48.28,1.84a1.51,1.51,0,0,0-.2.64c.6-.2,1.16-.36,1.76-.52.92,0,1.4-.08,1.4-.4A2.63,2.63,0,0,0,83.84,219.86Zm10.52-11.72a11.62,11.62,0,0,1-1.72,1.72c-3.44,1.4-6,1.8-7.84,1.16-1.32-1-2-2-1.76-3,.28-.64,1.24-1,2.68-1,.8-.24,1.32,0,2-.2a10.23,10.23,0,0,0,2.64-.64c2.28-.6,4-1.2,4.6-.4,0,.44.08.88.08,1.36A1.35,1.35,0,0,1,94.35,208.14ZM88,216.66l-.52.32c-.16,0,.08.12,0,.92,0,.28,0,1.52.24,1.28a23.42,23.42,0,0,1,1.76-2.88c.08-.12.16-.2.2-.28A12.26,12.26,0,0,0,88,216.66Zm5,14c-.44.92-1.4,1-2.6.36a6.13,6.13,0,0,1-1.56-2.6c-.44-1.32-.4-2.24.56-2.4a2.09,2.09,0,0,1,2.12.24c.24-.44.72-.32,1.44.52l.2.6A3.44,3.44,0,0,1,93.07,230.66Zm1.08-17.92-.48.48a17.91,17.91,0,0,1-2,1.84,12.88,12.88,0,0,1,1.08.84,1.48,1.48,0,0,1,.2,1.44,2.13,2.13,0,0,1-.84,1,5,5,0,0,0-2.32.88c-.28.32-.6.72-1,1.24a15.34,15.34,0,0,1,4.68-.6,41.22,41.22,0,0,1,1-6.72C94.51,212.5,94.35,212.58,94.15,212.74Z"/><path class="cls-1" d="M18.23,59C12.9,62.17,9,63.82,6.52,63.77c-3-.38-4.67-1.81-4.73-4.29.27-1.1,1.21-1.81,2.8-2.25A74.9,74.9,0,0,1,12.68,54a10.57,10.57,0,0,0-1.37-2.09c-.88-1.54-1.15-2.75-.71-3.68A4.62,4.62,0,0,1,15,47.38q3.38,2.47,4.12,4.78c1.59.22,2.42,1.43,2.58,3.52A8.32,8.32,0,0,1,18.23,59Zm32,32a34.74,34.74,0,0,1-13.91,2A10.18,10.18,0,0,1,29,86.7,65.6,65.6,0,0,1,30.38,73c.44-1.15.27-1.21-.6-.6a94.5,94.5,0,0,1-11,15.89,2.27,2.27,0,0,1-2.2.5,7.19,7.19,0,0,1-1.37,2.14c-.27.82-1.27,1.54-2.8,2.2-.66.44-1.27.6-1.65.38a2.72,2.72,0,0,1-.93-.66c-.72-.55-.88-1-.66-1.37A18,18,0,0,0,9,89.67a.81.81,0,0,1-.33-1c-.66-.49-.82-.93-.66-1.1.6-.83,4.73.88,4.73-1.54a23.37,23.37,0,0,0,0-5.55,9.22,9.22,0,0,0-3.35,1.27A11.27,11.27,0,0,0,7.78,86c-.88,1.81-2,2.25-3.41,1.1a8.33,8.33,0,0,1-1.76-5.28,3.12,3.12,0,0,1,2.8-2,2.42,2.42,0,0,1,1.32.94c.11.22.28.11.55-.11a10.74,10.74,0,0,1,5.22-1.81,11.64,11.64,0,0,0-.17-1.65,1.86,1.86,0,0,1-2.8.06,15.59,15.59,0,0,1-4-8.41c0-2.47.82-3.74,2.25-3.35,3.08-1.32,6.1-2.47,9-3.46a2.75,2.75,0,0,1,3.08-.6c1.32.27,2.09.88,2,1.87a34.49,34.49,0,0,0,7.2-3.52C31,55,32.64,51.89,34,50.46c1-1,2-.6,3.08.93a4.51,4.51,0,0,1-.66,4.67c-.38.44-.33.55.06.22a3,3,0,0,1,2-.77c.66.33,1.32.72,2.09,1.1.55.44,1,.82,1.59,1.21.71,1.32.05,2.64-1.76,3.85-1.16.77-8.52,5.55-9.73,8,.22-.11.88.11,1.38-.27.93-1.76,2-2.42,3.46-1.59s1.38,2,.44,4.18C34.73,80,34.4,84.28,34.89,84.89s1.76,1,3.79,1a43,43,0,0,0,7.42-1,43.39,43.39,0,0,1,.17-5.39c.82-1.1,1.65-1,2.42.17a4.33,4.33,0,0,0,2.15,4.18C53,86,52.77,88.4,50.18,91ZM12.35,69.43a4.14,4.14,0,0,0,.27,2.2c2.09-.82,2.25-2.2,2.42-3.63A10.48,10.48,0,0,0,12.35,69.43ZM20.71,66a5,5,0,0,0-.88,1.76,29.27,29.27,0,0,0-.49,3.79A2.27,2.27,0,0,1,18,73.39c-1.15.72-2.25,1.43-3.24,2.15A5.35,5.35,0,0,1,17,77.79a7.45,7.45,0,0,1,4.62,1.43c1.54-3.13,2.91-6.21,4.12-9.29A6.74,6.74,0,0,1,20.71,66ZM17.19,81.31a21.29,21.29,0,0,1,.06,4.18.74.74,0,0,0,0,.5,32.89,32.89,0,0,0,2.14-3.24A13.83,13.83,0,0,1,17.19,81.31Zm30.63-25a3.73,3.73,0,0,1-3.68.22,17.3,17.3,0,0,0-2.31-3.57c-.82-1.7-.22-2.75,1.71-3a13.55,13.55,0,0,1,4.56,2.2A3.57,3.57,0,0,1,47.82,56.29Z"/><path class="cls-1" d="M47.71,117.53c-2.69-1.15-6.49-1.7-11.33-1.1-2.53.33-5.28.66-7.75,1.1a6.59,6.59,0,0,1-3.13,2.2,1.89,1.89,0,0,1-2-1.15c-2.25.55-4.62,1.27-6.87,1.92A82.25,82.25,0,0,0,7,124.3c-1.48,1.21-2.91,1.27-4.18.22s-1.27-2.42,0-3.68c.66-.33,1.43-.6,2.31-.94s1.76-.55,2.75-.88c7.15-2.25,12.15-3.74,14.63-4.07.6-.17.77-.6.88-1.32-1.43.44-2.58-.11-3.41-1.59-.71-.83-1.37-1.59-2-2.25-.82.5-1.65.94-2.53,1.38a17.8,17.8,0,0,0-4.51,3.79,30.09,30.09,0,0,0-3.74.66c-1.1.11-1.54-.16-1.37-.55s.83-1.1,2-2a31.1,31.1,0,0,0,4.89-5.55,5.45,5.45,0,0,1,2.86-2.15c1.92,0,3.19.33,3.68,1a1.8,1.8,0,0,1-.44,1.43,10.81,10.81,0,0,0,2.42-.71c1.1-.49,1.54-.77,2.64-1.26a48.2,48.2,0,0,0-.22-4.84c.33-1,.88-2.09,1.81-2.2a7.54,7.54,0,0,1,4.23,1.38c.77.77.28,2.2.44,3.79,2.64-1.27,5.22-1.37,6,.27,1.1,2.2,1.43,4,0,4.95A21.51,21.51,0,0,1,29,112a8,8,0,0,0,.11,1.65,152.46,152.46,0,0,0,15.78-2,3.8,3.8,0,0,1,3.46.82,3.93,3.93,0,0,1,2,3.46C49.91,117.37,49,117.92,47.71,117.53Zm-6.16,29.53a14.43,14.43,0,0,1-6.1.33c-.6,1.15-1.21,2.8-2.69,3.68-.82.82-2,.93-3.46.38-.66-1.37-.5-3.19-.55-4.45.11-5.33.11-10.72,0-16.22a3.84,3.84,0,0,1,.83-3.3A27.32,27.32,0,0,1,25,129.25c1.38,1.65,1.54,3,.17,4a9.69,9.69,0,0,0-.94,5.33,11.89,11.89,0,0,0,3-2.8c.38-.71.88-.82,1.15.11a12.28,12.28,0,0,1-4.12,4.73q.08,4.62,0,8.74c-.71,1.65-1.7,2.25-3,1.54-.33-.71-.44-2.36-.39-5-2,.83-4.23,1.59-6.76,2.47-1.48.5-2.25-.05-2.31-1.76-.33-1,.27-1.87,1.6-2.47A46.08,46.08,0,0,0,21,141.46v-2a23.14,23.14,0,0,1-7,1.65,4,4,0,0,1-2.14-3.3,10.65,10.65,0,0,1,3.24-.66A39.23,39.23,0,0,0,21,136L21,133.48A18.76,18.76,0,0,1,16,135a3,3,0,0,1-3.41-2.58,2.91,2.91,0,0,1,2.86-2.31,17.07,17.07,0,0,1,6,.44c.11-.44.27-.88.44-1.37a11.93,11.93,0,0,1-2.8-4.95c-.17-2.2.55-3.57,2.25-4l1.76,1.21c2.42-1.15,4.73-2.31,7.53-2.31,1-1.43,2.25-1.87,3.63-1.15,1.59,1.38,2,2.86,1,4.4a12.21,12.21,0,0,1-3.24,3.52A4.43,4.43,0,0,1,34.95,128c3.46-1,5.61-.77,6.1,1a2.81,2.81,0,0,1-2,3,12.15,12.15,0,0,1-4,.82,8.81,8.81,0,0,0-.27,2.31,9.35,9.35,0,0,0,3.19-.77c1.32-.44,2.47.17,3.41,1.7.06,1.7-.49,2.69-1.76,3a13.45,13.45,0,0,1-4.78.93,7,7,0,0,0,.22,2.86,15.7,15.7,0,0,0,4.62-1c1.48-.11,2.64.77,3.52,2.53C43.42,145.53,42.81,146.41,41.55,147.07Zm-13.09-24.8-3.68,1.92a7.23,7.23,0,0,0,.77,2,9.58,9.58,0,0,1,3-1.32,15.47,15.47,0,0,1,1-1.59c.22-.82.5-1.43.38-1.59S28.84,122,28.46,122.26Z"/><path class="cls-1" d="M51.12,190.26a3.33,3.33,0,0,1-2.31-.94,2.12,2.12,0,0,1-2.69,1,23.11,23.11,0,0,1-5.22-2.64,27.28,27.28,0,0,1-7-4.95c-.39-.33-.5-.27-.39.17a9.06,9.06,0,0,1-2.2,7.59c.33,1.27-.44,2.36-2.14,3.35-.33.22-.5.33-.39.44s.44.33,1.16.5c.77-.55,1.76-2.14,3.08-4.78.44-.88,1.26-1,2.31-.6,1.7.77,2.2,2.14,1.48,4.07a10.09,10.09,0,0,1-2.8,2.69,20.74,20.74,0,0,1,7.64,5.22,3.82,3.82,0,0,1-1.54,4.51,5.72,5.72,0,0,1-3.3-1.48,11.22,11.22,0,0,1-2.31-1.54c-1.21-.71-2.53-1.49-4-2.31A.74.74,0,0,0,30,201.7c-.5.88-1.54,1.43-3.08,2.2a34.58,34.58,0,0,1-5.5,2.14c-1,.33-2.25.6-3,.83-1.43.38-2.53,0-3.57-1.54s-.94-2.75.33-3.52l1.48-.33a120.76,120.76,0,0,1,.22-15c.27-3.3,1.21-5.28,3-5.66a13.53,13.53,0,0,0,2-.22c.88-.11.82-.27.27-.66a2.12,2.12,0,0,1-1.1-1.7,6.89,6.89,0,0,0-2,1.92c-2.31,3.19-4,5.72-5.22,7.48a103.82,103.82,0,0,0-5.94,9.84c-1,1.32-2,1-2.64-.6-.39-1.43.05-3.13,1.37-5,2.47-3.46,5.28-7.31,8.3-11.66a4.93,4.93,0,0,1-2.53-1.87c-1-.77-1.15-1.59-.27-2.36,1.65-.77,4.73-1.26,7.09-2,1.81-.22,1.87-1.37,2.2-1.92-2.86.55-4.89,1.37-5.88,1.43-1.1-.22-1.65-1-1.7-2.42a2.64,2.64,0,0,1,.94-2.25,9.78,9.78,0,0,1,2.91-.55c1-.11,2.2-.22,3.35-.39.55-.17.77-.27.77-.44.05-.6,0-.88-.27-.82a35.27,35.27,0,0,1-5.77,1.1c-1.48-.22-2.36-1.32-2.69-3.13-.27-1.43.39-2.36,1.92-2.75a7.11,7.11,0,0,0-1.59-3,1.82,1.82,0,0,1,.27-2.64c1.54-1,2.64-1.1,3,.17A3.46,3.46,0,0,0,17,158a8,8,0,0,1,.44,3.24,89.67,89.67,0,0,0,12-2,43.72,43.72,0,0,0,3.74-4.12c.72-1.15,1.76-1.32,3.08-.55,1.37,2,1.65,3.35.11,3.63a20.67,20.67,0,0,0-3.08,1.32.34.34,0,0,1,.22.11c.22.17.6.38,1.15.71,1.1,1.38,1.15,2.53,0,3.35a14.61,14.61,0,0,1-4,1.21c-.49.11-1.15.22-1.92.33l-.16,1.15a16.16,16.16,0,0,1,4.56-.5c1.48.6,1.21,2.64-.16,4a18,18,0,0,1-4.4,1.15c-.06.22-.44.94-.11,1s1.71-.44,2.69-.55c3.3-.44,5.22-.39,6,.38a3.28,3.28,0,0,1,.66,3.13A1.92,1.92,0,0,1,36,176.18l-.94.05a26,26,0,0,0,6.1,4.34c3.13,1.7,5.88,3.24,8.25,4.67.88.82,1.65,1.54,2.42,2.14C52.6,188.39,52.33,189.33,51.12,190.26Zm-26.73-.11a7.25,7.25,0,0,1-1.81.44c-.6.11-1,.77-1.1,2.2.88-.33,1.76-.11,2.53-.49a6.16,6.16,0,0,0,2.25-.94,16.85,16.85,0,0,0,.94-2.69A8.19,8.19,0,0,1,24.39,190.15Zm-.11,7.31c-.6-.38-1.15-.49-1.43-.82-.83.44-1.16.82-1.1,1-.06,1.21-.11,2.25-.11,3.08.82-.17,2.09-.44,3.74-.83A4.23,4.23,0,0,0,27,198.79C25.33,198.79,24.34,198.23,24.28,197.46Zm.6-13.14a4.28,4.28,0,0,0-2.75,1.38l-.06.66a26.11,26.11,0,0,0,2.69-.55c1.54-.55,2.64-.55,3.08.33a7.85,7.85,0,0,0,.5-2.91A15.08,15.08,0,0,1,24.89,184.32Zm1.87-7,.82,1.32c.27.6,1,.88,2.53.6C29.06,177.72,28,177.12,26.75,177.34Z"/><path class="cls-1" d="M13.78,253.24a5.32,5.32,0,0,0-.66,2.58c-.88,1.32-2.14,1.54-3.68.71A14.94,14.94,0,0,1,6.79,252c0-2.2,1.15-3,3.41-2.47a2.42,2.42,0,0,0,2,.77,3.12,3.12,0,0,1,2-.44c.38.11.49.6.06,1.43A8.39,8.39,0,0,0,13.78,253.24Zm36,4.45a10,10,0,0,1-5.33,1.76c-4.23,0-7.31-1.54-8.85-4.45a24.38,24.38,0,0,1-2.36-10.78c-2.2.22-4.45.55-6.82,1-.71,0-.71,1-.71,3,.06,4.56-.71,7.81-2.09,9.68a5,5,0,0,1-2.25,2.58c-2.53,1.21-4.23,1.26-4.67-.55.11-1.59-.22-2.47-.88-2.86a.5.5,0,0,1-.11-.88,3.4,3.4,0,0,1,1.32-.82c2.48-.44,3.57-1.76,3.41-4,.06-1.54.11-3.13.11-4.78-1.87.71-3.68,1.26-5.44,1.81-3.63,1.1-6,1.16-6.93-.33a2.46,2.46,0,0,0-.66-1.43,3.48,3.48,0,0,1,3-4.29l2.2-.44a19.11,19.11,0,0,0-1.21-1.7,16.24,16.24,0,0,1-1-5,2.34,2.34,0,0,1,3.24-1.37c-.27-1.43.55-2.58,2.36-3.41a83.6,83.6,0,0,1,12.37-3.68,28.8,28.8,0,0,1,6.87-2.09c1-1.65,2.2-2.47,3.57-2.25,1,1,1.26,2.75.71,5.17a11.79,11.79,0,0,1-1.21,3.63,42.62,42.62,0,0,0-1.15,7.92,30,30,0,0,0,.39,7.86c.71,3.79,2.58,5.66,5.17,5.88a8.75,8.75,0,0,0,3.35-.11c.55-.22.71-.55.49-1-.22-1.7-.17-2.86.55-3.35a3.17,3.17,0,0,1,2.09,2.53c.11.22.44.39,1.15.5a2,2,0,0,1,1.76,2.86A7.46,7.46,0,0,1,49.8,257.69ZM34.62,216c-1.15.55-2.64,1-4.34,1.92-3.85.83-6.32,1.16-7.42.28a12.56,12.56,0,0,1-2-1.76,4.89,4.89,0,0,1-3.46,3c-1.15-.11-2.75.6-4.78,2.25-2.31,1.15-4,1.43-4.34.05a5.37,5.37,0,0,1,2.09-4.62,45.11,45.11,0,0,1,4.34-4.4,7.39,7.39,0,0,1,2.75-1.49l.6-.27c1.65-.61,2.69,0,3.08,1.7,0,.5.17.71,1.27.33,1.7-.66,3.74-1.32,6.1-2.09,2.36-1.37,4.23-1.87,5.66-1.26a3,3,0,0,1,2.25,3C36.87,213.59,36.1,214.74,34.62,216ZM19.55,238.22a1.62,1.62,0,0,0-.88-.71,2.68,2.68,0,0,0-1.37-.77,5.66,5.66,0,0,1-1.21-.17c-.22.11-.22.5-.06,1.16.55,1.15.77,2,.38,2.53a2.09,2.09,0,0,0-.27.88c.83-.28,1.6-.5,2.42-.71,1.26,0,1.92-.11,1.92-.55A3.62,3.62,0,0,0,19.55,238.22ZM34,222.11a16,16,0,0,1-2.36,2.36c-4.73,1.92-8.3,2.47-10.78,1.59-1.81-1.43-2.69-2.8-2.42-4.12.38-.88,1.7-1.32,3.68-1.37,1.1-.33,1.81.05,2.69-.28a14,14,0,0,0,3.63-.88c3.13-.82,5.55-1.65,6.32-.55.06.61.11,1.21.11,1.87A1.86,1.86,0,0,1,34,222.11Zm-8.69,11.71-.71.44c-.22.05.11.17,0,1.26,0,.38.05,2.09.33,1.76a32.18,32.18,0,0,1,2.42-4c.11-.16.22-.27.27-.38A16.74,16.74,0,0,0,25.33,233.83Zm6.93,19.25c-.6,1.26-1.92,1.32-3.57.5A8.42,8.42,0,0,1,26.54,250c-.6-1.81-.55-3.08.77-3.3a2.87,2.87,0,0,1,2.91.33c.33-.6,1-.44,2,.71l.27.83A4.74,4.74,0,0,1,32.25,253.07Zm1.48-24.64-.66.66a24.84,24.84,0,0,1-2.8,2.53,17.48,17.48,0,0,1,1.48,1.15,2,2,0,0,1,.27,2,2.92,2.92,0,0,1-1.15,1.43,6.79,6.79,0,0,0-3.19,1.21c-.39.44-.83,1-1.37,1.7a21.07,21.07,0,0,1,6.43-.82A56.79,56.79,0,0,1,34.18,229C34.23,228.11,34,228.22,33.74,228.44Z"/><path class="cls-1" d="M51.72,307.67a2.17,2.17,0,0,1-2.09.06,3.65,3.65,0,0,1-1.37-.66,4.88,4.88,0,0,1-1.1,1.21c-.6.6-1.92.5-3.85-.11-6.38-2.09-12.87-6.43-19.25-13.2-1.21-1.26-2-2-2.86-2.2A4.17,4.17,0,0,0,17.85,294c-3.24,3.68-6.82,7.59-11,11.66a3.36,3.36,0,0,1-3.46-.22A3.58,3.58,0,0,0,2,306.51c-.83.28-1.38-.17-1.76-1-.6-.77-.06-1.87,1.1-3.24,8.36-10.45,15.45-19.47,21.34-26.95a2.57,2.57,0,0,1,2.58-1.7,8.92,8.92,0,0,1,3.19,3.24c.44.83.22,1.87-.44,3.08A39.79,39.79,0,0,0,24.5,285a6,6,0,0,1,3.3,2A63.06,63.06,0,0,0,43,299c4,2.15,6.21,3.58,6.71,4.24a3.63,3.63,0,0,0,1.59,1.37c1.26.71,1.81,1.54,1,2.31A1.11,1.11,0,0,1,51.72,307.67Z"/><path class="cls-1" d="M50.29,355a2.53,2.53,0,0,1-2.2-.33c-.77-.17-1.32.5-1.76.77s-1,.5-3.35-.17c-7.37-2.86-12.37-5.66-15.07-8.41-2.47-.83-4.23-1-5.33-.72a62.31,62.31,0,0,0-7.15,7.42c-5.77,4-10.28,7.42-13.14,9.79C.69,364.69,0,363,.69,361.5c2.8-2.64,5.11-5,7.59-7.53,2.36-2.31,4.73-4.4,6.65-6.71a26.61,26.61,0,0,0-6.27,3.08,5.29,5.29,0,0,1-3.19-1.87,1.87,1.87,0,0,1,1-2,18.87,18.87,0,0,0,1.15-2.92c1-2.8,2-4.45,3.13-4.45q2.23.74,1.48,2.8a31.59,31.59,0,0,0-2.8,3.63c2.47-.94,4.62-1.71,6.49-2.2a3.1,3.1,0,0,1,1.1-2.31,2.55,2.55,0,0,1,2.8.93c1.38-1.65,2.58-3.3,3.74-4.89.22-.61,0-.66-.44-.66-.93.27-2.36.66-4.4,1.15-2.64.88-4.56.88-5.33-.33-.6-2-.27-3.46,1.15-4.34h2.47a5.51,5.51,0,0,1,.71-.88,5.41,5.41,0,0,1-1.54-.44c-2-1-1.87-1-2.58-3.24a5.56,5.56,0,0,1-3.13-1.1,2.38,2.38,0,0,1-.66-1.92,4.45,4.45,0,0,1,4.45-3.35,2.65,2.65,0,0,1,1.7-2.8,8.48,8.48,0,0,0,3.63,1.48,3.62,3.62,0,0,1,.66.66,6.16,6.16,0,0,1,4.34,1c.27,1.87-.55,3.13-2.47,3.85a8,8,0,0,1-2.8,1.27,10.41,10.41,0,0,0-.22,3.19,16.11,16.11,0,0,1,2.31-2c1.54-.71,2.75-1,3.63-.6.77,2.36.6,3.9-.93,4.18a6.77,6.77,0,0,0-2.31.88,5.14,5.14,0,0,0,1.48-.11,46.39,46.39,0,0,0,6.49-1.1c-.06-.88-.11-1.76-.11-2.8.6-.83,1.48-.83,2.47-.22a7,7,0,0,1,2.53,5.77,3.66,3.66,0,0,1-2.36,1.87c-1.59.44-2.53.17-2.53-1l.22-.83c-1,.33-2,.61-3,.93a3.15,3.15,0,0,1,1.32,4,17.76,17.76,0,0,0-2.8,2.09,16.79,16.79,0,0,1,2.53.88c.5-.44,1.32-1.43,1.7-1.87a59.19,59.19,0,0,1,4-4.4,2.75,2.75,0,0,1,3.79-.22c.39,1.65.06,2.75-1.15,3.25a17.94,17.94,0,0,0-4.23,3.13c3.19-.5,4.67-1.1,4.84-1.65.77-2,2-2.64,3.41-1.21.71,2,.71,3.58-.06,4.73-1.48,1-2.69,1.1-3.57,0a12.88,12.88,0,0,0-2.64,1.16c5.39,2.31,11.49,5.33,16.77,6.87a2,2,0,0,1,1.59,2.2C52.33,355.12,51.06,354.57,50.29,355ZM21,370.79A15.4,15.4,0,0,1,18.29,372c-.88.28-1.21.11-1.21-.44a65,65,0,0,1,8.63-8.8l2.14-3.13c1.54-1.71,2.75-2.09,3.35-1.43,1.1.71,1.15,2,.33,3.63A17.44,17.44,0,0,1,21,370.79Zm5-11.6c-3.13,2.58-5.55,3.85-7.2,3.52-.22-1.1.44-2.37,1.87-3.79a20.3,20.3,0,0,0,3.63-4.56c-.11-.28-.38-.33-1.1,0A18.69,18.69,0,0,1,18.4,356c-1.1.11-1.48-.33-1.1-1.15a6.23,6.23,0,0,1,2.09-3.35l3.35-3a4.51,4.51,0,0,1,3.85-.94c1.81,1.87,2.58,3.3,1.48,4.07a6.16,6.16,0,0,0-2.09.94c1.87.27,3.13,1,3.74,2.31C29.56,356.66,28.3,358,26,359.19Zm12.92-32.61a8.51,8.51,0,0,1-5.77-.66l-3.3,2.25c-.94.44-2.8.44-2-1a25.2,25.2,0,0,0,4-5.88c1-2.31,3-2.36,4.67-.71a6.41,6.41,0,0,1,6,1C43.58,323.61,42.26,325.26,38.91,326.58Z"/><path class="cls-1" d="M21.48,418.61c-.17-.66-.66-7.09,4.73-8.58,1.32-.33,2.42.05,2.69,1a10.94,10.94,0,0,1-.33,5.06c-.5,1.6-3.08,3.63-4.34,4A2.08,2.08,0,0,1,21.48,418.61ZM29,403.81c.71-1.92,2.86-20.29,2.42-22-.22-.77-1-1.1-2.09-.77-2.53.66-5.28,2.58-6.16,4.29a8.07,8.07,0,0,0-.71,2.91c-.6,6.93-.5,17.54-.11,19a1.64,1.64,0,0,0,2.2,1.26C25.88,408.1,28.4,405.52,29,403.81Z"/></g></g></svg>