<svg xmlns="http://www.w3.org/2000/svg" viewBox="0 0 108 355.58"><title>title</title><g id="圖層_2" data-name="圖層 2"><g id="圖層_1-2" data-name="圖層 1"><path d="M102.79,7.38a5.71,5.71,0,0,0-4.64-1.84C87.48,6,80.92,7,78,8.78a5.07,5.07,0,0,1-5.48-.32,5.11,5.11,0,0,1-2.28-3c.16-1,1.44-1.8,3.6-2.4C82.16,1.7,89.71.42,97.11.82c.56,0,1.08.16,1.56.24,1.84.28,2.76,0,3-.6.92-1.16,2.52,0,4,1.68,1.28,1.76,1.56,3.32.76,4.68C105.19,8.06,104,8.3,102.79,7.38Z"/><path d="M101.79,48.8c-2.88,0-5.76.24-8.6.52v7.56a12,12,0,0,1-1.32,3.88A5.8,5.8,0,0,0,90.63,63c-.28,1.12-.92,1.08-1.64.12q-1.2-4.26-.72-13.32c-1.8,0-5.4.72-10.72,2.24A25.91,25.91,0,0,0,74,53.44c-1.6,1-2.88.72-3.72-.76a3.64,3.64,0,0,1,1.88-4.2c1.76-.48,3.48-1,5.16-1.52l2.2-.48c-.36-2-.32-3.32.44-3.6,1.4,0,2.6,1,3.64,2.72,1.48-.28,3-.52,4.44-.76a11.22,11.22,0,0,0,.2-2.56c-2,.36-3.44.12-4.36-.72a3.07,3.07,0,0,1-1-2.64,1.68,1.68,0,0,1,1.88-1.64c1.32-.24,2.68-.48,4-.68A9.44,9.44,0,0,0,88.64,34c-1.92,0-2.56-1-3.72-2.28C82.48,32.84,80,34,77.56,35.28a17.25,17.25,0,0,1-3,1.08c-.48-1.08,1.12-2.52,1.84-3.16.36-.32.72-.6,1-.88,1.32-1.12,2.6-2.36,4-3.56a4.35,4.35,0,0,0,1-1.12c1-1.16,2-1.56,2.88-.84a2.86,2.86,0,0,1,1.12,2,9.83,9.83,0,0,0,3.36-.56c1-.4,2.08-.8,3.08-1.2a4,4,0,0,1,4.28.52,3.52,3.52,0,0,1,1,2.92,1.39,1.39,0,0,1-1.56,1.32,4.8,4.8,0,0,0-3.72,3.72,2.24,2.24,0,0,1,2.52.2,3.13,3.13,0,0,1,2.08,2.16c.16,1.28-.52,2.28-2,3l-2,.48a7.83,7.83,0,0,0-.44,3.08c2.08-.32,4.12-.64,6.16-.84a8.65,8.65,0,0,1,4.16.72,3.89,3.89,0,0,1,1.24,2.92C104.67,48.32,103.55,48.76,101.79,48.8Z"/><path d="M106.47,91.71a2.21,2.21,0,0,1-1.68-.16,3.89,3.89,0,0,0-2.4-.44c-1.2,0-2.32,0-3.36.08.8,4.24.8,7.2,0,9.52a1.89,1.89,0,0,1-1.24.72,10.68,10.68,0,0,0-.88.68c-.56.44-1.08.6-1.6,1.08a1.56,1.56,0,0,1-2-.48c-.2-.6-.64-1.16-.92-1.88-.6-1.68-.24-2.16,1.24-1.76.48.2.76,0,.6-1.28,0-2.08,0-4.08.08-6.08l-5.12,1.08A4,4,0,0,1,91,94a2,2,0,0,1-.28,3,1.9,1.9,0,0,1-2.8,0,4,4,0,0,1-.8-1,5.32,5.32,0,0,1-.48-2c-.56.28-1.12.6-1.72,1-.72.16-1.36-.36-2-1.44-.24-.6-.44-1.2-.64-1.76a14,14,0,0,0-2,.76c.4,5.24.32,8.28-.24,9.08a1.45,1.45,0,0,1-2,.72,6.08,6.08,0,0,1-.76-3.28,49.37,49.37,0,0,1,0-5.44q-2.46,1-4.92,2.16a1.25,1.25,0,0,1-1.72-.6c-.76-.8-.72-1.56.24-2,2.92-1.36,6.36-2.4,6-3.8a2.6,2.6,0,0,1-3.24-1.24,23.81,23.81,0,0,1-2.52-9.64c-.08-1.64.4-2.6,1.48-2.8a2.72,2.72,0,0,1,1.4.72c.24.24.6.2,1.2-.36.64-.08,1.52-.24,2.64-.44V74.47a2.45,2.45,0,0,1-2.12-1.84,1.12,1.12,0,0,0-.44-1c-.44-.56-.24-1.12.44-1.6q1.38-.48,2.76-.84c0-.6,0-1.2,0-1.76a1.51,1.51,0,0,1,1.64-1.56,1.75,1.75,0,0,1,1.32,1.8A2.47,2.47,0,0,1,84,69.31c.44,1.12,0,2.2-1.32,3.28-1.24.52-1.84,1.24-1.84,2.08,1.32-.44,2.28-.4,2.84.2C84,73.79,84.84,73.47,86,74a3.86,3.86,0,0,1,1.56,1.92c.36-.48,1.76-.88,3.92-1.2l0-1.44a2.54,2.54,0,0,1-3-1.76c-.36-1.68.16-2.6,1.6-2.56a3.55,3.55,0,0,0,1.68-.32,3.21,3.21,0,0,1,1.08-2.36,1.58,1.58,0,0,1,2.2-.12,1.9,1.9,0,0,1,.8,1.44,12.79,12.79,0,0,0,1.6-.88c1.2-.24,1.76.32,1.72,1.64a3.42,3.42,0,0,1-1.76,3.44,19.23,19.23,0,0,1-2.28.84v.88a10,10,0,0,1,3.36.08c.56.08.84-.16.88-.8s.88-.76,2-.32c1.32.84,1.56,2.6.8,5.28A13.44,13.44,0,0,1,99.11,81c.32.6,0,1-.68,1.2a2.19,2.19,0,0,1,1.12,1.56A1.53,1.53,0,0,1,99,85.23c-.36.28-.32.72-.52,1.36-.16.36-.4.48-.68.28a3,3,0,0,1-1.08-1.08,4.54,4.54,0,0,1-.68.56A2.7,2.7,0,0,1,98,88.19a28.41,28.41,0,0,1,3.88-.84,2,2,0,0,0,1.44-.64,1.12,1.12,0,0,1,1.28.24,1.37,1.37,0,0,0,1.24.32c.92.08,1.28.88,1.28,2.2C107.11,90.63,107,91.43,106.47,91.71Zm-29-12.48a12,12,0,0,1-2.44.88A12.34,12.34,0,0,0,76.72,86c.48,0,.52-.68.68-2a.9.9,0,0,1-1.16-.12,2.64,2.64,0,0,1,1.28-3.16ZM94,87.63c-1.2.44-2.4.88-3.56,1.36a2.16,2.16,0,0,1-2.48-.52,1.63,1.63,0,0,1,1.48-2.24c.84.08,1.24-.12,1.32-.52-1.88-.28-3.24-1.52-4.12-3.72A21.51,21.51,0,0,1,82,86.55a3.62,3.62,0,0,0-1.8,2.36c1.2-.52,2.24-.92,3.44-1.36,1-.44,1.76-.48,1.84.24a8.54,8.54,0,0,0,.32,1.28,1.89,1.89,0,0,1-.52,1.72A58.83,58.83,0,0,0,94,88.71,9.12,9.12,0,0,1,94,87.63ZM81.24,82.35c-.84.24-.84,1.4-1,2.24a3.09,3.09,0,0,0,1.88-2.52Zm-.48-4.52-.08,1.68c.88-.28,1.44,0,1.64.8A13.93,13.93,0,0,0,82.68,77,6.17,6.17,0,0,1,80.76,77.83Zm10.44-.64-1.72.44a2.42,2.42,0,0,0-1.16,2.56,3,3,0,0,0,1.36,2.08.86.86,0,0,0,1.24-.68c-1-1.72-1-2.8.28-2.88Zm4.88,5.88c-1,.44-2,.8-2.24,1.36,0,.16.12.52,0,.72l.48-.16a15.8,15.8,0,0,0,2-.72A3.94,3.94,0,0,0,96.07,83.07Zm-1-6.88.08.68a1.19,1.19,0,0,1,1.52.88,1.68,1.68,0,0,1-.76,1.4c-.64.2-1.12,1.28-1.24,1.72a4.79,4.79,0,0,0,2.84-2.44c.2-.4.36-.8.52-1.16a3.83,3.83,0,0,0,.64-2.76A37.5,37.5,0,0,1,95.11,76.19Z"/><path d="M83.48,136.13a9.58,9.58,0,0,1-2.92,3.64c-1,.76-1.76.84-2.2-.08a22,22,0,0,1,.24-6c-1.16.68-2.32,1.4-3.44,2.2-.12,1.56-.88,2.24-2.28,1.84-.84-.68-1.4-2-1.76-3.92,0-.48,0-1,0-1.64a106.69,106.69,0,0,1,.44-16.4,12.77,12.77,0,0,1,1.16-4,1.78,1.78,0,0,1,2.32-.32,13.15,13.15,0,0,1,3.76,0c.12-1.32.88-1.84,2.2-1.48A2.9,2.9,0,0,1,83.72,113C84.2,122.81,84.2,130.49,83.48,136.13Zm-4.6-17c-.6.84-2,1.64-4.12,2.48-.08,1-.12,1.92-.12,2.92l.76-.32c1.48-.52,2.56-.44,3.16.56-.12,1.52-1.44,2.64-3.76,3.44,0,1,0,2.08,0,3.28l4.2-2.28Q79.12,122.87,78.88,119.1Zm-4-1.8a3,3,0,0,0,1.36-.6c.56-.64,1.4-.6,2.44-.08q.06-1.92.12-3.36C76.28,113.82,75,115.18,74.92,117.3Zm31.83,23c-.68-.24-.92-.36-1.32-1.28a12.27,12.27,0,0,1-1,1,1.48,1.48,0,0,1-1.52.28,15.67,15.67,0,0,1-6-4.28A34.89,34.89,0,0,1,86,142.85a2.41,2.41,0,0,1-2.76-1c-.48-1.88-.28-3.08.88-3.4a7.36,7.36,0,0,0,2.2-1c0-6.56.4-13.16.28-19.8l-.08-3.16c.24-2.2.68-3.8,1.52-4.68,1-1.08,1.88-1.08,2.56,0a9.24,9.24,0,0,1,2.88-.6,10.19,10.19,0,0,0,3-.8c.52-1.08,1.24-1.64,2.16-1.4,2,.68,3,2.64,2.88,5.64a17.13,17.13,0,0,1-4.8,10.52,3.44,3.44,0,0,1-1,2,13.92,13.92,0,0,0-1.92,1.24c.64.44,1.24.88,1.84,1.32,1.24-1.44,2.44-2.88,3.64-4.32.48-1.28,1.28-1.72,2.32-1,1.76,1.2,2.24,2.56,1.32,4A37.76,37.76,0,0,1,97.35,129c2.64,2.08,5.28,4.2,8,6.36a6.91,6.91,0,0,1,1,1.2c.88.32,1,.8,1.68,1.76C108.07,139.65,107.75,140.17,106.75,140.29Zm-16.2-10.16c0,1.84-.08,3.72-.08,5.68a17.34,17.34,0,0,0,4.44-2C92.55,131.09,91.12,130,90.56,130.13Zm4.52-17.72a8.31,8.31,0,0,1-3.48,1.16,19.75,19.75,0,0,1-.24,2.08,7.83,7.83,0,0,1,3.32-.32c1.12.68,1.24,1.6.44,2.68-.72.92-2.12,1.44-4.08,1.64-.08,1.12-.2,2.2-.32,3.28a10.7,10.7,0,0,1,3.56-1.76,3.17,3.17,0,0,1,.88-2.36c.56-.88.92-3.16,1.08-6.88A5.15,5.15,0,0,0,95.07,112.42Z"/><path d="M76.32,172.72a8.8,8.8,0,0,1-2.36-4.8c0-.76-.24-1-.6-.92a1.63,1.63,0,0,1-1.64-1.16,3,3,0,0,1,.68-2.32,8.06,8.06,0,0,1,3.24-2.16l.68-.12a2.6,2.6,0,0,1,1.76,1.68,3.35,3.35,0,0,1-.6,1.88,6.64,6.64,0,0,0,.16,5.16c.8,1.08,1.2,1.92,1,2.48A1.61,1.61,0,0,1,76.32,172.72Zm28.88,7.64c-.92,0-1,.28-.8.76.28.76-.32,1.32-1.4,1.44a40.82,40.82,0,0,1-17.16-1.48,19.44,19.44,0,0,1-4-1.8,5.23,5.23,0,0,0-4.52-.68c-2.6.76-4.32.88-5.08.2a4.87,4.87,0,0,1-.52-2.68c.08-1.16.84-1.72,2.12-1.64a12,12,0,0,0,2.28-.48,10.26,10.26,0,0,1,5.56.48,17.12,17.12,0,0,1-1.72-6.64,19.14,19.14,0,0,1-.16-4.6c.6-1.6,1.72-1.68,3.2-.44.4-.08.84-.2,1.32-.32l.32-.08a7,7,0,0,1-1.36-4.24c-.08-1.84-.12-3.6-.28-5.24a15.25,15.25,0,0,1,.52-2.68,1.29,1.29,0,0,0,.2-1.2c-.4-1.28,0-2,1.32-2.16A5.62,5.62,0,0,1,87.36,148a27,27,0,0,0,4.08-.56,1.24,1.24,0,0,1,1.88.28,1.9,1.9,0,0,1-1.2,2.28A2.44,2.44,0,0,0,91,151.2a11.83,11.83,0,0,1-2.12.92c-1.44.52-2,1.92-1.68,4.4.16,1.24.24,2.52.4,3.84a2.85,2.85,0,0,1-.2,1.6,2.09,2.09,0,0,0,.92-.32c.12-1.68.24-3.36.36-5a1.94,1.94,0,0,1-1-1.4c.08-.72.6-1.16,1.56-1.4a12.85,12.85,0,0,0,2.56-.84,1.12,1.12,0,0,1,1.72.72,2.7,2.7,0,0,1-.48,2.08,3.07,3.07,0,0,1-1.76.72c.28,1.16-.28,2.84-1.56,5,.72-.12,1.44-.2,2.2-.28-.12-1.6.12-2.6,1-2.6.12.08.16,0,.2-.16a7.77,7.77,0,0,0,.24-1.4c.4-3.72.44-5.48.16-5.64-.52-.36-.48-1.16-.12-2.16.6-1.64,1.44-2.44,2.64-2.2,1.52.16,2.2,2,2.08,5.28,0,1.24-.12,2.68-.08,4.32a5.67,5.67,0,0,1-1.4,3.2,3.54,3.54,0,0,0-.48,1c1.6-.36,2.64-.16,2.76.84,1.76-.2,2.76.68,3,2.6-.12,5.48-1.32,9-3.64,10.52a23.27,23.27,0,0,0-3.2,1.92c-.6.44-1.16.24-1.64-.52a2,2,0,0,0-.68-.84,1.83,1.83,0,0,1-.72-1c.4-.32.28-.92-.76-2a6.2,6.2,0,0,0-2.4.56c-1,.32-1.72.12-2.12-.64-.28-1.12-.48-2-.6-2.6a4.83,4.83,0,0,1,.08-3.28,1.55,1.55,0,0,1,2.12-.32,14.25,14.25,0,0,1,3.28-.44,2.61,2.61,0,0,1,2-.68c1,.36,1.16,1.28.72,2.64-.24.44-.48.92-.72,1.4a3.79,3.79,0,0,1,.52,1.68c-.08.44-.48.72-1.12.88a3.3,3.3,0,0,0,1.8,0c1.56-.28,2.68-3,3.24-8.32-.32-.28-.88-.28-1.76.2a17.57,17.57,0,0,1-5.36,1.4,9.61,9.61,0,0,0-3.36.6c-3.24.76-4.36,2-3.68,3.76.2.8.4,1.6.6,2.36.32,1.44.2,2.44-.44,2.8a2.53,2.53,0,0,0-.52.88c5.44,2.64,15,2.32,20.88,2.16,2.16,0,3.24.8,2.88,2.36A4.23,4.23,0,0,1,105.19,180.36Zm-28.31-24.2a27.6,27.6,0,0,1-3.52-.6,2,2,0,0,1-1.4-2.28,2.65,2.65,0,0,1,2-1.12,5.13,5.13,0,0,0,1.24-.6l.72-.12c1.6.08,2.68,1.16,3.32,3.16C79.12,155.68,78.28,156.16,76.88,156.16Zm12.8,12.32a3.58,3.58,0,0,0-.12,1.6,3.12,3.12,0,0,1,2-.68,3.91,3.91,0,0,0,0-1.52A2.42,2.42,0,0,0,89.68,168.48Z"/><path d="M101.47,209.94l-10.92.68a45.08,45.08,0,0,0-5.88,5.56c2.44-.24,5-.48,7.56-.68a6.39,6.39,0,0,0-.92-1.72,1.51,1.51,0,0,1,0-2,3.77,3.77,0,0,1,3.2.16,16.53,16.53,0,0,1,5,6.64,4.67,4.67,0,0,1,.12,2.08,13.54,13.54,0,0,1-1.44,2.8,2.05,2.05,0,0,1-2.84,0,28.28,28.28,0,0,1-1.28-3.64,83.08,83.08,0,0,0-13.24,2.68c-.64.2-1.24-.64-1.84-2A4.43,4.43,0,0,1,79,217a5.91,5.91,0,0,0,1.92-1.48c1-1.28,2-2.6,3.08-3.92-2.68.64-5.4,1.24-8.08,2-1.44.44-2.56.2-3.16-1.08a3.18,3.18,0,0,1,.88-4.24A55.18,55.18,0,0,1,85,205.5q.18-1,.36-1.92c-2.8,0-4.68-.88-5.56-2.72-.2-.88-.28-1.72-.4-2.48-.12-1,.68-1.48,2.2-1.52s2.76-.36,4.08-.6c0-1.88-.12-3.64-.16-5.32,0-.56,0-1.12,0-1.68a4.27,4.27,0,0,1,1.56-3c.8-.52,1.8-.24,2.88.68a5.5,5.5,0,0,1,1.4,4.2,31.3,31.3,0,0,0,0,3.36c1-.76,2.44-.48,4.12.76A3.83,3.83,0,0,1,97,197.7a4.25,4.25,0,0,1-1.68,2.76q-2,.84-4.08,1.56c-.16.92-.28,1.88-.4,2.92a51.64,51.64,0,0,0,8.88-1,3.14,3.14,0,0,1,3.2.56c1,.72,1.44,2.08,1.36,4A2.34,2.34,0,0,1,101.47,209.94Z"/><path d="M14.11,68.55c2,1.43,2.09,3.08.17,4.78a27.45,27.45,0,0,1-5.17.5c-1.32-.06-2-.6-.55-1.27.71-.38,1.48-.77,2.25-1.15-1.92-1-3.19-3.35-3.79-7a1.73,1.73,0,0,1-2.25.33c-1.1-1.76-1.26-3.3-.38-4.56a23.42,23.42,0,0,1,6.21-4.4c3.46-.33,5.33.71,5.33,3.3C13,62.28,12.46,65.42,14.11,68.55ZM47.93,84.61c-1.1-.11-2-.17-2.86-.17.11,2.2-1.81,3.3-5.33,3.19a48.62,48.62,0,0,1-14.9-2.75c-5.17-2.8-9.18-4-12.1-3.57-1.87.27-3.63.55-5.28.88-1,.6-2-.06-3-1.6-.5-3.08.49-4.78,3-4.89a59.31,59.31,0,0,1,9.79-.82l5.06,1a14.55,14.55,0,0,1-3.08-7.75c.38-2.86,2.58-2.69,4.84-.88,4.73-1.87,8.19-3.41,11.88-3.35.44-1.43,1.65-1.48,3.3-.44a4.15,4.15,0,0,1,1.38,3.79,14.63,14.63,0,0,1-1.87,4.51,1.47,1.47,0,0,1,1.76,1.65,2.81,2.81,0,0,1-2.09,2.8,95.14,95.14,0,0,0-9.4,2.2,62,62,0,0,0,13.53,1.71,5.29,5.29,0,0,1,1.76.66q2.64-.16,4.45-.33c1.32.33,2.09.94,2.09,1.92A5.57,5.57,0,0,1,47.93,84.61ZM13.39,50.4a7.56,7.56,0,0,1-4.73-1.26c-2.53-.33-4-1.32-4-3.08a5.64,5.64,0,0,1,5.17-2.91c2.86.66,4.89,1.81,6.1,3.52C16.14,48.48,15.26,49.74,13.39,50.4Zm19.36-3.08a39.25,39.25,0,0,1-9.13,2.2c-3.13-.88-5.39-.93-5.5-3.74,1-1.48,3.13-2.47,6.27-3.19L25.93,42a5.35,5.35,0,0,1-1.71-2.64,3.82,3.82,0,0,1,2-3.52A3.4,3.4,0,0,1,29.94,37c.88,1.15,1.71,2.14,2.64,3.35a17.15,17.15,0,0,1,5.17-1.16c2.25.22,3.24.83,3.35,2.75C39.68,44.85,36.93,45.89,32.75,47.32Zm1.1,7.26A29.69,29.69,0,0,1,26.21,57c-1.54.28-2.58.11-3.41-1.59l-.27-1.32c.22-1.65,1.81-2.25,4.51-3.41,2.69-.77,5-1.48,7.64-2.14,1.7.11,3,.71,3,2.69C37.37,53,35.83,53.65,33.85,54.58Zm1.21,7.15a33.88,33.88,0,0,1-6.27,2.14c-2.75.83-4.73.83-5.17-.33-.82-2.15-.55-3.19.83-3.74,2.75-1.1,5.72-2.09,8.58-3.13A3.42,3.42,0,0,1,37.86,58C38,60.14,36.87,60.85,35.06,61.73ZM26.59,71A5.84,5.84,0,0,0,28,73.77c.38.17,2.2-.38,3.13-.44,2-1.21,2.36-2,2.91-5.06C31.54,69.49,29.12,69.76,26.59,71Z"/><path d="M18.23,105.42c-5.33,3.13-9.24,4.78-11.71,4.73-3-.39-4.67-1.82-4.73-4.29.27-1.1,1.21-1.81,2.8-2.25a74.9,74.9,0,0,1,8.08-3.19,10.57,10.57,0,0,0-1.37-2.09c-.88-1.54-1.15-2.75-.71-3.68A4.62,4.62,0,0,1,15,93.76q3.38,2.47,4.12,4.78c1.59.22,2.42,1.43,2.58,3.52A8.32,8.32,0,0,1,18.23,105.42Zm32,32a34.75,34.75,0,0,1-13.91,2A10.18,10.18,0,0,1,29,133.08a65.6,65.6,0,0,1,1.37-13.69c.44-1.15.27-1.21-.6-.6a94.49,94.49,0,0,1-11,15.89,2.27,2.27,0,0,1-2.2.5,7.19,7.19,0,0,1-1.37,2.14c-.27.83-1.27,1.54-2.8,2.2-.66.44-1.27.61-1.65.39a2.73,2.73,0,0,1-.93-.66c-.72-.55-.88-1-.66-1.37A18,18,0,0,0,9,136.05a.81.81,0,0,1-.33-1c-.66-.5-.82-.93-.66-1.1.6-.83,4.73.88,4.73-1.54a23.36,23.36,0,0,0,0-5.55,9.2,9.2,0,0,0-3.35,1.26,11.27,11.27,0,0,0-1.65,4.29c-.88,1.81-2,2.25-3.41,1.1a8.33,8.33,0,0,1-1.76-5.28,3.12,3.12,0,0,1,2.8-2,2.42,2.42,0,0,1,1.32.93c.11.22.28.11.55-.11a10.74,10.74,0,0,1,5.22-1.81,11.64,11.64,0,0,0-.17-1.65,1.86,1.86,0,0,1-2.8.05,15.58,15.58,0,0,1-4-8.41c0-2.47.82-3.74,2.25-3.35,3.08-1.32,6.1-2.47,9-3.46a2.75,2.75,0,0,1,3.08-.61c1.32.28,2.09.88,2,1.87a34.51,34.51,0,0,0,7.2-3.52c1.87-4.78,3.52-7.92,4.89-9.35,1-1,2-.6,3.08.93a4.51,4.51,0,0,1-.66,4.67c-.38.44-.33.55.06.22a3,3,0,0,1,2-.77c.66.33,1.32.72,2.09,1.1.55.44,1,.82,1.59,1.21.71,1.32.05,2.64-1.76,3.85-1.16.77-8.52,5.55-9.73,8,.22-.11.88.11,1.38-.28.93-1.76,2-2.42,3.46-1.59s1.38,2,.44,4.18c-1.26,8.08-1.59,12.32-1.1,12.92s1.76,1,3.79,1a43,43,0,0,0,7.42-1,43.39,43.39,0,0,1,.17-5.39c.82-1.1,1.65-1,2.42.17a4.32,4.32,0,0,0,2.15,4.18C53,132.37,52.77,134.79,50.18,137.43ZM12.35,115.81a4.14,4.14,0,0,0,.27,2.2c2.09-.82,2.25-2.2,2.42-3.63A10.49,10.49,0,0,0,12.35,115.81Zm8.36-3.46a5,5,0,0,0-.88,1.76,29.26,29.26,0,0,0-.49,3.79A2.27,2.27,0,0,1,18,119.77c-1.15.71-2.25,1.43-3.24,2.14A5.35,5.35,0,0,1,17,124.17a7.45,7.45,0,0,1,4.62,1.43c1.54-3.13,2.91-6.21,4.12-9.29A6.74,6.74,0,0,1,20.71,112.35Zm-3.52,15.34a21.29,21.29,0,0,1,.06,4.18.74.74,0,0,0,0,.5,33,33,0,0,0,2.14-3.25A13.79,13.79,0,0,1,17.19,127.69Zm30.63-25a3.73,3.73,0,0,1-3.68.22,17.3,17.3,0,0,0-2.31-3.57c-.82-1.7-.22-2.75,1.71-3a13.55,13.55,0,0,1,4.56,2.2A3.57,3.57,0,0,1,47.82,102.67Z"/><path d="M51.5,194.89a21.15,21.15,0,0,0-4,.71,3.68,3.68,0,0,1-2.31,2.2,42.74,42.74,0,0,1-7.7-.83A48.13,48.13,0,0,1,21.64,191c-3.46-2.58-5.83-3.79-7.15-3.74A36.26,36.26,0,0,0,7.23,192a11.79,11.79,0,0,1-3.9,1.92c-.5.5-.88.44-1,.22a2.46,2.46,0,0,1,.05-1.54,10.26,10.26,0,0,1,3.08-4.67c3.46-3,7.42-6.21,11.88-9.73a5.79,5.79,0,0,1,4.07-.17,2.87,2.87,0,0,1,.71,3.41,18.6,18.6,0,0,0-2.91,1.21,26.56,26.56,0,0,0,5.28,3c-.11-3.13-.11-6.21,0-9.29a42.13,42.13,0,0,0-11.6,3.35c-1.76.83-3.24.61-4.12-.66a4.19,4.19,0,0,1-.82-2.31A2.24,2.24,0,0,1,10,174.32c4.73-1,9.62-1.87,14.57-2.8A4.73,4.73,0,0,1,27,169.1l.06-.55c-3.74.93-6,1.92-7.09,3a1.83,1.83,0,0,1-2.31-.66A35,35,0,0,1,15,157.16c.06-3.85.71-6.49,1.71-7.86.17-.44.44-1.16.88-2.2a1.61,1.61,0,0,1,2.42-.33,7.65,7.65,0,0,0,4.78,1c2.31-.17,4.62-.44,6.93-.66A5.63,5.63,0,0,1,36,149a9,9,0,0,1,.6,5.44,81.3,81.3,0,0,0-.38,8.25c-.88,1.7-1.81,3.41-2.86,5.17a22.08,22.08,0,0,0-4.78,1.38,2.79,2.79,0,0,1,1.48,1.37l9.9-1c2,.44,3.35,1.43,3.9,3-.38,1.38-2,1.87-4.45,2a82,82,0,0,0-9.13.71,14.45,14.45,0,0,0-.22,2.7,23.08,23.08,0,0,0,4.84-1.16c.82-.6,1.38-.38,1.48.55.06.33.27.61.82.77.72,1,.5,2.36-.55,4a65,65,0,0,0-6.82,1.65c0,1.26-.06,2.53-.11,3.79A105.23,105.23,0,0,0,44,190.21a12.67,12.67,0,0,1,5.33,2,5.47,5.47,0,0,1,2.53,1.1C52.44,193.79,52.22,194.34,51.5,194.89ZM29.67,152.43A13.35,13.35,0,0,1,23,154.58a4.41,4.41,0,0,1-1.65,1,2.58,2.58,0,0,0,0,1.82l3.24-.61a5.29,5.29,0,0,1,4.23.83c.6,1.1.11,2.31-1.21,3.63a47.29,47.29,0,0,0-5.83,2.25,6.51,6.51,0,0,0,.17,1.71,5.16,5.16,0,0,0,4.07-.77A2.24,2.24,0,0,1,28,164a24,24,0,0,0,1.37-9.84,6.12,6.12,0,0,0,.33-1.48C29.72,152.54,29.72,152.49,29.67,152.43Z"/><path d="M51.72,244a2.17,2.17,0,0,1-2.09.05,3.65,3.65,0,0,1-1.37-.66,4.86,4.86,0,0,1-1.1,1.21c-.6.6-1.92.5-3.85-.11-6.38-2.09-12.87-6.43-19.25-13.2-1.21-1.26-2-2-2.86-2.2a4.17,4.17,0,0,0-3.35,1.21C14.6,234,11,237.94,6.85,242a3.36,3.36,0,0,1-3.46-.22A3.58,3.58,0,0,0,2,242.89c-.83.27-1.38-.17-1.76-1-.6-.77-.06-1.87,1.1-3.24,8.36-10.45,15.45-19.47,21.34-26.95a2.57,2.57,0,0,1,2.58-1.7,8.92,8.92,0,0,1,3.19,3.24c.44.83.22,1.87-.44,3.08a39.79,39.79,0,0,0-3.52,5.11,6,6,0,0,1,3.3,2,63.06,63.06,0,0,0,15.18,12c4,2.15,6.21,3.58,6.71,4.23A3.63,3.63,0,0,0,51.28,241c1.26.71,1.81,1.54,1,2.31A1.12,1.12,0,0,1,51.72,244Z"/><path d="M50.29,291.39a2.53,2.53,0,0,1-2.2-.33c-.77-.17-1.32.5-1.76.77s-1,.5-3.35-.17c-7.37-2.86-12.37-5.66-15.07-8.41-2.47-.82-4.23-1-5.33-.71A62.31,62.31,0,0,0,15.43,290c-5.77,4-10.28,7.42-13.14,9.79C.69,301.07,0,299.37.69,297.88c2.8-2.64,5.11-5,7.59-7.53,2.36-2.31,4.73-4.4,6.65-6.71a26.61,26.61,0,0,0-6.27,3.08,5.29,5.29,0,0,1-3.19-1.87,1.87,1.87,0,0,1,1-2,18.87,18.87,0,0,0,1.15-2.92c1-2.8,2-4.45,3.13-4.45q2.23.74,1.48,2.8a31.59,31.59,0,0,0-2.8,3.63c2.47-.94,4.62-1.71,6.49-2.2a3.1,3.1,0,0,1,1.1-2.31,2.55,2.55,0,0,1,2.8.93c1.38-1.65,2.58-3.3,3.74-4.89.22-.61,0-.66-.44-.66-.93.27-2.36.66-4.4,1.15-2.64.88-4.56.88-5.33-.33-.6-2-.27-3.46,1.15-4.34h2.47a5.51,5.51,0,0,1,.71-.88,5.38,5.38,0,0,1-1.54-.44c-2-1-1.87-1-2.58-3.24a5.56,5.56,0,0,1-3.13-1.1,2.38,2.38,0,0,1-.66-1.92,4.45,4.45,0,0,1,4.45-3.35,2.65,2.65,0,0,1,1.7-2.8A8.48,8.48,0,0,0,19.66,257a3.62,3.62,0,0,1,.66.66,6.17,6.17,0,0,1,4.34,1c.27,1.87-.55,3.13-2.47,3.85a8,8,0,0,1-2.8,1.27,10.41,10.41,0,0,0-.22,3.19,16.11,16.11,0,0,1,2.31-2c1.54-.71,2.75-1,3.63-.6.77,2.36.6,3.9-.93,4.18a6.77,6.77,0,0,0-2.31.88,5.14,5.14,0,0,0,1.48-.11,46.39,46.39,0,0,0,6.49-1.1c-.06-.88-.11-1.76-.11-2.8.6-.83,1.48-.83,2.47-.22a7,7,0,0,1,2.53,5.77,3.66,3.66,0,0,1-2.36,1.87c-1.59.44-2.53.17-2.53-1l.22-.83c-1,.33-2,.61-3,.94a3.14,3.14,0,0,1,1.32,4,17.76,17.76,0,0,0-2.8,2.09,16.79,16.79,0,0,1,2.53.88c.5-.44,1.32-1.43,1.7-1.87a59.19,59.19,0,0,1,4-4.4,2.75,2.75,0,0,1,3.79-.22c.39,1.65.06,2.75-1.15,3.25a17.94,17.94,0,0,0-4.23,3.13c3.19-.5,4.67-1.1,4.84-1.65.77-2,2-2.64,3.41-1.21.71,2,.71,3.58-.06,4.73-1.48,1-2.69,1.1-3.57,0a12.88,12.88,0,0,0-2.64,1.16C39.57,284,45.67,287,51,288.59a2,2,0,0,1,1.59,2.2C52.33,291.5,51.06,291,50.29,291.39ZM21,307.17a15.4,15.4,0,0,1-2.69,1.21c-.88.28-1.21.11-1.21-.44a65,65,0,0,1,8.63-8.8L27.85,296c1.54-1.71,2.75-2.09,3.35-1.43,1.1.71,1.15,2,.33,3.63A17.44,17.44,0,0,1,21,307.17Zm5-11.6c-3.13,2.58-5.55,3.85-7.2,3.52-.22-1.1.44-2.36,1.87-3.79a20.3,20.3,0,0,0,3.63-4.56c-.11-.28-.38-.33-1.1,0a18.69,18.69,0,0,1-4.78,1.65c-1.1.11-1.48-.33-1.1-1.15a6.23,6.23,0,0,1,2.09-3.35l3.35-3a4.51,4.51,0,0,1,3.85-.94c1.81,1.87,2.58,3.3,1.48,4.07a6.14,6.14,0,0,0-2.09.94c1.87.27,3.13,1,3.74,2.31C29.56,293,28.3,294.42,26,295.57ZM38.91,263a8.51,8.51,0,0,1-5.77-.66l-3.3,2.25c-.94.44-2.8.44-2-1a25.2,25.2,0,0,0,4-5.88c1-2.31,3-2.36,4.67-.71a6.41,6.41,0,0,1,6,1C43.58,260,42.26,261.64,38.91,263Z"/><path d="M18.31,324.67c-.55.05-2.69.33-3.19.33-1,0-1.32-.33-1.32-1.32a4.17,4.17,0,0,1,1-2.47c1.26-1.21,5.83-2,10.94-2,8.36,0,15.07,4.73,15.07,10.61A10.42,10.42,0,0,1,37.07,338a12.51,12.51,0,0,1-5.28,2.69c2.31,4,5.06,5.11,9.68,7-1.65,7.2-4.78,7.81-6.27,7.81-1.81,0-4.67-1.48-6.21-3.19-3.41-3.74-5.66-10-5.66-11.44,0-.77.27-1,1.48-1.48,6-2.2,6.82-8.14,6.82-10,0-3.19-1.37-4.89-4.62-5.61-2.31,8.36-3,10-4.56,15.84l-.61,2.25c-1.7,6.43-2.91,9.24-4.12,10.45a11.36,11.36,0,0,1-6.1,2.75c-1.43,0-2.2-.88-2.2-2.47,0-3.13,3.68-15.07,8.08-26Z"/></g></g></svg>