<svg xmlns="http://www.w3.org/2000/svg" viewBox="0 0 546.29 57.75"><title>blogger_txt</title><g id="圖層_2" data-name="圖層 2"><g id="圖層_1-2" data-name="圖層 1"><g id="blogger_txt"><path d="M53.94,36.59c-.54-.42-1.26-.36-2.22.36-1.44,1.14-4.2.66-8.17-1.32,1.44,2.7.42,7.63-2.88,14.59,1.8.72,2.34,2.16,1.62,4.14-.78,1.2-3.12,1.68-6.78,1.56-5.76-.24-10,0-12.85.66-1.32.84-2.58-.54-3.78-3.06a56.7,56.7,0,0,1-4-10.93,13.65,13.65,0,0,1,1.74-8.11c1.56-1.38,3.48-.72,5.1.3q7.75-.54,15.49-.9a4.87,4.87,0,0,1,1.44-1,62.92,62.92,0,0,1-11.17-7.69A118.58,118.58,0,0,1,1.64,44.33c-1,.54-1.56.36-1.62-.18a4.35,4.35,0,0,1,.9-2.46c1.44-1.62,2.94-3.3,4.62-4.86A143,143,0,0,0,20.38,21.16l.66-.78c-1-1-3.24-1.86-6.72-2.7-1.14-.66-1.74-.42-2.16.66-1.68,1.62-2.76,1.44-2.58-.84.36-1.62,1.68-3.84,4.26-6.49,2.88-2.94,5.94-5.58,8.95-8.29a3.84,3.84,0,0,1,4.14-.12A4.3,4.3,0,0,1,28,5.18a19.43,19.43,0,0,1,5.58-1.62,2,2,0,0,0,1.32-.78c1-1.14,2-.72,2.88.78a5.78,5.78,0,0,0,1.2.78c1,1.08.84,2.64-.3,4.56-.9.6-1.86,2.1-3.12,4.68-1,1.92-2,3.84-3.12,5.76,3.42,2.76,8.77,5.88,16.21,9.07,6.06,2.7,9.31,5,8.59,7C56.7,36.89,55.5,37.25,53.94,36.59ZM26.8,6.8a67.9,67.9,0,0,0-8.89,5.77,18.21,18.21,0,0,1,5.82,1.68c1,.6,1.92.42,2.76-.78L30,9.63A4.24,4.24,0,0,1,26.8,6.8Zm3.12,35.43a39.8,39.8,0,0,0-7.63,1.44,27.44,27.44,0,0,0,1.62,5.94l7.69-.72c3-.42,3-3,4.32-7.87A25.28,25.28,0,0,1,29.92,42.23Z"/><path d="M117,54.36c-2.82.6-5.28-2.94-5.88-.84-.36.36-1.2,1.5-1.74,1.5-9.07-3.54-14.11-7.14-19.21-15.55-.72-1.2-1.62-2.16-2.34-3.36-.18-.3-.6-.9-1-.48A31.15,31.15,0,0,0,84.21,40,26,26,0,0,1,72.44,50.22a46.5,46.5,0,0,0-4.26,2c-.9.54-1.92,1.44-2.82,1.86a1.39,1.39,0,0,1-2.1-1.26,3,3,0,0,1,1.32-2.7c2.7-1.86,5.94-3.66,8.23-6A34.94,34.94,0,0,0,80.07,30.7a33.79,33.79,0,0,0-4.26,1c-5,1.2-8.35-6.79-5.22-9.31,2.1-1.74,9.25-2.76,12-3.12.78-2.7.48-5.88.6-8.65s1.44-9,5.64-6.67C91,6.51,93.52,8.43,92,11.73c-.24.54-1.08,2-1.26,2.64a35.37,35.37,0,0,0-.36,3.54c1.86-.12,7.33-.3,8.23-1.86.84-.24,3.12,1.44,4.32,1.74,2.88,2.1,4.74,4.26,1.68,7.21-.72.72-1.86.6-2.76.66-3.3,0-7.26,1.08-10.51,2,3.06,4.38,6.84,9.49,11.17,12.79,3.42,2.7,12.13,8.23,14.65,11A2.78,2.78,0,0,1,117,54.36Z"/><path d="M144.92,28.3c-5.46,1.62-10.93,3.48-16.33,5.58a5.3,5.3,0,0,1-2.7-.36c-1.62-1.86-1.86-3.78-.66-5.76a54.69,54.69,0,0,1,5.16-2.46c-.06-2.22-.12-4.44-.12-6.67a4.59,4.59,0,0,1-3.36-3.12c-.3-2.22.78-4,3.18-5.28,2.52-.6,5-1.14,7.51-1.62.48-.24.6-.66.06-1.44A3.17,3.17,0,0,0,136,5.72c-1.08-.18-1.8-1.26-2.28-3.06.54-2,2-2.82,4.56-2.52,3.18,1.08,5.52,2.34,6.84,4a1.47,1.47,0,0,1,.06,2.16,2.88,2.88,0,0,0,0,1,3.93,3.93,0,0,1,3.12,1.62c.72,2,.3,3.6-1.38,4.62a47.65,47.65,0,0,1-8.83,4.26c-1,.36-1.56,1.32-1.56,2.94V24A36.64,36.64,0,0,0,141,23c1.26-1.86,1.86-3.3,1.86-4.38a2.91,2.91,0,0,1,2.88-3c1.92.36,2.76,1.62,2.58,3.72a8.7,8.7,0,0,1-1.38,3.24c1.2.24,1.74,1.26,1.68,2.94C148.16,26.8,146.9,27.7,144.92,28.3Zm1.86,14.17c1.44,1.38,1.8,2.7.84,4A33.92,33.92,0,0,1,137.18,50c-1.56,2.46-3.3,3-5.16,1.38a44.54,44.54,0,0,1-5.16-10.09,8.16,8.16,0,0,1,.24-4.32,2.22,2.22,0,0,1,2.22-1.8,7,7,0,0,1,2.64.72c5.34-2.22,9.19-3.3,11.53-3.12a3,3,0,0,1,2.88-2.34c1.74.66,2.76,2.4,3.12,5.16C149.25,39.17,148.34,41.51,146.78,42.47Zm-12.49-.66a8.19,8.19,0,0,0,1.44,3c1.2-.36,2.58-.72,4.08-1.14A18.13,18.13,0,0,0,142,38.39,41.26,41.26,0,0,0,134.29,41.81Zm41,0a20.41,20.41,0,0,1-8.11,4.26,2.48,2.48,0,0,1-2.76-.72c-.72-1.62-1.68-2.34-3-2.34a2.41,2.41,0,0,1-.48-1.56.82.82,0,0,0-.18-.24c-.42,2.64-.78,5.4-1,8.22a4.84,4.84,0,0,1-1.8,3.42q-.09,1.89-.36,3.78c-1,1.44-1.92,1.5-2.7.06a36.57,36.57,0,0,1-1.44-12c0-8.65.18-17.29.36-25.94l.12-5c-.3-2.94.36-4.86,2.16-5.64a22.09,22.09,0,0,1,7.45-.18A12.55,12.55,0,0,1,169,7.35c1.08-2,2.34-2.94,3.72-2.28,2.58,2.64,3.24,5.1,2,7.45-2.58,4.86-7,9.37-13.33,13.39q-.18,6.48-.54,13.15a36.89,36.89,0,0,1,6.3,0c1,.12,1.74-.6,2-2.4a16.29,16.29,0,0,0-1.56-10.57c-1.08-2-1.08-3.36.84-3.66,2.52.48,4.8,2.46,6.84,5.88Q178.19,37.22,175.3,41.81Zm-12.73-28q-1.35,1.89-1.44,8.47c1.8-2.76,4.14-6.85,7-12.31A47.29,47.29,0,0,0,162.57,13.83Z"/><path d="M192.24,36.59a12.1,12.1,0,0,1-3.54-2.34,2.27,2.27,0,0,1-1.44-2.1,1,1,0,0,1,.84-1.08l.42-.12a5.39,5.39,0,0,1,5.16.54,6.44,6.44,0,0,1,1.86,3.78C194.4,36.83,193.26,37.37,192.24,36.59Zm.54,7.26a8.67,8.67,0,0,0-.66,4.14l.78,2.16c.54,2.28.36,4.08-.72,5.29-1,.54-1.92,0-2.76-1.14a10.22,10.22,0,0,1-2.16-6.24c.24-1.56.9-2.52,2.1-2.76.72,0,1-.18,1.08-.48a7,7,0,0,1,2.22-2.64c.36-.12.78-.12.72.36A3.31,3.31,0,0,1,192.78,43.85ZM196,26.32c-2.1-1.56-3.48-2.34-4.26-2.4-1.44-.3-2.28-1-2.28-2a2,2,0,0,1,1.08-1.86l1-.48c2.76-.72,4.92-.42,6.48,1,1.2,2.4,1.5,4.2.66,5.22C197.89,27.16,196.93,27.4,196,26.32Zm12.25-16c-1.08.78-2.16,1.5-3.18,2.16-.12.66-.42,2.28-.9,4.92a4.82,4.82,0,0,1-2.94,2.88c-1.74-.06-2-2-2.76-3.18-.18-.3-.36-.6-.54-.84a3.88,3.88,0,0,1-.48-2.46,6,6,0,0,1-4.86-2.7c-.66-2-.06-3.24,1.74-3.54a37.45,37.45,0,0,0,3.6-1.14l.36-.12c.06-2.7.54-4.5,1.56-5.16s2-.84,2.76-.3a8.63,8.63,0,0,1,1.5,1.32,2.51,2.51,0,0,1,.9,2.34c1.68-.3,2.82.24,3.36,1.68C209.35,8.13,209.42,9.57,208.27,10.29Zm30.8,31.16a3.33,3.33,0,0,1-2.94-.06c-.48-.24-.9-.42-1.26-.6-1.68,1.44-4.32,1.44-7.93.12a61.23,61.23,0,0,0-2.28,7.93c-.18.48,0,.9.78,1.38a8.32,8.32,0,0,1,.3,3.54c-.06,1.56-1.08,2.34-2.94,2.4-4.08.12-8,.3-11.83.66-1.8.54-3.48-.3-5-2.34a28.43,28.43,0,0,1-3.42-12.19,31.42,31.42,0,0,0-6,4.62c-1.5,1-2.28.6-2-1.14a15.49,15.49,0,0,1,3.72-4.92,62,62,0,0,0,10.27-10.27c.72-.54.9-.9-.78-1.08-2.34-.54-4.08-1-5.28-1.2-1.5-.36-1.26-1.68,0-3.36a31.39,31.39,0,0,0,6.13-6.67c.54-.54.42-.66-.36-.42-1.38,1.2-2.4,1.32-2-.6A33.86,33.86,0,0,1,210.62,11a16.37,16.37,0,0,1,1.2-1.92A8.61,8.61,0,0,0,214,4.4c.18-1.2,1.26-1.92,3.06-2.28,2.58.12,4,.9,3.54,2.58l-.42.84c2.64-1.26,4.74-1.26,6.18.18s1.92,2.64,1.62,3.78c-.06.72-1,1.62-2.7,2.64A11.88,11.88,0,0,1,219,13a12,12,0,0,1-2-.36,25.42,25.42,0,0,1-3.72,2.88,5.06,5.06,0,0,1,1.68,2.16,2.64,2.64,0,0,0,2.22-1.26c2.16-2.28,4-2.94,5.28-1.56,1.74,2.1,1.8,3.84.24,5.34a37.89,37.89,0,0,0-4.8,6.3c2.64,1.44,5.52,3.06,8.71,4.74a48.76,48.76,0,0,0,5.46,2.58c2.34,1,3.84,1.74,4.26,2.52a6.79,6.79,0,0,0,1.56,1,8.87,8.87,0,0,1,2.82,2.46C240.76,40.79,240.1,41.27,239.08,41.45Zm-19.69-6.12a45.68,45.68,0,0,1-4.14-2.52c-.78-.36-1.32-.36-1.68-.06L212,34.25a49,49,0,0,1-4.62,4.08c-.84.6-1.32.84-1.26,1s.66-.12,1.74-.42a68.71,68.71,0,0,1,11.59-2c.66.06,1,.12,1-.12S220.16,36.11,219.38,35.33Zm-1.32,7.57a31,31,0,0,1-4,1.32c-.84.18-1.68.3-2.4.42-1.8.6-2.28,1.62-1.74,3.18.78,2.16,1.62,2.82,2.76,2.4,2.1-.24,3.84-2.1,5.4-5.58a6,6,0,0,0,.66-1.86C218.72,42.53,218.54,42.71,218.06,42.89ZM214.22,21l-1.2.12c-.54.54-.9.84-1.08,1-1.14,1-1,1.62.66,2.1.54.3,1.2-.06,2-1.56S215.12,20.92,214.22,21Z"/><path d="M296.36,43.55c-1.08-.66-1.92-.66-2.58-.12A17.44,17.44,0,0,1,286.22,41a87.11,87.11,0,0,1-2.16,8.46c1.2.3,1.68,1,1.2,2.16a2.81,2.81,0,0,0,.36,2.1c.12.84-.78,1.32-2.16,1.68-4.08.12-8.11.24-12.13.48a3.47,3.47,0,0,0-2.4,1.62,5.37,5.37,0,0,1-2.76-2c-3.06-4-4.56-7.39-4.74-10.15a10.64,10.64,0,0,0-.54-2.34A46.44,46.44,0,0,1,248.57,52c-1.62,1.08-2.1.42-1.38-1.32a9.94,9.94,0,0,1,3.06-4.38c5.34-4.92,10.39-10.15,15.37-15.49a9.25,9.25,0,0,1-5.34-1.8c-1.32,1.26-1.86.18-1.74-1.8a18.09,18.09,0,0,1,3.24-5,35,35,0,0,1,5-5.82c1.86-1.8,3.84-1.5,5.94.78a8.45,8.45,0,0,1,3.24-.66,5.66,5.66,0,0,0,2.76-2c1.5-1.38,2.82-1,3.9,1a26.78,26.78,0,0,1,3.3-3.66,102.21,102.21,0,0,0-10.45.18c-1.14.3-1.74,1.26-1.68,3.12-.78.78-1.8.66-3-.06a5.25,5.25,0,0,1-2.22-2.76,28,28,0,0,0-9.49,2.58c.54,4.32.18,7.21-1.38,8.47a4.17,4.17,0,0,1-4.68.06,14.94,14.94,0,0,1-1-5.76l.18-3.12a15.59,15.59,0,0,1,1.14-6.06,17.4,17.4,0,0,0,1.5-2.82c.72-1.5,2-1.62,3.42-.6a10,10,0,0,1,1.62,3.3,43.25,43.25,0,0,1,9.49-.66c-2.16-3-2.94-5.34-2.1-7,1.08-1.08,2.58-.84,4.26.48C274,3,275.35,5,275.65,7.29c4,0,8,.12,12.07.3A3.13,3.13,0,0,1,292,7c1,1.56,1.68,2.94,2.34,4.2a12.5,12.5,0,0,1-.18,4.32c-.72,1.14-2.16,1.32-4.08.72-3.12-1-5-.84-5.88.42a35.81,35.81,0,0,1-6.3,9.13,40,40,0,0,1,3.9,3.36,10.86,10.86,0,0,0,2.4,1.68A118.58,118.58,0,0,0,297,38.45c1.92,1,2.64,2.46,2,4.2A2.17,2.17,0,0,1,296.36,43.55Zm-29-19.33,3.3.12c1.56-1.68,1.86-3.06,1.14-4.14A35.86,35.86,0,0,0,267.36,24.22Zm7.45,7.87c-1.2-.9-1.92-.78-2.46-.06a53.38,53.38,0,0,1-4.92,5.82l.78.3a.54.54,0,0,0-.18.3,73.59,73.59,0,0,1,11.53-1.26C277.63,35.21,276,33.53,274.81,32.08ZM271,44.75c-1.86.54-2.1,1.14-1.5,2a9.85,9.85,0,0,0,1.32,2.82c1.86-.12,3.66-.3,5.46-.48a50.76,50.76,0,0,0,2.94-6A58.5,58.5,0,0,0,271,44.75Z"/><path d="M360.74,39.53c-1,1.8-2.88,3.12-5.7,4-5,.36-8.83-.18-11.53-1.56-1.5-1.5-2.28-3.84-2.4-7.08.66-7.87,2.1-14.29,4.32-19.33-2,.48-3.18,1.2-3.72,2.1A50.16,50.16,0,0,0,339.18,24c1.8,1.62,2.52,3.3,2,5-.9,1.26-2.28,1.26-4,.18-1.62,3.66-3.36,7.21-5.22,10.69-.9,1.26-1.74,1.5-2.16.12-.36.18-.78.36-1.26.6q-1.62.81-4.86,2.52c-3.18,2.4-5.46,2.94-6.42,1-1.14-2.22-.6-3.66,1.44-4.8l3.54-2c.42-.06.72-.6.72-2.16.24-.72-.18-.72-1.14-.3a4.42,4.42,0,0,1-3.36-1.26c-.48-1.08.6-2,2.52-2.94,1.26-.48,1.86-.9,2-1.2a5,5,0,0,1,.72-3.6c1-1.08,2-1.56,2.82-1.08.36.24.66.48,1,.66a19.77,19.77,0,0,0-1.08-2.7l-2,.42a37.92,37.92,0,0,0-2.76,4.32,66.52,66.52,0,0,1-4.86,5.4A17.45,17.45,0,0,1,314,36.23l-1.32.84c-1.08.42-1.56-.3-1.14-2.22a25.48,25.48,0,0,1,2.88-4.5c1.56-1.86,3.06-3.72,4.38-5.52a9.52,9.52,0,0,0-2.22.6,20.83,20.83,0,0,1-4.32,2.28c-1.86,1.2-3.36.84-4.38-1.08-.66-2.64,0-4.2,2.16-4.38l11.29-3.54c.54-.06.9-.6.9-2a5.36,5.36,0,0,1-2.94-.24A12,12,0,0,1,317,14.13l-.72-.72c-.48-.84.36-1.5,1.68-2l3.3-1.08a1.28,1.28,0,0,0,1-.42c.18-.18.3-.84.24-2.22a4.73,4.73,0,0,1,.24-2.1,7.68,7.68,0,0,1,1.8-3.3c1.26-.72,2.34-.6,3.12.42,1.08,1.14,1.68,1.8,1.74,1.92.6.84.36,2.28-.48,4.2,1.86-.6,3-.24,3.06,1.38.18,2-.18,3.36-1.2,3.84q-2.25.72-2.88.9c-.3.12-.42.72-.42,1.86a21.25,21.25,0,0,0,3.48-1,5.86,5.86,0,0,1,2.58-.6,2.88,2.88,0,0,1,2.22-1.56,5.76,5.76,0,0,0,3.06-.78c.66-1.14,1.32-2.22,1.86-3.3.66-1.32,1.5-1.86,2.58-1.32,1.14,1,1.68,1.86,1.32,2.76-1,1.26-.9,1.38.6.9A5.6,5.6,0,0,0,348.37,10c1-1.14,1.38-1.74,1.38-1.74l.84-.78a2.28,2.28,0,0,1,2.22,1.14,6.06,6.06,0,0,1,1.08,2.16,2.55,2.55,0,0,1-.66,3.18,10.86,10.86,0,0,0-3.12,3.42c-.84,2.1-1.56,4-2.16,5.82a33,33,0,0,0-.66,3.36c-.3,2.1-.6,4.56-1,7.39a2.06,2.06,0,0,0,1.38,2.22l7.69-.72c.24,0,.24-.66.36-1.86l.12-2.52c.42-.6.78-.66,1-.54A2.57,2.57,0,0,1,357.2,32a2.91,2.91,0,0,0,2.16,2.46c.84.24,1.32,1.08,1.5,2.28A3.93,3.93,0,0,1,360.74,39.53ZM317.21,55.92a35.23,35.23,0,0,1-5.28-7.5,3.51,3.51,0,0,1-.12-2.34l1.08-.3c1.62-.6,3,.24,4.32,2,2.34,3,3.48,5.58,2.94,7.87C319.85,56.82,318.65,56.7,317.21,55.92Zm14.47-3.24c.06,1.26-1,1.26-2.46.72-2.22-1.44-4-4-5.52-7.5a2.13,2.13,0,0,1,1.38-2.22h.36a4.53,4.53,0,0,1,3.84,1.68,7.11,7.11,0,0,0,1.86,2.22c1.38,1.74,2,3.06,1.38,3.84A2,2,0,0,0,331.68,52.68Zm1.08-25.52c-1.26.42-2.94,1.08-4.14.42a2.46,2.46,0,0,0-.42,1.26c1.5-.42,2.4-.06,2.34,1.32s-.6,2.4-1.56,2.76a1.44,1.44,0,0,0-1.44,1.26c-.06.42.06.54.42.54a7.66,7.66,0,0,0,2.52-.78c.66,0,1.38-.84,2-3a13.13,13.13,0,0,1,1.26-3.3C333.54,26.74,333.24,26.74,332.76,27.16Zm2.64-7.69-2.1.48c-.84.36-2,.78-3.3,1.26-.66.3-.54.36-.06.54l1.08,2.1a2.3,2.3,0,0,0,1.74-.18,4.19,4.19,0,0,1,2.58-1.14,8.66,8.66,0,0,0,.6-2.58C335.94,19.47,335.76,19.35,335.4,19.47Zm5.4,32.84c-1.2-.84-2.58-1.92-4.26-3.18-.72-.78-1-2.22-1-4.2a2,2,0,0,1,1.26-1.44l.42-.18a4,4,0,0,1,3.6,1.8c2,2.7,2.82,4.8,2.28,6.24S341.82,53.28,340.8,52.32Zm15.13,4c-1.32.42-2.58-.6-3.9-2.76a57.9,57.9,0,0,0-3.72-7.51c-.66-1.08-.72-2,.24-2.58,1.38.24,2.7.54,4,.84a9.41,9.41,0,0,1,4.62,4.2l1,3C358.64,53,357.92,54.54,355.94,56.34Z"/><path d="M375.82,31.24a3.75,3.75,0,0,1-2.76,1.38c-.78-.12-1.32-.78-1.68-1.8a8.72,8.72,0,0,1-1.26-1.08,7.13,7.13,0,0,1-.36-2.76c.3-3.66.78-7.27,1.44-10.93a5,5,0,0,1,.72-1.5c.78-.48,1.5-.72,2-.36a3.88,3.88,0,0,1,1.44,2.58,58.85,58.85,0,0,0,.72,9.91A27.59,27.59,0,0,0,375.82,31.24Zm43.71-8a8.33,8.33,0,0,1-3.66-.12,33.53,33.53,0,0,0-12.43.48A55.93,55.93,0,0,0,387.7,29.8a3.57,3.57,0,0,1-4.08-.3A220.38,220.38,0,0,0,383.8,53c.12.9-.54,1.38-1.5,1.5-1.32,1.14-2.46,1.2-3-.3a17.52,17.52,0,0,1-.66-2.7c.06-8.83.24-17.65.48-26.48-.78-.36-1.62-.78-2.58-1.32a3.81,3.81,0,0,1,1.62-6.06l2-1.32a98.5,98.5,0,0,0,.6-12.55,3.63,3.63,0,0,1,1.26-1.62c2.4,0,3.66,1.32,4.38,3.6-.18,2.7-.48,5.46-.9,8.35a2.76,2.76,0,0,1,2.28,1.14,7.53,7.53,0,0,1,.3,3.06,7.92,7.92,0,0,1-2.94,4,2.57,2.57,0,0,0-1.68,1.74,1,1,0,0,0,.24.66A61.46,61.46,0,0,1,397,20.5V20a3.85,3.85,0,0,1-2.7-1.62,5.13,5.13,0,0,1-1-3A2.79,2.79,0,0,1,394.91,14c.9-.36,1.86-.66,2.88-1a3.28,3.28,0,0,0-2-.72,6.3,6.3,0,0,1-2.46-2.76,3.48,3.48,0,0,1-.18-2.76,5.29,5.29,0,0,1,3.48-.78c1.56-.24,2.22-.72,2.28-1.32a12.12,12.12,0,0,1,.18-2A3.45,3.45,0,0,1,401.33,1,5.51,5.51,0,0,1,403.8,2.3a4.64,4.64,0,0,1,1.62,1.62c.9-.3,1.74-.66,2.58-1a3,3,0,0,1,2.7.72,3.58,3.58,0,0,1,0,2.94,10.63,10.63,0,0,1-2.7,2,20.19,20.19,0,0,0-2.34,2,4.79,4.79,0,0,1,3.18,1.2,4.16,4.16,0,0,1-.12,3.18,15.27,15.27,0,0,1-3.24,2.16c-.78.48-1.08,1-1.08,1.44a66.21,66.21,0,0,1,8.95-.66,3,3,0,0,1,3.42-1.08,10.4,10.4,0,0,0,3,1.08A3.47,3.47,0,0,1,421.39,21,2.5,2.5,0,0,1,419.53,23.2ZM412,51.6a5.78,5.78,0,0,1-3.24,2.82,8.22,8.22,0,0,0-2.64,2c-1.74,1-3.12.84-3.84-.66a23.69,23.69,0,0,1-1.2-3.48c-.54-1.14.36-1.56,1.74-1.56s2-.54,1.92-1.56c.12-1.62.24-3.18.36-4.74-2.7.66-5.22,1.38-7.62,2.1.18,2.16.36,4.38.54,6.79-.9.78-1.74,1.56-2.64,2.4-1.08.18-1.8-.48-2.16-1.68a36.55,36.55,0,0,1-1-4.86,108.17,108.17,0,0,1,1.8-20.71,3,3,0,0,1,1.8-2,3.39,3.39,0,0,1,2.94-.12c1.8-.48,3.66-1,5.58-1.68.72-1,2.1-1.32,4-1.08a6.79,6.79,0,0,1,2.4,3.78,53.32,53.32,0,0,1,1.8,17.77A21.94,21.94,0,0,1,412,51.6Zm-7.27-16a12.85,12.85,0,0,1-6.84,2.1c-.18,1-.3,2-.42,3.18a40,40,0,0,1,7.5-1.2A13.87,13.87,0,0,0,404.76,35.57Zm-.9-6.48c-1,.36-1.92.6-2.76.9a4.17,4.17,0,0,0-2.64,2.1,9.08,9.08,0,0,0-.12,1.2c1-.24,1.92-.48,2.94-.78a4.12,4.12,0,0,1,3.36.6l.6-3.72C404.88,28.06,404.52,28.06,403.86,29.08Z"/><path d="M473.39,57.12c-9.19.06-15-1.32-18-5.7a15.61,15.61,0,0,1-.72-9.91c1.26-4.38,2.76-7.62,4.86-7.69a6,6,0,0,1,.18-1.5,24.14,24.14,0,0,1-6.12,2.58,52.84,52.84,0,0,1-11.59,12.67,77.37,77.37,0,0,0-7.51,6.06c-.78,1.2-1.62,1.5-2.16.12a6.62,6.62,0,0,1,2.52-4.86,45.93,45.93,0,0,0,7.51-7.39,11.38,11.38,0,0,1,1.32-1.86c.36-.24.6-.24.54-.3s-.42-.06-1,.06c-1.08,1.08-2.1,1.44-2.64.18s-2.1-5.1.06-5.58l1.32-.3c-.9-7.09-.66-16,.42-26.84.3-3.18,2.52-4.44,6.67-3.84a33.82,33.82,0,0,1,12.67-.9c1.08-1.44,2.7-1.56,4.74-.42a22.72,22.72,0,0,1,2.34,9.07,74.34,74.34,0,0,1-2.16,23.54c-.48,1.74-1.92,2.7-3.9,3-1.5,7.39-1,11.23,1.2,12.13a31.79,31.79,0,0,0,14.59-.84,18.82,18.82,0,0,1,2.52-5.82c1.08-.54,1.74-.24,1.5,1-.24,2.76.48,4.26,2.1,4.8,1.26,1.08,1.32,2.52.36,4.26C482.64,55.68,478.74,57,473.39,57.12Zm-13-33.26L458.5,25a32.22,32.22,0,0,1-8.71,1.56c-1,.42-1.44,2-1.08,5,3-1.2,5.52-2.28,7.57-3.18a6.4,6.4,0,0,1,4.08-1.74ZM458.68,6.75a49.48,49.48,0,0,1-6.36,2c-1.5.12-2.28.66-2.52,1.56a6.37,6.37,0,0,0-.18,2.52,25,25,0,0,1,7.63-2.16c2.22.9,2.76,2.28,1.44,4a20.19,20.19,0,0,1-8.95,2.94,10,10,0,0,0-.72,4.08q2.34-.9,4.86-1.62c3.12-.78,5.34-.9,6.49-.12-.06-5,.06-9.73.42-14.17Z"/><path d="M543.59,30.4a2.23,2.23,0,0,1-1.5-1,2.31,2.31,0,0,0-1.14.78c-2.28,1.56-6.25-.9-8.35-2-.06.18.24.36.72.66.9,1,.24,2.52-1.44,4.5a12.8,12.8,0,0,0-2.94,3.48c-.18.72-.3,1.44-.42,2.16a4.3,4.3,0,0,1,3.42,2.4c.36,1.14-.24,2.46-1.62,3.84a14.38,14.38,0,0,0-1.74,2.82,16.29,16.29,0,0,1,7,.24c1.74.84,2.58,2.46,2.46,4.8-.84,1.38-2.34,1.8-4.44,1.74a128.2,128.2,0,0,0-20.12.66c-1.08.12-2.22-1.2-3.42-3.66C510,49.92,511,49,513,48.78a16.17,16.17,0,0,1,2.94,0,13,13,0,0,0-1.62-2.28c-1.14-1.8-1.26-3.42-.18-4.86a18.63,18.63,0,0,1,3.18-.06,3,3,0,0,0-.9-.9,19.3,19.3,0,0,1-3.78-7.51c.12-1,.18-1.5,0-1.68s-.24.24-.66.9a19.8,19.8,0,0,1-3.24,5,3.71,3.71,0,0,1-1.8,2.46c-1,1.14-.9,1.68-.24,2,2.22,1.38,2.16,3.12-.24,4.86-1.62,1.2-3.54,2.4-5.64,3.78.18,3-.84,4.2-3.18,3.06l-4.8-4.8a9.8,9.8,0,0,1-3.06-8c.18-1.68,1.26-2.16,3-1.56a1.94,1.94,0,0,1,1.8,1.5A27.59,27.59,0,0,1,502,37.91a5.36,5.36,0,0,0,1.32-1.8c0-.84.72-1.14,1.8-1a2.48,2.48,0,0,1,1.62.48,47.41,47.41,0,0,1,4.68-9.49c.06-.12.12-.18,0-.24a2,2,0,0,0-.9,0,7.82,7.82,0,0,1-3.18-2.52,2.32,2.32,0,0,1-.6-2.7,15.52,15.52,0,0,1,1.38-1.92,3.17,3.17,0,0,1,2.58-.24,6.46,6.46,0,0,0,2.64,1.86c.72-2,1.38-4.08,1.92-6.18a3.6,3.6,0,0,0,0-1.14c-2.1.12-3.06-.36-2.94-1.14-.24-1.92.42-3.06,2-3.18A5.57,5.57,0,0,0,518.19,8c.72-.84,1.74-.78,3,0a3.17,3.17,0,0,1,.18,4.08,23.59,23.59,0,0,1,7.26,4.68,35.12,35.12,0,0,1,5.1-5.82c1.38-.66,2.64-.24,3.72,1.14.72,1.74.3,3.36-1.14,4.92a14.55,14.55,0,0,1-5.82,1.38c-.06.18.18.36.66.6,6.36,3.36,10,5.4,10.81,6.13,2.28.48,3.72,1.5,4.32,3.12C546.23,29.92,545.27,30.64,543.59,30.4Zm-43.41-13a15.39,15.39,0,0,0-2.88,2.7c-3.54,1.2-6,1-7.33-1-.6-2.76.24-4.62,2.58-5.46a12.06,12.06,0,0,0,5.64-1.32c1-.6,2-1.14,3-1.62.42-.12.18-.54-.42-1.32A19.35,19.35,0,0,0,498,7.29a4.51,4.51,0,0,1-.9-3.9,5.3,5.3,0,0,1,5.22-.6,12.37,12.37,0,0,1,4.2,6.06c1.68,2.46,1.86,4.32.24,5.46C504.56,15.33,502.4,16.29,500.18,17.37Zm4.68,15.07a10.59,10.59,0,0,0-3.72,2.1,7.3,7.3,0,0,1-3.3,1.26,2.06,2.06,0,0,1-1.74-2.34c0-1.68,1.08-3.12,3.18-4.26,2-1.86,3.78-2.58,5.22-1.92A4.43,4.43,0,0,1,507,29.8C507.2,31.06,506.42,32,504.86,32.44Zm-1.2-8.23a26.73,26.73,0,0,1-3.9,2.34,2.45,2.45,0,0,1-3.18-1.86,3.45,3.45,0,0,1,1.56-3.6,34.55,34.55,0,0,0,4.92-2.52c1.14-.36,2.1.12,2.94,1.38A4.68,4.68,0,0,1,503.66,24.22Zm-7.15,20.24L499,47.09A13.35,13.35,0,0,0,502,40.73C500.18,41.87,498.38,43.07,496.52,44.45Zm30.08-19.7a17.15,17.15,0,0,1-7.93,2.94c-1.86,0-2.7-1-2.4-2.88A5.74,5.74,0,0,1,521.19,21c1.8-.48,2.16-1,1.8-1.62a9.46,9.46,0,0,0-4.26-1.8,63.49,63.49,0,0,1-4.32,10.81l3,1.08q5.58-1.53,11.89-2.88A9.68,9.68,0,0,0,526.6,24.76ZM520.29,43c-.9.48-1.08.84-.9,1.14a17.08,17.08,0,0,1,.78,2.88.67.67,0,0,0,.48.84,16.86,16.86,0,0,0,6.18-6.3,3.71,3.71,0,0,1,.42-1.86A9.89,9.89,0,0,0,520.29,43Zm5.16-10.69a11.18,11.18,0,0,1-3.84,1.08l-1.5.6a9.19,9.19,0,0,0,1,2.76,9.26,9.26,0,0,0,5-4.8A1.43,1.43,0,0,0,525.46,32.32Zm7.81-22.7c-3-.3-3.78,2.64-6.54,3-1.8.78-2.4.06-1.68-1.92a70.49,70.49,0,0,1,5.22-5.82,6.07,6.07,0,0,1,4,.66,3.51,3.51,0,0,1,1.56,3.12A4.07,4.07,0,0,1,533.26,9.63Z"/></g></g></g></svg>