<svg xmlns="http://www.w3.org/2000/svg" viewBox="0 0 522.53 119.86"><title>spokesman_txt</title><g id="圖層_2" data-name="圖層 2"><g id="圖層_1-2" data-name="圖層 1"><g id="spokesman_txt"><path d="M166.81,23.66c-.68.48-2,.12-3.84-.84q-.06,7.08.12,12c-.12,2-.88,1.52-1.6,2.84-.92,1-1.72.28-2.2-1.36a14.7,14.7,0,0,1-.48-5.2c.16-2.48.24-4.8.32-7a14.16,14.16,0,0,0-1.68,2.24c-1.24,2.08-2.2,3.6-2.92,4.6-1.68,1.44-2,.52-1.44-1.56.92-2,1.84-4.28,2.88-6.88,1-2.32,1.76-4.24,2.32-5.8-1.72.52-3-.2-4-2.08a2.11,2.11,0,0,1,1.32-2.6,33.8,33.8,0,0,0,3.12-1.8L159,9.9c.08-1.52.12-2.92.12-4.24a2.21,2.21,0,0,1,.76-2.32,3.6,3.6,0,0,1,3.32.88,8,8,0,0,1,.4,4.32c1.44.32,2.28,1.6,2.6,3.72,0,1.16-.92,2.56-2.6,4.2a25.64,25.64,0,0,0-.4,3,6.55,6.55,0,0,1,4.08,1.32C167.93,22,167.81,23,166.81,23.66Zm19,12a103,103,0,0,0-17.76,1c-1.24.36-2.24-.36-3-2-.6-1.76-.56-3,.56-3.16A66.17,66.17,0,0,1,173,30.9c0-.76,0-1.52,0-2.32-1.48.36-2.56.08-3.24-.92-.76-1.68-.88-2.88-.08-3.48A16.36,16.36,0,0,1,173,23a14.58,14.58,0,0,0,.08-2.4c-1.68.88-3,1-3.92.08-.68-1.32-.84-2.4-.4-3.2a22,22,0,0,1,4-1.56l-.08-1a6.3,6.3,0,0,1-4-1.64c-1.16-1.48-1.16-2.68.2-3.44l3.76-1.28c.08-1.64.16-3,.2-4.12.32-1.92.84-3.16,1.68-3.56.6-.56,1.36-.12,2.28.8s1.56,2.72,1.72,5.12c2.08,0,3.28.56,3.28,1.92a4.59,4.59,0,0,1-1.24,3.2,12.28,12.28,0,0,1-3,2v.76a6.53,6.53,0,0,1,4.12,0,4.86,4.86,0,0,1,0,3.56c-1.24.52-2.6,1.08-4.12,1.68v1.72c1.8-.6,3.12-.44,3.8.68.64,2,.52,3.32-.6,3.92a24.71,24.71,0,0,1-3.12,1.16,16,16,0,0,1-.16,3.2c2.24-.16,4.4-.2,6.48-.16a4,4,0,0,1,3.72,2.12C188.32,34.42,187.68,35.54,185.8,35.7Z"/><path d="M228.16,23a6.88,6.88,0,0,1-1.16-1c-.64-.72-1-.72-1.16-.52a2.17,2.17,0,0,1-2.68.76,30,30,0,0,1-8-4.92,52.48,52.48,0,0,0-5.56,6.16l.72.4a31.08,31.08,0,0,1,9.84-2,2.94,2.94,0,0,1,2.16,1.16,3.6,3.6,0,0,1,1.24,4.52,34.61,34.61,0,0,1-1.44,3.64,3.31,3.31,0,0,1,.52,3.16A3.34,3.34,0,0,1,220,35.54l-6.68.44a3.43,3.43,0,0,0-1.08.36c-.68.32-1.48-.44-2.32-1.76-2-4.44-2.72-7.64-2.2-9.56a15.33,15.33,0,0,1-2.68,1.6c-.8.32-1.64.64-2.48,1-1.08.52-1.48,1.2-1.32,2l.2,4a3.36,3.36,0,0,1-.52,2.4,4.15,4.15,0,0,0-1.2,1c-.76.68-1.44.32-2-.68-.64-1.4-.56-5.44.12-12-.68.8-1.28,1.52-1.84,2.12a4.19,4.19,0,0,0-.88,1.28,3,3,0,0,1-2.2,1.32c-.84.2-1.32-.2-1.36-1.08a8.86,8.86,0,0,1,1.64-3.72c.56-.8,1-1.8,1.68-2.88s1.28-2.24,1.88-3.32c-1.52.24-3-.44-4.28-2-.84-1-1.16-1.8-.76-2.48a5.38,5.38,0,0,1,2.52-1.76c1.36-.52,2.32-1,3-1.28l1-.44a61.18,61.18,0,0,1,.48-6.8,2.91,2.91,0,0,1,1.2-1.64.89.89,0,0,1,1.4.44A4.66,4.66,0,0,1,202,7c-.44,1.68-.08,2,.64,1.76a14.82,14.82,0,0,1,2.68-.24,1.22,1.22,0,0,1,1,1.36,3.16,3.16,0,0,1,2-.52,31,31,0,0,1,4.08-5.16c1.36-1.24,2.52-1.6,3.08-.64.84,2,1.52,2.36,2.08,2A16.13,16.13,0,0,0,220,3.18c.72-.56,1.36-.72,1.8-.24a8.32,8.32,0,0,1,.88,1.32,2.33,2.33,0,0,1,.36,2.28,20.4,20.4,0,0,1-2.16,2.36c-1.24,1.4-2.28,2.64-3.16,3.68,2.68,1.72,5.16,3.56,7.68,5.16,1.08.68,2,1.2,2.8,1.76a3.12,3.12,0,0,1,1.68,2C229.84,22.78,229.28,23.38,228.16,23Zm-17.6-8.64-.76-.2a2.55,2.55,0,0,0-1.6-.12,2.14,2.14,0,0,1-2.76-.44c-.08-.4-.68-.2-1.84.32a3.1,3.1,0,0,0-1.6,1.32,13.34,13.34,0,0,0-.84,3.12c-.12.36.32.44,1.2.48,1.08.24,2,.44,2.8.6,1,.44,1.28,1.36,1,2.68-.88.92-2.56,1.12-5,.68,0,1.2,0,2.36,0,3.48a12.3,12.3,0,0,1,3-2,11.76,11.76,0,0,0,3.2-3.24c1.16-1.68,2.4-3.48,3.8-5.32.28-.52.28-.8.16-1Zm3.72,13.24q-2.16.42-2.16,1a16.09,16.09,0,0,1,.8,2.44c1-.16,1.84-.28,2.6-.36s1.6-1.16,2.36-3.84Zm.48-19h-.16a3.59,3.59,0,0,0-1.36.2l-.84.68c-.12.12-.16.2,0,.36a7,7,0,0,0,1.72.56c.12.08.4,0,.8-.64C215.6,8.74,215.32,8.54,214.76,8.58Z"/><path d="M269.72,26.34a2.42,2.42,0,0,1-1.68-.68,1.54,1.54,0,0,1-2,.72,16.82,16.82,0,0,1-3.8-1.92,19.84,19.84,0,0,1-5.12-3.6c-.28-.24-.36-.2-.28.12a6.59,6.59,0,0,1-1.6,5.52c.24.92-.32,1.72-1.56,2.44-.24.16-.36.24-.28.32s.32.24.84.36a11,11,0,0,0,2.24-3.48c.32-.64.92-.76,1.68-.44,1.24.56,1.6,1.56,1.08,3a7.33,7.33,0,0,1-2,2,15.09,15.09,0,0,1,5.56,3.8,2.78,2.78,0,0,1-1.12,3.28,4.16,4.16,0,0,1-2.4-1.08,8.13,8.13,0,0,1-1.68-1.12c-.88-.52-1.84-1.08-2.92-1.68a.54.54,0,0,0-.32.84,5,5,0,0,1-2.24,1.6,25.24,25.24,0,0,1-4,1.56c-.76.24-1.64.44-2.16.6a2.17,2.17,0,0,1-2.6-1.12c-.68-1.12-.68-2,.24-2.56l1.08-.24a87.82,87.82,0,0,1,.16-10.92c.2-2.4.88-3.84,2.16-4.12a9.81,9.81,0,0,0,1.48-.16c.64-.08.6-.2.2-.48a1.54,1.54,0,0,1-.8-1.24A5,5,0,0,0,246.4,19c-1.68,2.32-2.92,4.16-3.8,5.44a75.6,75.6,0,0,0-4.32,7.16c-.76,1-1.44.76-1.92-.44a4.42,4.42,0,0,1,1-3.64c1.8-2.52,3.84-5.32,6-8.48a3.59,3.59,0,0,1-1.84-1.36c-.72-.56-.84-1.16-.2-1.72a53.4,53.4,0,0,1,5.16-1.44c1.32-.16,1.36-1,1.6-1.4-2.08.4-3.56,1-4.28,1-.8-.16-1.2-.76-1.24-1.76a1.92,1.92,0,0,1,.68-1.64,7.14,7.14,0,0,1,2.12-.4c.76-.08,1.6-.16,2.44-.28.4-.12.56-.2.56-.32,0-.44,0-.64-.2-.6a25.65,25.65,0,0,1-4.2.8c-1.08-.16-1.72-1-2-2.28a1.59,1.59,0,0,1,1.4-2,5.17,5.17,0,0,0-1.16-2.16,1.32,1.32,0,0,1,.2-1.92c1.12-.72,1.92-.8,2.2.12a2.51,2.51,0,0,0,.2,1.16,5.81,5.81,0,0,1,.32,2.36,65.08,65.08,0,0,0,8.72-1.48,31.66,31.66,0,0,0,2.72-3c.52-.84,1.28-1,2.24-.4,1,1.44,1.2,2.44.08,2.64a15.1,15.1,0,0,0-2.24,1,.25.25,0,0,1,.16.08c.16.12.44.28.84.52.8,1,.84,1.84,0,2.44a10.64,10.64,0,0,1-2.88.88c-.36.08-.84.16-1.4.24l-.12.84a11.76,11.76,0,0,1,3.32-.36c1.08.44.88,1.92-.12,2.88a13.1,13.1,0,0,1-3.2.84c0,.16-.32.68-.08.76s1.24-.32,2-.4c2.4-.32,3.8-.28,4.36.28a2.38,2.38,0,0,1,.48,2.28,1.39,1.39,0,0,1-1.32.88l-.68,0a18.89,18.89,0,0,0,4.44,3.16c2.28,1.24,4.28,2.36,6,3.4.64.6,1.2,1.12,1.76,1.56C270.8,25,270.6,25.66,269.72,26.34Zm-19.44-.08a5.31,5.31,0,0,1-1.32.32c-.44.08-.72.56-.8,1.6.64-.24,1.28-.08,1.84-.36a4.48,4.48,0,0,0,1.64-.68,12.27,12.27,0,0,0,.68-2A6,6,0,0,1,250.28,26.26Zm-.08,5.32c-.44-.28-.84-.36-1-.6-.6.32-.84.6-.8.76,0,.88-.08,1.64-.08,2.24.6-.12,1.52-.32,2.72-.6a3.08,3.08,0,0,0,1.2-.84C251,32.54,250.24,32.14,250.2,31.58Zm.44-9.56a3.11,3.11,0,0,0-2,1l0,.48a19,19,0,0,0,2-.4c1.12-.4,1.92-.4,2.24.24a5.71,5.71,0,0,0,.36-2.12A11,11,0,0,1,250.64,22ZM252,16.94l.6,1c.2.44.76.64,1.84.44C253.68,17.22,252.88,16.78,252,16.94Z"/><path d="M283.36,32.14a3.86,3.86,0,0,0-.48,1.88,1.83,1.83,0,0,1-2.68.52,10.88,10.88,0,0,1-1.92-3.28c0-1.6.84-2.2,2.48-1.8a1.76,1.76,0,0,0,1.44.56,2.27,2.27,0,0,1,1.44-.32c.28.08.36.44,0,1A6.09,6.09,0,0,0,283.36,32.14Zm26.2,3.24a7.24,7.24,0,0,1-3.88,1.28c-3.08,0-5.32-1.12-6.44-3.24a17.74,17.74,0,0,1-1.72-7.84c-1.6.16-3.24.4-5,.72-.52,0-.52.72-.52,2.16,0,3.32-.52,5.68-1.52,7a3.64,3.64,0,0,1-1.64,1.88c-1.84.88-3.08.92-3.4-.4.08-1.16-.16-1.8-.64-2.08a.36.36,0,0,1-.08-.64,2.48,2.48,0,0,1,1-.6c1.8-.32,2.6-1.28,2.48-2.88,0-1.12.08-2.28.08-3.48-1.36.52-2.68.92-4,1.32-2.64.8-4.4.84-5-.24a1.79,1.79,0,0,0-.48-1,2.53,2.53,0,0,1,2.2-3.12l1.6-.32a13.81,13.81,0,0,0-.88-1.24,11.79,11.79,0,0,1-.76-3.6,1.7,1.7,0,0,1,2.36-1c-.2-1,.4-1.88,1.72-2.48a60.7,60.7,0,0,1,9-2.68,20.9,20.9,0,0,1,5-1.52c.76-1.2,1.6-1.8,2.6-1.64.72.72.92,2,.52,3.76a8.57,8.57,0,0,1-.88,2.64,31,31,0,0,0-.84,5.76,21.8,21.8,0,0,0,.28,5.72c.52,2.76,1.88,4.12,3.76,4.28a6.36,6.36,0,0,0,2.44-.08c.4-.16.52-.4.36-.76-.16-1.24-.12-2.08.4-2.44a2.31,2.31,0,0,1,1.52,1.84c.08.16.32.28.84.36a1.49,1.49,0,0,1,1.28,2.08A5.42,5.42,0,0,1,309.55,35.38Zm-11-30.32c-.84.4-1.92.76-3.16,1.4-2.8.6-4.6.84-5.4.2a9.18,9.18,0,0,1-1.44-1.28A3.55,3.55,0,0,1,286,7.58c-.84-.08-2,.44-3.48,1.64-1.68.84-2.88,1-3.16,0a3.91,3.91,0,0,1,1.52-3.36A32.89,32.89,0,0,1,284,2.7a5.39,5.39,0,0,1,2-1.08l.44-.2a1.5,1.5,0,0,1,2.24,1.24c0,.36.12.52.92.24,1.24-.48,2.72-1,4.44-1.52,1.72-1,3.08-1.36,4.12-.92a2.15,2.15,0,0,1,1.64,2.2C300.16,3.3,299.6,4.14,298.52,5.06Zm-11,16.16a1.18,1.18,0,0,0-.64-.52,2,2,0,0,0-1-.56A4.13,4.13,0,0,1,285,20c-.16.08-.16.36,0,.84.4.84.56,1.48.28,1.84a1.51,1.51,0,0,0-.2.64c.6-.2,1.16-.36,1.76-.52.92,0,1.4-.08,1.4-.4A2.63,2.63,0,0,0,287.56,21.22ZM298.08,9.5a11.71,11.71,0,0,1-1.72,1.72c-3.44,1.4-6,1.8-7.84,1.16-1.32-1-2-2-1.76-3,.28-.64,1.24-1,2.68-1,.8-.24,1.32,0,2-.2A10.21,10.21,0,0,0,294,7.54c2.28-.6,4-1.2,4.6-.4,0,.44.08.88.08,1.36A1.36,1.36,0,0,1,298.08,9.5ZM291.76,18l-.52.32c-.16,0,.08.12,0,.92,0,.28,0,1.52.24,1.28a23.4,23.4,0,0,1,1.76-2.88c.08-.12.16-.2.2-.28A12.12,12.12,0,0,0,291.76,18Zm5,14c-.44.92-1.4,1-2.6.36a6.12,6.12,0,0,1-1.56-2.6c-.44-1.32-.4-2.24.56-2.4a2.08,2.08,0,0,1,2.12.24c.24-.44.72-.32,1.44.52l.2.6A3.44,3.44,0,0,1,296.8,32Zm1.08-17.92-.48.48a18.14,18.14,0,0,1-2,1.84,12.59,12.59,0,0,1,1.08.84,1.48,1.48,0,0,1,.2,1.44,2.12,2.12,0,0,1-.84,1,5,5,0,0,0-2.32.88c-.28.32-.6.72-1,1.24a15.34,15.34,0,0,1,4.68-.6,41.23,41.23,0,0,1,1-6.72C298.24,13.86,298.08,13.94,297.88,14.1Z"/><path d="M351.75,31.74a1.58,1.58,0,0,1-1.52,0,2.65,2.65,0,0,1-1-.48,3.57,3.57,0,0,1-.8.88c-.44.44-1.4.36-2.8-.08-4.64-1.52-9.36-4.68-14-9.6-.88-.92-1.48-1.48-2.08-1.6a3,3,0,0,0-2.44.88c-2.36,2.68-5,5.52-8,8.48a2.45,2.45,0,0,1-2.52-.16,2.6,2.6,0,0,0-1,.8c-.6.2-1-.12-1.28-.76-.44-.56,0-1.36.8-2.36,6.08-7.6,11.24-14.16,15.52-19.6a1.87,1.87,0,0,1,1.88-1.24,6.49,6.49,0,0,1,2.32,2.36,2.38,2.38,0,0,1-.32,2.24A29,29,0,0,0,332,15.26a4.33,4.33,0,0,1,2.4,1.48,45.86,45.86,0,0,0,11,8.72c2.88,1.56,4.52,2.6,4.88,3.08a2.65,2.65,0,0,0,1.16,1c.92.52,1.32,1.12.72,1.68A.81.81,0,0,1,351.75,31.74Z"/><path d="M391.51,26.14a1.84,1.84,0,0,1-1.6-.24c-.56-.12-1,.36-1.28.56s-.76.36-2.44-.12c-5.36-2.08-9-4.12-11-6.12a7.12,7.12,0,0,0-3.88-.52,45.29,45.29,0,0,0-5.2,5.4c-4.2,2.92-7.48,5.4-9.56,7.12-1.16,1-1.68-.28-1.16-1.36,2-1.92,3.72-3.64,5.52-5.48,1.72-1.68,3.44-3.2,4.84-4.88a19.38,19.38,0,0,0-4.56,2.24,3.85,3.85,0,0,1-2.32-1.36,1.36,1.36,0,0,1,.76-1.48,13.64,13.64,0,0,0,.84-2.12c.72-2,1.48-3.24,2.28-3.24q1.62.54,1.08,2a23,23,0,0,0-2,2.64c1.8-.68,3.36-1.24,4.72-1.6a2.25,2.25,0,0,1,.8-1.68,1.86,1.86,0,0,1,2,.68c1-1.2,1.88-2.4,2.72-3.56.16-.44,0-.48-.32-.48-.68.2-1.72.48-3.2.84-1.92.64-3.32.64-3.88-.24-.44-1.48-.2-2.52.84-3.16h1.8a4,4,0,0,1,.52-.64,3.94,3.94,0,0,1-1.12-.32c-1.44-.76-1.36-.76-1.88-2.36a4,4,0,0,1-2.28-.8,1.73,1.73,0,0,1-.48-1.4,3.24,3.24,0,0,1,3.24-2.44,1.93,1.93,0,0,1,1.24-2,6.16,6.16,0,0,0,2.64,1.08,2.59,2.59,0,0,1,.48.48,4.49,4.49,0,0,1,3.16.72,2.39,2.39,0,0,1-1.8,2.8A5.85,5.85,0,0,1,369,6a7.59,7.59,0,0,0-.16,2.32,11.76,11.76,0,0,1,1.68-1.48,3.41,3.41,0,0,1,2.64-.44c.56,1.72.44,2.84-.68,3a4.91,4.91,0,0,0-1.68.64,3.75,3.75,0,0,0,1.08-.08,33.67,33.67,0,0,0,4.72-.8c0-.64-.08-1.28-.08-2,.44-.6,1.08-.6,1.8-.16a5.05,5.05,0,0,1,1.84,4.2,2.66,2.66,0,0,1-1.72,1.36c-1.16.32-1.84.12-1.84-.76l.16-.6c-.76.24-1.48.44-2.2.68a2.29,2.29,0,0,1,1,2.92,12.87,12.87,0,0,0-2,1.52,12.27,12.27,0,0,1,1.84.64c.36-.32,1-1,1.24-1.36a43.18,43.18,0,0,1,2.92-3.2,2,2,0,0,1,2.76-.16c.28,1.2,0,2-.84,2.36a13.07,13.07,0,0,0-3.08,2.28c2.32-.36,3.4-.8,3.52-1.2.56-1.44,1.48-1.92,2.48-.88.52,1.48.52,2.6,0,3.44-1.08.76-2,.8-2.6,0a9.35,9.35,0,0,0-1.92.84c3.92,1.68,8.36,3.88,12.2,5a1.45,1.45,0,0,1,1.16,1.6C393,26.22,392.07,25.82,391.51,26.14ZM370.19,37.62a11.24,11.24,0,0,1-2,.88c-.64.2-.88.08-.88-.32a47.36,47.36,0,0,1,6.28-6.4l1.56-2.28c1.12-1.24,2-1.52,2.44-1,.8.52.84,1.44.24,2.64A12.68,12.68,0,0,1,370.19,37.62Zm3.64-8.44c-2.28,1.88-4,2.8-5.24,2.56-.16-.8.32-1.72,1.36-2.76a14.72,14.72,0,0,0,2.64-3.32c-.08-.2-.28-.24-.8,0a13.63,13.63,0,0,1-3.48,1.2c-.8.08-1.08-.24-.8-.84A4.53,4.53,0,0,1,369,23.58l2.44-2.2a3.28,3.28,0,0,1,2.8-.68c1.32,1.36,1.88,2.4,1.08,3a4.46,4.46,0,0,0-1.52.68A3.2,3.2,0,0,1,376.55,26C376.43,27.34,375.51,28.34,373.83,29.18Zm9.4-23.72A6.19,6.19,0,0,1,379,5l-2.4,1.64c-.68.32-2,.32-1.48-.72A18.3,18.3,0,0,0,378,1.62c.72-1.68,2.2-1.72,3.4-.52a4.66,4.66,0,0,1,4.36.72C386.63,3.3,385.67,4.5,383.23,5.46Z"/><path d="M32.78,70.51a38.48,38.48,0,0,0-7.5,4.26,5.86,5.86,0,0,0-.18,2.52c.72-.54,1.5-1,2.28-1.62a3.19,3.19,0,0,1,2.94-.36,11.53,11.53,0,0,0,1,1.56c.6,1.56,0,2.64-1.68,3.24a16.83,16.83,0,0,0-5.28,1.5c.18,2.34.3,4.44.42,6.42-.12,1.56-.72,2.52-1.8,2.82-.6.3-1.26.6-1.92.9.06.24.12.48.18.78a6.11,6.11,0,0,1,3.48,1.08,3.65,3.65,0,0,1,.72,2.76A4.58,4.58,0,0,1,23.18,99c-.84.42-1.68.72-2.58,1.08a2.68,2.68,0,0,0-1.14,2.28l-.06,1.56a21.15,21.15,0,0,1,6.3-1.62,2.67,2.67,0,0,1,2,1,10.88,10.88,0,0,1,.66,1.8,1.78,1.78,0,0,1-1.62,2A105.77,105.77,0,0,0,9.56,114a3.93,3.93,0,0,1-4.14-1.08c-.3-.6-.48-1.08-.66-1.44a3.48,3.48,0,0,1,1.08-2.7c2.58-1.26,5.1-2.34,7.56-3.3-.06-.66-.12-1.32-.24-2a14,14,0,0,1-2.28.3,3.62,3.62,0,0,1-2.58-1.26,6.49,6.49,0,0,1-.54-2.4,4.37,4.37,0,0,1,1.92-2.16c1-.48,2-1,3.12-1.38a7.28,7.28,0,0,0,.84-2c-1.32.42-2.64.84-3.9,1.26C7.82,97,7,93,6.74,91.87c-.3-.84.24-1.74,1.38-2.64.72-.12,1.32-.24,1.86-.36a18,18,0,0,1,.24-2.64,23.1,23.1,0,0,1-7.5,2,2.93,2.93,0,0,1-2.34-2.1A5,5,0,0,1,0,83.65,3.58,3.58,0,0,1,2.9,81.79c2-.3,4.14-.42,6.24-.54L12,80.59A56.29,56.29,0,0,1,11.9,66c.54-.78,1.14-1.14,1.86-.9A27.56,27.56,0,0,1,17.3,67c1,.6,1.38,1.92,1.26,3.78a3.64,3.64,0,0,1-1.62,1.44c-.06,2.22-.18,4.5-.3,6.78a8.91,8.91,0,0,0,2-.24c.12-3.12.24-6.18.3-9.18A15.79,15.79,0,0,1,20.24,66c.24-.48.54-1,.84-1.5a2.73,2.73,0,0,1,3.36-.36,3.45,3.45,0,0,1,1.74,2.4,5.13,5.13,0,0,1-.42,2.7c-.12.6-.24,1.2-.3,1.68,1.86-1.62,3.6-3.18,5.28-4.74A4.11,4.11,0,0,1,33,65.83a5.16,5.16,0,0,1,1.32,1.74A3.66,3.66,0,0,1,32.78,70.51ZM9.44,76.39c-.84,1-1.74,1.32-2.76.72a33.92,33.92,0,0,1-2-6.54A2.1,2.1,0,0,1,6,68.47a2,2,0,0,1,2.16.42A18.31,18.31,0,0,1,10,75,1.63,1.63,0,0,0,9.44,76.39Zm5,8.58c0,.72.06,1.44.12,2.22,1-.24,2.1-.54,3.36-1a3.68,3.68,0,0,0,.48-2.4C17.06,84.19,15.74,84.55,14.42,85Zm20.16,17.52c-1.26.54-2.4.12-3.48-1.08-1.68-1.92-3.24-3.9-4.74-5.88-.6-1-.6-1.8.24-2.34a1.81,1.81,0,0,0,1.14-1.44,11.87,11.87,0,0,1,4.56.9,9,9,0,0,1,3.78,5.7A8.33,8.33,0,0,1,34.58,102.49Zm17.76-19q-2.61.81-5,1.44c.06,8.88.18,17.88.3,26.94a30,30,0,0,1-4.8,5.64,7.56,7.56,0,0,0-4.8,2,1.77,1.77,0,0,1-2.52-.72c-.84-1.62-1.74-3.18-2.64-4.74-1.2-.9-1.2-1.74.18-2.28a22.23,22.23,0,0,1,3.48.6c2.16.18,3.12-1,3.24-3.84.3-7.2.54-14.34.3-21.54a48,48,0,0,0-5.64,1.2,3.92,3.92,0,0,1-4-1.62c-.48-.72-.9-1.44-1.32-2.22-.54-1.08.24-2,1.86-2.88A77.4,77.4,0,0,0,40,78.79c0-4-.06-8-.18-12A3,3,0,0,1,42,64.57a9.28,9.28,0,0,1,2.58,0,4.63,4.63,0,0,1,2.52,3.3,68.07,68.07,0,0,0,0,9.9A10.11,10.11,0,0,1,48.74,77a7.23,7.23,0,0,1,4,.72,6.23,6.23,0,0,1,1.5,2.82A3,3,0,0,1,52.34,83.53Z"/><path d="M108.43,81.55a33.68,33.68,0,0,0-6.54.48,15.87,15.87,0,0,0-2.1,1.44c-1,.48-1.56.06-1.5-1.14a22.68,22.68,0,0,1,3.78-5.22L79.16,79.63a9.9,9.9,0,0,1-5.34,2.58q.09,3.24,0,6.48a7.46,7.46,0,0,0-.3,2.1c-1.68.54-2.1,1.08-2,1.56-.12.72-.72,1.26-1.74,1.68a3.51,3.51,0,0,1-2.52-2,27.77,27.77,0,0,1-.9-8.22c.3-2.22.66-4.32,1-6.3,1.26-2.88,3-3.9,5.22-2.76a55.23,55.23,0,0,0,12.36-.66,17.26,17.26,0,0,0-3.6-4.32c-1-1.5-1.32-2.7-.6-3.3a11.31,11.31,0,0,1,6,0,10,10,0,0,1,3.36,4.2,6.5,6.5,0,0,1,.54,2.88c4.5.06,9.06.18,13.74.3a2.81,2.81,0,0,1,4.32-.3A14.45,14.45,0,0,1,111,76.93C111.67,79.33,110.83,81,108.43,81.55Zm-1.26,34.5a16,16,0,0,1-3.78,1.5,99.55,99.55,0,0,1-14,.24,10.36,10.36,0,0,1-8.46-4.62,32.54,32.54,0,0,1-1.68-9.12V96.49A43,43,0,0,1,81,90c.84-2.28,2.64-2.46,5.28-.78a32.11,32.11,0,0,0,5.46-2.88,33.31,33.31,0,0,1,3.9.3,3.71,3.71,0,0,1,1.14,2.64c1.14.72.9,2.16-.18,4a22.9,22.9,0,0,1-9.18,4c-.66,1.74-1.32,3.48-2,5.16a15.49,15.49,0,0,0,.9,6.12,6.73,6.73,0,0,0,4.44,1c3.24-.18,6.6-.3,10-.54a2.08,2.08,0,0,0,2.22-1.74c.18-.84.42-1.8.66-2.94a2.41,2.41,0,0,1,1.68-.6,2.3,2.3,0,0,1,1.62,1.68,1.7,1.7,0,0,0,.48,1.56c1-.06,1.56,1.2,1.86,3.12a3.18,3.18,0,0,1,0,2.94A11.76,11.76,0,0,1,107.17,116.05Z"/><path d="M152.29,92.29c0,3.66-5.28,8.94-7,9.18-.84.12-1.32-.48-1.08-1.14a7,7,0,0,1,.36-1.08c.48-.84,1.74-3,1.92-3.54.42-1.44-.54-2.82-2.46-4.44-1-.84-1.44-1.56-1.44-2.16,0-1.56,3.42-4,5.22-3.6S152.35,89.65,152.29,92.29Z"/><path d="M237.73,119.11a9.41,9.41,0,0,1-5.76,0c-4.2-2.1-8.46-6.12-12.84-12a90.24,90.24,0,0,1-9.18,5.1c-1.86.9-2.22-.36-1.5-2.28,2.64-3.36,5.1-6.72,7.38-10.14a60.5,60.5,0,0,1-4.2-11,65.32,65.32,0,0,0-6.06,3.3,5.25,5.25,0,0,0-.3,2.1,8.58,8.58,0,0,1,2.82-.84c1.62.12,1.8,1.2,1,2.7a30.92,30.92,0,0,1-3.66,2.82,54.8,54.8,0,0,0,.36,7.74,8.8,8.8,0,0,1-2.94,6.18c-2.82,1.32-4.5,2.64-5.16,3.9s-2,1-3.36-.18a7.11,7.11,0,0,1-1.74-4.74c0-1.14.72-1.62,1.92-1.5a4.55,4.55,0,0,0,3.66-1.92c.42-1.92.78-3.78,1.08-5.64A116.55,116.55,0,0,0,188.89,109a3.21,3.21,0,0,1-3.36.36,4.37,4.37,0,0,1-2.16-2.58,3.88,3.88,0,0,1,1.56-3.24c4.26-2.28,9-4.56,14.16-6.78V95.17c-4.14,1.56-7.92-.3-10.74-3.3-.72-1.92-.06-3.12,1.92-3.54a28.26,28.26,0,0,0,7.68-2.82,4.83,4.83,0,0,0-.18-1.8,6.41,6.41,0,0,1-3.72-.84,21.28,21.28,0,0,1-3.9-3.84c-.48-1.86.06-3.18,1.68-3.78a55.83,55.83,0,0,1,12.72-3.12c2.82,0,4.26,1,3.9,3.24a17.73,17.73,0,0,1-4.32,4.8,3.78,3.78,0,0,1,.54,2,54.46,54.46,0,0,0,5.76-2c-.9-3.18-1.92-7.32-2.76-10.92-.6-2.52-.78-4.44.3-6.06,1.44-.84,3.12-.84,4-.12a12,12,0,0,0,2,3.9c.48,4.2.54,7.74,1.32,11.7,2.64-.42,4.62-.24,5.88.66,1.5,2.34,1.8,4.14.48,5.28-2.22.9-3.36,1.38-3.36,1.68A15.18,15.18,0,0,0,220,93c1-1.92,1.86-3.72,2.58-5.4a3.25,3.25,0,0,1,2.7-.72,5.39,5.39,0,0,1,2.76,2,4.55,4.55,0,0,1,0,3.48,28.32,28.32,0,0,1-4.08,8.76,38.89,38.89,0,0,0,7.86,10.26c.36.36.6.3.72-.3.42-1.26.78-2.52,1.2-3.84,1.32-.84,2.22-.48,2.52,1a6.92,6.92,0,0,0,1.5,5.64C239.65,115.09,239.59,116.89,237.73,119.11ZM228,76a9.57,9.57,0,0,0-2.82.9c-1.26.24-2.34-.36-3.24-1.74-.48-1.44-.84-2.7-1.32-3.84a4.37,4.37,0,0,1-.18-2.64c1-1.56,2-2.34,3.18-1.92a11.25,11.25,0,0,1,4.62,3.48C229.33,73.09,229.39,75.07,228,76Z"/><path d="M254.4,89.05a5.67,5.67,0,0,1-1.2,1.74c-.48.3-.84,0-1.08-.48A10.71,10.71,0,0,0,248.4,88l-2-1.26a3,3,0,0,1,1-3.54,8.5,8.5,0,0,1,7.14.9C255.84,86.23,255.9,87.91,254.4,89.05Zm1.2,19.62c1.2,3.12,1,5.52-.9,7.08-1.08.3-2.28-.24-3.6-1.38a17.69,17.69,0,0,1-3.24-8.16,4.78,4.78,0,0,1,1.32-2.7l1.5.12c1.32-2.7,2.52-5.34,3.54-8a4.18,4.18,0,0,1,1-1.32c.24-.06.6.24.6,1.08C254.28,100.81,254.28,105.19,255.6,108.67Zm3.84-31.74a2.67,2.67,0,0,1-3.6-1.38,21.28,21.28,0,0,0-2.76-3.18L252.3,72a2.74,2.74,0,0,1-1-3.84c.66-1,2.16-1.26,4.32-1.08,3.24.9,5.34,2.7,6.24,5.4C261.9,74.71,261.12,76.21,259.44,76.93Zm36.12,31.26c-1.8.84-2.7,2.22-5.7,1.08a65.05,65.05,0,0,1-9.6-7.32,91.81,91.81,0,0,0,.6,10,8.49,8.49,0,0,1-3.54,4.8c-1.92,1.32-3.48,1.62-4.56.48-.36-1.8-.84-2.7-.66-4.44-.6-.42-.24-1.68.06-2a2.93,2.93,0,0,1,1.62-.42c-.06-2.7,0-5.58.06-8.64a86,86,0,0,1-8.4,6.12,14.93,14.93,0,0,1-3.42,1.74c-.9.24-1.14-.3-.78-1.14,1.74-2.4,3.84-4.8,6.12-7.5,1.5-1.74,3-3.6,4.68-5.46a37.34,37.34,0,0,0-7.56,2c-2,.54-3.48-.24-4.2-2.34-.24-2.4,1.14-3.78,3.84-4.38,3.18-.66,6.36-1.38,9.54-2,0-3.42.9-5.46,2.94-5.76a11.85,11.85,0,0,1,2.34.84,3.57,3.57,0,0,0,2-1.8c-.36-3.18-.6-5.1-.66-5.82-.36-3.48.42-5.46,2.7-5.34,1.56.9,2.76.72,3.72-.36.9-.72,1.32-1.2,1.38-1.5.06-.12.06-.3-.54-.42a46,46,0,0,1-10.92,2.82c-5.28.9-7.74,2.76-7.68,5,.06,3.54-1,5.76-3.6,6.6-2-.6-3.06-2.22-3.36-4.74a29.15,29.15,0,0,1,1.32-8.7c.9-2.88,2.76-3.24,5.28-1.32a80.9,80.9,0,0,1,16.5-1l2.82-.54c2.7-1,4.74-.36,6.12,1.92a6.72,6.72,0,0,1,.78,4.2,3.5,3.5,0,0,1-3.18,2.34,10,10,0,0,0-6.18-.3Q285,76.6,284.76,78c.36.18,4.2,2.1,3.12,3.18a2.64,2.64,0,0,0,0,1.92c-.6,2.64-7.68,1.62-7,4.44a33.28,33.28,0,0,0,7-1.08c1.2-.42,2.58.06,4.2,1.14,1.86,1.2,2.88,2.34,2.58,3.78a23.32,23.32,0,0,1-5.7,1c-2.1.3-4.32.6-6.72.72-.54.42-.54.9.54,1.56,5.34,3.6,10.32,6.78,14.64,9.9,1.8,1.26,2.58,2.58,1.92,3.72S297.54,109.09,295.56,108.19Zm-26.64-20c-.54.48-3,2.82-3.66,1.14a22.72,22.72,0,0,1,2.22-5.16L271.14,78c.66-1.86,2.1-2.28,4.2-1.56s2.1,2,.6,3.9A84.64,84.64,0,0,1,268.92,88.15Z"/><path d="M322.74,78.55a28.13,28.13,0,0,1-2.1,3.24,3.58,3.58,0,0,1,2.82,3.54,20.17,20.17,0,0,0-1.32,7c-.48,6.78-.84,13.5-1.14,20.28a2.85,2.85,0,0,1-1.38,3.36,4.06,4.06,0,0,0-1.08,2.28c-1.44.78-2.16-.24-2.52-2a35.25,35.25,0,0,1-.72-8.52,137.18,137.18,0,0,1,1.5-20.94c-.84.84-1.62,1.56-2.4,2.22a4.8,4.8,0,0,1-3.9,1.86,22.38,22.38,0,0,0-2.58-.18,2.38,2.38,0,0,1-1.32-2.88,14.07,14.07,0,0,1,2.7-5.88c2-4.08,4.2-8.16,6.54-12.3l2.1-2.64c1.08-1.68,2.46-2.28,4.08-1.56a4.18,4.18,0,0,1,1.44,1.92,6.71,6.71,0,0,1,1.14,4.38C325,73.21,324.36,75.55,322.74,78.55Zm27.18-.06q-3.78.54-6.84.9c-1,.24-2.1.42-3.18.72A30.32,30.32,0,0,0,332,83.17c-1.74,1.08-3.42,1.38-5,.54a7.81,7.81,0,0,1-3.12-3.6c-.36-2.1-.12-3.48,1.08-4a71,71,0,0,1,8.52-3l2.82-.3a10.31,10.31,0,0,0-1.92-2.46,6.71,6.71,0,0,1,.3-4.5,3.71,3.71,0,0,1,3.72-1.68,4.88,4.88,0,0,1,3.54,2.94,16.73,16.73,0,0,1,1.2,4c1.74-.42,3.42-.78,5-1.14a3.63,3.63,0,0,1,3.18-.54,3.54,3.54,0,0,0,1.56,1.68A5,5,0,0,1,355,75.43,7.6,7.6,0,0,1,349.92,78.49Zm-.54,33.84c1.14,1.38,1.44,2.7.72,3.84a3.08,3.08,0,0,1-3.24,2,78.91,78.91,0,0,0-10.38.72,2.77,2.77,0,0,1-3.66-1.32,27.12,27.12,0,0,1-5.4-11.94,7.21,7.21,0,0,1,1.26-4.74c.66-.18,1.38.3,2.22,1.2a1.11,1.11,0,0,0,1.38.24,75.9,75.9,0,0,1,10.62-3.18,6.89,6.89,0,0,1,3,.54,2.49,2.49,0,0,1,3.54.42c2.34,1.44,3.36,3.3,3,5.58A23.78,23.78,0,0,1,349.38,112.33Zm-3.6-16.08a23,23,0,0,0-4.38,1.62,12.38,12.38,0,0,1-6.78,2.1,7.13,7.13,0,0,1-3.9-2.58A3.55,3.55,0,0,1,331.8,94a27.36,27.36,0,0,1,3.78-1.8c1.8-.66,3.42-1.32,4.92-1.92a3.74,3.74,0,0,1,2.4-1.08,28.29,28.29,0,0,1,4,2.34C348.36,93.07,347.88,94.69,345.78,96.25Zm-1.86-9.18c-2.52,1.62-4.68,2.88-6.54,3.84a5.55,5.55,0,0,1-5-1.68,3.69,3.69,0,0,1-.42-4.08c1.8-1,4.8-2.52,9-4.74,1.5-.78,2.82-.84,4,.06,1.56,1.56,2.34,3,2.22,4.38A7.69,7.69,0,0,1,343.92,87.07Zm-9.06,22.2a5.93,5.93,0,0,0,2,3,8.51,8.51,0,0,0,3.78-.54c1.5-1,2.88-3,4.08-6.24A35.74,35.74,0,0,0,334.86,109.27Z"/><path d="M418.91,106.87c-1.56-1.74-2.7-2.34-3.48-2.1a4.59,4.59,0,0,1-3.78.9,20,20,0,0,1-5-2,95.67,95.67,0,0,1-9.06-5.76c0,.48,0,1,.06,1.68.3,5.28.12,9.06-.48,11.34-1.68,3.06-3.06,4.86-4.08,4.56A13.55,13.55,0,0,0,390,118c-1.8.48-3,.12-3-1.38a7.29,7.29,0,0,0-1.08-4.26c.3-.54-.06-1.14.06-1.74,1.92,0,3.42-.54,3.54-2a62.6,62.6,0,0,0,.36-15.12c-4.38,4.8-7.8,7.92-10.26,9.3-.54,0-1.32.84-2.22,1.62a77.19,77.19,0,0,0-7.5,6.72c-2.1,1.38-3.06,1.08-3-.54a9,9,0,0,1,3.72-5.22,75.43,75.43,0,0,0,9.18-10.62c2-2.76,4.5-5.76,7.08-9.24a2.55,2.55,0,0,0-1.38-2c-1.2-1.86-.78-4.38-.24-6.36,1.08-1.5,2.16-1.74,3.3-.6a34.52,34.52,0,0,0,4.14,3.54,71.79,71.79,0,0,0,5.58-6.48,47.51,47.51,0,0,1-8.1,1.44,83.09,83.09,0,0,0-10.08,2.4c-2,.54-4.32,0-7.08-1.8-1.62-1.92-2-3.6-.84-5,1.08-.66,4.08-1.26,8.94-1.38,13.2-.06,22-.36,26.34-1.56,2-1,3.78-1.14,4.92-.06a9.35,9.35,0,0,1,2.46,3.12c.3,1.38-.18,2.22-1.44,2.22-2.58,0-5.22.06-8,.18A75.38,75.38,0,0,1,397,84.61c2.52,3.66,7.68,7.86,15.6,12.54,2,1.68,4.44,2.64,5.52,3.9a22.12,22.12,0,0,1,4.08,2.46,4.15,4.15,0,0,1,.54,3.6C421.79,108.37,420.47,108.13,418.91,106.87Z"/><path d="M478.79,116.35c-.42.12-.66.42-.72,1.14-.6.72-2.7.66-5.94,0a20.29,20.29,0,0,1-6.66-2.28,42.61,42.61,0,0,0-5.46-1.92,23.94,23.94,0,0,1-7-8.34c-.06-.12-.18-.06-.36.06a8.71,8.71,0,0,0-2.22,2.46c.66.9.36,1.62-.72,2-1.08.9-1.92,1.62-2.58,2.22-1.26.42-2.22-.24-3-1.68a21.58,21.58,0,0,1-1.14-3.84c-1.38-2-1.56-3.18-.84-3.54a3.66,3.66,0,0,1,2.94-.6c1.92,1.08,2.76,2.34,4.08,4a13.68,13.68,0,0,1,1.74-2.7,14.14,14.14,0,0,0-2.7-1.26c-1.26.12-2.16-.18-2.52-1a9.79,9.79,0,0,1,.66-2.52,18,18,0,0,1-3.78,2c-1,.54-2,1.92-3.06,4.26a62.12,62.12,0,0,1-3.84,5.58,30.74,30.74,0,0,1-4,4c-1.26,1.08-3.72,3.72-4.08,2a58.47,58.47,0,0,1,3.06-6.36,44.33,44.33,0,0,0,4.56-6.9c-1.86,1-3.6,1.86-5.28,2.76-2.16,1.44-3.12,0-2.94-3.24.12-1.74,2.22-3.54,5.76-5.52a48.58,48.58,0,0,1,4.68-2.64,21.14,21.14,0,0,0,.72-2.76,5.31,5.31,0,0,1-1.8.36c-.18.48-.42.84-.78.9a19.25,19.25,0,0,0-2,.9c-1.14.66-1.8.54-1.86-.12a16.45,16.45,0,0,1,.36-7.08c.72-2.22,1.68-3.42,3.12-3a4.12,4.12,0,0,0,1.32.18c.9.3,1,1.68.6,3.6a3,3,0,0,0-.18.72,16.12,16.12,0,0,0,4.68-1.26c1-.6,2.22-1.32,3.66-2.1,2-.24,3.36.18,3.9,1.5.42,1.14-.9,2.16-3.18,3.06-.9.36-1.68.66-2.34,1-.42.9-.78,1.68-1,2.34a11.17,11.17,0,0,1,1.5-.72q2.16-.18,4-.18c1,.12,1.44.84,1.32,1.92a4.66,4.66,0,0,1-1.2,3.36,32.24,32.24,0,0,1,4.2,2.34,19.1,19.1,0,0,1,2.4-4.08,5.9,5.9,0,0,1,2-1.32,2.67,2.67,0,0,1,2.58,1,4.48,4.48,0,0,1,1.08,3.3,4.25,4.25,0,0,1-2.1,1.74,15,15,0,0,0-2,1.38,23.84,23.84,0,0,0,2.64,3.18,13.2,13.2,0,0,0,2.28,1.68,127.16,127.16,0,0,1,.3-14.34,7.41,7.41,0,0,1,3.66-5.58c1.38-.12,2.34.66,2.94,2.22a13.48,13.48,0,0,1,2.52-2.7,1.31,1.31,0,0,0-.9-1.44,5.19,5.19,0,0,0-2.88.66,53.09,53.09,0,0,0-13.08,7c-1.56.78-2.82,1.08-3.3.3a4.56,4.56,0,0,1,.3-5,15.07,15.07,0,0,1,5.64-2.52c2.28-.54,3.36-1.32,3.42-2.4-.12-.6-.72-1.32-2.1-2.16-.6-1.5-.36-2.58.9-3.12.78-.48,2-.48,3.66-.06,1.44-2.1,2.76-4.08,4-5.88-.78-2.88-.36-4.2.84-4.08a4.08,4.08,0,0,0,2.4,0,6.27,6.27,0,0,1,4,2,4.37,4.37,0,0,1,.12,4.74,8,8,0,0,1-4.14.36,20.88,20.88,0,0,0-2,.84,15.33,15.33,0,0,1-1.8,1.32,15.41,15.41,0,0,1-1.26,1.44c1.62,1.5,2.1,2.94,1.26,4.32a4.3,4.3,0,0,0-.54.66,11.39,11.39,0,0,1,5.22-.66c.42-.54.6-.9.54-1.2a1.89,1.89,0,0,1,2.16-.06,11.26,11.26,0,0,0,4.08,2.22c1.08,1.62,1.2,2.88.24,3.72a5.26,5.26,0,0,1-3.9.9,24.86,24.86,0,0,0-5.1,3,5.16,5.16,0,0,1-.42,2.28,2.89,2.89,0,0,0-.42,1.08c2-1.08,3.78-1.26,5.22-.48,1.44,1.62,1.92,3,1.14,4a9.38,9.38,0,0,0-2.64.66,17.33,17.33,0,0,0-1.5,1.44,2.88,2.88,0,0,1-2.52.72,45.21,45.21,0,0,0,.18,6,1.8,1.8,0,0,1-.84,1.44,31.13,31.13,0,0,0,6.12,1.8,28.27,28.27,0,0,1,6.36,2.34,27.15,27.15,0,0,1,4.2,2.22c.72.54,1.08,1.2.24,1.62A7,7,0,0,1,478.79,116.35ZM447.05,74.47c-1.8.6-3.42,1-5,1.38-.12,0-.24.06-.24.54A6.68,6.68,0,0,0,442,78a10.2,10.2,0,0,0,2.1-.6,9.92,9.92,0,0,1,2.34-.72c2.1.84,3.24,1.74,3.18,2.82-.24,1-1.26,1.38-2.76,1.44-1.08.36-2.1.6-3.06.9a13.22,13.22,0,0,1-3.06.48,4.87,4.87,0,0,1-3.84,1.2,4.92,4.92,0,0,1-1.44-3.12,26,26,0,0,1-.06-6.84v-3a10.54,10.54,0,0,1,2.52-4.32c1.2-.72,2.16-.9,2.7-.18a5,5,0,0,1,1.62,3.06,11.45,11.45,0,0,0,3.3-.54,10.14,10.14,0,0,1,4,.9,2.92,2.92,0,0,1,.3,2A4.65,4.65,0,0,1,447.05,74.47Zm13.56-1.8a17.5,17.5,0,0,1-3.72,2.64c-1.68.9-2.88.9-3.12-.66-.3-1.86-.06-3.36.84-4.32a3.29,3.29,0,0,1,3.72-1.2l1.62.18c2.4-.42,4-.18,3.66,1.44C462.53,71.35,461.57,72,460.61,72.67Z"/><path d="M511.67,111.31c-.18-.72-.72-7.74,5.16-9.36,1.44-.36,2.64.06,2.94,1.08a11.94,11.94,0,0,1-.36,5.52c-.54,1.74-3.36,4-4.74,4.32A2.26,2.26,0,0,1,511.67,111.31Zm8.16-16.14c.78-2.1,3.12-22.14,2.64-24-.24-.84-1.08-1.2-2.28-.84-2.76.72-5.76,2.82-6.72,4.68a8.82,8.82,0,0,0-.78,3.18c-.66,7.56-.54,19.14-.12,20.7a1.79,1.79,0,0,0,2.4,1.38C516.47,99.85,519.23,97,519.83,95.17Z"/></g></g></g></svg>