<svg xmlns="http://www.w3.org/2000/svg" viewBox="0 0 296.77 47.8"><defs><style>.cls-1{fill:#d30e0e;}</style></defs><title>user_txt1</title><g id="圖層_2" data-name="圖層 2"><g id="圖層_1-2" data-name="圖層 1"><g id="user_txt1"><path class="cls-1" d="M37,9.4a14.5,14.5,0,0,0-5.1-.25c-3.15.4-6.25.9-9.4,1.35-1,1.55-2.1,3.2-3.1,5a49.44,49.44,0,0,1,7.1-1c.6-.65,1.6-.7,2.9-.25,1.65,1,2.65,2.75,3,5.4.55,4.8,1.4,9.5,1.9,14.16.55,5.4-.2,8.8-1.85,9.9a11,11,0,0,0-3.5,2.25,2.27,2.27,0,0,1-3.15.15c-1.3-.55-1.85-1.15-1.8-1.6a4.34,4.34,0,0,0-1.1-2.65c0-.65.45-.9,1.1-.9,2.1,0,3.15-.9,3.1-2.8l-.15-4.25a11.11,11.11,0,0,1-5.1,2.65c-2,.05-2.8.55-2.9,1.3.3,2.45.15,4.05-.8,4.45a2.38,2.38,0,0,0-1.3.85c-.4,1.15-1,1.65-1.9.85a10.38,10.38,0,0,1-.7-4.25,87.83,87.83,0,0,1,1.5-19.81c-5.25,8-9.55,13.2-12.9,15.56a4.74,4.74,0,0,1-2.4.65C0,36-.18,35.56.27,34.76a24.22,24.22,0,0,1,2-4.4c3.65-6,7.5-11.9,11.4-17.76a54.08,54.08,0,0,0-5.2,2.3,5.58,5.58,0,0,1-5.05-.75A6.07,6.07,0,0,1,1.62,10.3C1.57,9.15,2.87,8.2,5.17,7.5A63.5,63.5,0,0,1,17.33,5.25l1.3-.3c.75-.9,1.45-1.75,2.2-2.5A3,3,0,0,1,24,1.85a3.75,3.75,0,0,1,1.2,2.65c2.35-.25,4.65-.55,6.9-.75a6.81,6.81,0,0,0,2.25-.5c.75-.45,1.7-.3,2.85.35,1.6.85,2.4,2,2.2,3.55A4,4,0,0,1,37,9.4ZM26.58,25A16.14,16.14,0,0,1,23.68,27,21.19,21.19,0,0,0,19,29.41,23,23,0,0,0,18.88,32a20.39,20.39,0,0,0,2.8-.65,19.46,19.46,0,0,1,5.1-1.1C26.78,28.56,26.73,26.81,26.58,25Zm-.2-2.9a35.23,35.23,0,0,0-.45-4.25c-.5-.1-2.2.4-5.25,1.75a5.75,5.75,0,0,0-1.3,3.4,27.8,27.8,0,0,1,4.35-1,3.6,3.6,0,0,1,2.65.45Z"/><path class="cls-1" d="M91.06,19.61a5.83,5.83,0,0,1-2-.9c-.15-.35-.9-.7-2.45-1a44.72,44.72,0,0,0-16.81,6,2,2,0,0,1-2,.3,2.8,2.8,0,0,1-2.1,3.1,5.69,5.69,0,0,1-2.6-.6c.2,5,.25,10.3.1,16a6.23,6.23,0,0,1-1.5,2.25c-1.2.9-2.1.4-2.55-1.25A121.12,121.12,0,0,1,59,28.06a28.92,28.92,0,0,0-4.25,6.25,2.61,2.61,0,0,1-2.4,1.5,2.84,2.84,0,0,0-1,.6c-.45.1-.8,0-.9-.4a3.74,3.74,0,0,1,.3-1.6c.55-1.15,1-2.3,1.6-3.35,1.8-3.3,3.75-6.4,5.75-9.45-3.6,1.6-6.05,1.85-7.15.4-.8-2.35,0-3.75,2.45-4.15l4.3-2.25c-.8-.3-1.35-1.25-1.75-2.7a14.9,14.9,0,0,1-1.55-6.2c.85-1.5,1.8-1.75,2.7-.5.8.9,1.25,2.45,1.45,4.6A3.9,3.9,0,0,0,60,13.1v-7a6.92,6.92,0,0,1,1.8-4.35,2.58,2.58,0,0,1,3.3.45c.7,1.55.65,4.6-.1,9.15a28,28,0,0,0,2.8-5.55c.25-1,1.15-1.4,2.55-1.2,1.65,1,2.2,2.25,1.55,4A8.38,8.38,0,0,1,68.75,10,5.17,5.17,0,0,0,66.35,12c1.3-.3,2,.2,1.9,1.6,0,.25.3.55,1.3.85.5.75.1,1.6-.85,2.45a28.24,28.24,0,0,0-3.45,2,17.33,17.33,0,0,0-1.55,2.4,8.45,8.45,0,0,1,3.05,1.2c0-1.45,1-2.55,2.7-3.15C71.6,18.56,73.8,18,76,17.26v-.45a4,4,0,0,1-2.9-1.7,2.5,2.5,0,0,1,1.6-3.25c.9-.6,1.3-1.1,1.3-1.5-2.2.4-3.55-.1-3.65-1.65.25-2.1,1.55-3.25,3.8-3.45l1.6-.55a11.29,11.29,0,0,1,.65-3.15A2.54,2.54,0,0,1,81.7,1a2.07,2.07,0,0,1,.85,1.85,3.83,3.83,0,0,1,4.35,1.5,2.76,2.76,0,0,1-2.05,3.7c-1,.35-2,.65-2.9,1V9.6a2.62,2.62,0,0,1,3.1,2.2c.15,1-.4,1.7-1.5,2.25a10,10,0,0,0-2.2,1.5v.75c1.35-.3,2.7-.6,4.1-.8a8.34,8.34,0,0,0,3.4-1.3c.55-1.05,1.25-1.35,1.85-.4a2.85,2.85,0,0,0,1.7.8c1.6.5,2.15,1.8,1.75,3.8A4.06,4.06,0,0,1,91.06,19.61Zm-6.4,25.71a2.38,2.38,0,0,0-1.85,1.55,1.87,1.87,0,0,1-2.8-.3c0-.35-.3-.7-1.05-1.15-.4-.25-.6-.9-.7-1.85.15-.45,0-1-.65-1.85,2.65.25,3.65-.15,3.8-1v-4.9c-1.65.8-3.4,1.55-5.2,2.3a20.84,20.84,0,0,0,.35,5.8,18.55,18.55,0,0,0-3.15,2.8c-1.4-1.9-1.8-7.4-1.35-16.61,1-6.25,2.4-9.45,4.5-8.65,1.55-.5,3.15-.85,4.75-1.3,2.75-.8,4.65.1,5.35,3a63.11,63.11,0,0,1,1.15,19.11A4.24,4.24,0,0,1,84.65,45.32ZM76.4,30.61a18.38,18.38,0,0,0-.35,2.9,11.22,11.22,0,0,1,5.4-1.45,11.72,11.72,0,0,0,0-3.75A10.12,10.12,0,0,1,76.4,30.61Zm4.8-8.1a24.26,24.26,0,0,1-4.5,2.1,3.13,3.13,0,0,0-.2,2c2.15-.75,3.8-.9,4.9-.35A13.76,13.76,0,0,0,81.2,22.51Z"/><path class="cls-1" d="M115,28.81l-2-1c-.1-.1-.15-.1-.2,0a2.69,2.69,0,0,0-.25,1.1,60.92,60.92,0,0,0,.5,8.9,2.54,2.54,0,0,1-.9,2.45c-.2.15-.35.85-.35,2.45,0,.9-.75,1-1.65.55a15.69,15.69,0,0,1-1.7-5.55,41,41,0,0,1,.3-9c-.1.1-.3.25-.55.5A37.56,37.56,0,0,1,103.81,36c-.4.8-1,1.1-1.8.6a3.16,3.16,0,0,0-.65-1.8,5.59,5.59,0,0,1,1.3-3c1.65-3,3.1-5.4,4.4-7.4.5-1.2.3-1.35-.4-1a1.35,1.35,0,0,1-.4.35c-.3.2-.85.5-1.6.9-1.6.85-2.8.3-3.6-1.5,0-2.4.35-3.9,1.45-4.05l6.25-2.9c.8-.5,1.55-1,2.2-1.5,1.45-1.3,2.6-2.8,4.75-1.65a4,4,0,0,0,1,.2c1.05,1.4,1,3,0,4.7-1.05.45-2.1,2-3.15,4.8,0,.5.7,1.05,2.6,1.65,1.15.5,1.55,1.7,1.5,3.5C117.57,29.06,116.57,29.26,115,28.81Zm.25-19.21c-.25.8-.9.75-1.55.2a7.09,7.09,0,0,0-3.6-2.45,4.31,4.31,0,0,1-2.85-2.8c0-.6-.2-.8-.5-.85-1.05-1,2.2-1.55,2.45-1.6a8.11,8.11,0,0,1,3.4.1l1.4.45c1.2.7,1.8,2.1,2,4.1A23.41,23.41,0,0,1,115.27,9.6Zm28.46,14.46a9,9,0,0,1-2.3,4.8,7.52,7.52,0,0,1-3.45,1.7,2.68,2.68,0,0,0-1.3,1.9c-.8.9-1.55.55-2.15-.6,0-1.2-.2-1.2-.55-1,0,2.7-.25,5.4-.35,8.05a6.73,6.73,0,0,1-1.85,4.75,3.53,3.53,0,0,0-.65,2.65c-.45,1-1.2.75-2,0a7.33,7.33,0,0,1-.6-3.8c-.3-3.5-.5-7-.65-10.45-.85.25-1.75.5-2.7.7-1,1.1-2.35.25-3.9-1.8q-2-4.58-2.25-14a7.46,7.46,0,0,1,.5-3.15,16.69,16.69,0,0,0,.9-2.3c1.05-1.65,2.05-2.5,3-1.85.2.45.75.65,2,.3a1.13,1.13,0,0,1,.85.7l1.9-.55c0-2.45.1-5,.25-7.5.3-.85,1.45-1.15,3.15-1,.7.5,1.35,1,2,1.45,1,.55,1.5,1.2,1,2a13.67,13.67,0,0,0-.15,5c1.35-.4,2.35-.25,2.8.7a1.57,1.57,0,0,1,0,1.9c-.2.9-.65,1-1.4.1-.4.35-.8.7-1.25,1.05-.3.15-.45.45-.45,1a7.05,7.05,0,0,1,0,2.7,11.66,11.66,0,0,1,2.65,0c.85,0,1.2.45,1,1.35a3.46,3.46,0,0,1-1,.75,2.75,2.75,0,0,0-.65,1.8c-.1.4-.7.85-1.65,1.35-.35,0-.4.45-.4,1.3-.25,1.2-.15,1.7.55,1.4a3.73,3.73,0,0,1,2.1-.3c.55-.1,1-1.25,1-4a44.64,44.64,0,0,0,.15-8.2c.35-2.2,1.25-3.4,2.75-3.45,2.25.45,3.45,1.55,3.45,3.35A44.51,44.51,0,0,1,143.73,24.06Zm-16.31-8.2-1.75.8c-1.1.2-1.5.6-1.5,1.15A40.18,40.18,0,0,0,125,27a19.21,19.21,0,0,1,2.75-.55,18,18,0,0,1-.05-2.85,3.07,3.07,0,0,1-3.15-2.75,3.41,3.41,0,0,1,3.4-2.25l0-2.35C128,15.25,127.92,15.36,127.42,15.86Z"/><path class="cls-1" d="M195.8,46.62c-.85.45-1.85.15-2.9-.8-.45,0-.85.4-1.15,1.3a4,4,0,0,1-2.65.05,45.24,45.24,0,0,1-17-9.25,43.6,43.6,0,0,1-17.31,7.5c-1.3.4-2,0-1.5-1.35a8.09,8.09,0,0,1,2.9-1.8c5.9-1.9,9.9-4.35,12.71-7.4a10.09,10.09,0,0,0-7.15-.8,8.23,8.23,0,0,1-3.25-.35,2.05,2.05,0,0,0-2-.8,1.5,1.5,0,0,1-.8-2.1,9.38,9.38,0,0,1,3.05-1.9c2.3-.2,8.7,1.9,11.45,2.5a1.39,1.39,0,0,0-.2-2.35c-.45-.2-3,.45-3.6.25a19.59,19.59,0,0,1-6.05-10.4,22.86,22.86,0,0,1-.65-5.25,4.09,4.09,0,0,1,1.8-2.35,4.39,4.39,0,0,1,2.15-.1,2.59,2.59,0,0,0,2.65.45,30.87,30.87,0,0,1,5.2-1.05l1.3-.4c.7-.6,1-1,1-1.25a2.67,2.67,0,0,1,1.45-1.25c.6.1,1,.2,1.45.3a4.69,4.69,0,0,1,1.35,1.25,14.87,14.87,0,0,1,5.5.3,2.64,2.64,0,0,0,.75-.75,4.07,4.07,0,0,1,1.5-.5,3.06,3.06,0,0,1,2,.45,5.12,5.12,0,0,1,.9,3.05,21.65,21.65,0,0,1-3.6,11.55c-1.75,2.7-3.15,2.7-5.2,3.9-1.4.85-3,1-4.55,1.6-.35,1.5-.9,3.2-.55,4.6a151.26,151.26,0,0,0,21.76,9.85,3.07,3.07,0,0,1,1.85,2,14.18,14.18,0,0,1,.1,1.45C198,47.32,197,47.17,195.8,46.62ZM182.14,4.2a18.4,18.4,0,0,1-6.3,3.25c-1.9.6-3.7,1.3-5.5,1.9A3,3,0,0,1,167,7.8a11.44,11.44,0,0,1-.85-2.4c-.45-.85,0-1.5,1.15-2,1.4-.4,2.85-.7,4.25-1L178.69.6a2.89,2.89,0,0,1,2.4-.15A10,10,0,0,1,182.34,2,2.3,2.3,0,0,1,182.14,4.2Zm-9.55,12.05c-1.9.55-3.85,1.15-5.8,1.85a11.06,11.06,0,0,0,1.7,5,2.9,2.9,0,0,1,.15,2.05c1.75,0,2.8-.25,3.2-.6l.25-1.45a2.28,2.28,0,0,0-.65.15c-1.15-.1-2-.3-2.15-.7a8.05,8.05,0,0,1-.6-1.65,2.47,2.47,0,0,1,.8-2.35,21.69,21.69,0,0,1,3.15-.9A2.71,2.71,0,0,0,172.59,16.26Zm9.5-2.55a16.41,16.41,0,0,1-6,1.65v.7a13.45,13.45,0,0,1,3.75,0c.9.75,1.3,1.55,1,2.35a3.9,3.9,0,0,1-2,2,30.16,30.16,0,0,1-3.3,1.6,10.87,10.87,0,0,0-.15,1.8c1.2-.4,3.2-.2,4.15-1a26.83,26.83,0,0,0,3.5-9.5Z"/><path class="cls-1" d="M207.7,25.76l-.35.8a2.73,2.73,0,0,1-3.4.2,16.71,16.71,0,0,1-1.85-5.15,17.9,17.9,0,0,1,1.3-4.55,17.6,17.6,0,0,1,.55-2.2c.1-.6.65-.9,1.5-1a2.18,2.18,0,0,1,1.55,1.4,39.69,39.69,0,0,0,1,6.15A13.31,13.31,0,0,1,207.7,25.76Zm10.85-7a7.55,7.55,0,0,1-4.2,3.75c0,7.65,0,15.31,0,23-.8,1-1.4,1.15-1.7.85a8.78,8.78,0,0,1-2-2.4c-.5-5.9-.3-11.75-.4-17.61l-.1-3.05a4.92,4.92,0,0,1-2-3.15,3.88,3.88,0,0,1,.15-1.1,9.54,9.54,0,0,1,2.05-2c.15-4.05.4-8,.85-11.75a5.17,5.17,0,0,1,1-2.6,2.87,2.87,0,0,1,2.7.05A2.71,2.71,0,0,1,217,5.25a43.14,43.14,0,0,0-1.4,8.25,12.87,12.87,0,0,1,2.1-.15,2.51,2.51,0,0,1,1.6,2.35A9.77,9.77,0,0,1,218.56,18.76Zm26.61,8.9a52,52,0,0,0-15.31,1.15c-.7.3-1.25,1.15-2,2.65a39,39,0,0,1-8.45,12c-.6.4-1.2.55-1.45-.1a4.61,4.61,0,0,1,.2-2.5c1.35-3.25,2.85-6.45,4.55-9.65l-5.05.4a3.5,3.5,0,0,1-2.65-2.5,4,4,0,0,1-.1-2.45,3.81,3.81,0,0,1,2.6-2.1c2.6-.5,5.25-1,7.9-1.55q.38-2.33.6-4.35a12.75,12.75,0,0,1-2.7-2.5A3.7,3.7,0,0,1,223,14c.25-.8,1.2-1.4,2.65-1.9l1.4-.3a57.33,57.33,0,0,1,1.4-7.3c.2-.9,1.1-1,2.25-.6,1.2,1.15,2.9,1.2,3,3.35-.15,1-.3,2.05-.4,3.2a18.87,18.87,0,0,1,7.1,0,3.68,3.68,0,0,1,3,2.7,21.06,21.06,0,0,1-3.05,8.15c.55,0,1.15-.1,1.75-.1a2,2,0,0,1,2.5,0l3.5,1.7a2.88,2.88,0,0,1,.7,2.6C248.57,26.66,247.32,27.36,245.17,27.66Zm-12-10.35a2.13,2.13,0,0,1-1.85,1.7c-.15.7-.4,1.7-.75,2.9a10.77,10.77,0,0,0,4.9-2,15.71,15.71,0,0,0,1.5-4.55A11,11,0,0,1,233.21,17.31Zm8.45,26.91c-1.3,1.7-2.6,1.7-3.45,0a49.73,49.73,0,0,0-4.4-8.35,4.28,4.28,0,0,1-.45-2.85,4.64,4.64,0,0,1,3.5-1,7.53,7.53,0,0,1,4.8,2.9,8.82,8.82,0,0,1,1.7,7Z"/><path class="cls-1" d="M293,33a4.71,4.71,0,0,0-2.5-.1c-3.4.35-7,.75-10.65,1.1.45,6.4-.15,10.25-1.75,11.65a7.11,7.11,0,0,1-2.3.55,2.85,2.85,0,0,0-2,1.3,2.59,2.59,0,0,1-2.9-.25c-2-1.45-2.4-2.4-1.3-2.75a1.11,1.11,0,0,0,.4-1.2c0-.2.45-.35,1.5-.3,1.45,0,2.2-.55,2.3-2a37.62,37.62,0,0,0,0-5.85,35,35,0,0,0-7.35.85c.45.9.55,2.45.3,4.7.15,1.2-.5,2.15-2,2.85q-1.27,1.05-2.1-1a14,14,0,0,1,1.2-5.9,12.05,12.05,0,0,0-3.8,1.6c-1.1.6-2,.3-2.7-.9a13.83,13.83,0,0,0-1.1-1.55,2.17,2.17,0,0,1,1.25-2.8,95.38,95.38,0,0,1,16.66-3.25,13.06,13.06,0,0,1,.15-1.8q-1.05.3-1.2.9a1.58,1.58,0,0,1-2.1.25,10.62,10.62,0,0,1-1.65-3.6c-2.45,1.15-4.8,2.35-7.05,3.65-.5.6-1.15.45-2-.45a8.65,8.65,0,0,1-.6-1.15c-.7-.4-.65-1.1.05-2.2,1.1-1.85,2.1-3.75,3.15-5.6a3.19,3.19,0,0,0-2.5-.75c-1.55.2-2.45-.35-2.7-1.6-.1-3.05.9-4.7,3-5.05,1.4-3.6,2.75-6.05,4-7.3.9-.7,1.65-.6,2.15.2.8,2.4.4,4.1-1.2,5.05A19.06,19.06,0,0,0,263,13c-.75.9-.6,1.7.55,2.45.8.8,1.5.8,2,0,1-1.55,1.8-2,2.25-1.15q.22.15.6.45V10.4a8.25,8.25,0,0,1,1.2-3.3,1.48,1.48,0,0,1,2.1.3,23.18,23.18,0,0,1,1.2-4.3,5,5,0,0,0,.3-1.9c.15-.8.8-1.2,1.9-1.2,1.65.5,2.65,1.9,3.05,4.2A6.21,6.21,0,0,1,276.33,7c2.2-.7,3.7-.8,4.55-.3,1.45.6,2.1,2,2,4.1,1.55-1.75,3.1-3.5,4.65-5.2,1.45-2.05,2.8-2.7,4.15-1.9,1.25,1.5,1.2,2.75-.15,3.7l-2.1,2.1a11.79,11.79,0,0,1-3.5,3.3,15.85,15.85,0,0,1,1,1.35c.4.65,1,.5,1.75-.6a16.92,16.92,0,0,1,2-2.45,1.78,1.78,0,0,1,2.7-.15,2.63,2.63,0,0,1-.6,3.45,32.71,32.71,0,0,0-2.7,2.55c2,.8,3.1,2.55,3.3,5.35a6.64,6.64,0,0,1-2.85,4.05c-1.45.5-2.05-.1-1.75-1.8a15.41,15.41,0,0,0-5.75,2.1c-.25-.1-.5-.2-.7-.3a4,4,0,0,1-3.8,1.9,2.48,2.48,0,0,1,.85.6c4.15-.3,8-.65,11.35-1a8.47,8.47,0,0,1,5.15.4,4.61,4.61,0,0,1,.75,4.15Q295.53,33.56,293,33ZM266,20.11l-.15.7a15.15,15.15,0,0,0-1.2,1.9c-.55.9-.5,1.25.15,1.1.65-.3,1.3-.6,1.9-.9,1-.6,1.2-1.2.7-1.75Zm7.9.75-.15,2.65a13.14,13.14,0,0,1,3.75-1.35l.1-2.5A15.16,15.16,0,0,1,273.93,20.86ZM277.18,12a14,14,0,0,0-2.8.9,11.1,11.1,0,0,0-.25,3.2,4.22,4.22,0,0,0,3.3-.9Zm5.8,4.25c-.1,1.4-.15,2.85-.2,4.3a17.35,17.35,0,0,1,2.25-2.5Zm7.5,28.06c-1.45,1-2.2,1.15-2.4.25a20.44,20.44,0,0,0-.9-2.5c-.7-1.9-1.45-3.85-2.1-5.85A2.08,2.08,0,0,1,285,35l1-.7c.55-.6,1.55-.6,3.05-.05A11,11,0,0,1,293.23,41C293.28,41.92,292.33,43,290.48,44.32Zm-3.75-23a6.81,6.81,0,0,1,2.4-.45l.1-2.5C288.33,19.36,287.53,20.36,286.73,21.36Z"/></g></g></g></svg>