<svg xmlns="http://www.w3.org/2000/svg" viewBox="0 0 300.02 47.8"><defs><style>.cls-1{fill:#d30e0e;}</style></defs><title>user_txt2</title><g id="圖層_2" data-name="圖層 2"><g id="圖層_1-2" data-name="圖層 1"><g id="user_txt2"><path class="cls-1" d="M15.94,34c-1.25-.3-2.25-2-3.1-5a17.54,17.54,0,0,1-2.8,2.7c2.55,1.35,3.8,2.6,2.85,3.65-.65,1.25-1.7,1.55-3.1.9a17.71,17.71,0,0,1-3.25-3.15c-1.6.35-2.6-.15-2.9-1.55a2.2,2.2,0,0,1-1.15-2.85,24.35,24.35,0,0,1,4.4-6.35,3.41,3.41,0,0,1-2.55-.2,6.75,6.75,0,0,1-3.8-2c-.75-.8-.7-2.05.1-3.75a4.11,4.11,0,0,1,1.9-1.2c.8-2.6,2.65-5.7,5.05-9.55l1.35-2.1C10,2.29,11.49,2.09,13.29,3a4.12,4.12,0,0,1,1.9,3.45c0,1-.7,2.15-2,3.65a56.25,56.25,0,0,1-5.7,6.5A12.89,12.89,0,0,1,9,18.79a12.6,12.6,0,0,0,2-3.55c.8-2.45,1.9-3.75,3.25-3.8,1.6.4,2.6,1,3,1.9a6.19,6.19,0,0,1-1.2,3.9,3.44,3.44,0,0,1-1.3,1.15,5.19,5.19,0,0,0-2.25,2.2,4.23,4.23,0,0,1,3.45.85A11,11,0,0,1,16.09,26a3,3,0,0,1-1.55,1.4l-.55.45a8.65,8.65,0,0,1,3.9,1.75,4.29,4.29,0,0,1,.55,3.15A3.08,3.08,0,0,1,15.94,34Zm-7.6,7.4c-.35,1.15-1.15,1.15-2.2.45A23.17,23.17,0,0,1,.53,36.4c-.45-1.45.2-2,1.75-1.55.4.75.7.8,1,.6.65-.5,1.5-.15,2.45.75l2,1.25c1.1.9,1.45,1.85.85,2.75A1.23,1.23,0,0,0,8.34,41.4Zm3.1-18.76A35.5,35.5,0,0,1,9.09,25.9c.75-.4,2.65-.85,3.3-1.3A5.43,5.43,0,0,0,11.44,22.65ZM41.65,41.9a139.79,139.79,0,0,0-16.46.6c-.15.3-.45,2-.65,2.4-.35,0-.9,1.2-1.1,1.1-.25.45-1,.3-1.5.9a1.88,1.88,0,0,1-2.35-1.65,20.41,20.41,0,0,1-.35-4.55c.15-7.2.15-14.36.25-21.46l-.1-.9c-1.5.5-2.55.25-2.7-1a7,7,0,0,1,.9-3.5A69.6,69.6,0,0,1,23.34,2.64c1.05-1.55,2.25-2.1,3.35-1.05,1.65,1.55,1.9,3.75,1,6.3q-1.05,2-2.1,4.2a3.85,3.85,0,0,1,.15,1.5c1.5-.35,3-.6,4.3-.85.75-.5,1.15-1.65,1-3.55-1.75.15-2.4-.45-1.3-1.9a6.45,6.45,0,0,0,1.9-3.35c.6-.9,1.6-.45,2.7.65a14.61,14.61,0,0,1,2.4,2.3c.65.8.7,2.05.2,3.7a5.09,5.09,0,0,1,3.9,1.7c.1,1.85-1.55,2.8-4.55,3a16.36,16.36,0,0,0-.7,2.8c2.8,0,4.5.4,4.65,1.4-.05,1.8-1.8,3-5,3.55-.05,1.15-.1,2.3-.1,3.45,3.75-.35,5.9.25,5.65,2.05a3.27,3.27,0,0,1-3.05,2.85,6.66,6.66,0,0,0-2.85,1.2c.05,1.25.05,2.5,0,3.7a12.48,12.48,0,0,0,4.8-.45,13.48,13.48,0,0,1,4.7.25,3.44,3.44,0,0,1,1.7,3.45C45.4,41.2,43.9,41.9,41.65,41.9ZM28.89,18a4.43,4.43,0,0,1-3.65,0A139,139,0,0,0,25,37.65l1.45-.2a9.6,9.6,0,0,1,2.35-.6,11.92,11.92,0,0,0,.4-2.7,2.77,2.77,0,0,1-3.2-1.6c-.55-1.7.65-3.1,3.2-4.3a9.17,9.17,0,0,0,.15-1.75A4,4,0,0,1,26,25c-.6-1.4-.75-2.5-.25-3.3a5.36,5.36,0,0,1,4.15-1,29.12,29.12,0,0,1,.25-3.8C29.79,17.29,29.34,17.64,28.89,18Z"/><path class="cls-1" d="M94,20.19a11.25,11.25,0,0,1-2.3-.75,1.46,1.46,0,0,0-1.6-.45,15.51,15.51,0,0,1-4.9.85A2.91,2.91,0,0,1,85.91,22V23a4.75,4.75,0,0,1,3.35-.3c.6.45,1.55.15,2.85.25.8-.05,1.3.55,1.55.65a.36.36,0,0,1,.2.5,2.76,2.76,0,0,1-.4.3c-.1.35.1.9.8,1.65.45,1.5-.45,2.25-2.25,2.5a28,28,0,0,1-5.4.3,67.55,67.55,0,0,1,.45,11.9,5.18,5.18,0,0,1-3,4.75,10.71,10.71,0,0,0-3,1.15c-1.05.65-1.9.9-2.65.4a2.66,2.66,0,0,0-.9-1.7,2.7,2.7,0,0,1-1.05-2.1,3.23,3.23,0,0,0-.15-1.3c-.15-.35-.15-.7.25-.9a3.4,3.4,0,0,1,1.4,0q2.18.3,2.25-1.65c.05-3.2,0-6.4,0-9.65a19.36,19.36,0,0,1-5.35,1.4A8.16,8.16,0,0,1,76.46,37a4.13,4.13,0,0,1-2.85,2.15C72,39,71,38,70.61,36.05a33.74,33.74,0,0,1-.25-3.8c-.7-.3-1.25-1.3-1.7-2.75-.55-1.7-.25-2.8,1.25-3.05A101.78,101.78,0,0,1,80.71,24a6,6,0,0,0-.6-3.1,45.34,45.34,0,0,0-10.7,3c-1.5.65-2.7-.15-3.75-2.25a9.55,9.55,0,0,1-.5,1.35c0,5.35-.05,10.7-.2,16a5.66,5.66,0,0,1-1.3,3.4l-3.15,2.9c-1.25.55-1.9-.1-2.1-1.9a12.08,12.08,0,0,0-.7-1A1.74,1.74,0,0,1,59,39.85c.5-.15.75-.6.65-1.6q.08-4.43.15-8.7A21.26,21.26,0,0,1,55.1,33.3a2.27,2.27,0,0,1-3.3-.7,4.22,4.22,0,0,1,1-4.2,78.24,78.24,0,0,0,6.9-6.2c.1-1.15.2-2.25.35-3.3-2.85,0-4.85-.85-5.9-2.5a4.08,4.08,0,0,1,2.15-4.65A31.22,31.22,0,0,0,60,10.19c.25-3.55.5-5.85.7-7a1.68,1.68,0,0,1,2.35-.4c1.7-.2,2.65,1,3,3.3l.05,1.55c1.7-.2,2.6.85,2.85,2.9s-2.2,3.9-3.7,4.8v2.35a19.53,19.53,0,0,1,6-3c-1.1.65-1.3,1.4-1.75,1.8,0,.05-.2.7,0,.9-.3.3-.5,1.35-.7,1.55A29.44,29.44,0,0,1,76,17a13.58,13.58,0,0,1,.4-2c-1,0-2,0-3.05.15s-1.45-.65-1.6-1.9c-.45-2.1.25-3.4,2.15-3.85a22.05,22.05,0,0,0,3.2-1.1A9.55,9.55,0,0,1,77.56,4a5.72,5.72,0,0,0,0-1.85c0-1.05.5-1.65,1.55-1.6A6.5,6.5,0,0,1,81.66,2a6.75,6.75,0,0,1,2.7,3.65c1-.5,2-.25,3.05.65,1.25,2,1.35,3.65.15,4.9a19.29,19.29,0,0,1-3.7,2.5,8.44,8.44,0,0,0-1.35,2.2c3-.45,5.2-.7,6.65-.8.8-.2,1.4-.35,1.75-.45.8-.85,1.6-1,2.35-.25,2.2.2,3.3,1.35,3.25,3.35C96.47,19.3,95.62,20.09,94,20.19Z"/><path class="cls-1" d="M142.59,42.8c-.85,1.8-3,3.15-6.1,4-3,.75-4.9.45-5.55-1a5,5,0,0,1-1.05-3.8c-.15-.45-.35-.55-.9,0a6.06,6.06,0,0,1-2.9.7,59.55,59.55,0,0,0-6.2.55c-.85.5-1.55.45-1.85-.45a5.31,5.31,0,0,0-1.25-2.4,13.5,13.5,0,0,1-2.35-4.25c-.4-1.6.1-2.6,1.45-2.75a2.07,2.07,0,0,1,2.75,0c0,.15.1,0,.35,0s.9-.15,1.65-.3a54.69,54.69,0,0,1,6.4-.85,2.31,2.31,0,0,0,1.4-1.55c.7-.7,1.35-.7,1.8.1a6.32,6.32,0,0,0,1.5.4,3.46,3.46,0,0,1,1.7,3.3,2.74,2.74,0,0,1-1,1.75,8.58,8.58,0,0,0-1.15,2.7,2.19,2.19,0,0,1-.6,1.1,24.16,24.16,0,0,0,3,.3,1.87,1.87,0,0,0,2.55-1.25,64.84,64.84,0,0,0,2.25-10.9c0-.4-.05-.4-.35-.1a6,6,0,0,1-3.6,1.5,31,31,0,0,0-7.3.4c-2.8.45-6,1.1-9.6,2.05A24.83,24.83,0,0,0,113,33.6c-1.4.35-2,1.5-1.55,3.7a8,8,0,0,1,.35,4.85c-.4,1.75-1.05,2.65-2.2,1.9a9.06,9.06,0,0,1-3.35-5.9,69.61,69.61,0,0,1-.25-9.6c.3-1.1,1.4-1.15,2.85-.55a2.48,2.48,0,0,0,2.75.3c5.55-.9,11.1-1.75,16.66-2.5,3.7-.9,6.8-1.1,9.25-.5a1.75,1.75,0,0,0,1.5-.2,3.77,3.77,0,0,1,1.6-.5h.45c2.35.5,3.65,2.25,3.65,5.2C144.69,35.65,144,40.05,142.59,42.8Zm-7.3-34.11a7.44,7.44,0,0,1-.8-.45c-.3-.25-1.1-.3-2.45,0h-3.65c-.4,0-.65.15-.75,1a6.27,6.27,0,0,1-1.55,2.25c1.4-.2,2.8-.45,4.15-.75a3.15,3.15,0,0,1,3.1.15c1.3.45,1.8,1.8,1.65,3.9a15.25,15.25,0,0,0-1,3.2,21.91,21.91,0,0,1-2.45,3.6,4.42,4.42,0,0,1-2.55,1.4,9,9,0,0,0-2.55,1.15,13.51,13.51,0,0,1-3.7.7,19.16,19.16,0,0,0-3.9,1.8,4.3,4.3,0,0,1-4.5-2,27.18,27.18,0,0,1-1.75-7.7c.55-2.65,1.3-4.25,2.4-4.45,1.1,0,2.1,0,3.05.1a9.5,9.5,0,0,0,3.45-.55c.6-.15.6-.2,0-.5a6.45,6.45,0,0,1-1.1-1.85,8.79,8.79,0,0,0-1.4.55l-2.8.1a26.33,26.33,0,0,1-2.75.8,2.17,2.17,0,0,1-2.8-.7c-.45-.7-1-1.4-1.45-2.05-.45-1.55.7-2.45,2.9-2.85a63.38,63.38,0,0,1,7.5-.75c-1-1.3-2.55-3.5.1-4.15a9.43,9.43,0,0,1,4.15.9,7,7,0,0,1,3.2,2.6c.1.45.55.65,1.75.6a17.39,17.39,0,0,0,4-.4l.45-.45c.8-.55,2.25-.4,4.25.3a3,3,0,0,1,1,3A3.8,3.8,0,0,1,135.28,8.69Zm-8.55,8.7c-2,.5-4.05.9-6.05,1.5-.6,0-.9.45-.55,1.9.05,1,.2,1.35.7,1a20.57,20.57,0,0,1,3.2-.9,5.21,5.21,0,0,0,3-3C127.48,17.29,127.43,17.24,126.73,17.39Zm-1.9,18.71-3,.3c-1.35.6-1.75,1.25-1.55,2-.25,1,.5,1.05,2.15.7a3.76,3.76,0,0,0,3.45-2.25C126.13,36.1,125.93,35.8,124.83,36.1Z"/><path class="cls-1" d="M168.35,15.29a9.49,9.49,0,0,0-3,4.6c0,.75,0,1.5,0,2.2a10.81,10.81,0,0,0,2.15.2,3.31,3.31,0,0,1,1.75,2.25c-.5,2-1.25,3-2.4,2.55-.55-.05-1.15-.1-1.8-.2.35,5.8.45,11.45.25,17-.35,1-.8,1.6-1.45,1.6a1.4,1.4,0,0,0-.75,1.3c-1.15.55-1.75-.65-2.05-2.75l-.15-16.21a32.94,32.94,0,0,1-6.3,7.6,2,2,0,0,1-2.3.9c-.4-1.3.1-2.7,1.15-4.4,2.2-3.75,4.3-7.6,6.55-11.4l-2.75.35c-1.45-.15-2.4-1.1-2.85-2.8s-.2-3,1-3.45a13.25,13.25,0,0,0,4.15-2.15l1.2-1.2a39.61,39.61,0,0,0,.6-7.35,2.35,2.35,0,0,1,1.3-2,3.84,3.84,0,0,1,1.85,0,4.42,4.42,0,0,1,1.85,3,19.13,19.13,0,0,1-.2,4.45,2.72,2.72,0,0,1,2.5,1.5c.35.85.65,1.55.9,2.15C169.55,13.69,169.1,14.44,168.35,15.29Zm27.06,2.2a7.87,7.87,0,0,0-4.75.9c-1.1.55-1.5.15-.9-1,.75-.75,1.45-1.5,2.15-2.2a27.76,27.76,0,0,0-7.65.3c-1.6,1.5-2.85,2-3.35.9a32.31,32.31,0,0,0-6,2c-.55.2-1,.9-1.25,2.25.15,2.3-.15,3.9-1,4.75a1.1,1.1,0,0,1-1.8.35c-.85-1.3-1.15-3.65-.85-7.05.1-1,.3-2.05.5-3.15,0-1,.55-1.45,1.45-1.15a60.18,60.18,0,0,1,8.4-2,47.48,47.48,0,0,1,1-9.1c.1-1,1-1.1,2.4-.75A3,3,0,0,1,184.5,7a3.51,3.51,0,0,0-.3,1.75c2-2,4.05-3.85,6.25-5.75a1.64,1.64,0,0,1,2.2.45,2.82,2.82,0,0,1-.9,3.75c-3.4,2.2-5.7,3.4-6.85,3.5a1.22,1.22,0,0,0-.55,1.55,34.86,34.86,0,0,1,10.5-.2,1.39,1.39,0,0,1,2.05,0,8.5,8.5,0,0,1,1.7,3.85A3,3,0,0,1,195.41,17.49Zm-4.1,26.06a3.41,3.41,0,0,1-3.2,1.35c-1.65,1.2-2.8.85-3.3-1.05a24.91,24.91,0,0,0-6.6.65c-1.1.75-2.25.5-3.4-.7a32.52,32.52,0,0,1-3-11.05c.15-2.8,1.3-4.1,3.5-3.65a27.75,27.75,0,0,1,3.75-.75c.2-.25.45-.55.8-1-.75,0-1.45-.65-2.1-1.75a8.48,8.48,0,0,1-.45-6.55c.05-1.45,1.05-1.7,2.65-1a15.38,15.38,0,0,1,5.55-.9c0-1.3.75-1.6,2.1-1,1.2.85,1.25,2.55.35,5a1,1,0,0,0,0,1,2,2,0,0,1-.65,2.45,43.15,43.15,0,0,1-4.05,1.65,5.19,5.19,0,0,1-1.75,1.2,1.88,1.88,0,0,0,1-.15,34.54,34.54,0,0,1,9.3-1.35c.6-.45,1.45-.2,2.4.5a5.71,5.71,0,0,1,3.3,3.55C196.31,37.45,194.31,42,191.31,43.55ZM176.7,11.34c-.65,1-1.35,1-2,.1a6.5,6.5,0,0,1-1.2-4.15c-.15-1.2.25-2,1.2-2.05s1.6.65,2,1.9A5.13,5.13,0,0,1,176.7,11.34ZM178,32.9a7.17,7.17,0,0,0-2.25,1.3,18.24,18.24,0,0,0,1.7,6.25,17,17,0,0,0,3.9-.85,5.67,5.67,0,0,0,0-1.3c-1.15.6-2.25.25-3.35-1a2.72,2.72,0,0,1,1-3.55,8.47,8.47,0,0,0,2.6-.6,2.56,2.56,0,0,0,0-1A17.17,17.17,0,0,1,178,32.9Zm3-10.75a5,5,0,0,0,.35,1.65c1.75-.85,2.75-1.85,3.05-3A7.24,7.24,0,0,0,180.9,22.15Zm5,9c-.2.1-.35.3-.35.8a7.87,7.87,0,0,1,2.45.8c.65,1.7.55,3-.45,3.75a2.49,2.49,0,0,0-2.05.9,6.22,6.22,0,0,0,0,1.65,3.85,3.85,0,0,1,2.35.7c1.9-2,3-5.25,3.1-9.9A22.44,22.44,0,0,0,185.85,31.15Z"/><path class="cls-1" d="M247.18,42.3a1.81,1.81,0,0,0-2.3,0c-.6.7-2.05.35-4.1-.6a66.65,66.65,0,0,1-10.6-11.46c-1.6,3.7-5,6.85-10.15,9.5-.1,3.05-1.1,5-3.2,5.2-1.65.2-2.15-2.25-1.9-6.15q-.15-4.5-.3-9a8.67,8.67,0,0,0-3.7,5.55,33.46,33.46,0,0,0-.9,5.3,2.26,2.26,0,0,1-2,1.7c-1.1,0-1.55-1.15-1.6-3.05.3-2.05.6-4.05.85-6a3.62,3.62,0,0,1-3.4-2.5c0-1.4,1.5-2.55,4.2-3.65a23,23,0,0,1,6.4-2.25l.25-3.3c-3.1,2-5.6,2-7.3-.35-1-1.55-1-2.85-.2-3.85a25.4,25.4,0,0,1-.1-8c.4-1.3,1.15-2,2.3-2,1.4,0,2.15,1.3,2.4,3.5a7.36,7.36,0,0,1-.25,3,6.34,6.34,0,0,0-.15,2.85c1-.35,1.9-.7,3-1,.45-.15.75-.8.7-2.3a39.78,39.78,0,0,1,.6-8.35c1.3-2.3,2.65-2.35,3.9-.15A3.31,3.31,0,0,0,220.92,6c.35.7.15,2.5-.4,5.35q-.6,11.48-.6,23.71c.3,1,1.1.6,2.5-.85a18.67,18.67,0,0,0,4.25-7.7,6.8,6.8,0,0,1-4.1-5.05c-.4-1.5,1.75-2.75,5.85-3.9.65-7.7,1.6-12.1,3-13,1.5-.45,2.7.35,3.7,2.2a5,5,0,0,1,.15,3.7,19.2,19.2,0,0,0-.35,4.25c2.85-1,5.35-.9,7.5.35,1.6,1.45,1.7,3,.3,4.55a16.27,16.27,0,0,1-4.6,1.7c-.45.15-4.9,1.85-4.6,2.5a6.11,6.11,0,0,1,3.05,3.7c1.6,2.3,4.55,5.25,9,8.85,4.7,2.35,6.8,4.55,5.5,6.55C250.53,43.65,249.13,43.25,247.18,42.3Zm-3.4-30c-1.1.9-2.3.25-3.45-1.5A5.3,5.3,0,0,0,238.57,9c-.4-.6-.6-1.1-.4-1.5.1-.8.9-1.25,2.15-1.45a6.42,6.42,0,0,1,4.35,2.55C245.23,9.64,244.88,10.84,243.78,12.29Z"/><path class="cls-1" d="M275.19,12.84a2.58,2.58,0,0,1-3.3-.2,1.94,1.94,0,0,0-2.1.2,9.47,9.47,0,0,1-3.6,2.1,36.69,36.69,0,0,1-7.2,2.35c-1,.35-1.8-.4-2.4-1.85-.1-.7-.2-1.45-.25-2.25a2.81,2.81,0,0,1,2.2-2.05l1.9-.85a26.57,26.57,0,0,1,5-7.55A24.28,24.28,0,0,1,269.14,0a4.36,4.36,0,0,1,2.15.3c.7,1.25,1.15,3.05,0,4.2a21.29,21.29,0,0,0-6.85,6.1c0,.2,0,.3.25.35a4,4,0,0,0,1.6-.3c1.6-.75,3.25-1.6,5-2.55a3.75,3.75,0,0,1-.55-2,3,3,0,0,1,1.2-1.4,3.56,3.56,0,0,1,3.45,1.3,7.8,7.8,0,0,1,1.3,4.35A4.31,4.31,0,0,1,275.19,12.84Zm-15,31.81A26.73,26.73,0,0,1,258.33,37l.4-2.15a2.32,2.32,0,0,1,2.2-1.2,1.78,1.78,0,0,1,1.3,2.35q-.3,3.9,1,5.4a3.43,3.43,0,0,1,.25,3C262,45.85,260.78,46.15,260.18,44.65ZM294.8,43a7.62,7.62,0,0,1-6.5,4.75,31.39,31.39,0,0,1-13.86-2.25,22.62,22.62,0,0,1-7.35-7.4,4.07,4.07,0,0,1-.15-3.05,4.64,4.64,0,0,1,2.1-1L269,32.5a2.93,2.93,0,0,1,1.6-3.5,6.26,6.26,0,0,1-.35-2.15,3.25,3.25,0,0,0-1.15,1.5,7.6,7.6,0,0,0-3.7,4.5,7.92,7.92,0,0,1-.9,2.9c-1.2.35-2-1-2.45-3.25a75.53,75.53,0,0,1-.25-10.1l.65-3.1a18,18,0,0,1,1.65-2.5,22.09,22.09,0,0,1,5.65-1.6,4.8,4.8,0,0,0,1.2-1c.35-.3,1-.15,1.8.25a2.22,2.22,0,0,1,1.75,1.85,116.61,116.61,0,0,1,1.25,14,9.92,9.92,0,0,1-4.6,5.15,11.86,11.86,0,0,0,1.1,2.1c3.35,2.9,8.6,4.1,15.75,3.55.35-.3.35-.55.1-.75a31.76,31.76,0,0,1-4-2.15c-1.05-.85-1-1.45.4-1.4,1.35.3,2.7.55,4.05.9,1.1.25,2.35.5,3.8.7a4.07,4.07,0,0,1,2.85,2.15A3.83,3.83,0,0,1,294.8,43Zm-28-19.06a4.49,4.49,0,0,0,0,2,8.77,8.77,0,0,1,3.2-.5,9.13,9.13,0,0,0,0-3.3A4.11,4.11,0,0,1,266.79,23.9Zm3-5.6a3.58,3.58,0,0,1-2.2.8,7.51,7.51,0,0,1-.6,1.7,5.27,5.27,0,0,1,2.9-.2A3.32,3.32,0,0,0,269.79,18.29ZM281,36.75a2.19,2.19,0,0,1-2,2c-1.45-.2-2.35-1.3-2.8-3.2V33.5c.25-1.45,1-1.85,2.1-1a3,3,0,0,0,2.1,0c1.65-.25,1.8.65.9,2.1A8.25,8.25,0,0,0,281,36.75Zm5.7-29.06a4.58,4.58,0,0,0-.8,2.5A11.28,11.28,0,0,0,287.59,9a2.19,2.19,0,0,1,2.2.15c.8,1.45.85,2.6,0,3.4a19.13,19.13,0,0,1-6.1,3.15c-1.85.2-3-.8-3.3-3l.4-7.75a17.83,17.83,0,0,1,1-3.25,3.41,3.41,0,0,1,2-1.25,2.49,2.49,0,0,1,1.85,1.1c.4.6.75,1.15,1,1.6a6.39,6.39,0,0,0,1.85-1,2,2,0,0,1,2.5.25,2.28,2.28,0,0,1,.2,2.7C289.54,6.09,288.09,6.94,286.69,7.69ZM289.24,30a25.29,25.29,0,0,1-6.15,1.25c-1.2-.1-2-1.25-2.35-3.25l-.35-7.7a8.38,8.38,0,0,1,.5-2.25,2.09,2.09,0,0,1,2.7-.85l1.1,1.4c.85-.45,1.75-.9,2.7-1.3a6.18,6.18,0,0,1,2.4.8,2,2,0,0,1,.5,2,4.35,4.35,0,0,1-2.2,2c-1.15.4-2.25.8-3.25,1.25l-.05,2.35a4.3,4.3,0,0,0,2.45-1.2,6.38,6.38,0,0,1,4,1.1C292,27.65,291.09,28.9,289.24,30Zm10.15,6.45-.45.3c-.7.35-1.85.1-3.4-.55-2-.8-3.85-1.45-5.7-2-1.4.1-2.2-.65-2.35-2.2A2.53,2.53,0,0,1,290,30.2a22.39,22.39,0,0,1,8.2,1,3.26,3.26,0,0,1,1.75,3.05A2.65,2.65,0,0,1,299.4,36.45Z"/></g></g></g></svg>