<svg xmlns="http://www.w3.org/2000/svg" viewBox="0 0 297.05 47.94"><defs><style>.cls-1{fill:#d30e0e;}</style></defs><title>user_txt3</title><g id="圖層_2" data-name="圖層 2"><g id="圖層_1-2" data-name="圖層 1"><g id="user_txt3"><path class="cls-1" d="M39,45.3a40,40,0,0,1-15.36-.55c-2.4-1.4-3.75-4-4-7.6a32.23,32.23,0,0,1,1.5-8.9c.7-.85.75-1.45.35-1.9-.6-.3-1.25,0-2,1.3-4.45,4.2-8.8,8.5-13.31,12.66-2.2,2.05-4,2.9-5.1,2.7-.8.25-1.3,0-1-.85A14.29,14.29,0,0,1,2.14,38.7a41.61,41.61,0,0,1,3.75-4.05c2.45-3.15,5.1-6.35,8-9.55-2.8.65-4.9.2-6.2-1.4l-1.4-1.5c-.65-2-.1-3.1,1.65-3.3l7.25-2.1c3.15-1,6.05-1.9,8.75-2.6.9-.25,1.35-.4,1.5-.6q3.08-1.2,6.3,1.2a11.65,11.65,0,0,1,1.2,1.4c.8,2,.35,3.35-1.55,3.75a18.83,18.83,0,0,0-6.85,3,6.42,6.42,0,0,1,3.5.15c1.25.85,1.3,2.3.4,4.2a15,15,0,0,0-3.15,7c-.85,3.1.2,4.65,2.8,5.05a36,36,0,0,0,9.05-.55c1.65-.1,2.4-1.7,2.45-4,.1-2,.55-3.2,1.5-3.2.8,0,1.1.65,1.15,1.65-.3,2,.3,3.1,1.75,3.45,1.2,1,1.45,2.35.9,4.15A10.3,10.3,0,0,1,39,45.3ZM26.9,8.53a88.27,88.27,0,0,1-9,2.9,6.52,6.52,0,0,1-5.85-2.25c-2.05-3.7-1.2-5.45,2.65-4.9a15.73,15.73,0,0,0,6.85-1.4l1-.4c1.75-1.3,3.4-1.5,5-.65,2.3,1.1,3.4,2.5,3.1,4.25C30,7.08,28.75,7.83,26.9,8.53Z"/><path class="cls-1" d="M61.91,39.85a4.84,4.84,0,0,0-.6,2.35c-.8,1.2-2,1.4-3.35.65a13.59,13.59,0,0,1-2.4-4.1c0-2,1-2.75,3.1-2.25a2.19,2.19,0,0,0,1.8.7,2.85,2.85,0,0,1,1.8-.4c.35.1.45.55,0,1.3A7.64,7.64,0,0,0,61.91,39.85ZM94.67,43.9a9.06,9.06,0,0,1-4.85,1.6c-3.85,0-6.65-1.4-8.05-4.05a22.17,22.17,0,0,1-2.15-9.8c-2,.2-4.05.5-6.2.9-.65,0-.65.9-.65,2.7,0,4.15-.65,7.1-1.9,8.8a4.56,4.56,0,0,1-2.05,2.35c-2.3,1.1-3.85,1.15-4.25-.5.1-1.45-.2-2.25-.8-2.6a.45.45,0,0,1-.1-.8,3.09,3.09,0,0,1,1.2-.75c2.25-.4,3.25-1.6,3.1-3.6,0-1.4.1-2.85.1-4.35-1.7.65-3.35,1.15-5,1.65-3.3,1-5.5,1.05-6.3-.3a2.23,2.23,0,0,0-.6-1.3A3.17,3.17,0,0,1,59,29.94l2-.4A17,17,0,0,0,59.86,28a14.78,14.78,0,0,1-1-4.5,2.13,2.13,0,0,1,3-1.25c-.25-1.3.5-2.35,2.15-3.1a76,76,0,0,1,11.25-3.35,26.16,26.16,0,0,1,6.25-1.9c1-1.5,2-2.25,3.25-2.05.9.9,1.15,2.5.65,4.7a10.69,10.69,0,0,1-1.1,3.3,38.76,38.76,0,0,0-1,7.2,27.28,27.28,0,0,0,.35,7.15c.65,3.45,2.35,5.15,4.7,5.35a7.94,7.94,0,0,0,3.05-.1c.5-.2.65-.5.45-1-.2-1.55-.15-2.6.5-3.05a2.89,2.89,0,0,1,1.9,2.3c.1.2.4.35,1,.45a1.86,1.86,0,0,1,1.6,2.6A6.8,6.8,0,0,1,94.67,43.9ZM80.87,6c-1,.5-2.4,1-4,1.75-3.5.75-5.75,1.05-6.75.25a11.33,11.33,0,0,1-1.8-1.6,4.44,4.44,0,0,1-3.15,2.75c-1.05-.1-2.5.55-4.35,2.05-2.1,1.05-3.6,1.3-4,.05A4.89,4.89,0,0,1,58.81,7a41.06,41.06,0,0,1,4-4,6.74,6.74,0,0,1,2.5-1.35l.55-.25c1.5-.55,2.45,0,2.8,1.55,0,.45.15.65,1.15.3,1.55-.6,3.4-1.2,5.55-1.9C77.47.13,79.17-.32,80.47.23a2.69,2.69,0,0,1,2,2.75C82.92,3.78,82.22,4.83,80.87,6ZM67.16,26.19a1.47,1.47,0,0,0-.8-.65,2.44,2.44,0,0,0-1.25-.7,5.13,5.13,0,0,1-1.1-.15c-.2.1-.2.45-.05,1.05.5,1.05.7,1.85.35,2.3a1.89,1.89,0,0,0-.25.8c.75-.25,1.45-.45,2.2-.65,1.15,0,1.75-.1,1.75-.5A3.29,3.29,0,0,0,67.16,26.19ZM80.32,11.54a14.59,14.59,0,0,1-2.15,2.15c-4.3,1.75-7.55,2.25-9.8,1.45-1.65-1.3-2.45-2.55-2.2-3.75.35-.8,1.55-1.2,3.35-1.25,1-.3,1.65,0,2.45-.25a12.76,12.76,0,0,0,3.3-.8c2.85-.75,5.05-1.5,5.75-.5,0,.55.1,1.1.1,1.7A1.69,1.69,0,0,1,80.32,11.54Zm-7.9,10.65-.65.4c-.2,0,.1.15,0,1.15,0,.35.05,1.9.3,1.6a29.33,29.33,0,0,1,2.2-3.6c.1-.15.2-.25.25-.35A15.15,15.15,0,0,0,72.42,22.19Zm6.3,17.51c-.55,1.15-1.75,1.2-3.25.45a7.65,7.65,0,0,1-2-3.25c-.55-1.65-.5-2.8.7-3a2.61,2.61,0,0,1,2.65.3c.3-.55.9-.4,1.8.65l.25.75A4.31,4.31,0,0,1,78.72,39.7Zm1.35-22.41-.6.6a22.55,22.55,0,0,1-2.55,2.3,16,16,0,0,1,1.35,1,1.86,1.86,0,0,1,.25,1.8,2.66,2.66,0,0,1-1.05,1.3,6.18,6.18,0,0,0-2.9,1.1c-.35.4-.75.9-1.25,1.55a19.22,19.22,0,0,1,5.85-.75,51.52,51.52,0,0,1,1.3-8.4C80.52,17,80.32,17.09,80.07,17.29Z"/><path class="cls-1" d="M127.59,20.14a16.92,16.92,0,0,1-.15,3.35c.1,2.3.15,4.45.15,6.5a41.07,41.07,0,0,0,3-3.75,14.93,14.93,0,0,1,2.3-4c1-1.2,2.2-1.55,3.3-1a10.64,10.64,0,0,1,1.75,2.2c.5,1.05,0,2.25-1.15,3.5a127.29,127.29,0,0,1-9.5,9.35,57.32,57.32,0,0,1-9.2,6.5c-4.6,2.6-7.15,4.1-7.7,4.45a3.91,3.91,0,0,1-2.15.55c-.6-.15-.55-.75-.3-1.35a4,4,0,0,1,1.7-1.55c1-.75,1.85-1.5,2.65-2.15,2.35-1.9,5.1-4.4,8.1-7.1-.9-.4.2-.5.2-2.25.85-.85.7-1.7,1.15-3.1a48.77,48.77,0,0,0-.25-6.5c-.2-1.75-1-2.4-2.4-2a59.72,59.72,0,0,0-9.65,3.5c-1.2.4-2.15.2-2.65-.75-1-2.9-.75-4.75.85-5.15s3.45-1,5.4-1.45a16.53,16.53,0,0,1-1.65-4.55c-.65-3.3-.7-5.75,0-7.35,1.6-1.7,3-2,3.65-.35a10.81,10.81,0,0,1,1.7,5.5A28.22,28.22,0,0,0,118,16.94c.9-.1,1.9-.25,3-.4a127.71,127.71,0,0,1-.15-13.86c.6-1.65,1.6-2.5,3.05-2.5a8,8,0,0,1,3.6,1.6A3.59,3.59,0,0,1,128.29,4c1.5-1,2.7-1.45,3.5-1.2,2.25.85,3.5,1.75,3.4,2.75a6.29,6.29,0,0,1-1.85,4.15,18.3,18.3,0,0,1-5.55,2.45c-.15,1.45-.25,2.7-.35,3.7,2.4-.25,4.7-.45,6.9-.55a30.5,30.5,0,0,0,3.4-.9,4.36,4.36,0,0,1,3.25,1.4c1.15,1.3,1.5,2.45.35,3C135.49,19.19,130.94,19.64,127.59,20.14Zm-13,12.6c-1.1.9-2,.8-2.15-.55a13.6,13.6,0,0,1-.55-6.25c.5-.9,2-2,3-1.15.8.25,1.4,1.2,1.85,2.75A5.93,5.93,0,0,1,114.63,32.74Z"/><path class="cls-1" d="M178.61,20.14a16.92,16.92,0,0,1-.15,3.35c.1,2.3.15,4.45.15,6.5a41.07,41.07,0,0,0,3-3.75,14.93,14.93,0,0,1,2.3-4c1-1.2,2.2-1.55,3.3-1a10.64,10.64,0,0,1,1.75,2.2c.5,1.05,0,2.25-1.15,3.5a127.29,127.29,0,0,1-9.5,9.35,57.32,57.32,0,0,1-9.2,6.5c-4.6,2.6-7.15,4.1-7.7,4.45a3.91,3.91,0,0,1-2.15.55c-.6-.15-.55-.75-.3-1.35a4,4,0,0,1,1.7-1.55c1-.75,1.85-1.5,2.65-2.15,2.35-1.9,5.1-4.4,8.1-7.1-.9-.4.2-.5.2-2.25.85-.85.7-1.7,1.15-3.1a48.77,48.77,0,0,0-.25-6.5c-.2-1.75-1-2.4-2.4-2a59.72,59.72,0,0,0-9.65,3.5c-1.2.4-2.15.2-2.65-.75-1-2.9-.75-4.75.85-5.15s3.45-1,5.4-1.45a16.53,16.53,0,0,1-1.65-4.55c-.65-3.3-.7-5.75,0-7.35,1.6-1.7,3-2,3.65-.35a10.81,10.81,0,0,1,1.7,5.5,28.22,28.22,0,0,0,1.25,5.65c.9-.1,1.9-.25,3-.4a127.71,127.71,0,0,1-.15-13.86C172.5,1,173.5.18,175,.18a8,8,0,0,1,3.6,1.6A3.59,3.59,0,0,1,179.31,4c1.5-1,2.7-1.45,3.5-1.2,2.25.85,3.5,1.75,3.4,2.75a6.29,6.29,0,0,1-1.85,4.15,18.3,18.3,0,0,1-5.55,2.45c-.15,1.45-.25,2.7-.35,3.7,2.4-.25,4.7-.45,6.9-.55a30.5,30.5,0,0,0,3.4-.9,4.36,4.36,0,0,1,3.25,1.4c1.15,1.3,1.5,2.45.35,3C186.51,19.19,182,19.64,178.61,20.14Zm-13,12.6c-1.1.9-2,.8-2.15-.55a13.6,13.6,0,0,1-.55-6.25c.5-.9,2-2,3-1.15.8.25,1.4,1.2,1.85,2.75A5.93,5.93,0,0,1,165.65,32.74Z"/><path class="cls-1" d="M243.68,42.8c-.85,1.8-3,3.15-6.1,4-3,.75-4.9.45-5.55-1A5,5,0,0,1,231,42c-.15-.45-.35-.55-.9,0a6,6,0,0,1-2.9.7,59.52,59.52,0,0,0-6.2.55c-.85.5-1.55.45-1.85-.45a5.32,5.32,0,0,0-1.25-2.4,13.51,13.51,0,0,1-2.35-4.25c-.4-1.6.1-2.6,1.45-2.75a2.07,2.07,0,0,1,2.75,0c0,.15.1,0,.35,0s.9-.15,1.65-.3a54.68,54.68,0,0,1,6.4-.85,2.31,2.31,0,0,0,1.4-1.55c.7-.7,1.35-.7,1.8.1a6.31,6.31,0,0,0,1.5.4,3.46,3.46,0,0,1,1.7,3.3,2.75,2.75,0,0,1-1,1.75,8.59,8.59,0,0,0-1.15,2.7,2.19,2.19,0,0,1-.6,1.1,24.3,24.3,0,0,0,3,.3A1.87,1.87,0,0,0,237.28,39a64.8,64.8,0,0,0,2.25-10.9c0-.4,0-.4-.35-.1a6,6,0,0,1-3.6,1.5,30.94,30.94,0,0,0-7.3.4c-2.8.45-6,1.1-9.6,2.05a24.79,24.79,0,0,0-4.55,1.6c-1.4.35-2,1.5-1.55,3.7a7.94,7.94,0,0,1,.35,4.85c-.4,1.75-1,2.65-2.2,1.9a9.06,9.06,0,0,1-3.35-5.9,69.75,69.75,0,0,1-.25-9.6c.3-1.1,1.4-1.15,2.85-.55a2.49,2.49,0,0,0,2.75.3c5.55-.9,11.1-1.75,16.66-2.5,3.7-.9,6.8-1.1,9.25-.5a1.75,1.75,0,0,0,1.5-.2,3.77,3.77,0,0,1,1.6-.5h.45c2.35.5,3.65,2.25,3.65,5.2C245.78,35.64,245.08,40,243.68,42.8Zm-7.3-34.11a7.34,7.34,0,0,1-.8-.45c-.3-.25-1.1-.3-2.45,0h-3.65c-.4,0-.65.15-.75,1a6.27,6.27,0,0,1-1.55,2.25c1.4-.2,2.8-.45,4.15-.75a3.14,3.14,0,0,1,3.1.15c1.3.45,1.8,1.8,1.65,3.9a15.22,15.22,0,0,0-1,3.2,22,22,0,0,1-2.45,3.6,4.43,4.43,0,0,1-2.55,1.4,9,9,0,0,0-2.55,1.15,13.44,13.44,0,0,1-3.7.7,19.17,19.17,0,0,0-3.9,1.8,4.3,4.3,0,0,1-4.5-2,27.15,27.15,0,0,1-1.75-7.7c.55-2.65,1.3-4.25,2.4-4.45,1.1,0,2.1,0,3.05.1a9.48,9.48,0,0,0,3.45-.55c.6-.15.6-.2,0-.5a6.48,6.48,0,0,1-1.1-1.85,8.65,8.65,0,0,0-1.4.55l-2.8.1a26.16,26.16,0,0,1-2.75.8,2.17,2.17,0,0,1-2.8-.7c-.45-.7-1-1.4-1.45-2.05-.45-1.55.7-2.45,2.9-2.85a63.79,63.79,0,0,1,7.5-.75c-1-1.3-2.55-3.5.1-4.15a9.43,9.43,0,0,1,4.15.9,7,7,0,0,1,3.2,2.6c.1.45.55.65,1.75.6a17.34,17.34,0,0,0,4-.4l.45-.45c.8-.55,2.25-.4,4.25.3a3,3,0,0,1,1,3A3.8,3.8,0,0,1,236.38,8.68Zm-8.55,8.7c-2,.5-4.05.9-6.05,1.5-.6,0-.9.45-.55,1.9,0,1,.2,1.35.7,1a20.59,20.59,0,0,1,3.2-.9,5.21,5.21,0,0,0,3-3C228.58,17.29,228.53,17.24,227.83,17.39Zm-1.9,18.71-3,.3c-1.35.6-1.75,1.25-1.55,2-.25,1,.5,1.05,2.15.7A3.76,3.76,0,0,0,227,36.85C227.23,36.09,227,35.79,225.92,36.09Z"/><path class="cls-1" d="M293.75,21.34a25.79,25.79,0,0,0-6,.15q-.23,9.68-.6,19.51a20.61,20.61,0,0,0-1,3.55c-1.65.6-2.35,1.45-2.4,2.65-.85,1-1.6,1.05-2.1,0a20.24,20.24,0,0,0-.8-4.55c-.1-7-.2-13.81-.35-20.66-1,.1-2,.25-2.85.4-1.2.55-2.35,1.15-3.5,1.8.55,1.4.55,2.5-.15,3.2q-2.48,8.78-7.05,13.8a17.39,17.39,0,0,1-2.7,1c-.9-.75-.9-2-.25-3.55a39.21,39.21,0,0,0,4.7-13.6,33.11,33.11,0,0,1-6.9,1.65c-1.75.2-3.05-.15-3.85-1.1a9.22,9.22,0,0,1-.7-2.3,3.17,3.17,0,0,1,2.25-2.25,90.91,90.91,0,0,1,9.65-2.9,34.14,34.14,0,0,1,.45-4.6,3.93,3.93,0,0,1,1.1-1.4,5.79,5.79,0,0,1,1.3-.15c1.65.4,2.75,1.75,3.3,4a10.63,10.63,0,0,1,.2,1.25l5.15-1q.45-5.85.75-12.16c-.15-.75-.3-1.4-.45-2A2,2,0,0,1,282.7.78a2.14,2.14,0,0,0,1.1.3,3.93,3.93,0,0,1,3,1.7,77.85,77.85,0,0,1,.5,12.2l2.5.25a5,5,0,0,1,3.2-.55,22.92,22.92,0,0,0,2.65,2c.85.35,1.3,1.25,1.4,2.6C296.65,20.79,295.55,21.49,293.75,21.34Zm-17.31-9.9a13.85,13.85,0,0,1-5.25-.45q-2.18.3-5,.75a2.13,2.13,0,0,1-2.9-.3,3.9,3.9,0,0,0-1.65.6c-1,.5-1.4,0-1.1-1.2A8.6,8.6,0,0,1,263.44,8c1.8-.6,3.6-1.35,5.5-2l4.6-1.45c1.05-.65,2.1-.3,3.15.8a4.31,4.31,0,0,0,1.75.7,3.83,3.83,0,0,1,.5,3A4.46,4.46,0,0,1,276.44,11.44Z"/></g></g></g></svg>