<svg xmlns="http://www.w3.org/2000/svg" viewBox="0 0 453.38 62.47"><title>userexperience_txt</title><g id="圖層_2" data-name="圖層 2"><g id="圖層_1-2" data-name="圖層 1"><g id="userexperience_txt"><path d="M8.26,55.41a5.78,5.78,0,0,0-.46,2.34c-1.43.84-2.79.32-4-1.3A18.68,18.68,0,0,1,.85,50.8,10.45,10.45,0,0,1,0,47.29c.07-.91.72-1.5,1.89-1.82l.78.39a1.06,1.06,0,0,0,1.11-.78c.84-2,1.75-4.16,2.73-6.37,1.23-1.3,1.88-.78,1.75.91a38.37,38.37,0,0,0-.91,8.65c.39,1.24,1,2.86,1.69,4.81A2.35,2.35,0,0,1,8.26,55.41ZM9.1,30.32c-.71,1.43-2,1.69-3.45.91l-5-3.58A5.86,5.86,0,0,1,.13,24.6l.59-1.17a6.51,6.51,0,0,1,4.81.13,8.46,8.46,0,0,1,3.77,4.1A4.09,4.09,0,0,1,9.1,30.32ZM15,15.89c-2.15,1.82-4,2.21-5.59.84a36,36,0,0,0-3.83-3.9c-2.6-.46-3.83-1.56-3-3.45A20.06,20.06,0,0,1,3.71,7.7l1.11-1c1.3-.85,2.92-.91,4.94-.26A22.49,22.49,0,0,1,15,11.21,3.81,3.81,0,0,1,15,15.89Zm5,4.23a6.22,6.22,0,0,1-2.54-3.19c-.39-1.5-.71-3-1-4.55l.2-1.5c.19-2,1.43-2,3.25-.65A27.11,27.11,0,0,1,22.36,16c.13,1,.26,2.08.39,3.25C22.43,20.76,21.32,21,20,20.12Zm28.15-9-1.76,1.17a5.07,5.07,0,0,1-1.75,1.24c-1.3.91-2.34,1.5-3.32,1.37a26.55,26.55,0,0,0-6.83,4.42,8,8,0,0,0,0,1.75c2.08-.26,4.16-.39,6.31-.46,3.58-.06,5.79,1.37,6.44,4.36a163,163,0,0,1,1.3,18.79c0,3.77,0,7.54.07,11.31a4.58,4.58,0,0,1-2.41,3L40.89,61.2c-1.43.85-2.54.58-3.18-.84a4,4,0,0,1-1.24-1.3,2.68,2.68,0,0,1-.52-2.34.77.77,0,0,0-.32-.32c-1.76-1.17-2.15-2.34-.07-2.86l2.92-.07c.39-.06.65-.46.58-1.43.13-8.26,0-16.84-.46-25.81a37.19,37.19,0,0,0-12.93,4c-.2.85-.39,1.76-.52,2.73-.07.26.13.58,1.17.78,2.73-.52,5.4-1,8.12-1.43,1.5-.19,2.41.46,2.54,1.89a4.19,4.19,0,0,1-.78,3,37,37,0,0,1-5.07,2.34,22.19,22.19,0,0,1-6.18.26c-.13,1.43-.26,2.86-.33,4.29a29.43,29.43,0,0,0,5.92-.84c3-.46,5.2-.26,6.56.71a4.76,4.76,0,0,1-.19,3.51A26.39,26.39,0,0,1,25.35,50c.13,1,.26,2.08.46,3.12A1.43,1.43,0,0,1,25.09,55a20,20,0,0,0-3.38,2.54c-1.1,1.24-2,.78-2.41-.84a79.79,79.79,0,0,1-1.1-12.22c-.07-4.94.33-9.82.65-14.63a15.65,15.65,0,0,1,2.73-5.26A9.56,9.56,0,0,1,25,23.17l2.08-.33c-1.5-5.66-1-11.7.26-17.36.65-2.86,1.69-4.42,3.71-4a12.34,12.34,0,0,1,3.58,2.28c1.11.84,1.5,2.67,1.3,5.26-.19,2.15-.46,4.29-.71,6.44l7-6.37a29.8,29.8,0,0,1,1.17-3.38A4,4,0,0,1,47,4.84a40.21,40.21,0,0,0,2.67,3.71C50.12,9.78,49.47,10.62,48.1,11.14Z"/><path d="M112.58,28.76c-.58.13-2.86-1.36-3.9-.91A9.94,9.94,0,0,1,105,29.41c.39,6.18.46,12.81.26,18.33-.06,1.75.2,3.58-1.69,3.77,3.71,2.93,5.66,4.88,5.72,7-1.69,2.93-3.77,4.42-6.3,3.25-2-2.08-3.45-3.64-4.55-4.61s-2.21-2.54-4.42-5c-.33-2,.84-3.05,2.86-3.25A7.37,7.37,0,0,0,97,47.22c-1.3,1.3-5.13,2.47-9.1,3.32a96.44,96.44,0,0,0-6.5,7.61c-3.25,2.86-4.94,4-5.52,1,.65-1.88,1.36-3.9,2.86-5,1.3-1.3,2.28-2.79,3.38-3.77a15,15,0,0,1-1.89-7.54,81.82,81.82,0,0,1,1.56-12.68c-1.24,2-2.6,2.67-3.9,4.29-3.06,3.71-13.07,9.3-12.55,7.28,2.54-4.94,7.35-6.89,9.17-9.82,1.1-2.21,2.79-3.25,4.09-6a3.77,3.77,0,0,0-2,1.17c-2.47,1.17-4.16.91-4.68-1.1.06-4,.26-7,.52-9.23,1.17-2.15,2.6-1.88,4,.46a9.78,9.78,0,0,0,.19,3.38c-.13,1.3,4.62.07,4.88,0A10.37,10.37,0,0,0,83,18a29.43,29.43,0,0,1-4,.58,2,2,0,0,1-2.15-2.08A4.7,4.7,0,0,1,79.3,13q2.44-.19,4.29-.39l.2-2.54a15.43,15.43,0,0,1-7.08.13,5,5,0,0,1-2.08-5c.91-1.69,3-2.54,6.17-2.73q1.85.39,3.32.58a7.38,7.38,0,0,1,.78-2,3.5,3.5,0,0,1,4.75,0,4.64,4.64,0,0,1,.52,1.75,20.32,20.32,0,0,0,3.77-.33A12.11,12.11,0,0,0,94.51.94C95.75-.23,97.31-.3,99.32.68a2.93,2.93,0,0,1,.39,1.24c1.88-.2,3.25-.13,4,.33A5.35,5.35,0,0,1,108,2.3c2.86,1.88,2.92,4.16.13,6.5a33,33,0,0,1-9.1,5.26c-.13.91-.19,1.82-.26,2.8,4.75-.59,8.84-1.17,12.29-1.63a4.28,4.28,0,0,1,5.2-1.17c3.64,1.76,4.42,4.75,2.34,8.84C116.68,26.81,114.66,28.89,112.58,28.76ZM85.93,24.34a8.52,8.52,0,0,1-2.28,2.86,2.22,2.22,0,0,1,1.3-.07,58.41,58.41,0,0,0,6.24-.78,5.68,5.68,0,0,0,.58-3.19Q88.76,23.75,85.93,24.34ZM96.14,31c-.2-1.17-.84-1.69-1.62-1.69a7.37,7.37,0,0,1-5.27,1.5,4.49,4.49,0,0,0-2.54,2.14c1.17.46,2.73.33,4.75-.52s3.38-.39,3.9,1.75c-.78,1.69-2.41,2.92-4.87,3.77q-3.22,0-4.68-1.75a29.74,29.74,0,0,0,.06,4.16A25.62,25.62,0,0,1,91.2,39.1c1.82-1,3.32-1.17,4.49-.2a4.93,4.93,0,0,1-2.21,4.16A10,10,0,0,1,88,44a2.32,2.32,0,0,1-2.15-1,23.67,23.67,0,0,0,.2,3.12,51.75,51.75,0,0,0,10.66-2.8C97.37,39.1,96.79,35.2,96.14,31ZM88.92,17.12c-.26.58-.52,1.23-.85,1.88l4-.78a7.17,7.17,0,0,0,.58-2.14A23.74,23.74,0,0,1,88.92,17.12ZM90,8.74c-.06.71-.13,1.82-.26,3.38A13.5,13.5,0,0,0,93,11.4c.2-1.23.39-2.54.65-3.9A26.2,26.2,0,0,0,90,8.74Zm18.85,9.82A32.26,32.26,0,0,1,99,21.41a19.32,19.32,0,0,1-2,3.38l2.86-.2c2.41.26,3.45,1.24,4.68,1.89,2-.26,4.22-2.21,5.26-5.4A10.37,10.37,0,0,0,108.88,18.55ZM99.58,5.94a24.57,24.57,0,0,0-.46,4l1.5-.91a4.92,4.92,0,0,0,1.82-3.38A23.61,23.61,0,0,0,99.58,5.94Z"/><path d="M182.59,27.46a11.72,11.72,0,0,1-4.75-.78,44.56,44.56,0,0,0-13.84.46,30.73,30.73,0,0,0-5.59,5.66,25.06,25.06,0,0,0,4.49-.39c.78-.52,2.28-.58,4.36-.33,2,.71,3,2.79,3.25,6a82.19,82.19,0,0,1-.33,18c-.58,1.11-2.08,2.34-4.55,3.77a27.14,27.14,0,0,1-3.9,1.69,2.7,2.7,0,0,1-2.54-.07,2.45,2.45,0,0,1-.33-2.34c.13-.52.2-1,.26-1.37-1.62,0-3.44.13-5.46.33a3,3,0,0,1-2.73,1.56,4.77,4.77,0,0,1-2-2.67,82.08,82.08,0,0,1-.39-12.68A94.2,94.2,0,0,0,138,56.26,5.14,5.14,0,0,1,134.81,58c-2.41,1.3-3.45.58-2.67-2.08A133.17,133.17,0,0,1,146,36.3c2.4-2.86,4.81-5.72,7.41-8.45a116.16,116.16,0,0,0-18.53,6c-2.93,1.24-5.07.84-6.37-1.5-.32-2.86,1.37-5.07,5-6.17,5.92-1.82,12-3.25,18-4.75a3.66,3.66,0,0,0,.32-1.56c-1.82.46-4.29-.46-7.28-2.6q-2.14-1.75-2.34-6c0-1.43,2.08-1.88,5.27-1.75a14.52,14.52,0,0,0,4.29-1.11c-.07-3.83.78-6.37,2.79-7.47a5.06,5.06,0,0,1,4.16,1.43c.71.65,1.43,1.24,2.08,1.88a3.5,3.5,0,0,1,1,2c1.63-.26,3.38.52,5.2,2.28,1.24,1.5.91,3-.26,4.75a20.2,20.2,0,0,1-5.79,3.51c-.65.33-.84,1.56-1,3.38a2.17,2.17,0,0,0,1-.2,118.88,118.88,0,0,0,9.23-9.75,9.67,9.67,0,0,1,3.58-1.63,3.18,3.18,0,0,1,2.8,2.27,5.43,5.43,0,0,1-.59,4.94A3.6,3.6,0,0,1,173,17.58a11.28,11.28,0,0,0-3.18,1.88c2.47-.2,4.81-.39,7.08-.46a1.93,1.93,0,0,1,3,.07,37.72,37.72,0,0,0,3.9,2,4.06,4.06,0,0,1,2.73,3.64C186.68,26.62,185.12,27.46,182.59,27.46ZM156.33,48.52c-1.75-.26-2.47,0-2.6.46a28.85,28.85,0,0,0,.06,4.36,49,49,0,0,1,5.33-.71c1.11-.26,1.75-.65,2-1.24a9,9,0,0,0,.52-3.71A6.84,6.84,0,0,1,156.33,48.52Zm5.33-11.18a5.56,5.56,0,0,0-1.75.33A39.46,39.46,0,0,1,154.18,40a3,3,0,0,0-.2,1.82c-.13.71.33,1.17,2.28,1.1,2.6-.46,4.48-.33,5.46.52A27.38,27.38,0,0,0,161.66,37.34Z"/><path d="M244.21,12.44a18.86,18.86,0,0,0-6.63-.33c-4.1.52-8.13,1.17-12.22,1.76-1.37,2-2.73,4.16-4,6.43a64.47,64.47,0,0,1,9.23-1.3c.78-.84,2.08-.91,3.77-.33,2.15,1.24,3.45,3.58,3.84,7,.71,6.24,1.82,12.35,2.47,18.4.71,7-.26,11.44-2.41,12.87a14.26,14.26,0,0,0-4.55,2.92,3,3,0,0,1-4.1.2c-1.69-.71-2.4-1.5-2.34-2.08a5.64,5.64,0,0,0-1.43-3.45c0-.85.58-1.17,1.43-1.17,2.73,0,4.1-1.17,4-3.64l-.2-5.53a14.43,14.43,0,0,1-6.63,3.45c-2.54.07-3.64.71-3.77,1.69.39,3.18.2,5.26-1,5.79a3.08,3.08,0,0,0-1.69,1.1c-.52,1.5-1.37,2.15-2.47,1.11-.58-1.11-.84-2.92-.91-5.53a114.22,114.22,0,0,1,2-25.74c-6.83,10.4-12.42,17.16-16.77,20.22a6.14,6.14,0,0,1-3.12.85c-.58-.13-.78-.72-.2-1.76A31.49,31.49,0,0,1,199,39.68c4.75-7.8,9.75-15.47,14.82-23.08a70.29,70.29,0,0,0-6.76,3,7.25,7.25,0,0,1-6.57-1,7.89,7.89,0,0,1-2.27-5c-.07-1.5,1.63-2.73,4.62-3.64A82.43,82.43,0,0,1,218.6,7l1.69-.39c1-1.17,1.88-2.27,2.86-3.25s2.34-1.24,4.09-.78a4.88,4.88,0,0,1,1.56,3.45c3.05-.33,6-.71,9-1a8.85,8.85,0,0,0,2.92-.65c1-.58,2.21-.39,3.71.46,2.08,1.11,3.12,2.6,2.86,4.62A5.18,5.18,0,0,1,244.21,12.44ZM230.62,32.66a20.92,20.92,0,0,1-3.77,2.67q-5.17,2.24-6,3.12a30.12,30.12,0,0,0-.19,3.32,26.65,26.65,0,0,0,3.64-.84,25.31,25.31,0,0,1,6.63-1.43C230.88,37.34,230.82,35.07,230.62,32.66Zm-.26-3.77a45.84,45.84,0,0,0-.58-5.53c-.65-.13-2.86.52-6.83,2.27-.78.72-1.37,2.15-1.69,4.42a36.07,36.07,0,0,1,5.66-1.24,4.68,4.68,0,0,1,3.45.58Z"/><path d="M312.13,62.3a27,27,0,0,1-8.45-7.09A40.59,40.59,0,0,1,300.5,50c-.19-.32-.52.07-1.17.85A15.16,15.16,0,0,0,296.6,54a8,8,0,0,1-3.25,3.38c-1.23.58-2.21.52-2.54-.39-1.95.91-4.61,1.17-8.12.84a16,16,0,0,1-9.36-8.58c-.78-2.41-.84-4.23-.13-5.33s1.88-.91,3,.26A4.54,4.54,0,0,1,277,47a9.8,9.8,0,0,0,4.09,5.13,12.69,12.69,0,0,0,5.85-.07,16.18,16.18,0,0,0-2.79-3.71,2.46,2.46,0,0,1-2.93.46C279.11,48,278.07,45.14,278,43c-1.56.65-2.73.52-3.38-.52a4.76,4.76,0,0,0-.84-1.24,21.23,21.23,0,0,1-3.32-3.51c-.26,1.3-.39,2.21-.46,2.73a32.49,32.49,0,0,1-1.1,4.75c1.3-.39,1.88.58,1.88,2.41a20.74,20.74,0,0,0,1,4.29c.65.78.13,2.14-1.1,3.9-.72,1.76-1.69,1.82-2.67.07a23.19,23.19,0,0,1-1-6.24,26.58,26.58,0,0,0-1.3,4.09c-1.37,1.82-2.54,1.89-3.05-.19a120.93,120.93,0,0,1,1.1-13.65A147,147,0,0,0,265,23.95c.07-2.21.26-4.42.46-6.7,0-1.75.39-2.92,1.5-3.06a7.45,7.45,0,0,1,2.67,1.37,7.42,7.42,0,0,1,2.67,3,8,8,0,0,1-.46,2.73,23,23,0,0,0,.13,5.59,32.43,32.43,0,0,1,1.63,3.45,35.13,35.13,0,0,1,3.64-.2,56.18,56.18,0,0,1,6.57-2.21c1.17-2.92,2.79-3.25,4.68-.65a10.82,10.82,0,0,1-.91,6.83l-2.14,3.58c-.33.84-1.82,2-4.36,3.57-.2.13-.07.2.33.33a2.42,2.42,0,0,1,1.3,1.24,2.27,2.27,0,0,0,1-.84c.78-.46,1.36-.33,1.56.52a10.73,10.73,0,0,1-.39,2.79,35.66,35.66,0,0,1,3.64,2.93,12.75,12.75,0,0,1,4.29,3.51,7,7,0,0,0,1.3-1.69c.39-.84,1.1-2.73,2.14-5.59a233.14,233.14,0,0,1-9.49-25.16l-.91.39A2.66,2.66,0,0,1,287,22.07a14.42,14.42,0,0,1-4.68,5.33c-3.51,1.5-5.92,1.63-7,.06-1.37-2.54-1.5-4.35.52-4.35a19.86,19.86,0,0,0,4.75-2.54,8.79,8.79,0,0,0-1,.13,5.73,5.73,0,0,1-5.4-3,3.93,3.93,0,0,1-.58-3,1.84,1.84,0,0,1,2-1.11,92,92,0,0,0,9.88-2.73,11,11,0,0,0-.71-3.25,8.31,8.31,0,0,0-2.34-2.54c-1.62-.71-1.88-2-.78-3.51,2.14-1.23,4.42-1.1,7,.33a11.71,11.71,0,0,1,2.6,6.44A15.12,15.12,0,0,0,294,6.07a3.12,3.12,0,0,1,3.38-.84,12.27,12.27,0,0,1,3.77,2.21q1.27,3.12-1.75,5.07a60.16,60.16,0,0,0-5.92,4.29A93.5,93.5,0,0,0,298,32.14c.07.19.07.33.13.26a3.54,3.54,0,0,0,.33-1.5c-.13-4.75,0-7.8.39-9.23a5.08,5.08,0,0,1,2.6-2.92,3.45,3.45,0,0,1,2.41.91c2.21.46,3.05,2,2.79,4.49-.58,6-1.3,12-2.41,17.81a40.62,40.62,0,0,0,6,9.68,11.85,11.85,0,0,0,1.56.85,14.83,14.83,0,0,0,2-3.25c.39-1.11.91-1.37,1.37-1,.52.71.71,2.41.78,5,.06.39.32.71,1,1a9.43,9.43,0,0,1,.46,6C316.94,62.17,315.19,62.82,312.13,62.3ZM278.2,35.13q-.68.29-1.56.58a21,21,0,0,0,1.24,2,8,8,0,0,0,2.6-1.89q.49-1.37.78-2.14A12,12,0,0,1,278.2,35.13Zm11.05,9.42c-.52-.65-1.5-1.75-2.86-3.45a2.48,2.48,0,0,1,.33-3,7.25,7.25,0,0,1,4.36.2q3.61,2.24,1.75,5.85C291.2,45.92,289.84,46.31,289.25,44.56Zm20.28-33.09c-1,1.88-2.27,2.47-3.71,1.37-.78-.46-1.56-2-2.4-4.55-1.37-1.69-1.37-3.12.26-4.09a5.75,5.75,0,0,1,5.4,1.37,6.58,6.58,0,0,1,1.56,2.86A3.75,3.75,0,0,1,309.53,11.47Z"/><path d="M354.25,27.27a10.61,10.61,0,0,0-5.4.65c1,5.92,2,12.35,2.54,19.24a14.19,14.19,0,0,1-3.9,11.44c-1.5,1.17-2.73,1.17-3.58-.26a1.43,1.43,0,0,0-.26-1c-.84-.2-1.17-.91-1.11-2-.91-1.17,1.56-1.82,2.21-2,.26-2,.45-4,.52-6A19.54,19.54,0,0,1,340,49.43a25.19,25.19,0,0,0,.13,6.57,1.71,1.71,0,0,1-.91,1.3,4.57,4.57,0,0,0-1.62,3.12c-.46.78-1,.65-1.56-.52-1.43-3.25-1.82-7.22-1.5-11.9a61.17,61.17,0,0,1,2.6-14.76c1.37-4.29,3.05-6,5.07-4.29.71-.33,1.43-.58,2.14-.84-.26-.84.52-1.3,2.41-1.24q1.75-1.46,3.51-3.12a34,34,0,0,1-3.51.78c-7,1.5-11.31,3.58-13.13,6a12.33,12.33,0,0,1-1.82,4c-.78,2.14-1.82,2.79-3,1.36a16,16,0,0,1-1.11-6,9.52,9.52,0,0,1,.33-3.51c1.11-3.38,3.12-3.9,5.92-1.62.71-.33,1.5-.65,2.41-1a15.72,15.72,0,0,1-1.43-7A26.69,26.69,0,0,1,336.7,6.59c1-1.56,2.14-2.15,3.38-1.5A4.5,4.5,0,0,0,343,6.53l6-.71c1.75-1.5,3.31-1.69,4.62-.39,1.17,3.38.78,8.51-1.11,15.41,2.21.13,3.58.84,4,2.21C356.85,25.38,356.14,26.81,354.25,27.27Zm-9.62,12.42a4.58,4.58,0,0,0-1.88,0,6.31,6.31,0,0,1-2.67,1.43,12.66,12.66,0,0,0-.33,3.45,16.78,16.78,0,0,1,5-1.24A13.57,13.57,0,0,0,344.63,39.68Zm3.9-28.86a13.23,13.23,0,0,0-6.76.71A28.28,28.28,0,0,0,340.54,22c.13.26.46.13,1.11-.33a28.36,28.36,0,0,0,.39-6.5A3.06,3.06,0,0,1,345.22,13c1.69-.07,2.93.13,3.71.78C349.18,12.18,349,11.27,348.53,10.82ZM344,31.1a10.85,10.85,0,0,0-2.79,4.35,10.25,10.25,0,0,1,3.12-.13A30,30,0,0,0,344,31.1Zm2.14-14.24c-.52.58-1.1,2.08-1.75,4.55.91-.2,1.75-.39,2.6-.52a31,31,0,0,0,1.63-4.68ZM377.2,58.6a121,121,0,0,0-21.26.78c-1.75-.26-2.86-1.82-3.38-4.55-.06-1.75.91-2.6,2.79-2.47l5.46-.78a5.77,5.77,0,0,0,0-3.32A15.34,15.34,0,0,1,359.58,46c-.58-1.3-1.11-2.28-1.5-3.12a6.54,6.54,0,0,1,1.69-6.31,1.68,1.68,0,0,1,1.76.58,69.35,69.35,0,0,1,12.22-1.88c1.11-1.56,2.6-1.5,4.49.06q1.27,3.71-1.17,8.19c-.91.78-1.82,1.5-2.73,2.21a25.49,25.49,0,0,1,0,5.46,23.45,23.45,0,0,1,7.67.26,5,5,0,0,1,2.34,5.4C382.85,58.21,380.45,58.79,377.2,58.6ZM378,25.83A16.15,16.15,0,0,1,371,28.11a29.08,29.08,0,0,0-7.54,1.3c-2.08.71-3.64.52-4.62-1a8.59,8.59,0,0,1-.46-.85l-.65-1.23c-1.62-5.66-2-10.34-1.1-14,.71-1.82,1.88-2.41,3.45-1.56a32,32,0,0,1,4-1c-.07-3.25.46-5.26,1.75-6,1.75.13,2.79,1.3,3.19,3.38-.07.78-.13,1.56-.26,2.41a11.72,11.72,0,0,1,2.08-.2V4.9a8.53,8.53,0,0,1,1.63-2.6c1.1,0,2.21.91,3.44,2.6A39.36,39.36,0,0,1,375.64,9l3.38.39a4.75,4.75,0,0,1,4.49,1.17c1.75,2.21,1.82,4.55.65,7.21C382.33,21.67,380.45,24.41,378,25.83Zm-4.23,7.35a46.29,46.29,0,0,1-9.56,2.34,5.39,5.39,0,0,1-3.71-.58,4.84,4.84,0,0,1-.33-3.45,3.22,3.22,0,0,1,2-.84,93.22,93.22,0,0,0,10.6-2.47A3.8,3.8,0,0,1,376,29.8,3.62,3.62,0,0,1,373.82,33.18Zm-9.88-10.6A2.28,2.28,0,0,1,361.6,21c-.19-2,.46-3.19,2-3.58l.06-2.08a12,12,0,0,0-2.92,1.37c.52,5.07,1.17,7.67,1.75,8.13q.68-.19,1.56-.39A5.6,5.6,0,0,1,363.94,22.58Zm-.39,19.83c.39.46.78.91,1.24,1.36,3.71-.84,5.92-1.95,6.76-3.25A40.38,40.38,0,0,0,363.55,42.41Zm2.79,5.92v2.92a22.8,22.8,0,0,1,3.64-.06,14.59,14.59,0,0,0,.33-3.77A32.41,32.41,0,0,1,366.34,48.33Zm3.19-26.91c-.52.13-1.17.33-2,.52a16.1,16.1,0,0,1-.13,1.82l2.08-.52ZM367.9,14.2a14,14,0,0,0-.13,2,15.44,15.44,0,0,0,2.34-.58c0-.46.06-1,.13-1.75A9.7,9.7,0,0,0,367.9,14.2Zm7-.91L374.47,15c1.23-.26,2,.13,2.21,1.37-.2,1.69-1.3,3-3.25,3.9-.2.91-.39,1.69-.58,2.41a2.24,2.24,0,0,1,1.3.32c2.41-1.23,3.71-3.83,3.9-7.93C377.59,13.55,376.55,13,374.86,13.29Z"/><path d="M398.45,52.36c-1.1.58-2.21-.07-3.25-1.69a40.57,40.57,0,0,0-2.79-4c-.78-2.47-.84-4.09.07-4.75l.52-.58c1.24.13,2.34,1,3.32,2.67,1.37.07,2.21,1.17,2.67,3.12A8.31,8.31,0,0,1,398.45,52.36ZM451.36,23,448.7,21.8c-1.23,1.69-3.05,1.82-5.39.52a32.52,32.52,0,0,1-11.44-10.6,4,4,0,0,0-4.36,0,53.53,53.53,0,0,1-7.15,6.18A45.71,45.71,0,0,0,417,22c1.69,1.37,1.3,3.19-1,5.13a7.23,7.23,0,0,1-4.09,1.56,9.69,9.69,0,0,1-2.28,5.13,12.15,12.15,0,0,1,4.94-.78c1,.26,2.08.52,3.19.71a22.76,22.76,0,0,1-1-2.73c-.33-1.75.58-2.54,2.6-2.28a16.18,16.18,0,0,1,5.52-1.69,4.83,4.83,0,0,1,3.58-.58c1.24.26,1.63,1.3,1.43,2.86a7.12,7.12,0,0,1-.91,2.4,11.11,11.11,0,0,1,1.88-1,9.15,9.15,0,0,1,1-3c.39-1.49,1.37-1.88,2.79-1.23,2-.39,4.16-.78,6.5-1.17,2,.26,3.05,1.63,3.18,4a16.12,16.12,0,0,1-3.9,4.36c1.37,1.17,1,2.47-.71,3.83.46.58,1,1.24,1.56,2,.91,1.23.52,2.14-1,2.54a64.85,64.85,0,0,0-9.88,9.23,3.38,3.38,0,0,1-2.67,2.34c-.58.78-1,1.1-1.24,1.1s-.33-.52-.13-1.3a21.53,21.53,0,0,1-5.92-4.42,32.81,32.81,0,0,1-4.29,3.51,31.83,31.83,0,0,0-5.2,6.11c-1.37.26-2.54.52-3.58.78-1.17.58-1.5.13-.91-.91a3.67,3.67,0,0,0-1.37-1.23,1.78,1.78,0,0,1-.52-2.54,4.9,4.9,0,0,1,2-1.56,11.76,11.76,0,0,0,4.09-.71,15.71,15.71,0,0,0,3.58-8.13,49,49,0,0,0,.46-8.06c-.2-.33-.52-.39-1.17.26a12.43,12.43,0,0,0-3.12,1.24A8.06,8.06,0,0,1,413.34,41a1.93,1.93,0,0,1-.33,2c-.84,2.28-1.82,2.86-2.47.52a10.18,10.18,0,0,1-1-5.4c-1.11.46-2.21,1-3.38,1.5A4.86,4.86,0,0,1,408.53,44c-.78,2.73-1.82,3.64-2.93,1.56a12.37,12.37,0,0,1-1.17-5.2A23.36,23.36,0,0,1,402,41.7q.88,1.27,1.75,2.73a7.15,7.15,0,0,1,.2,3.77,1.53,1.53,0,0,1-2.41-.2c-1.62-2.67-2.41-4.94-2.34-6.89-.58-1-1.11-2-1.62-3.05a3.46,3.46,0,0,1,.52-3.51A73.39,73.39,0,0,1,396.7,18.1a29.63,29.63,0,0,1,2-10.14l.46-.65c.26-3.77,2.14-4.23,5.39-1.56l8.26-2c2.47-.13,3.77.65,3.64,2.47-.19.78-.33,1.56-.46,2.34,0,1.17-1,1.69-2.73,1.69h-.72c.65.52.65,1.5.13,2.79,1.95-.52,3.31-.2,4,1.1a8.06,8.06,0,0,1-1.5,3.51,3.5,3.5,0,0,1-2.28,1.75c-.26.91-.52,1.88-.71,2.86a24.41,24.41,0,0,1,3.12-.65c1.3-2.54,2.54-5,4-7.28,2.08-3.38,4.49-6.63,6.83-9.88,1.49-1.62,3.38-1.43,5.65.52,2.08-.13,4.16,1.11,6.31,3.58,3.71,2.67,7.48,5.33,11.31,8.06,1,.26,1.56,1.1,1.69,2.54a10.78,10.78,0,0,0,2,1.37C453.83,22.07,453.18,22.84,451.36,23Zm-44,7.22a12.13,12.13,0,0,0-4.42,2.28c.2.71.13,1.23-.39,1.49-.33.59.06.72,1.17.52.91-1,2-2,3.12-3a3.55,3.55,0,0,0,.71-1C407.55,30.32,407.55,30.25,407.36,30.19Zm.52-8.91c-1.82.71-3.58,1.5-5.33,2.34v1.11a13,13,0,0,0,1.69-.07A4.48,4.48,0,0,0,408,22.91,12.77,12.77,0,0,1,407.88,21.28Zm-3.25-8.78a2.57,2.57,0,0,0-1.56,2.34l5.07-.2c1.3-2.14,1.37-3.05.85-3.25A28.54,28.54,0,0,1,404.63,12.51Zm27.43,25.16a37.14,37.14,0,0,1-1.56-4.49,17,17,0,0,0-4.42,4.75c-3.32,2.27-5.66,2.54-6.76.46l-.13.46a64.87,64.87,0,0,1-.58,7.21l4.49-5.26a4.34,4.34,0,0,1,3.83.13c1,.65,1.17,1.43.52,2.14a3,3,0,0,1-2.54,2.15c-.58.58-1.3,1.17-2.08,1.82,2.54.26,4.42.91,5.59,2a105,105,0,0,1,6.89-10.27C433.36,38.77,432.12,38.51,432.06,37.67ZM431.47,23a32.31,32.31,0,0,1-5.66,1.56,5.33,5.33,0,0,1-4.22-3.32c-.78-1.75-.2-3.18,1.63-4.29l7.21-.91c2.08-1.3,3.51-.65,4.16,1.82A5.89,5.89,0,0,1,431.47,23Zm-7.61,6.89a1.81,1.81,0,0,0-1.17.52,2.43,2.43,0,0,0-.84,2.27l.07,1c-.07.78.13.91.45.78A5.54,5.54,0,0,0,424.58,33a5.55,5.55,0,0,0,.71-2C424.78,29.8,424.39,29.35,423.87,29.87Zm13.78-1.24a7.92,7.92,0,0,0-2.34,1,4.91,4.91,0,0,0-.65,3.45c.06.78.26.84.78.26l1.76-.91a3.22,3.22,0,0,0,1.56-2.21C438.82,28.7,438.43,28.37,437.65,28.63ZM447.46,57c-1.11,1.11-2.21.91-3.38-.33a54.26,54.26,0,0,0-5.13-4.42l-.84-.78a4.63,4.63,0,0,1-2.34-2.92c-.13-1.82,1-2.67,3.25-2.47,2.67.19,4.75.91,6,2.14,2.41,2.21,3.51,4.16,3.12,5.66A23.26,23.26,0,0,0,447.46,57Z"/></g></g></g></svg>