<svg xmlns="http://www.w3.org/2000/svg" viewBox="0 0 521.26 121.34"><title>video_txt</title><g id="圖層_2" data-name="圖層 2"><g id="圖層_1-2" data-name="圖層 1"><g id="video_txt"><path d="M169.87,20.68a3,3,0,0,0,.92,3.16,2.55,2.55,0,0,1-.64,3.6,10,10,0,0,0-3.4,1.48c-.84.32-1.52.24-1.24-.68A7.84,7.84,0,0,1,168,26a9,9,0,0,1-1.32-3.76,5.47,5.47,0,0,1-4.48.8l-.56-.56a3.71,3.71,0,0,1,1.12-3.68c1.48-1.08,2.92-2.16,4.36-3.24a4.64,4.64,0,0,1,3.64.6A4.26,4.26,0,0,1,169.87,20.68Zm-1.64-8.44a15.43,15.43,0,0,0-4.36-1.68,2.48,2.48,0,0,1-1.24-2.28c.76-1,2.16-1.56,4.2-1.88a5.33,5.33,0,0,1,4.6,3.28C171.27,12.16,170.19,13.12,168.23,12.24Zm26.25,22.68a3.24,3.24,0,0,1-1.52.28c-.2,0-.44.16-.72.6a5,5,0,0,0-.24,1.12,2.18,2.18,0,0,1-2.12.56,38.2,38.2,0,0,1-15.6-2.08,10.72,10.72,0,0,0-7.16-1.64c-2.32.28-3.8-.08-4.2-1.28-.32-1.44.48-2.44,2.24-3a21.32,21.32,0,0,1,7.6-.2,35.7,35.7,0,0,0,4.32-6.6,2.76,2.76,0,0,1-2.32-2.44c0-1.36,1.4-2.52,3.92-3.48a6.82,6.82,0,0,0,.12-1.24c-2.76.44-4.72.12-5.84-1-1.2-2.32-.68-3.72,1.6-4,.8-.28,1.6-.52,2.4-.76A6,6,0,0,1,174.35,6a10.14,10.14,0,0,1-.28-1.36,4.55,4.55,0,0,1,0-2.2,3.15,3.15,0,0,1,4.08.24,23.87,23.87,0,0,0,1.32,4.48,1.69,1.69,0,0,1-.16,2c1.12-.28,2.24-.56,3.36-.8,1-1.84,2.12-3.68,3.2-5.56A1.9,1.9,0,0,1,188,1.24c1.76,1.12,2.44,2.28,1.76,3.52a19.21,19.21,0,0,1-3.84,3.12c1.64,0,2.68.6,3.08,1.8,0,1.2-.8,2.08-2.24,2.72-1.4.84-2.6,1.52-3.56,2.08a2.85,2.85,0,0,0-.16.88,15.36,15.36,0,0,1,3-.32c1,.44,1.36,1.6,1.16,3.32-.08,1-1.2,1.8-3,2.64a10.66,10.66,0,0,1-2.64,1A18.58,18.58,0,0,1,178,26.76c-1,.92-2.16,1.88-3.24,3a2.76,2.76,0,0,0,.52.44,15.91,15.91,0,0,0,5.12,1.48c6,.16,10,.52,12.2,1.08a3.93,3.93,0,0,1,2.44.36A1.39,1.39,0,0,1,194.48,34.93Zm-8-5.28a15.59,15.59,0,0,0-2.56-4,2.62,2.62,0,0,1,.2-2.68,4.84,4.84,0,0,1,4.4,1.16c1.2,1.84,1.4,3.44.52,4.76C188.72,30.84,187.8,31.13,186.44,29.64Z"/><path d="M213.45,21.64a3.37,3.37,0,0,1-2.52-.28A96.21,96.21,0,0,0,211,34.93a1.57,1.57,0,0,1-.88,1.12c-.28.08-.56.4-.88,1.12s-.92.36-1.32-.48c-.92-3.08-1.16-7.32-.72-12.68-.56.68-1.08,1.24-1.56,1.76a1.84,1.84,0,0,1-1.4.84,1.49,1.49,0,0,0-1.48.32c-.68.2-.92-.24-.56-1.44.88-1.92,2-4.36,3.52-7.36a17.3,17.3,0,0,0-2.16.84c-.8.16-1.32-.08-1.44-.76l-.12-1c-.24-1.08.28-2.08,1.48-3,2.28-1.24,4.6-2.44,7-3.6a2.79,2.79,0,0,1,2.16-.48c1.76.8,2.4,1.8,1.72,3a14.26,14.26,0,0,0-2.56,4.24,4.23,4.23,0,0,1,2.64,2.24A2,2,0,0,1,213.45,21.64ZM212.73,7a9,9,0,0,1-4.8-.36c-1.2-.76-1.44-1.84-.72-3.28.72-.48,1.28-.88,1.8-1.16a3.69,3.69,0,0,1,3,0,2.83,2.83,0,0,1,2.6,2.68A2.37,2.37,0,0,1,212.73,7Zm21.44,30.17a77.89,77.89,0,0,0-17.52.32,4,4,0,0,1-2.92-1.8c0-1.72.72-2.68,2-2.76s2.8-.16,4.2-.2a8,8,0,0,0,0-2.4,11.48,11.48,0,0,1-2.08-4.44c0-2,.4-3,1.56-2.8l1.2.48c2.8-.68,5.28-1.2,7.44-1.52a1.81,1.81,0,0,1,2.4-.8c1.28.24,1.64,1.2,1.16,2.76A9.6,9.6,0,0,1,229,27.2a.89.89,0,0,1-.36,1.2,2.46,2.46,0,0,1,.12,2.56,10.57,10.57,0,0,0-.8,1.32c2-.08,4-.12,6-.08a3.87,3.87,0,0,1,2.32,2A2.5,2.5,0,0,1,234.17,37.13Zm-7-19.52-.08.16c.56.08,1.16.16,1.8.2.52.48.56,1.24.24,2.28a12.4,12.4,0,0,1-3.24,1.68,21.42,21.42,0,0,1-5.44,1c-.64,0-1.08-.44-1.28-1.24-.32-1.12,0-1.84,1-2,2.72-.88,4.24-1.68,4.68-2.4l-.8.08a7.51,7.51,0,0,1-4,1.16c-.76.76-1.8-.32-3-2.48a47.75,47.75,0,0,1-.8-6.64c.2-1.88.84-3.08,2-3.52l2.2.48A5.72,5.72,0,0,1,221.77,6c0-1.36.12-2.24.52-2.6,1.56-.24,2.4.2,2.32,1.4,0,.2-.08.44-.12.64a6.19,6.19,0,0,1,1.24-.24,12.26,12.26,0,0,0-.24-2.52,1.62,1.62,0,0,1,1.44-1.28,3.11,3.11,0,0,1,2.76,2.32c-.24.52-.44,1-.64,1.56a4.77,4.77,0,0,1,2.48.76A2.93,2.93,0,0,1,234,5.48a4,4,0,0,1,1,4C234.17,13.56,231.53,16.28,227.21,17.6ZM220,9.92c0,1,0,2.12,0,3.32.24.76.52,1.56.8,2.36.4,0,.56-.16.56-.4V14a1.92,1.92,0,0,1-1-1.88,1.41,1.41,0,0,1,1-1.64,1.42,1.42,0,0,0,.36-1.28A3,3,0,0,0,220,9.92ZM222.09,26a3.72,3.72,0,0,0,.24,1.56c2.44-.32,3.92-1.16,4.52-2.52C225.37,25.36,223.81,25.68,222.09,26Zm1,4.64c-.08.56-.16,1.16-.24,1.84a8,8,0,0,1,2.4,0c.28-.92.64-1.88,1-2.92A15.87,15.87,0,0,1,223.13,30.65Zm.52-16.8c-.16.48-.28.92-.4,1.36a4.25,4.25,0,0,0,1.56-.92,3.65,3.65,0,0,0,0-.64C224.45,13.72,224,13.8,223.65,13.84ZM224,8.6A4,4,0,0,0,224,9.8l.8.12a3.22,3.22,0,0,0,.56-1.52A4.51,4.51,0,0,0,224,8.6Zm4.44-.68V8.8A1.87,1.87,0,0,1,230.17,10a3.88,3.88,0,0,1-2.12,2.52V14l1.24-.2a16.43,16.43,0,0,0,2.12-6.72A13.36,13.36,0,0,0,228.49,7.92Z"/><path d="M275.71,34.69c-.36.68-.72,1.08-1.16,1-.84-.08-1.28.16-1.44.72a1.25,1.25,0,0,1-1,1.28,6.69,6.69,0,0,1-2.48.44,44.76,44.76,0,0,1-10.6-.92,52.67,52.67,0,0,1-6.52-2.72,6.19,6.19,0,0,0-4.44-.08,9,9,0,0,1-2.92.32c-.6-.08-1-.72-1.48-1.72s-.52-1.6-.08-1.88.64-.44,1-.68c0-1,.24-1.56,1-1.56a9.44,9.44,0,0,0,4-2,5,5,0,0,1-2.4-1.6,9,9,0,0,1-1-4.28c-.32,0-.6.32-.84,1-.8.32-1.4.32-1.8-.16a9.52,9.52,0,0,1-.36-3.12,5.16,5.16,0,0,1,2-2.56,12.63,12.63,0,0,1,3.56-1.24,3.27,3.27,0,0,1,2.32.72,4.59,4.59,0,0,1,.76,3.24A18.68,18.68,0,0,1,250.14,20a2.76,2.76,0,0,0-.6,2.76,10.33,10.33,0,0,0,2.2,1.76,2.28,2.28,0,0,1,.44,2.56,8.68,8.68,0,0,0-3.2,1.24,12.24,12.24,0,0,0-1.08,1,6.43,6.43,0,0,1,3.68-.16c.8.2,1.72.48,2.8.76a33.4,33.4,0,0,0,2.36-3.72,6.15,6.15,0,0,0-1.6.52,1.75,1.75,0,0,1-1.72-.64c-.84-1.08-1-2-.08-2.44a15,15,0,0,1,3.6-1.36V20.92a3.33,3.33,0,0,1-2.4-1c-.8-1.16-1-1.88-.64-2.12a7.89,7.89,0,0,1,2.76-1.28l-.16-.88a2,2,0,0,0-1.44-.2,1.2,1.2,0,0,1-2-.2,4.85,4.85,0,0,1,.2-2.4c.08-.68.2-4-.2-4.56-.24-.68-1.24-2.92-1-3.68A2.78,2.78,0,0,1,253,2.44a11.35,11.35,0,0,1,4.44-.68,1.41,1.41,0,0,0,1.2-.84A1.62,1.62,0,0,1,260,.6c.64.32.76.88,1.2,1.2a3.91,3.91,0,0,1,.56,2c-.2.68-.4.8-1.08,1.56l-1.36,1.4a3.89,3.89,0,0,1-1.2,2.08,22.05,22.05,0,0,1-2.28,1.56,4.77,4.77,0,0,0-.24,1.84,16.19,16.19,0,0,0,3.28-1.6c.8-.32,1.44-.36,1.8,0a2.76,2.76,0,0,1,0,2,1.74,1.74,0,0,1-.56,1,3.8,3.8,0,0,1,0,1.16c-.16.4-.28.72-.36,1,1.32-.36,2.6-.72,3.84-1.12a3.22,3.22,0,0,1,.16-1.56c-.6,0-.72-.68-.72-1.48,0-1.16.24-3.2.2-4.36,0-.36-.76-.88-.68-1.16s-.6-1.64-.32-1.8c-.16-.16.52-1.28.52-1.6-.08-.68.64-.12,1.32-.12A10.58,10.58,0,0,0,267.1,1c.36-1,1.12-1.24,2.16-.76a4.88,4.88,0,0,1,2,2.2A3.47,3.47,0,0,1,271,4.16c-.4.48-.72,1.84-1,2.24-.84.16-1.2,0-1.56.64s-1,.56-1.48,1.08c-.28.28-.6.56-.92.84-.2.56,0,.68,0,1.48a12.8,12.8,0,0,0,2.2-1.08h1.56a1.4,1.4,0,0,1-.2,1.8,2.69,2.69,0,0,1-2.08,1,1.32,1.32,0,0,0-.68.8c.4.56-.28,1.4.28,1.36,1.88-.16,2.32.4,2.36,1.48,0,1.28-.48,2-1.44,2.12a6.82,6.82,0,0,0-1.64.2,8.49,8.49,0,0,1-.56,1.48,17.19,17.19,0,0,1,5.16-.52c.64.12.72.8.36,1.68a8.35,8.35,0,0,0-.44,1.72,1.41,1.41,0,0,1-1.6.92,14.62,14.62,0,0,0-3.88.36c-.64.24-1.4.48-2.36.76-.56.08-1.28.64-2.12,1.8a3.12,3.12,0,0,1-1.44,1.52l-1,1.4c-.36.32-.68.6-1,.84a3.36,3.36,0,0,0-1.64.52,53.17,53.17,0,0,0,13.92,1.92,67.82,67.82,0,0,1,7.12.24c1.16.24,1.48.72.44,1.32A2.56,2.56,0,0,0,275.71,34.69ZM251,10.88a2.67,2.67,0,0,1-2.44.16,5,5,0,0,0-2.76-.68q-1.08-.48-1.8-.84c-.76-.2-.72-.84-.2-1.68a6.54,6.54,0,0,1,2.44-1.64,3.39,3.39,0,0,1,3,.12,4,4,0,0,1,2.24,2.28A5,5,0,0,1,251,10.88Zm6.52-7.44q-.06-.24-.24-.12a2.27,2.27,0,0,0-1.08,1.24c-.52.36-.44.48-1.2.72-.12,0-.16,1-.24,1.12.52.72.24,1.16.56,1.08,1.08-.52,1.84-.84,2.24-2.2A6.62,6.62,0,0,0,257.54,3.44Zm2.52,16.36a7,7,0,0,0-.08,1.6l2.16-.8c.84-.68.4-1.24.6-1.76C261.78,19.12,260.82,19.6,260.06,19.8Zm9.56,11.76c-.24.56-.72.4-1.24,0-.52-.72-1-1.4-1.4-2a14.88,14.88,0,0,0-2.32-2.68,1.1,1.1,0,0,1,.68-1.56,6.55,6.55,0,0,1,2.92,0,5,5,0,0,1,2,1.72,3.69,3.69,0,0,1,.44,2.8A3.14,3.14,0,0,0,269.62,31.57ZM265.06,5.08c.16.72,0,1.76.24,1.68a4,4,0,0,0,1-.44A3.35,3.35,0,0,0,267,4.16,5.22,5.22,0,0,1,265.06,5.08Z"/><path d="M313.52,26.12c-.84,1.68-2.56,3-5.28,3.8-1.76.48-3,0-3.4-1.36a4.27,4.27,0,0,0-1.28-2.4c-.08-.52.28-.76,1.12-.56,1,0,2.2,0,3.48,0,.8-.32,1.48-1.16,2.08-2.68.16-.68.28-1.4.4-2.16,0-.52-.16-.56-.36-.48a44.16,44.16,0,0,0-7.48,1.48v.56a2.28,2.28,0,0,1,2.64.44c.08,1-.88,2.12-2.64,3.4,0,3.08.12,5.48.08,7.2a3.23,3.23,0,0,1-1,2.56,5,5,0,0,0-1.56,2.2c-.88.84-1.6.52-1.84-.76a43.39,43.39,0,0,1-.28-9c-1.4.88-2.48,1.52-3.28,1.92-1,.48-2.12,1-3.44,1.8a5.26,5.26,0,0,1-2,.76,10,10,0,0,0-2.24.52c-.72,0-.84-.44-.12-1.36.92-.72,1.92-1.4,3-2.08s2.24-1.36,3.4-2.12c1.52-1,3-2.12,4.72-3l0-2.08c-1.52.4-2.52.68-3,.8a6.64,6.64,0,0,1-1.84.28c-1.12,1-2.08,1-2.72-.08a24.49,24.49,0,0,1-.24-5.4,5.72,5.72,0,0,1,1.88-3.28c.88,0,1.56.68,2.12,2a11.17,11.17,0,0,0-.28,3.32l4.24-.84a1.94,1.94,0,0,0,0-1c-1.76.6-3,.52-3.16-.56,0-1.24.16-2,.76-2.2s1.56-.36,2.52-.6a7.71,7.71,0,0,0,0-1.92c-2,.16-3.24-.24-3.72-1.36a3.21,3.21,0,0,1,1-2.56,38.16,38.16,0,0,0,3.88-.48,11.9,11.9,0,0,1,.88-4.28A23.36,23.36,0,0,0,302.64.92c.68-.8,1.68-.84,3-.2a2,2,0,0,1,.36.8A28,28,0,0,1,309.76.44a5.11,5.11,0,0,1,3.52.64c.44,1.32-.12,2.32-1.52,3a20.42,20.42,0,0,0-2.48.6,2.86,2.86,0,0,1,1.24,2.88c-.88,1.44-2,1.68-3.32.64A9.79,9.79,0,0,1,306,5.48q-.9.12-1.44.24A13.32,13.32,0,0,0,303,8.24c2.36-.48,4.36,0,5.12,1.44a7.45,7.45,0,0,1-2,4.64c-.24,1.32-1.6,2.16-3.48,3v1.32a27.25,27.25,0,0,1,6.12-.76,4.61,4.61,0,0,1,2.24.44,2.53,2.53,0,0,1,1.88-1.8A2.87,2.87,0,0,1,315,19,15.53,15.53,0,0,1,313.52,26.12ZM298.44,4.84a2.76,2.76,0,0,1-1.36.36,8.18,8.18,0,0,0,.4,1.88c-.84,1.84-1.8,2.68-3,2.12-.2-1-.36-2.08-.48-3.2a1,1,0,0,0-1,.4c-.6,1.08-1,1.88-1.4,2.4a1.69,1.69,0,0,1-1.8,1.12,5.62,5.62,0,0,0-1.36.36c-.8.84-1.4.72-1.48-.48A15,15,0,0,1,289,4,11,11,0,0,1,292.59.6c1.48-.28,2.44,0,2.56,1-.32.56-.32.76.56.52l1.76-.48c1.4-.84,2.44-1,2.8,0A3.32,3.32,0,0,1,298.44,4.84Zm4.2,7.44v1.48c1.24-.36,1.32-1.2,1.48-2Z"/><path d="M355.77,22.08a5.71,5.71,0,0,0-4.64-1.84c-10.68.44-17.24,1.48-20.16,3.24a5.08,5.08,0,0,1-5.48-.32,5.11,5.11,0,0,1-2.28-3c.16-1,1.44-1.8,3.6-2.4,8.32-1.36,15.88-2.64,23.29-2.24.56,0,1.08.16,1.56.24,1.84.28,2.76,0,3-.6.92-1.16,2.52,0,4,1.68,1.28,1.76,1.56,3.32.76,4.68C358.17,22.76,356.93,23,355.77,22.08Z"/><path d="M22.74,97.06c-1.11.78-3.25.19-6.24-1.37q-.1,11.51.19,19.51c-.19,3.32-1.43,2.47-2.6,4.62-1.5,1.63-2.8.46-3.58-2.21a23.89,23.89,0,0,1-.78-8.45c.26-4,.39-7.8.52-11.38a23.07,23.07,0,0,0-2.73,3.64c-2,3.38-3.58,5.85-4.75,7.48-2.73,2.34-3.32.84-2.34-2.54,1.5-3.19,3-7,4.68-11.18C6.68,91.4,8,88.28,8.89,85.75c-2.8.85-4.94-.33-6.44-3.38A3.43,3.43,0,0,1,4.6,78.14a54.74,54.74,0,0,0,5.07-2.93l.39-.52c.13-2.47.2-4.75.2-6.89-.26-1.69.13-3,1.24-3.77a5.85,5.85,0,0,1,5.4,1.43c.78,1.5,1,3.84.65,7,2.34.52,3.71,2.6,4.23,6-.07,1.89-1.5,4.16-4.23,6.83a41.77,41.77,0,0,0-.65,4.88,10.65,10.65,0,0,1,6.63,2.15C24.56,94.39,24.37,96,22.74,97.06Zm30.88,19.57a167.4,167.4,0,0,0-28.87,1.63c-2,.58-3.64-.58-4.94-3.25-1-2.86-.91-4.88.91-5.14a107.78,107.78,0,0,1,12.09-1c0-1.24,0-2.47-.06-3.77-2.41.58-4.16.13-5.27-1.5-1.24-2.73-1.43-4.68-.13-5.66a26.56,26.56,0,0,1,5.53-2,23.7,23.7,0,0,0,.13-3.9c-2.73,1.43-4.88,1.56-6.37.13C25.54,90,25.28,88.28,26,87a35.7,35.7,0,0,1,6.5-2.54l-.13-1.62a10.25,10.25,0,0,1-6.57-2.67c-1.89-2.41-1.89-4.36.33-5.59l6.11-2.08c.13-2.67.26-4.88.33-6.7.52-3.12,1.37-5.14,2.73-5.79,1-.91,2.21-.2,3.71,1.3s2.54,4.42,2.8,8.32c3.38-.07,5.33.91,5.33,3.12a7.47,7.47,0,0,1-2,5.2,20,20,0,0,1-4.81,3.19v1.24c2.86-.71,5.07-.78,6.7-.07.72,2.54.72,4.42,0,5.79-2,.84-4.23,1.75-6.7,2.73v2.8c2.93-1,5.07-.71,6.18,1.11,1,3.19.85,5.4-1,6.37A40.12,40.12,0,0,1,40.43,103a26,26,0,0,1-.26,5.2c3.64-.26,7.15-.32,10.53-.26a6.43,6.43,0,0,1,6,3.45C57.72,114.55,56.68,116.37,53.63,116.63Z"/><path d="M122.48,96a11.1,11.1,0,0,1-1.89-1.56c-1-1.17-1.56-1.17-1.89-.84a3.53,3.53,0,0,1-4.36,1.24,48.81,48.81,0,0,1-13.07-8,85.33,85.33,0,0,0-9,10l1.17.65c6.57-2.21,11.9-3.32,16-3.25a4.79,4.79,0,0,1,3.51,1.88c2.41,1.76,3.12,4.23,2,7.35a56,56,0,0,1-2.34,5.92,5.38,5.38,0,0,1,.85,5.14c-.78,1.11-2.28,1.69-4.29,1.82l-10.86.72a5.55,5.55,0,0,0-1.76.58c-1.11.52-2.41-.71-3.77-2.86-3.19-7.22-4.42-12.42-3.58-15.54a24.89,24.89,0,0,1-4.36,2.6c-1.3.52-2.67,1-4,1.56-1.76.85-2.41,2-2.15,3.32l.33,6.44c.06,1.82-.13,3.12-.85,3.9a6.75,6.75,0,0,0-2,1.63c-1.24,1.11-2.34.52-3.19-1.11-1-2.28-.91-8.84.2-19.57-1.11,1.3-2.08,2.47-3,3.45a6.8,6.8,0,0,0-1.43,2.08,4.87,4.87,0,0,1-3.58,2.15c-1.37.33-2.15-.32-2.21-1.75a14.41,14.41,0,0,1,2.67-6c.91-1.3,1.69-2.93,2.73-4.68s2.08-3.64,3.06-5.4c-2.47.39-4.81-.71-7-3.19-1.37-1.56-1.89-2.93-1.24-4a8.76,8.76,0,0,1,4.1-2.86c2.21-.85,3.77-1.69,4.81-2.08L73.79,75a99.35,99.35,0,0,1,.78-11.05,4.73,4.73,0,0,1,2-2.67,1.45,1.45,0,0,1,2.28.71,7.58,7.58,0,0,1,1.24,8c-.72,2.73-.13,3.25,1,2.86a24.15,24.15,0,0,1,4.36-.39A2,2,0,0,1,87,74.63a5.14,5.14,0,0,1,3.19-.84A50.3,50.3,0,0,1,96.8,65.4c2.21-2,4.1-2.6,5-1,1.37,3.19,2.47,3.84,3.38,3.19a26.32,26.32,0,0,0,4.1-3.77c1.17-.91,2.21-1.17,2.93-.39a13.55,13.55,0,0,1,1.43,2.15,3.79,3.79,0,0,1,.58,3.71,33.07,33.07,0,0,1-3.51,3.84c-2,2.28-3.71,4.29-5.14,6,4.36,2.8,8.39,5.79,12.48,8.39,1.76,1.11,3.32,2,4.55,2.86a5.07,5.07,0,0,1,2.73,3.19C125.21,95.63,124.3,96.6,122.48,96ZM93.88,82l-1.24-.32a4.15,4.15,0,0,0-2.6-.2c-1.89.78-3.38.65-4.49-.72-.13-.65-1.11-.32-3,.52A5,5,0,0,0,80,83.41a21.7,21.7,0,0,0-1.37,5.07c-.2.58.52.72,2,.78,1.76.39,3.25.72,4.55,1,1.56.71,2.08,2.21,1.63,4.36-1.43,1.5-4.16,1.82-8.13,1.1,0,2-.06,3.84-.06,5.66A20,20,0,0,1,83.34,98a19.1,19.1,0,0,0,5.2-5.27c1.89-2.73,3.9-5.66,6.18-8.65.46-.85.46-1.3.26-1.56Zm6,21.52q-3.51.68-3.51,1.56a26.18,26.18,0,0,1,1.3,4c1.56-.26,3-.46,4.23-.58s2.6-1.89,3.84-6.24Zm.78-30.95h-.26a5.83,5.83,0,0,0-2.21.33L96.87,74c-.2.2-.26.33.06.59a11.37,11.37,0,0,0,2.8.91c.19.13.65.06,1.3-1C102.07,72.81,101.61,72.48,100.7,72.55Z"/><path d="M190,101.42a3.94,3.94,0,0,1-2.73-1.1,2.51,2.51,0,0,1-3.19,1.17,27.33,27.33,0,0,1-6.18-3.12,32.25,32.25,0,0,1-8.32-5.85c-.46-.39-.58-.33-.46.2a10.71,10.71,0,0,1-2.6,9c.39,1.5-.52,2.79-2.54,4-.39.26-.59.39-.46.52s.52.39,1.37.58c.91-.65,2.08-2.54,3.64-5.66.52-1,1.5-1.24,2.73-.71,2,.91,2.6,2.54,1.76,4.81a11.92,11.92,0,0,1-3.32,3.19c4.23,1.89,7.22,4,9,6.18a4.51,4.51,0,0,1-1.82,5.33,6.76,6.76,0,0,1-3.9-1.76,13.26,13.26,0,0,1-2.73-1.82c-1.43-.85-3-1.76-4.75-2.73a.88.88,0,0,0-.52,1.37c-.58,1-1.82,1.69-3.64,2.6a40.9,40.9,0,0,1-6.5,2.54c-1.24.39-2.67.72-3.51,1-1.69.46-3,0-4.23-1.82s-1.1-3.25.39-4.16l1.76-.39a142.86,142.86,0,0,1,.26-17.75c.33-3.9,1.43-6.24,3.51-6.7a16,16,0,0,0,2.41-.26c1-.13,1-.33.33-.78a2.51,2.51,0,0,1-1.3-2,8.12,8.12,0,0,0-2.41,2.28c-2.73,3.77-4.75,6.76-6.18,8.84a122.86,122.86,0,0,0-7,11.64c-1.24,1.56-2.34,1.24-3.12-.71-.46-1.69.06-3.71,1.63-5.92,2.93-4.1,6.24-8.65,9.82-13.78a5.83,5.83,0,0,1-3-2.21c-1.17-.91-1.37-1.89-.33-2.8,2-.91,5.59-1.5,8.39-2.34,2.15-.26,2.21-1.62,2.6-2.28-3.38.65-5.79,1.63-7,1.69-1.3-.26-2-1.24-2-2.86a3.12,3.12,0,0,1,1.11-2.67,11.58,11.58,0,0,1,3.45-.65c1.24-.13,2.6-.26,4-.46.65-.2.91-.33.91-.52.06-.71,0-1-.33-1a41.57,41.57,0,0,1-6.83,1.3c-1.76-.26-2.8-1.56-3.19-3.71-.33-1.69.46-2.8,2.28-3.25a8.41,8.41,0,0,0-1.89-3.51c-.85-1-.65-2.08.33-3.12,1.82-1.17,3.12-1.3,3.58.2a4.1,4.1,0,0,0,.33,1.89,9.43,9.43,0,0,1,.52,3.84,106,106,0,0,0,14.17-2.41,51.59,51.59,0,0,0,4.42-4.88c.85-1.37,2.08-1.56,3.64-.65,1.63,2.34,2,4,.13,4.29A24.45,24.45,0,0,0,168.91,65a.4.4,0,0,1,.26.13c.26.19.72.46,1.37.84,1.3,1.63,1.37,3,0,4a17.31,17.31,0,0,1-4.68,1.43c-.58.13-1.37.26-2.28.39l-.2,1.37a19.08,19.08,0,0,1,5.4-.58c1.76.71,1.43,3.12-.19,4.68a21.32,21.32,0,0,1-5.2,1.37c-.06.26-.52,1.11-.13,1.24s2-.52,3.19-.65c3.9-.52,6.18-.46,7.09.46a3.87,3.87,0,0,1,.78,3.71,2.27,2.27,0,0,1-2.15,1.43l-1.1.07A30.71,30.71,0,0,0,178.27,90c3.71,2,7,3.84,9.75,5.53,1,1,2,1.82,2.86,2.54C191.8,99.21,191.47,100.31,190,101.42Zm-31.6-.13a8.63,8.63,0,0,1-2.15.52c-.72.13-1.17.91-1.3,2.6,1-.39,2.08-.13,3-.58a7.28,7.28,0,0,0,2.67-1.11,20,20,0,0,0,1.1-3.19A9.69,9.69,0,0,1,158.44,101.29Zm-.13,8.65c-.72-.46-1.37-.58-1.69-1-1,.52-1.37,1-1.3,1.24-.06,1.43-.13,2.67-.13,3.64,1-.2,2.47-.52,4.42-1a5,5,0,0,0,2-1.37C159.55,111.49,158.38,110.84,158.31,109.93ZM159,94.39A5.06,5.06,0,0,0,155.78,96l-.06.78a30.82,30.82,0,0,0,3.19-.65c1.82-.65,3.12-.65,3.64.39a9.29,9.29,0,0,0,.59-3.45A17.79,17.79,0,0,1,159,94.39Zm2.21-8.26,1,1.56c.33.72,1.24,1,3,.72C164,86.59,162.67,85.88,161.24,86.14Z"/><path d="M212.22,110.84a6.29,6.29,0,0,0-.78,3.06c-1,1.56-2.54,1.82-4.36.85a17.68,17.68,0,0,1-3.12-5.33c0-2.6,1.37-3.58,4-2.93a2.86,2.86,0,0,0,2.34.91,3.68,3.68,0,0,1,2.34-.52c.46.13.59.71.06,1.69A9.92,9.92,0,0,0,212.22,110.84Zm42.59,5.27a11.77,11.77,0,0,1-6.31,2.08c-5,0-8.65-1.82-10.47-5.27s-2.67-7.74-2.8-12.74c-2.6.26-5.27.65-8.06,1.17-.85,0-.85,1.17-.85,3.51.06,5.4-.85,9.23-2.47,11.44a5.92,5.92,0,0,1-2.67,3.06c-3,1.43-5,1.5-5.53-.65.13-1.89-.26-2.93-1-3.38a.59.59,0,0,1-.13-1,4,4,0,0,1,1.56-1c2.93-.52,4.23-2.08,4-4.68.06-1.82.13-3.71.13-5.66-2.21.85-4.36,1.5-6.44,2.15-4.29,1.3-7.15,1.37-8.19-.39a2.9,2.9,0,0,0-.78-1.69c-.39-2.6.78-4.49,3.58-5.07l2.6-.52a22.57,22.57,0,0,0-1.43-2,19.17,19.17,0,0,1-1.24-5.85c.71-1.69,2-2.21,3.84-1.62-.33-1.69.65-3.06,2.8-4a98.68,98.68,0,0,1,14.63-4.36,34,34,0,0,1,8.13-2.47c1.24-2,2.6-2.93,4.23-2.67,1.17,1.17,1.5,3.25.85,6.11a13.94,13.94,0,0,1-1.43,4.29A50.42,50.42,0,0,0,240,94.2a35.46,35.46,0,0,0,.46,9.3c.85,4.49,3.06,6.7,6.11,7a10.36,10.36,0,0,0,4-.13c.65-.26.85-.65.59-1.24-.26-2-.2-3.38.65-4,1.24.33,2,1.37,2.47,3,.13.26.52.46,1.37.58,1.89.39,2.6,1.63,2.08,3.38A8.82,8.82,0,0,1,254.8,116.11ZM236.86,66.83c-1.37.65-3.12,1.24-5.14,2.28-4.55,1-7.48,1.37-8.78.33a14.79,14.79,0,0,1-2.34-2.08,5.78,5.78,0,0,1-4.1,3.58c-1.37-.13-3.25.72-5.66,2.67-2.73,1.37-4.68,1.69-5.14.06a6.35,6.35,0,0,1,2.47-5.46,53.41,53.41,0,0,1,5.14-5.2,8.75,8.75,0,0,1,3.25-1.76l.71-.33c2-.71,3.19,0,3.64,2,0,.58.2.85,1.5.39,2-.78,4.42-1.56,7.22-2.47,2.8-1.63,5-2.21,6.7-1.5,1.63.39,2.54,1.63,2.67,3.58C239.53,64,238.61,65.33,236.86,66.83ZM219,93.09a1.91,1.91,0,0,0-1-.84,3.16,3.16,0,0,0-1.63-.91,6.73,6.73,0,0,1-1.43-.2c-.26.13-.26.58-.06,1.37.65,1.37.91,2.41.46,3a2.46,2.46,0,0,0-.33,1c1-.33,1.89-.58,2.86-.85,1.5,0,2.28-.13,2.28-.65A4.28,4.28,0,0,0,219,93.09Zm17.1-19a19,19,0,0,1-2.8,2.8c-5.59,2.28-9.82,2.93-12.74,1.89-2.15-1.69-3.19-3.32-2.86-4.88.46-1,2-1.56,4.36-1.62,1.3-.39,2.15.06,3.19-.33a16.6,16.6,0,0,0,4.29-1c3.71-1,6.57-2,7.48-.65.06.71.13,1.43.13,2.21A2.2,2.2,0,0,1,236.14,74ZM225.87,87.89l-.85.52c-.26.06.13.19,0,1.5,0,.46.06,2.47.39,2.08a38,38,0,0,1,2.86-4.68c.13-.2.26-.33.32-.46A19.72,19.72,0,0,0,225.87,87.89Zm8.19,22.76c-.72,1.5-2.28,1.56-4.23.59A10,10,0,0,1,227.3,107c-.71-2.15-.65-3.64.91-3.9,1.5-.46,2.73-.33,3.45.39.39-.72,1.17-.52,2.34.84l.33,1C235.1,106.68,235.1,108.5,234.06,110.65Zm1.76-29.13-.78.78a29.24,29.24,0,0,1-3.32,3,20.59,20.59,0,0,1,1.76,1.37A2.41,2.41,0,0,1,233.8,89a3.46,3.46,0,0,1-1.37,1.69,8,8,0,0,0-3.77,1.43c-.46.52-1,1.17-1.63,2q5.46-1.27,7.61-1a67,67,0,0,1,1.69-10.92C236.4,81.13,236.14,81.26,235.82,81.52Z"/><path d="M323.4,110.19a2.56,2.56,0,0,1-2.47.07,4.3,4.3,0,0,1-1.63-.78,5.76,5.76,0,0,1-1.3,1.43c-.71.71-2.28.58-4.55-.13-7.54-2.47-15.21-7.61-22.76-15.6-1.43-1.5-2.41-2.41-3.38-2.6a4.93,4.93,0,0,0-4,1.43c-3.84,4.36-8.06,9-13,13.78a4,4,0,0,1-4.1-.26,4.22,4.22,0,0,0-1.62,1.3c-1,.33-1.63-.19-2.08-1.24-.71-.91-.06-2.21,1.3-3.84,9.88-12.35,18.27-23,25.23-31.86a3,3,0,0,1,3.06-2,10.54,10.54,0,0,1,3.77,3.84c.52,1,.26,2.21-.52,3.64a47.26,47.26,0,0,0-4.16,6,7,7,0,0,1,3.9,2.41A74.61,74.61,0,0,0,313.06,100c4.68,2.54,7.35,4.23,7.93,5a4.3,4.3,0,0,0,1.89,1.63c1.5.84,2.15,1.82,1.17,2.73A1.31,1.31,0,0,1,323.4,110.19Z"/><path d="M388,101.09a3,3,0,0,1-2.6-.39c-.91-.2-1.56.58-2.08.91s-1.24.58-4-.2c-8.71-3.38-14.63-6.7-17.82-9.95-2.93-1-5-1.24-6.31-.85a73.64,73.64,0,0,0-8.45,8.78c-6.83,4.75-12.16,8.78-15.54,11.57-1.89,1.56-2.73-.46-1.89-2.21,3.32-3.12,6-5.92,9-8.91,2.8-2.73,5.59-5.2,7.87-7.93a31.48,31.48,0,0,0-7.41,3.64A6.26,6.26,0,0,1,335,93.35a2.22,2.22,0,0,1,1.24-2.41,22.34,22.34,0,0,0,1.37-3.45c1.17-3.32,2.41-5.27,3.71-5.27q2.63.88,1.76,3.32a37.71,37.71,0,0,0-3.32,4.29c2.93-1.1,5.46-2,7.67-2.6a3.66,3.66,0,0,1,1.3-2.73,3,3,0,0,1,3.32,1.11c1.63-2,3.06-3.9,4.42-5.79.26-.71,0-.78-.52-.78-1.1.33-2.79.78-5.2,1.37-3.12,1-5.4,1-6.31-.39-.71-2.41-.33-4.1,1.37-5.14h2.93a6.62,6.62,0,0,1,.85-1,6.39,6.39,0,0,1-1.82-.52c-2.34-1.24-2.21-1.24-3.06-3.84a6.58,6.58,0,0,1-3.71-1.3,2.81,2.81,0,0,1-.78-2.28c.91-2.6,2.67-4,5.27-4a3.13,3.13,0,0,1,2-3.32,10,10,0,0,0,4.29,1.76,4.25,4.25,0,0,1,.78.78c2.34-.13,4,.26,5.14,1.17.33,2.21-.65,3.71-2.93,4.55a9.5,9.5,0,0,1-3.32,1.5,12.29,12.29,0,0,0-.26,3.77A19.09,19.09,0,0,1,354,69.75c1.82-.85,3.25-1.17,4.29-.72.91,2.8.71,4.62-1.11,4.94a8,8,0,0,0-2.73,1,6.08,6.08,0,0,0,1.75-.13,54.52,54.52,0,0,0,7.67-1.3c-.06-1-.13-2.08-.13-3.32.72-1,1.76-1,2.93-.26a8.22,8.22,0,0,1,3,6.83,4.32,4.32,0,0,1-2.8,2.21c-1.89.52-3,.2-3-1.24l.26-1c-1.24.39-2.41.71-3.58,1.11a3.72,3.72,0,0,1,1.56,4.75,21,21,0,0,0-3.32,2.47,19.88,19.88,0,0,1,3,1c.58-.52,1.56-1.69,2-2.21a70.2,70.2,0,0,1,4.75-5.2c1.5-1.24,3-1.43,4.49-.26.46,2,.06,3.25-1.37,3.84a21.3,21.3,0,0,0-5,3.71c3.77-.58,5.53-1.3,5.72-2,.91-2.34,2.41-3.12,4-1.43.84,2.41.84,4.23-.07,5.59-1.75,1.24-3.19,1.3-4.23,0A15.11,15.11,0,0,0,369,89.65c6.37,2.73,13.59,6.31,19.83,8.13a2.35,2.35,0,0,1,1.89,2.6C390.44,101.22,388.95,100.57,388,101.09Zm-34.65,18.66a18.22,18.22,0,0,1-3.19,1.43c-1,.33-1.43.13-1.43-.52A77,77,0,0,1,359,110.26l2.54-3.71c1.82-2,3.25-2.47,4-1.69,1.3.84,1.37,2.34.39,4.29A20.62,20.62,0,0,1,353.38,119.75ZM359.3,106c-3.71,3.06-6.57,4.55-8.52,4.16-.26-1.3.52-2.79,2.21-4.49a24,24,0,0,0,4.29-5.4c-.13-.33-.46-.39-1.3,0a22.14,22.14,0,0,1-5.66,2c-1.3.13-1.75-.39-1.3-1.37a7.37,7.37,0,0,1,2.47-4l4-3.58A5.33,5.33,0,0,1,360,92.25c2.15,2.21,3.06,3.9,1.76,4.81a7.26,7.26,0,0,0-2.47,1.1c2.21.33,3.71,1.17,4.42,2.73C363.52,103,362,104.67,359.3,106Zm15.28-38.55a10.07,10.07,0,0,1-6.83-.78l-3.9,2.67c-1.1.52-3.32.52-2.41-1.17a29.77,29.77,0,0,0,4.68-7c1.17-2.73,3.58-2.8,5.53-.84,2.28-.85,4.62-.46,7.09,1.17C380.1,64,378.54,65.92,374.58,67.48Z"/><path d="M416.52,93.42a5.46,5.46,0,0,1-4.1-.46,156.25,156.25,0,0,0,.19,22,2.55,2.55,0,0,1-1.43,1.82c-.46.13-.91.65-1.43,1.82s-1.5.58-2.15-.78c-1.5-5-1.89-11.9-1.17-20.61-.91,1.11-1.75,2-2.54,2.86a3,3,0,0,1-2.28,1.37,2.42,2.42,0,0,0-2.41.52c-1.11.32-1.5-.39-.91-2.34,1.43-3.12,3.32-7.09,5.72-12a28.31,28.31,0,0,0-3.51,1.37c-1.3.26-2.15-.13-2.34-1.24l-.2-1.69c-.39-1.75.46-3.38,2.41-4.88,3.71-2,7.48-4,11.38-5.85a4.53,4.53,0,0,1,3.51-.78c2.86,1.3,3.9,2.93,2.8,4.88a23.19,23.19,0,0,0-4.16,6.89c2.34,1,3.77,2.15,4.29,3.64A3.23,3.23,0,0,1,416.52,93.42Zm-1.17-23.86a14.66,14.66,0,0,1-7.8-.58c-2-1.24-2.34-3-1.17-5.33,1.17-.78,2.08-1.43,2.93-1.88,1.24-.72,2.93-.65,4.88,0,2.6.52,4,2,4.23,4.36A3.85,3.85,0,0,1,415.35,69.56Zm34.85,49a126.6,126.6,0,0,0-28.48.52,6.47,6.47,0,0,1-4.75-2.93c.07-2.8,1.17-4.36,3.32-4.49s4.55-.26,6.83-.33a12.93,12.93,0,0,0,0-3.9,18.66,18.66,0,0,1-3.38-7.22c-.06-3.19.65-4.94,2.54-4.55l2,.78c4.55-1.1,8.58-2,12.09-2.47a2.93,2.93,0,0,1,3.9-1.3c2.08.39,2.67,2,1.89,4.49a15.63,15.63,0,0,1-4.29,5.27,1.45,1.45,0,0,1-.58,2,4,4,0,0,1,.19,4.16,17,17,0,0,0-1.3,2.15c3.32-.13,6.57-.2,9.82-.13a6.29,6.29,0,0,1,3.77,3.19C453.9,116.43,452.73,118.06,450.2,118.58ZM438.88,86.85l-.13.26c.91.13,1.88.26,2.93.33.84.78.91,2,.39,3.71a20.15,20.15,0,0,1-5.27,2.73A34.84,34.84,0,0,1,428,95.56c-1,.07-1.76-.71-2.08-2-.52-1.82,0-3,1.63-3.25,4.42-1.43,6.89-2.73,7.61-3.9l-1.3.13a12.2,12.2,0,0,1-6.5,1.89c-1.24,1.24-2.93-.52-4.94-4a77.64,77.64,0,0,1-1.3-10.79c.33-3.06,1.37-5,3.25-5.72l3.58.78a9.23,9.23,0,0,1,2.15-.71c-.06-2.21.2-3.64.85-4.23,2.54-.39,3.9.33,3.77,2.28-.06.33-.13.72-.19,1a10.05,10.05,0,0,1,2-.39,19.94,19.94,0,0,0-.39-4.1,2.64,2.64,0,0,1,2.34-2.08c2.54.52,4,1.76,4.49,3.77-.39.84-.72,1.69-1,2.54a7.75,7.75,0,0,1,4,1.24,4.77,4.77,0,0,1,4-.84c1.63,1.5,2.21,3.64,1.63,6.5C450.2,80.28,445.9,84.71,438.88,86.85Zm-11.7-12.48c-.07,1.63-.07,3.45,0,5.4.39,1.24.84,2.54,1.3,3.84.65,0,.91-.26.91-.65V81a3.12,3.12,0,0,1-1.56-3.06c-.07-1.43.46-2.34,1.63-2.67A2.31,2.31,0,0,0,430,73.2,4.84,4.84,0,0,0,427.18,74.37Zm3.38,26.14a6,6,0,0,0,.39,2.54c4-.52,6.37-1.89,7.35-4.1C435.89,99.46,433.36,100,430.56,100.5Zm1.69,7.54c-.13.91-.26,1.89-.39,3a13.05,13.05,0,0,1,3.9,0c.46-1.5,1-3.06,1.69-4.75A25.78,25.78,0,0,1,432.25,108Zm.84-27.31c-.26.78-.46,1.5-.65,2.21a6.9,6.9,0,0,0,2.54-1.5,5.92,5.92,0,0,0,.07-1C434.4,80.54,433.75,80.67,433.1,80.74Zm.65-8.52a6.57,6.57,0,0,0-.13,2l1.3.2a5.23,5.23,0,0,0,.91-2.47A7.32,7.32,0,0,0,433.75,72.22ZM441,71.12v1.43a3,3,0,0,1,2.73,2,6.3,6.3,0,0,1-3.45,4.1V81l2-.33a26.71,26.71,0,0,0,3.45-10.92A21.65,21.65,0,0,0,441,71.12Z"/><path d="M517.1,83.28c-1-1.24-1.56-1-1.89-.33-1.89,1-4.1.07-6.83-2.15a126.79,126.79,0,0,1-14.3-13.59c-2-1.69-3.25-2-4-1.43A79.72,79.72,0,0,0,473,83.28a74.18,74.18,0,0,1-7.54,6.7c-1.89,1.43-3,1.17-2.41-1.24a9.48,9.48,0,0,1,2.93-4.1c2.6-3.58,5-7.35,8-10.6l2.73-3a25,25,0,0,1,9.17-8.58c.39-1.11,1.76-1.89,3.84-2.41a9.62,9.62,0,0,1,6.11,1.75,7.62,7.62,0,0,1,2.79,3.32,15.63,15.63,0,0,0,3.77,2A7.54,7.54,0,0,1,505.79,70a16.22,16.22,0,0,0,1.37,1.11c.58.39,1.24.84,2,1.3,3,2.08,5.85,4.29,8.78,6.5,2.47.78,3.58,2.54,3.25,5.27C520,85.62,518.6,85,517.1,83.28Zm-4.42,35.11c-1.3.72-4.1.58-8.19-.2a143.42,143.42,0,0,0-29.32,1.5c-3.25.58-5.2-.33-5.79-3.45-.19-2.86,1.43-4.29,4.68-4.49l2.67-.13c-2.21-5.4-3.19-9.36-2.8-12A3.64,3.64,0,0,1,477.31,97a2.91,2.91,0,0,1,2.8,1c1.11-1,4.55-1.76,9.95-2.34,6.63-.71,10.86-1,12.61-.78,3.77.52,5.27,2.41,4.75,5.72a56.55,56.55,0,0,1-2.08,9.49c5.14.07,8.26,1.37,9.1,4Q514.93,117.12,512.68,118.38Zm-12-33.48A8.38,8.38,0,0,0,499,87.7c1,1.56.33,3.19-1.82,4.62a12.52,12.52,0,0,1-6.63,1.82A7.48,7.48,0,0,0,485.05,96c-.78,1.11-2.41-1.3-2.73-1.69l-2.54-4.55a13,13,0,0,1-1-8c.39-1.11,1.5-1.24,3-.78a44.37,44.37,0,0,1,12.81-2.41c1.37-.06,2.15-.13,2.21-.78.85-.84,2.54-.32,4.81,1C503.19,80.67,502.74,82.69,500.72,84.9Zm-16.64,22c.07-3.25-.85-4.16-2.67-3.51-1.37.13-1.69.65-1.24,1.69,1.24,1.17,1.76,3.12,1.63,5.72l2.54-.46A16,16,0,0,1,484.07,106.94Zm6.11-30c-4.29,1.3-6.89.59-7.48-2.73-.13-2.6,1.69-4,5.07-4.23l3.38-.91c3.64-.52,5.53.39,5.27,3.12C496.23,74.17,494.09,75.67,490.19,76.9ZM486,87.44l.59,2.54a8.87,8.87,0,0,0,3.9-.72,8.5,8.5,0,0,0,2.73-3.71C491.1,86.2,488.69,86.85,486,87.44ZM489,101.87a12.79,12.79,0,0,1-.65,5.53,7.39,7.39,0,0,0-1.24,3h1.43a1.75,1.75,0,0,1,.78-1.3,11.17,11.17,0,0,0,3.25-7.61C491.42,101.54,490.25,101.68,489,101.87Zm9.49-1.5a21.51,21.51,0,0,0-3.12,6.7c.26.71-.26,1.75-1.3,3l3.45.07q2.83-3.12,4.1-9.75A12.49,12.49,0,0,0,498.44,100.38Z"/></g></g></g></svg>