<?xml version="1.0" encoding="utf-8"?>
<!-- Generator: Adobe Illustrator 20.0.0, SVG Export Plug-In . SVG Version: 6.00 Build 0)  -->
<svg version="1.1" id="圖層_1" xmlns="http://www.w3.org/2000/svg" xmlns:xlink="http://www.w3.org/1999/xlink" x="0px" y="0px"
	 viewBox="0 0 639.5 487.9" style="enable-background:new 0 0 639.5 487.9;" xml:space="preserve">
<style type="text/css">
	.st0{opacity:0.5;}
	.st1{fill:#FFFFFF;}
</style>
<title>dot</title>
<g id="圖層_2" class="st0">
	<g id="圖層_1-2">
		<g id="l8PcEJ">
			<path class="st1" d="M0,31.8c0.7-0.2,1.5-0.8,2.2-0.7s1.9,1.1,1.8,1.4c-0.2,1-0.8,1.8-1.6,2.4c-1.2,0.6-1.9-0.5-2.4-1.5V31.8z"/>
			<path class="st1" d="M0,217.9c1.4,0,3-0.2,4,1.2c-1.4,2.8-1.4,2.8-4,1V217.9z"/>
			<path class="st1" d="M337.2,0c0.3,0.7,0.5,1.4,0.5,2.1c-0.2,0.5-0.6,0.9-1.1,1c-0.7-0.1-1.5-0.4-1.2-1.5c0.1-0.5,0.2-1,0.2-1.6
				H337.2z"/>
			<path class="st1" d="M0,417.9c0.2-0.1,0.4-0.3,0.6-0.5c0.4-0.6,1-1.2,1.6-0.4c0.4,0.6,0.6,1.3,0.4,2c-0.4,0.9-1.3,0.7-1.9,0
				c-0.2-0.2-0.4-0.3-0.6-0.5C0,418.4,0,418.2,0,417.9z"/>
			<path class="st1" d="M0,337.8c0.1,0,0.2,0,0.3,0c0.9-0.1,2-0.2,2.2,0.9c0.1,0.6-0.6,1.3-0.9,2.1L0,339.7V337.8z"/>
			<path class="st1" d="M381.4,0c0.1,1.1-0.7,1.4-1.5,1.6c-1.3,0.3-1.5-0.8-2-1.6H381.4z"/>
			<path class="st1" d="M0,412.5l1.8,0.4L0,415.1V412.5z"/>
			<path class="st1" d="M251.3,26.9c0-1.9,1.1-2.7,3.3-2.7c1.1,0,3,2.7,3,4.4c0,0.9-2.1,2.6-3.2,2.5C253.4,31,251,28.5,251.3,26.9z"
				/>
			<path class="st1" d="M191.2,394.6c0.2,1.2-0.4,1.8-1.6,2l-1.7,0.4c-2.1,0.5-2.4,0.4-3.1-1.5s-0.4-2.6,1.4-3.4
				c0.8-0.4,1.6-0.6,2.5-0.7C190.4,391.4,191.2,392.5,191.2,394.6z"/>
			<path class="st1" d="M141.1,260.2c1.3,0.2,2.4,1.1,2.8,2.4c1,2.7,0.6,3.5-2,4.4c-0.1,0.1-0.3,0.1-0.4,0.1
				c-1.1,0.1-3.3-2.8-3.3-4.4C138,261.8,140,260.1,141.1,260.2z"/>
			<path class="st1" d="M125,460.3c2.3,0,2.9,1.5,3.6,2.9c0.9-1.4,2.1-1.9,3.1-1.4c0.7,0.4,1.4,0.8,1,1.8s-1.8,1.4-3.4,0.9
				c0.3,1.1,0,1.8-1.3,1.8c-1.8,0-3.3-0.8-3.3-2.2C124.8,462.8,124.8,461.5,125,460.3z"/>
			<path class="st1" d="M425,129.1l-0.6,2.3c2.2,1.7,2.7,2.9,1.7,4.8c-0.3,0.6-0.8,1-1.4,1.1c-0.6-0.1-1.1-0.5-1.3-1
				c-0.8-1.8-1.5-3.7-2.1-5.6c-0.4-1.4,0.7-2.4,2.2-2.1C424,128.7,424.5,128.9,425,129.1z"/>
			<path class="st1" d="M345.1,260.5c1.9,0,3.2,0.9,3.2,2.1c-0.1,1.8-1.6,3.2-3.4,3.3c-1.9,0-3.1-1.1-3-2.7
				C342,261.6,343.4,260.4,345.1,260.5C345.1,260.5,345.1,260.5,345.1,260.5z"/>
			<path class="st1" d="M280.5,475.9c0.2,1.6-1,3-2.6,3.1c-0.1,0-0.3,0-0.4,0c-1.7,0.1-3-0.7-3-1.9c-0.1-2,1.4-3.7,3.4-3.8
				c0,0,0,0,0,0c1.3-0.1,2.5,0.8,2.6,2.1C280.6,475.5,280.6,475.7,280.5,475.9z"/>
			<path class="st1" d="M303,305.8l-0.2-1.7c0.6,0,1.1,0,1.7,0c1.2,0.2,1.5,0.9,0.7,1.8c-0.6,0.5-0.8,1.3-0.5,2
				c0.4,1.4-0.3,2.9-1.8,3.4c0,0,0,0,0,0c-1,0.3-2.8-0.9-3.1-2.2c-0.3-1.1,0.2-2.2,1.2-2.6C301.6,306.2,302.3,306,303,305.8z"/>
			<path class="st1" d="M348,393.1c0,1.6-1.3,2.8-2.9,2.8c-1.6,0-2.8-1.3-2.8-2.9c0.2-1.6,1.4-2.8,3-3c1.6,0.1,2.8,1.4,2.7,2.9
				C348,393,348,393,348,393.1z"/>
			<path class="st1" d="M238,271.2c-1.6,0-2.9-1.3-2.9-2.9c0.2-1.6,1.6-2.9,3.3-2.8c1.6,0.1,2.8,1.5,2.8,3.1
				C241.1,269.9,239.5,271.2,238,271.2z"/>
			<path class="st1" d="M409.3,84.3c-1.5,0-3.1-1.1-3.1-2.3c-0.1-1.5,1.6-3.4,3-3.4c1.6,0.2,2.8,1.4,2.9,3
				C412.1,83.3,411.2,84.3,409.3,84.3z"/>
			<path class="st1" d="M80.3,416c2.1,0,2.8,0.6,2.8,2.3c0.1,1.6-1.1,3-2.7,3.2c0,0-0.1,0-0.1,0c-1.5-0.1-2.8-1.4-2.7-2.9
				c0-0.1,0-0.1,0-0.2C77.5,416.7,78.3,416,80.3,416z"/>
			<path class="st1" d="M366.1,108c-1.2,0.2-2.2,0.8-2.9,0.5s-0.8-1.5-1.2-2.3c-0.1-0.4-0.3-0.9-0.5-1.3c-0.6-0.8-1.2-1.5-0.4-2.5
				c0.5-0.9,1.5-1.3,2.4-0.8c1.1,0.4,1.9,1.3,1.6,2.4C364.6,105.4,365.2,106.4,366.1,108z"/>
			<path class="st1" d="M13.1,52.5c0.6,1.1,1.1,2,1.6,2.9c0.8,1.5-0.7,1.9-1.3,2.7c-0.7,0.8-1.9,0.9-2.7,0.2c0,0,0,0,0,0
				c-1.3-0.8-1.6-2.5-0.8-3.8c0.3-0.4,0.6-0.7,1.1-1C11.7,53.1,12.4,52.8,13.1,52.5z"/>
			<path class="st1" d="M416.1,322.5c0.7,1,1.2,2,1.7,3c0.5,1.4-0.9,2.1-1.8,2.6c-0.8,0.3-1.8,0.3-2.5-0.2c-1.2-0.9-1.5-2.5-0.6-3.7
				c0.3-0.4,0.7-0.7,1.1-0.9C414.8,323.1,415.5,322.8,416.1,322.5z"/>
			<path class="st1" d="M513.6,169.2c0.3,1.4,0.3,2.9,0.2,4.3c-0.3,1.4-2.1,1.9-3.6,1.4c-1.3-0.4-1.1-1.5-1.1-2.6
				c-0.1-1.8,0.6-2.3,2.2-2.4C512.1,169.7,512.9,169.5,513.6,169.2z"/>
			<path class="st1" d="M220.8,213.2c1.4,1.5,2.7,3.1,3.9,4.8c0.2,0.4-0.4,1.6-0.9,2c-0.6,0.3-1.4,0.3-2-0.1c-1-1.2-1.9-2.4-2.8-3.8
				L220.8,213.2z"/>
			<path class="st1" d="M371.1,141.2c-1.9-0.1-3.4-1.5-3-3.3c0.4-1.6,1.9-1.6,3.3-1.5c1.4,0,2.5,1.2,2.4,2.6c0,0.1,0,0.2,0,0.3
				C373.6,140.7,372.8,141.3,371.1,141.2z"/>
			<path class="st1" d="M473.4,304.4c1.2-1.7,2.5-3.3,3.8-4.9c0.3-0.3,1.6,0.2,2.3,0.6c0.6,0.3,0.8,0.9,0.6,1.5
				c-0.1,0.1-0.2,0.3-0.3,0.4c-0.9,1-1.7,2.1-2.7,3.1c-0.4,0.2-0.8,0.3-1.2,0.2C475.1,305.1,474.2,304.8,473.4,304.4z"/>
			<path class="st1" d="M70.4,34.4c1.2-1.7,2.4-3.3,3.8-4.8c0.3-0.3,1.5,0.1,2.2,0.4s1.3,1,0.5,1.9c-0.9,1.1-1.8,2.2-2.8,3.2
				c-0.4,0.2-0.8,0.3-1.2,0.2C72,35,71.2,34.7,70.4,34.4z"/>
			<path class="st1" d="M164.8,422.9c-0.2,2-1.8,3.7-2.9,3.5c-1.4-0.3-2.4-1.5-2.5-2.9c0-1,2.3-3.4,3.1-2.9
				C163.3,421.2,164.1,422,164.8,422.9z"/>
			<path class="st1" d="M255.5,119.7l-0.9,3l-4.6,0.4c-0.7,0.2-1.4-0.3-1.6-1c0-0.2,0-0.4,0-0.5c0.1-0.9,0.1-2.1,1.6-2
				c1.2,0,2.5-0.2,3.7-0.3C254.4,119.4,255,119.5,255.5,119.7z"/>
			<path class="st1" d="M56.4,484c0.1,1.8-0.6,2.6-2.3,2.7s-2.6-0.6-2.7-1.9c-0.1-1.6,1.1-3.1,2.8-3.2
				C56.1,481.5,56.3,481.7,56.4,484z"/>
			<path class="st1" d="M197.8,184.4c0,1.6-0.4,2-2.3,2s-2.9-1-2.8-2.6c0.2-1.4,1.5-2.4,2.9-2.4
				C197.1,181.4,197.9,182.4,197.8,184.4z"/>
			<path class="st1" d="M431.9,349.3c-0.4,0.2-1,0.4-1,0.7c-0.5,2.2-2,1.2-3.2,1.1c-1-0.2-1.7-1.1-1.5-2.1c0-0.1,0.1-0.3,0.1-0.4
				c0.3-1.3,1.6-2.1,2.9-2C430.8,346.6,431.5,347.3,431.9,349.3z"/>
			<path class="st1" d="M28.9,79.2c-0.4,0.2-1,0.4-1,0.7c-0.5,2.4-2.2,1.2-3.3,0.9c-0.7-0.4-1.2-1.1-1.2-1.8c0.3-1,0.9-1.8,1.7-2.3
				C26.9,75.8,28.5,77,28.9,79.2z"/>
			<path class="st1" d="M47.8,305.3c-1.8,0-2.6-0.6-2.6-2c0-1.6,1.3-2.9,2.8-3c1.2,0,2.3,1.3,2.3,2.9S49.5,305.3,47.8,305.3z"/>
			<path class="st1" d="M104.9,336.8c-1.2,0.1-2.4-0.6-2.8-1.8c-0.4-0.9-0.1-2,0.9-2.5c0,0,0,0,0.1,0c0.3-0.2,0.4-0.7,0.6-1
				c0.2-0.3,0.5-0.6,0.8-0.9c0.3,0,0.6,0.1,0.8,0.3c0.6,1.3,1,2.7,1.3,4.1C106.7,336.2,105.7,336.7,104.9,336.8z"/>
			<path class="st1" d="M218.8,392c0.6,0.4,1.4,0.7,1.6,1.3c0.2,0.7,0.1,1.4-0.4,1.9c-0.8,0.9-1.7,1.7-2.7,2.4
				c-0.5,0.3-1.1,0.3-1.6,0.1c-0.3-0.1-0.4-1-0.3-1.4c0.3-1.1,0.8-2.2,1.4-3.2C217.2,392.5,218,392.4,218.8,392z"/>
			<path class="st1" d="M482.5,177.9c0.7-1.4,0.7-3.3,2.9-3.3c1.2,0.1,2.1,1,2.1,2.2c0.2,1.1,0.1,2.3-1.1,2.8
				C484.4,180.5,483.6,178.9,482.5,177.9z"/>
			<path class="st1" d="M119.3,241.9c-0.1-0.5-0.1-0.9,0-1.4c0.2-0.8,0.1-1.9,1.4-1.9c1-0.1,2,0.5,2.3,1.6c0.4,1-1,4.4-1.9,4.7
				s-1.6-0.1-1.7-1C119.2,243.2,119.2,242.5,119.3,241.9z"/>
			<path class="st1" d="M48.5,377.2c-1.6,0.1-2-0.4-1.5-2.2c0.1-0.2-0.1-0.5-0.1-0.7c-0.1-0.8,0-1.6,0.2-2.4c0.5-1,1.6-1.4,2.5-0.9
				c0.1,0,0.1,0.1,0.2,0.1c1.1,0.7,0.9,1.9,0.3,3L48.5,377.2z"/>
			<path class="st1" d="M291.5,116c-0.2-1.2-0.4-2.3-0.4-3.5c0.1-0.8,0.5-1.6,1.1-2.1c0.7-0.4,2.2,1.1,2.2,2c0,0.3-0.2,0.6-0.1,0.9
				C295,116.2,294.8,116.4,291.5,116z"/>
			<path class="st1" d="M279.9,368.6c1,0.6,1.8,1.4,2.6,2.2c0.4,0.7,0.5,1.6,0.2,2.4c-0.4,0.8-1.1,1.8-2.4,1.4
				c-1-0.2-1.6-1.2-1.4-2.2c0,0,0,0,0,0C279.2,371.1,279.6,369.7,279.9,368.6z"/>
			<path class="st1" d="M322.5,58.7c0-1.8,0.7-2.7,2-2.7s2.7,1.1,2.7,2.1c-0.3,1.4-1.5,2.4-2.9,2.7
				C322.9,60.7,322.4,59.9,322.5,58.7z"/>
			<path class="st1" d="M17.6,359.1c-0.7,1.2-1.2,2.2-1.8,3.1c-0.6,0.9-1.8,1.3-2.8,0.9c-1.3-0.4-1.1-1.7-0.8-2.5
				c0.3-0.8,1-1.5,1.8-1.7C15.2,358.8,16.4,358.8,17.6,359.1z"/>
			<path class="st1" d="M256.5,201.3c1.4,0.5,2.5,0.8,3.6,1.1c1.3,0.4,1.5,1.4,1.4,2.6c-0.1,1.5-1.4,1.1-2.2,1.3
				c-1.1,0.3-1.8-0.5-2-1.5S256.8,202.7,256.5,201.3z"/>
			<path class="st1" d="M48.8,391.2c1.4,0,2.7,0.9,2.7,1.9c-0.2,1.4-1.3,2.5-2.8,2.6c-1.3,0-2-0.9-2-2.5
				C46.8,391.8,47.4,391.2,48.8,391.2z"/>
			<path class="st1" d="M110,358.7c0.7-0.7,1.5-1.4,2.3-1.9c0.6-0.2,1.2-0.1,1.7,0.2c0.6,0.6,1,1.4,1.2,2.3c0.1,0.4-0.6,1.3-1.1,1.4
				C112.1,361.2,111.1,360.7,110,358.7z"/>
			<path class="st1" d="M281.3,162.9c0.1-0.9,0.2-1.9,1.7-2c1.4-0.1,2.6,1,2.8,2.4c-0.2,1.4-1.3,2.4-2.7,2.3
				C282,165.7,281.3,164.6,281.3,162.9z"/>
			<path class="st1" d="M223.3,121.1c-0.1,1.3-1.2,2.4-2.5,2.4c-1.3-0.1-1.8-0.9-1.7-2.6c0.1-1.2,0.4-2.3,2-2.2
				C222.4,118.7,223.4,119.8,223.3,121.1z"/>
			<path class="st1" d="M622,391.2c0-1.8,0.5-2.5,1.8-2.5c1.3,0,2.4,1,2.4,2.3c0,0,0,0,0,0c-0.1,1.3-1.1,2.4-2.4,2.6
				C622.6,393.6,622,392.8,622,391.2z"/>
			<path class="st1" d="M231.6,367.4c0-1.7,0.8-2.9,1.9-2.4c1.1,0.5,2,1.4,2.5,2.5c0.4,1-1,2.2-2.5,2.2S231.6,369.3,231.6,367.4z"/>
			<path class="st1" d="M188.1,340.9c0.8,0.5,1.4,0.7,1.6,1.1s-0.1,1-0.2,1.4s-0.4,0.9-0.6,1.4c-0.4,1-2,1.9-2.8,1.5
				c-0.9-0.5-1.2-1.5-0.7-2.4c0.1-0.1,0.1-0.2,0.2-0.3C186.4,342.6,187.2,341.7,188.1,340.9z"/>
			<path class="st1" d="M475.1,324.7c0.2-1.8,1.6-3.2,2.6-3.1s2.2,1.8,2.1,2.8c-0.1,0.7-2.3,2.2-3.1,1.9S475.5,325.1,475.1,324.7z"
				/>
			<path class="st1" d="M389.1,195c-1.8-0.1-2-0.4-2-2.7c0-0.8,0.1-1.7,1.2-1.6c1.6,0.1,3.3,1.3,3.3,2.2
				C391.4,194.1,390.3,195,389.1,195z"/>
			<path class="st1" d="M449.4,261.5c-1.7,0-2.5-0.7-2.5-2.1s0.7-1.9,1.9-1.7s2.6-0.1,2.8,1.5c0.1,1.2-0.9,2.2-2,2.2
				C449.5,261.5,449.5,261.5,449.4,261.5z"/>
			<path class="st1" d="M50.5,188c-0.6-0.6-1.6-1.1-1.7-1.8c-0.3-1.4,0.9-3.3,1.6-3c1.1,0.5,2,1.2,2.7,2.1
				C53.4,185.9,51.6,187.7,50.5,188z"/>
			<path class="st1" d="M77.2,158.9l2.7,2.5c-0.8,0.8-1.5,2-2.5,2.3c-0.6,0.1-1.7-1.2-2.2-2.1C74.8,160.8,76.2,159.2,77.2,158.9z"/>
			<path class="st1" d="M483.1,431.7c-0.9,0.7-1.8,2-2.7,2c-0.8,0-1.9-1.3-2.2-2.2c-0.2-1,0.4-2,1.4-2.2c0.1,0,0.2,0,0.2,0
				C481.3,429.5,482.5,430.4,483.1,431.7z"/>
			<path class="st1" d="M338.1,158.2l-5.1-0.5c0.3-1.3,0.4-2.7,1.9-3.1c0.9-0.2,1.8,0,2.5,0.5C337.9,155.8,337.8,157,338.1,158.2z"
				/>
			<path class="st1" d="M197.3,408.2c-2.5-1.3-2.8-1.9-1.9-3.7c0.7-1.4,1.9-1.6,4.3-0.4L197.3,408.2z"/>
			<path class="st1" d="M43.8,443.1c2.5,0.9,3.2,2,2.4,3.7c-0.7,1.5-1.8,1.7-3.8,0.6L43.8,443.1z"/>
			<path class="st1" d="M66.9,275c-0.1-1.8,0.7-3.6,1.7-3.8c0.7-0.1,1.3,0.2,1.8,0.6c1,1,0.5,2.1-0.2,3.1S69.6,275.8,66.9,275z"/>
			<path class="st1" d="M320.7,204c-0.5,1.3-0.2,2.9-1.9,2.7c-0.9-0.1-2.6,0.1-2.4-1.8c0.1-1.3,1.4-3.2,2.2-2.8S320,203.3,320.7,204
				z"/>
			<path class="st1" d="M506.4,407.7c-2.2-0.2-3.6-0.6-3.8-2.5c0-0.4,0.5-1.2,0.7-1.2c1.1,0,2.7-0.1,3.3,0.5
				S506.5,406.6,506.4,407.7z"/>
			<path class="st1" d="M103.4,137.6c-2.2-0.2-3.7-0.6-3.8-2.5c0-0.4,0.5-1.2,0.7-1.2c1.2,0,2.7-0.1,3.3,0.5
				S103.6,136.5,103.4,137.6z"/>
			<path class="st1" d="M161.9,124c-1.1,0-2.8-1.3-2.4-2.1c0.5-0.9,1.3-1.5,2.2-1.8c1-0.2,2.1,0.5,2.3,1.5c0,0.1,0,0.2,0,0.3
				C164.1,123.3,163.3,124,161.9,124z"/>
			<path class="st1" d="M564.8,394.1c-1.1,0-2.8-1.3-2.4-2.1c0.5-0.8,1.3-1.5,2.3-1.7c1-0.2,2,0.4,2.3,1.5c0,0.1,0,0.2,0,0.3
				C567,393.4,566.3,394.1,564.8,394.1z"/>
			<path class="st1" d="M112.8,223.2c1-2.9,1.4-3.2,3.3-3.1c0.4,0.1,0.9,0.3,1.2,0.6c-0.3,1.2-0.4,2.7-1.2,3.3
				C115.5,224.4,114,223.5,112.8,223.2z"/>
			<path class="st1" d="M150.5,208.7c-1-0.3-2.4-0.1-2.6-1.6c-0.1-1,1.5-2.5,2.4-2.5c1.1,0.2,1.9,1.2,1.9,2.3
				C152.3,207.9,152,208.9,150.5,208.7z"/>
			<path class="st1" d="M347.5,287.9c-1.2,0-2.2-1.1-2.2-2.3c0,0,0-0.1,0-0.1c0-1.2,0.9-1.8,2.5-1.7c0.8,0,1.8,0,1.8,1.2
				C349.6,286.5,348.5,287.9,347.5,287.9z"/>
			<path class="st1" d="M385.8,439.3c0-1.6,0.8-2.3,2.8-2.2c1,0,1,0.7,1,1.4c0,1.6-0.9,3-1.8,3C386.6,441.5,385.8,440.7,385.8,439.3
				z"/>
			<path class="st1" d="M247.3,352.6c0.3,0,0.7,0,1-0.1c0.9-0.5,2.1-0.6,2.4,0.3c0.3,1,0.1,2.1-0.5,3c-0.4,0.5-1.7,0.2-2.6,0.1
				c-0.1,0-0.2-0.7-0.3-1.1C247.2,354,247.3,353.4,247.3,352.6z"/>
			<path class="st1" d="M37.7,254.6c-0.8,0.5-1.6,1.3-2.4,1.3c-0.8-0.2-1.6-0.7-2.1-1.4c0.5-1.1,1.1-2.1,1.8-3l2.7,2.4L37.7,254.6z"
				/>
			<path class="st1" d="M492.3,67.6l-0.8,1.4c-0.4-0.8-1.5-1.6,0-2c0-0.2,0-0.4,0-0.7c-0.2-1.1-0.2-2.1,0.9-2.6
				c0.7-0.2,1.4-0.1,2,0.3c0.5,0.7,0.6,1.5,0.3,2.3C494.2,67,493.2,67.2,492.3,67.6z"/>
			<path class="st1" d="M50,400.9c2.2,1.1,2.2,1.4,1.1,3c-0.2,0.3-0.1,0.9-0.2,1.4c-0.1,0.7-0.1,1.5-0.5,1.9
				c-0.5,0.3-1.2,0.2-1.7-0.1c-0.2-0.6-0.2-1.3-0.1-1.9c0.2-0.8,0.4-1.6,0.7-2.4C49.5,402.2,49.7,401.6,50,400.9z"/>
			<path class="st1" d="M263.8,169.8c-1.4,0-3-1.2-2.6-2c0.4-0.8,1.1-1.4,1.9-1.7c1.2-0.2,2.9,1,2.6,1.6
				C265.4,168.7,265.5,170.3,263.8,169.8z"/>
			<path class="st1" d="M526.4,209.7c0,1.4-1,2.6-2,2.4c-1.1-0.1-1.9-1.1-1.8-2.2c0,0,0,0,0,0c-0.1-1.1,0.7-2.1,1.8-2.2
				c0.1,0,0.2,0,0.3,0c0.9,0,1.7,0.7,1.7,1.6C526.4,209.5,526.4,209.6,526.4,209.7z"/>
			<path class="st1" d="M418.6,36.6c0.4-0.8,0.5-1.4,0.8-1.5c0.5-0.1,1,0,1.4,0.3c0.7,0.8,1.7,1.3,2.8,1.2c0.6,0.1,1.1,0.5,1.3,1
				c0.1,0.3-0.5,1.1-0.9,1.3c-0.6,0.2-1.2,0.1-1.6-0.3c-0.6-0.8-1.1-1.5-2.3-1C419.8,37.8,419.1,37,418.6,36.6z"/>
			<path class="st1" d="M355.9,128.3c0-2,0.7-3.2,1.7-2.8c1.2,0.4,1.8,1.6,1.5,2.8c0,0,0,0,0,0c-0.3,0.9-1,2.3-1.6,2.3
				c-0.9,0-1.6-0.8-1.6-1.7C355.8,128.7,355.8,128.5,355.9,128.3z"/>
			<path class="st1" d="M252.2,330.7c-0.3,0.2-0.7,1.1-1.3,1.2c-1.6,0.2-3.4-0.9-3.1-1.7c0.4-0.9,1.1-1.7,2-2.1
				C250.9,327.7,252.2,329,252.2,330.7z"/>
			<path class="st1" d="M238.9,147.1c-0.4,0.4-0.9,1.3-1.7,1.7s-2.5-1.4-2.4-2.3c0-1,0.9-1.8,1.9-1.8
				C238.1,144.6,238.9,145.3,238.9,147.1z"/>
			<path class="st1" d="M479.4,284c-1.6,0.2-3.2,0.6-4.8,0.7c-0.4-0.6-0.6-1.3-0.5-2c0.2-0.6,1.1-1,1.8-1.4c0.2-0.1,0.6,0.1,0.9,0.3
				c0.9,0.6,1.7,1.3,2.6,1.9L479.4,284z"/>
			<path class="st1" d="M359.1,120.6c-0.2,1.5-1.2,2.5-2.3,2.5s-1.7-0.9-1.8-2s1-2.7,1.8-2.4C357.6,119.2,358.4,119.8,359.1,120.6z"
				/>
			<path class="st1" d="M242.3,88.1c-1.3-0.1-2.3-1.1-2.5-2.4c0-1.4,1.2-1.4,2.2-1.6s2,1.2,1.9,2.3
				C243.8,87.3,243.6,88.2,242.3,88.1z"/>
			<path class="st1" d="M549.4,414.5c-1.3,0-1.7-0.5-1.3-1.8c0.3-1.2,1.3-2.1,2.5-2.3c1.3-0.2,1.6,0.2,1.6,1.3
				C551.9,413.1,550.8,414.2,549.4,414.5z"/>
			<path class="st1" d="M146.4,144.4c-1.3,0-1.8-0.5-1.3-1.7c0.2-1.2,1.2-2.1,2.5-2.3c1.3-0.1,1.8,0.2,1.6,1.4
				C148.8,143.2,147.8,144.2,146.4,144.4z"/>
			<path class="st1" d="M294.2,65.2c-0.2-0.2-1.1-0.7-1.3-1.3c-0.2-1.3,1.2-3.1,1.9-2.7c1,0.5,1.7,1.3,2.2,2.2
				C297.4,64.5,296.2,65.3,294.2,65.2z"/>
			<path class="st1" d="M46.3,177.8c0.9-2,2-2.9,3.9-0.1c-0.6,1.1-0.9,2.5-2.6,2.1c-0.4-0.2-0.8-0.4-1.1-0.7
				c-0.2-0.2-0.4-0.3-0.7-0.4c-0.4-0.1-0.8-0.3-1.2-0.5c-0.1,0,0.1-0.4,0.1-0.7l1.2,0.3C46.1,177.8,46.2,177.8,46.3,177.8z"/>
			<path class="st1" d="M405,305c-1.3,0-2-0.8-2-2.4c-0.1-0.8,0.5-1.5,1.3-1.6c0.1,0,0.2,0,0.4,0c1,0.1,1.8,0.7,2.3,1.5
				C407.4,303.5,406,305,405,305z"/>
			<path class="st1" d="M216.1,444.5c0-0.6,0.1-1.2,0.3-1.9c0.3-0.6,0.6-1.5,1.1-1.7c0.8-0.2,1.7-0.1,2.4,0.3
				c0.3,0.2,0.2,1.6-0.2,2.2C218.9,445.2,217.2,444.5,216.1,444.5z"/>
			<path class="st1" d="M17.9,123.4c-1.8-0.2-3.2-1.4-2.9-2.7c0.3-0.6,0.8-1,1.4-1.1c1.6,0.1,2.8,1.3,3,2.9
				C19.3,123.5,19.3,123.5,17.9,123.4z"/>
			<path class="st1" d="M422.4,392.9c-0.2,0.1-0.7,0.6-1.2,0.6c-1.5,0.3-2.9-0.6-3.2-2.1c-0.3-0.6,0-1.4,0.6-1.7
				c0.1-0.1,0.2-0.1,0.4-0.1C420.2,389.4,422.4,391.1,422.4,392.9z"/>
			<path class="st1" d="M135.2,369.4c0.1,1.1-0.8,2-1.9,2.1c-0.1,0-0.2,0-0.2,0c-1,0.1-1.9-0.6-2-1.6c0,0,0-0.1,0-0.1
				c-0.1-1,1.3-2.2,2.5-2.2S135.3,368.2,135.2,369.4z"/>
			<path class="st1" d="M197.5,288.5c0.1,1.1-0.2,1.9-1.5,1.9s-1.9-0.9-2-2.1s0.5-2,1.8-2C197.4,286.2,197.5,287.4,197.5,288.5z"/>
			<path class="st1" d="M93.8,178.4l-2,0.9l-0.6-0.8l1.1-2.1l1,0.9l-0.7-1.7c0.7-1,2.1-1.2,3.1-0.4c0,0,0,0,0.1,0.1
				c0.5,0.5,0.8,1.2,0.7,1.9C96,178.6,94.8,178.1,93.8,178.4z"/>
			<path class="st1" d="M317.1,178.6c-0.7,0.5-1.3,1.3-2.1,1.4c-1.4,0.1-2.1-0.8-2-2.2c0.1-0.9,0.3-1.9,1.5-1.8
				C315.5,175.9,316.9,177.4,317.1,178.6z"/>
			<path class="st1" d="M338.3,105.4c-2.1-1.4-1.7-3.4-2.2-5.1c0-0.1,0.8-0.8,1.1-0.8c0.7,0.2,1.8,0.8,1.8,1.2
				C338.9,102.4,338.6,103.9,338.3,105.4z"/>
			<path class="st1" d="M554.1,408.2c-0.3-1.6,0.8-1.8,2-1.9s1.8,0.5,1.8,1.6s-1.3,2.4-2.2,2.2C554.5,410.1,553.8,409.5,554.1,408.2
				z"/>
			<path class="st1" d="M442.4,453.6c0.1,1.4,0.2,2.7-1,3.3c-0.8,0.3-1.6,0.1-2.2-0.4c-0.3-0.8-0.3-1.6,0-2.4
				C439.9,452.3,441.2,453.7,442.4,453.6z"/>
			<path class="st1" d="M188.9,227.6c0-1,0.8-1.8,1.8-1.7c0,0,0.1,0,0.1,0c1-0.1,1.8,0.6,1.9,1.6c0,0.1,0,0.2,0,0.2
				c-0.1,1.1-1,2-2.1,2.2C189.8,230,188.9,229,188.9,227.6z"/>
			<path class="st1" d="M152.9,136.4c1.3-0.1,1.9,0.4,2,1.5c-0.1,1.2-1,2.2-2.2,2.3c-1.1-0.1-1.7-0.7-1.7-2
				C151,136.8,151.7,136.3,152.9,136.4z"/>
			<path class="st1" d="M132.6,303.1c-0.1-1,0.2-2,1.3-1.8c1,0.3,1.9,0.9,2.4,1.8c0.4,0.6-1.2,2.3-2,2.2c-1,0-1.8-0.8-1.8-1.9
				C132.6,303.4,132.6,303.2,132.6,303.1z"/>
			<path class="st1" d="M586.8,270.2c-1.8-1.9-1.6-3.6,0.3-4.4c0.6-0.4,1.4-0.2,1.8,0.5c0.2,0.3,0.2,0.6,0.2,0.8
				C589.1,268.5,588.4,269.4,586.8,270.2z"/>
			<path class="st1" d="M85.2,270.1c0.6,0.8,1.1,1.7,1.5,2.6c0.3,0.9-1.1,2-2.3,1.9c-1.4-0.1-1.5-1.4-1.4-2.2s0.9-1.6,1.4-2.3
				L85.2,270.1z"/>
			<path class="st1" d="M27.5,423.6c-0.8-1.2-1.8-2.1-1.6-2.6c0.3-0.9,1.1-1.6,2-2c0.8-0.1,2.3,0.3,1.9,1.7
				C29.5,421.6,28.5,422.4,27.5,423.6z"/>
			<path class="st1" d="M156.2,453.3c-0.9,0.1-1.8-0.5-2-1.4c0-0.1,0-0.2,0-0.3c-0.1-0.8,0.6-1.7-0.5-2.4c0,0,0.2-0.8,0.5-0.9
				c0.4-0.1,0.8,0,1.1,0.2c0.7,0.9,1.4,1.9,2,3C157.9,452.6,157.4,453.2,156.2,453.3z"/>
			<path class="st1" d="M154.5,377.2c-1-0.2-2-0.6-2.9-1c-0.7-0.4-1.2-1-1.6-1.8c-0.1-0.5,0.1-1.1,0.5-1.5c0.4-0.2,1-0.2,1.4,0
				C153,374.2,154.5,375.1,154.5,377.2z"/>
			<path class="st1" d="M225.2,401.5c-0.1-1.1,0.1-2.1,1.4-2c1.1,0.1,2.1,0.5,2.1,1.8c0,1.1,0,2.1-1.7,2.1S225,402.7,225.2,401.5z"
				/>
			<path class="st1" d="M169.4,359.6c0.3,0,0.5,0,0.8,0.1c0.6,0.4,1.8,1,1.8,1.4c-0.1,1-0.6,1.9-1.2,2.7c-0.7,0.8-1.5,0.3-1.8-0.6
				C168.3,362.1,168.5,360.6,169.4,359.6z"/>
			<path class="st1" d="M446.3,130.2c2.7-0.4,3.8,0.1,3.7,1.7c0,0.9-0.7,1.7-1.6,1.7c-0.1,0-0.2,0-0.3,0
				C446.5,133.6,446.1,132.8,446.3,130.2z"/>
			<path class="st1" d="M76.5,460.6c-0.4,0-0.9,0.1-1.1-0.1c-0.3-0.5-0.5-1.1-0.7-1.6c0.5-0.1,1.1-0.2,1.6-0.1
				c0.6,0.1,1.2,0.3,1.7,0.7c0.5,0.5,1.2,1.2,1.1,1.8c-0.2,0.7-0.7,1.3-1.4,1.5C76.1,462.9,76.9,461.4,76.5,460.6z"/>
			<path class="st1" d="M436.4,330.2c0.2,1.4-0.7,1.6-1.8,1.6c-0.9,0-1.9,0.1-1.7-1.3c0.1-1.1-0.1-2.5,1.6-2.5c1-0.1,1.9,0.7,2,1.7
				C436.4,329.9,436.4,330,436.4,330.2z"/>
			<path class="st1" d="M397.9,225.3c0,1.2-1.4,3-2.1,2.6c-0.8-0.3-1.4-1-1.6-1.8c-0.1-0.8,0.1-2.1,1.4-2.2
				C396.8,223.9,397.7,224.3,397.9,225.3z"/>
			<path class="st1" d="M599.1,318.1c-1.4,0.1-1.8-0.6-1.8-1.8s0.7-1.8,1.8-1.8s2,0.5,2,1.9S600.2,318.1,599.1,318.1z"/>
			<path class="st1" d="M196.1,48c-1.4,0.1-1.8-0.6-1.8-1.8s0.7-1.8,1.8-1.8s2,0.5,2,1.9S197.2,48.1,196.1,48z"/>
			<path class="st1" d="M183.9,333.3c0.2,1-0.5,1.9-1.5,2c-0.2,0-0.3,0-0.5,0c-0.8,0.1-1.6-0.5-1.7-1.3c0-0.2,0-0.3,0-0.5
				c0-1.1,0.5-2.1,1.7-2S184,332,183.9,333.3z"/>
			<path class="st1" d="M416.8,386.9c0,1.6-0.9,1.8-2,1.9c-1.5,0.1-1.8-0.9-1.9-2.1c-0.1-1.3,0.7-1.5,1.8-1.5
				C415.7,385,416.6,385.8,416.8,386.9C416.8,386.9,416.8,386.9,416.8,386.9z"/>
			<path class="st1" d="M583,479.3c1.3-0.1,1.9,0.6,1.9,1.9s-0.9,1.6-2,1.6c-0.9,0.1-1.7-0.5-1.8-1.4c0-0.1,0-0.3,0-0.4
				C581.1,479.7,581.8,479.2,583,479.3z"/>
			<path class="st1" d="M110.8,479c0.8,0.9,2.4,1.3,1.7,2.9c-0.3,0.7-1,1.2-1.7,1.5c-0.5,0.1-1.4-0.7-1.7-1.3
				C108.4,480.5,110,480.1,110.8,479z"/>
			<path class="st1" d="M13.8,116.9c0.1,1.4-0.7,1.8-1.8,1.8c-1.4,0.1-2-0.6-2.1-2c-0.1-1.2,0.5-1.6,1.6-1.6
				C12.9,115.1,13.7,115.8,13.8,116.9z"/>
			<path class="st1" d="M88.2,225.4c0.9,1.2,2.1,2,1.5,3.5c-0.4,1-1,1.7-2.2,1.2c-0.9-0.3-1.4-1.3-1.1-2.2c0-0.1,0.1-0.2,0.1-0.3
				C87.1,226.8,87.6,226.1,88.2,225.4z"/>
			<path class="st1" d="M94,459.4c1.7-1.4,3.5-0.9,5.1-0.9c0.2,0,0.7,1.2,0.6,1.3c-0.7,0.5-1.5,1.4-2.2,1.2
				C96.2,460.6,95.1,460.1,94,459.4z"/>
			<path class="st1" d="M114.9,25.6c2.8-0.3,4,0.2,4.1,1.6c0.1,1-0.2,1.8-1.4,1.8C115.8,29,115,27.9,114.9,25.6z"/>
			<path class="st1" d="M517.9,295.6c2.8-0.3,4,0.2,4.1,1.6c0,1-0.3,1.7-1.5,1.8C518.8,299,518,297.9,517.9,295.6z"/>
			<path class="st1" d="M343.2,71.3c0.8-0.7,1.2-1.4,1.8-1.5c0.8-0.1,2,0,2.3,0.5c0.4,0.6,0.1,1.7,0.1,2.6c-0.8,0-1.7-0.1-2.5-0.3
				C344.3,72.5,343.9,71.9,343.2,71.3z"/>
			<path class="st1" d="M600.9,66.2c0.1,1-0.7,1.9-1.8,2c0,0,0,0-0.1,0c-0.9,0.1-2.2-1.2-1.9-2.1c0.4-0.9,1.1-1.5,2-1.8
				C600,64.2,600.9,64.9,600.9,66.2z"/>
			<path class="st1" d="M386.1,222.5c0.2,0.9-0.4,1.8-1.3,2c-0.2,0-0.4,0-0.5,0c-1.1,0-2-0.8-2-1.9c0,0,0,0,0-0.1
				c0-1.2,1.1-1.7,2.1-1.7S386.4,221.2,386.1,222.5z"/>
			<path class="st1" d="M8.9,385.2c-0.2,0.8-0.3,1.9-1.7,1.9c-1.2,0-2-0.6-2.1-1.8c-0.1-1.5,0.9-1.6,2.1-1.7S8.9,384,8.9,385.2z"/>
			<path class="st1" d="M247.8,411.7c0-2.2,1.7-3.4,3.3-2.9c0.1,0,0.4,0.2,0.4,0.3c-0.1,1-0.3,1.9-0.7,2.8c-0.5,0.5-1.1,0.8-1.8,0.8
				C248.4,412.6,248,411.9,247.8,411.7z"/>
			<path class="st1" d="M43,347.3c1.8-1.2,2.8-1.1,3.3,0.5c0.2,0.6,0.1,1.3-0.2,1.8c-0.5,0.4-1.3,0.6-1.9,0.4c-0.6-0.2-1-1-1.4-1.7
				C42.7,348,43,347.6,43,347.3L43,347.3z"/>
			<path class="st1" d="M101.6,96.7c-1.2,0.1-1.3-0.9-1.1-1.6c0.4-0.9,0.9-1.8,1.4-2.6c0.7,0.7,1.7,1.3,2,2.1S102.8,96.7,101.6,96.7
				z"/>
			<path class="st1" d="M124.4,363.1c-0.3,1.3-0.5,2.3-1.7,2.3c-1,0.1-1.8-0.6-1.9-1.6c0-0.1,0-0.2,0-0.3c0-1.4,0.8-2.3,2.1-2.1
				C123.5,361.5,124,362.5,124.4,363.1z"/>
			<path class="st1" d="M277.5,484.2c1.5,0,2.9-0.5,3.6,0.9c0.1,0.6-0.1,1.3-0.6,1.7c-1,0.3-2.1,0.4-3.1,0.4L277.5,484.2z"/>
			<path class="st1" d="M502.9,365.1l2.1-2.5c0.7,0.6,1.7,1.2,2,2c0.4,1-1.2,2.4-2.3,2.1C504.1,366.6,503.6,365.8,502.9,365.1z"/>
			<path class="st1" d="M465.7,106.7c2.2-1.1,4.2-0.3,4.1,1.8c0,1-0.5,1.4-1.4,1.2C466.9,109.3,465.7,108.5,465.7,106.7z"/>
			<path class="st1" d="M277.6,229c0.1-1.8,0.9-2.1,2-2.1s2.1,0.6,1.8,1.8c-0.3,0.9-1.1,1.5-2,1.8
				C278.8,230.5,278.1,229.4,277.6,229z"/>
			<path class="st1" d="M74.8,12.5c0,1.6-1,2.2-2.7,2.2c-1.2,0-1.1-0.9-1.1-1.6c0-1,0.5-1.9,1.6-1.9S74.7,11.6,74.8,12.5z"/>
			<path class="st1" d="M79.9,480.7c1.1,1,1.8,2,1.4,3.3c-0.3,0.8-0.2,1.8-1.5,1.5c-1.1-0.3-1.7-1.4-1.4-2.4c0-0.1,0-0.1,0.1-0.2
				C78.8,482.2,79.3,481.4,79.9,480.7z"/>
			<path class="st1" d="M126,472c1.5,1.6,1.5,2.7,0.2,3.6c-0.7,0.6-1.8,0.5-2.4-0.2c0,0-0.1-0.1-0.1-0.1c-0.5-0.7-0.3-1.7,0.3-2.2
				c0.1-0.1,0.2-0.1,0.4-0.2C124.9,472.6,125.4,472.3,126,472z"/>
			<path class="st1" d="M333.4,66.2c1.3,0.1,2.2,1.2,2.2,2.5c0,1-0.5,1.9-1.5,1.5c-0.9-0.4-1.7-1.2-2.1-2.1
				C331.8,67.8,332.9,66.8,333.4,66.2z"/>
			<path class="st1" d="M221.7,486.4c-0.9-1.1-1.6-1.6-1.8-2.4c-0.2-0.9,1.2-2.2,2.1-2.2c1.4,0,1.6,1.2,1.4,2
				S222.6,485.3,221.7,486.4z"/>
			<path class="st1" d="M325.6,155c0.5-0.7,1-1.3,1.6-1.9c0.6-0.4,1.3-0.7,2-0.9c0.4,0,0.7,0,1.1,0.1c-0.1,0.4-0.2,1-0.4,1.1
				c-0.9,0.3-0.9,0.9-1.2,1.6c-0.4,0.7-1,1.2-1.7,1.4C326.8,156.5,326.2,155.6,325.6,155z"/>
			<path class="st1" d="M50.1,441.3l-0.8,0.4c-0.9-0.9-1.6-1.6-2.4-2.3s-1.1-1.3-0.5-2.1s1.5-0.6,2.2,0c0.4,0.4,0.7,1,0.9,1.6
				C49.8,439.6,50,440.4,50.1,441.3z"/>
			<path class="st1" d="M456.4,244.9c-0.9-0.2-1.9-0.5-1.9-1.9c0-1.2,0.6-1.6,1.8-1.7c0.9-0.2,1.8,0.5,2,1.4c0,0.1,0,0.2,0,0.3
				c0.1,0.9-0.6,1.7-1.5,1.8C456.7,244.9,456.5,244.9,456.4,244.9z"/>
			<path class="st1" d="M12.8,257.7c-1.8-0.9-2.7-2.7-1.9-3.8s1.6-0.4,2.4,0.1C14.8,255.1,14.7,255.4,12.8,257.7z"/>
			<path class="st1" d="M197.5,399.6l-0.8-1.6c1.6-0.5,2.9-1,4.3-1.3c0.5,0,0.9,0.3,1.2,0.7c0.2,0.5,0.1,1-0.3,1.4
				c-0.4,0.4-1,0.5-1.5,0.4C199.4,398.7,198.4,398.5,197.5,399.6z"/>
			<path class="st1" d="M204.1,343.6c0.6-0.4,1.4-1.4,1.7-1.2c0.8,0.5,1.6,1.1,2.2,1.9c-0.7,0.6-1.3,1.6-2.1,1.8
				C204.7,346.2,204.5,345,204.1,343.6z"/>
			<path class="st1" d="M72.7,212.2c-0.3-0.3-1.4-0.9-1.4-1.4c0.1-0.9,0.7-1.6,1.5-2c1.1-0.4,2.2,0.8,2.2,2S74.8,212.2,72.7,212.2z"
				/>
			<path class="st1" d="M288.6,404.6c-1.1,0.1-1.8-0.1-1.7-1.4s0.5-2.1,1.8-2s1.7,1,1.7,2.2C290.5,404.7,289.4,404.5,288.6,404.6z"
				/>
			<path class="st1" d="M503.1,100.6c-0.5-0.8-0.9-1.6-1.1-2.4c0-0.4,0.9-1.3,1.5-1.3c0.9,0,2.2,0.2,2.1,1.5
				C505.5,99.4,504.9,100.4,503.1,100.6z"/>
			<path class="st1" d="M280.9,129.1c-1.1,0.1-1.6-0.5-1.6-1.6c-0.1-1,0.5-1.9,1.5-2.1c0.9-0.2,2,1.1,2,2.2
				C282.7,128.7,282.1,129.1,280.9,129.1z"/>
			<path class="st1" d="M538.1,476c1.7-1.1,3.3-1.1,4,0.1c0.5,0.6,0.4,1.5-0.2,2c-0.1,0.1-0.2,0.1-0.3,0.2
				C540.5,478.9,538.7,477.6,538.1,476z"/>
			<path class="st1" d="M84.8,397c0.6,0.2,1.8,0.4,1.7,1.8c-0.1,1.3-1.1,1.6-2.1,1.6c-1.4,0.1-1.4-0.8-1.4-1.9S83.1,396.8,84.8,397z
				"/>
			<path class="st1" d="M53.8,269.4c-1.1,0.9-1.7,1.7-2.4,1.9c-1,0.2-1.7-0.6-1.8-1.8c-0.1-0.9,0.5-1.8,1.5-1.9c0.1,0,0.3,0,0.4,0
				C52.2,267.6,52.8,268.5,53.8,269.4z"/>
			<path class="st1" d="M142.7,399.3c-0.8,0.5-1.5,1.4-2.2,1.3c-0.5,0-1.3-1.3-1.3-2s0.8-1.3,1.2-2l2.4,2V399.3z"/>
			<path class="st1" d="M356.4,220.7c1.4,2.6,1.4,3.5,0.2,4c-0.9,0.4-1.8,0.4-2.2-0.7C353.7,222.6,354.3,221.7,356.4,220.7z"/>
			<path class="st1" d="M384.9,180.8c-0.2,0.9-0.2,1.9-1.6,1.8c-1.2,0-1.8-0.6-1.9-1.7c-0.1-1,0.7-1.8,1.6-1.9c0.1,0,0.2,0,0.2,0
				C384.5,178.9,384.8,179.7,384.9,180.8z"/>
			<path class="st1" d="M375.9,99.3c-0.3,1.5-1,1.9-2,2s-2.5-1.3-2.1-1.9c0.6-0.7,1.5-1.2,2.4-1.4C374.8,98,375.4,98.9,375.9,99.3z"
				/>
			<path class="st1" d="M621.6,27c0.8,0.9,0.9,2.3,0.3,3.3c-0.3,0.5-0.9,0.8-1.5,0.9c-0.4,0-1-0.7-1.1-1.1
				C618.9,28.6,619.6,27.8,621.6,27z"/>
			<path class="st1" d="M130.5,402.2c-0.3,1.4-0.7,2.5-1.9,2.3c-0.8-0.3-1.4-1-1.6-1.8c-0.3-0.7,1.4-2.1,2.3-1.9
				C129.8,401,130.2,401.8,130.5,402.2z"/>
			<path class="st1" d="M76.5,208.1c-1,0-1.5-0.6-1.5-1.6c0.1-1.2,1.2-2,2.4-1.9c0,0,0.1,0,0.1,0c0.4,0.1,0.9,0.9,0.9,1.4
				c0.1,1.1-0.8,2-1.9,2.1C76.6,208.1,76.6,208.1,76.5,208.1z"/>
			<path class="st1" d="M127,350.2c1.7-0.3,1.7,1,1.8,2s-0.4,1.5-1.5,1.5s-1.8-0.9-1.8-2.2C125.6,350.6,125.9,350,127,350.2z"/>
			<path class="st1" d="M507.8,22.6c0.7,2.1,0.3,3.7-1.1,4c-0.7,0-1.3-0.3-1.7-0.8C504.3,24.7,505.7,23.3,507.8,22.6z"/>
			<path class="st1" d="M409.6,127.7c-0.1-1.4,0.4-1.9,1.5-1.8c1-0.1,1.8,0.7,1.9,1.6c0,0.1,0,0.2,0,0.4c0,0.5-1,1.5-1.4,1.4
				C410.8,129.2,409.2,129.3,409.6,127.7z"/>
			<path class="st1" d="M44.7,175.3c-1,0.1-1.9-0.6-2-1.6c0-0.1,0-0.2,0-0.3c0-0.8,0.6-1.4,1.4-1.5c0.2,0,0.3,0,0.5,0.1
				c0.8,0.2,1.5,0.8,1.8,1.6c0.1,0.8-0.4,1.6-1.2,1.7C44.9,175.3,44.8,175.3,44.7,175.3z"/>
			<path class="st1" d="M90.7,156.1c0.7-0.1,1.4,0.4,1.5,1.1c0,0.1,0,0.3,0,0.4c0,1.1-0.5,2-1.8,2c-0.8,0.1-1.6-0.5-1.7-1.3
				c0-0.1,0-0.2,0-0.4c0-1,0.7-1.8,1.7-1.9C90.6,156.1,90.6,156.1,90.7,156.1z"/>
			<path class="st1" d="M316.2,20.3c-0.7,0.4-1.5,1.1-2.1,1c-0.6-0.1-1-0.7-0.8-1.3c0.1-0.2,0.2-0.4,0.3-0.6c0.6-0.4,1.3-0.6,2-0.5
				l1.6-1.2l1.3,2.2h-2.4L316.2,20.3z"/>
			<path class="st1" d="M493,429.8c-0.3-0.5-1.1-1.1-1.1-1.8c-0.1-1.1,0.6-1.8,1.8-1.9c0.7-0.1,1.4,0.4,1.6,1.1c0,0.1,0,0.3,0,0.4
				C495.2,428.8,494.7,429.6,493,429.8z"/>
			<path class="st1" d="M260.9,267.2c2.1,1.9,2.6,3.1,1.8,3.9c-1,1-2,0.5-2.7-0.4C258.8,269.2,260.7,268.6,260.9,267.2z"/>
			<path class="st1" d="M230,348.6c0.2-0.2,0.5-0.7,0.9-0.8c1.2,0,2.2,0.8,2.5,2c0,0.9-0.7,1.7-1.6,1.7c0,0,0,0,0,0
				C230.7,351.5,230,350.4,230,348.6z"/>
			<path class="st1" d="M199.4,184.1c-0.5-0.8-1.4-1.5-1.4-2.3c0-0.5,1.1-1.1,1.6-1.7c0.6,0.6,1.5,1.1,1.6,1.8s-0.7,1.5-1.1,2.2
				H199.4z"/>
			<path class="st1" d="M428.6,119c0.7,1,1.4,1.7,1.5,2.4c0.1,0.9-0.5,2-1.6,1.6c-0.9-0.4-1.5-1.1-1.8-2
				C426.5,120.7,427.7,119.9,428.6,119z"/>
			<path class="st1" d="M414.1,433.5c0.9,0.8,2.3,1.2,1.9,2.7c-0.2,0.6-0.8,1.1-1.5,1.3c-0.6-0.1-1.2-0.4-1.5-1
				C412.5,435.4,413,434.1,414.1,433.5z"/>
			<path class="st1" d="M88.5,482.7c0,2-1,3.3-2.4,2.9c-0.5-0.1-1.1-1.2-1.1-1.9C85,482.4,86.2,482.1,88.5,482.7z"/>
			<path class="st1" d="M93.5,422.5c-0.9,0.8-1.3,2.5-2.9,1.6c-1.4-0.8-0.8-2-0.4-3.2C91.3,421.3,92.9,420.7,93.5,422.5z"/>
			<path class="st1" d="M44.3,59.6l2.1,1.9c-0.6,0.7-1.1,1.6-1.9,2c-0.3,0.2-1.7-0.9-1.7-1.5S43.6,60.6,44.3,59.6z"/>
			<path class="st1" d="M447.5,329.7c0.9,0.9,2,1.7,1.9,1.9c-0.4,0.9-1.1,1.6-1.9,2c-0.3,0.1-1.6-1-1.6-1.5S446.7,330.6,447.5,329.7
				z"/>
			<path class="st1" d="M131.1,449.2c-0.7,0.7-0.4,2.5-2,2.1c-0.7-0.3-1.2-0.9-1.4-1.6c-0.1-0.5,0.5-1.7,0.8-1.7
				c0.9,0.1,1.8,0.2,2.6,0.6L131.1,449.2z"/>
			<path class="st1" d="M305.3,146.4c1.6,0.8,0.6,2.6,1.2,3.8c-0.3,0.4-0.7,0.7-1.1,0.9c-1.1,0.1-1.4-0.7-1.3-1.7
				S303.8,147,305.3,146.4z"/>
			<path class="st1" d="M340.7,292.7c-0.1,1-0.5,1.6-1.6,1.5c-1.3,0-1.6-0.7-1.6-1.8s0.2-1.7,1.4-1.7S340.5,291.6,340.7,292.7z"/>
			<path class="st1" d="M159.5,202.4c1-0.4,2.2,0,2.6,1c0,0.1,0.1,0.1,0.1,0.2c0.1,0.7-0.1,1.4-0.6,1.9c-0.5,0.3-1.1,0.3-1.7,0
				C158.9,204.7,158.8,203.6,159.5,202.4z"/>
			<path class="st1" d="M398.9,150.9c-0.2,0.2-0.6,0.9-1.1,1.1c-1,0.2-2-1.1-1.9-2.4c0-0.5,0.5-1.2,0.8-1.3
				C397.8,148.2,398.8,149.3,398.9,150.9z"/>
			<path class="st1" d="M331.1,410.8c0.9,0.2,1.7,0.6,2.5,1c0.4,0.4,0.6,1,0.5,1.6c-0.3,0.6-0.9,0.9-1.5,1c-0.4,0-1.1-0.5-1.3-1
				c-0.3-0.7-0.4-1.5-0.5-2.2L331.1,410.8z"/>
			<path class="st1" d="M224.8,404.6c1.4,0,1.7,0.8,1.7,1.9s-0.9,1.3-1.8,1.3s-1.7-0.5-1.6-1.5S223.6,404.5,224.8,404.6z"/>
			<path class="st1" d="M181.9,391.5c-0.9,0.9-1.4,1.7-2,1.9c-0.8,0.1-1.6-0.4-1.7-1.2c0-0.2,0-0.4,0-0.5c0.2-0.8,0.7-1.5,1.5-1.8
				C180.2,389.8,180.9,390.7,181.9,391.5z"/>
			<path class="st1" d="M558.1,306.4c-0.4,1.3-1,2.6-2.5,2.1c-0.6-0.2-1-1.2-1.6-1.8c0.6-0.4,1.2-0.7,1.9-0.9
				C556.7,305.9,557.4,306,558.1,306.4z"/>
			<path class="st1" d="M630.4,166.9c0.9-0.7,1.7-1.5,1.9-1.4c0.8,0.4,1.4,1,1.8,1.8c0.2,0.7-0.2,1.3-0.9,1.5
				c-0.2,0.1-0.4,0.1-0.6,0C631.9,168.6,631.4,167.8,630.4,166.9z"/>
			<path class="st1" d="M331.4,358.9c0-1.4,0.8-1.7,1.8-1.6s1.9,0.4,1.6,1.4c-0.4,0.8-1.1,1.4-1.9,1.7c-0.7,0.1-1.3-0.3-1.5-1
				C331.4,359.2,331.4,359,331.4,358.9z"/>
			<path class="st1" d="M25.2,423.7c1.5,0.3,2,0.9,2.1,1.9c0.1,0.8-0.5,1.6-1.3,1.7c-0.1,0-0.2,0-0.4,0c-0.8-0.3-1.3-1-1.5-1.8
				C24,425,24.8,424.3,25.2,423.7z"/>
			<path class="st1" d="M269.9,318.8c-2.2-0.8-2.3-2.6-1.4-3.4c0.5-0.4,1.3-0.4,2-0.5c0.2,0.6,0.3,1.2,0.3,1.9
				C270.6,317.5,270.3,318.2,269.9,318.8z"/>
			<path class="st1" d="M192.6,118.2c0.5-0.4,1.2-1.4,1.8-1.3c0.7,0.2,1.2,1.2,1.8,1.8c-0.5,0.4-0.9,1.1-1.5,1.2
				C193.9,120,192.9,120,192.6,118.2z"/>
			<path class="st1" d="M597.6,390.6c-0.9-0.9-1.7-1.3-1.8-2c-0.2-0.8,0.3-1.5,1-1.7c0.2,0,0.4-0.1,0.6,0c0.7,0.1,1.4,1.1,1.7,1.9
				C599.3,389,598.4,389.8,597.6,390.6z"/>
			<path class="st1" d="M155.1,36.3c-0.9,2.4-2.5,3-3.6,1.6c-0.3-0.4-0.5-1-0.3-1.5c0.4-0.4,0.9-0.7,1.4-0.7
				C153.5,35.8,154.3,36,155.1,36.3z"/>
			<path class="st1" d="M68,449.4c-0.2,1.4-1.2,2.3-2.1,2c-0.6-0.2-1.3-1.2-1.2-1.4c0.4-0.8,1-1.4,1.8-1.7
				C67,448.2,68.3,448.3,68,449.4z"/>
			<path class="st1" d="M546.7,422.5c0.3-0.7,0.6-1.4,1-2c0.5-0.5,1-0.9,1.6-1.2c0.3,0.6,1,1.2,0.9,1.7c-0.1,0.7-0.6,1.3-1.2,1.7
				C548.4,422.9,547.6,422.6,546.7,422.5z"/>
			<path class="st1" d="M319.8,176.8c0.8,0.9,1.8,1.6,1.6,2c-0.2,0.8-1,1.4-1.6,2c-0.6-0.6-1.5-1.1-1.6-1.9
				C318.1,178.6,319,177.8,319.8,176.8z"/>
			<path class="st1" d="M143.7,152.5c0.3-0.8,0.6-1.5,1.1-2.2c0.5-0.4,1-0.8,1.5-1.2c0.4,0.5,1,1,1,1.4c-0.1,0.7-0.4,1.4-1,1.9
				C145.6,152.8,144.7,152.5,143.7,152.5z"/>
			<path class="st1" d="M251.9,268.4c-0.9,2.5-1.7,3.2-2.5,2.5c-0.6-0.6-0.9-1.5-0.7-2.4C249.1,267.3,250.3,267.3,251.9,268.4z"/>
			<path class="st1" d="M44,5.8c-0.2-0.2-1.1-1-1-1.1c0.6-0.7,1.3-1.5,2.1-2.1c0.5,0.5,1.3,1,1.3,1.6C46.5,5.3,45.6,5.7,44,5.8z"/>
			<path class="st1" d="M446.9,275.8c-0.2-0.2-0.8-0.6-0.9-1.1c-0.2-0.8,1.3-2.3,2.1-2c0.6,0.3,1.1,0.8,1.3,1.5
				C449.6,275.1,448.6,275.8,446.9,275.8z"/>
			<path class="st1" d="M332.9,132.9c1.7-0.4,2.8-0.6,3.3,0.6c0.2,0.5,0.2,1.4-0.1,1.7c-0.5,0.4-1.6,0.7-1.9,0.4
				C333.7,134.8,333.2,133.9,332.9,132.9z"/>
			<path class="st1" d="M35.9,262.6c0.8,0.9,1.6,1.4,1.6,1.9c0,1-0.8,1.8-1.7,1.8c-0.1,0-0.2,0-0.3,0c-1.1,0-1.7-0.7-1.5-1.5
				C34.2,264.1,35,263.5,35.9,262.6z"/>
			<path class="st1" d="M327.8,344.8c1.6-0.8,2.6,0.1,3.4,0.9c0.2,0.3-0.2,1.4-0.6,1.9c-0.5,0.2-1.1,0.2-1.5-0.1
				C328.5,346.6,328.1,345.7,327.8,344.8z"/>
			<path class="st1" d="M313.7,337.9c0.6,0.7,1.1,1.4,1.6,2.2c0.2,0.5-0.2,1.2-0.3,1.7c-0.7-0.2-1.6-0.2-1.9-0.6
				C312.3,340.2,312.3,339,313.7,337.9z"/>
			<path class="st1" d="M479.7,466.9l-3,1.3c-0.2-0.6-0.6-1.2-0.5-1.6c0.3-0.7,1-1.6,1.5-1.6s1.4,0.8,2.1,1.2L479.7,466.9z"/>
			<path class="st1" d="M451.2,95.1c-0.9-1-1.7-1.6-1.8-2.3c-0.1-0.4,0.9-1.1,1.3-1.6c0.7,0.7,1.4,1.4,2,2.1
				C452.8,93.5,451.9,94.3,451.2,95.1z"/>
			<path class="st1" d="M270,303.2c0.3,0.6,1,1.2,0.9,1.8s-0.8,1.8-1.2,1.8c-0.8,0-2-0.4-1.8-1.6c0.1-0.7,0.9-1.3,1.4-2L270,303.2z"
				/>
			<path class="st1" d="M444.2,23.6c0.1-1.7,0.9-1.9,1.9-2c0.7-0.1,1.3,0.3,1.4,1c0,0.2,0,0.3,0,0.5c-0.1,1-0.7,1.9-1.8,1.7
				C445,24.6,444.5,23.9,444.2,23.6z"/>
			<path class="st1" d="M526.6,113.5c1-0.7,1.6-1.4,2.2-1.4c1-0.1,1.4,0.8,1.3,1.7s-0.2,2.1-1.4,1.9
				C528.1,115.5,527.5,114.5,526.6,113.5z"/>
			<path class="st1" d="M482.2,472.7c-0.4-0.6-1.1-1.4-1-1.8c0.4-0.7,1.2-1.2,1.9-1.8c0.4,0.6,1.2,1.2,1.2,1.7s-0.8,1.2-1.3,1.9
				L482.2,472.7z"/>
			<path class="st1" d="M212.3,210.6c1.8-0.8,2.6,0.2,3.1,1.2c0.1,0.6,0,1.1-0.3,1.6c-0.7,1-1.5,0.6-1.9-0.2
				C212.8,212.4,212.5,211.5,212.3,210.6z"/>
			<path class="st1" d="M615.5,427.5c-0.8-0.7-1.5-1.4-2.2-2.2c0.2-0.6,0.6-1,1.2-1.3c0.5-0.1,1.5,0.2,1.6,0.5
				c0.1,0.9,0.2,1.8,0.1,2.7L615.5,427.5z"/>
			<path class="st1" d="M26.8,415.5c-1,0.8-1.6,1.5-2.2,1.6c-0.8,0.2-1.6-0.4-1.7-1.2c0-0.1,0-0.2,0-0.4c-0.1-0.9,0.6-1.7,1.5-1.7
				c0.1,0,0.2,0,0.3,0C25.2,413.9,25.8,414.7,26.8,415.5z"/>
			<path class="st1" d="M212.8,157.2c-1.4-0.3-2.6-0.8-2.5-2.3c0-0.7,1.6-1.3,2.3-1C213.8,154.5,213.9,155.4,212.8,157.2z"/>
			<path class="st1" d="M174.4,275.4c-0.7,0.6-1.5,1-2.4,1.3c-0.7,0.1-1.3-0.3-1.4-1c0-0.2,0-0.4,0-0.6c0.4-0.8,1.2-1.3,2-1.6
				C172.8,273.4,173.5,274.5,174.4,275.4z"/>
			<path class="st1" d="M230.5,262.5c0.2,0.2,0.9,1,0.8,1.2c-0.7,0.8-1.4,1.5-2.2,2.2c-0.4-0.4-1.1-1.1-1-1.3
				C228.6,263.8,228.4,262.2,230.5,262.5z"/>
			<path class="st1" d="M609.2,308.3c-0.8,0.7-1.4,1.6-2,1.6c-0.8,0-2-0.4-1.8-1.6c0.1-0.6,1-1.6,1.3-1.5
				C607.5,307.1,608.4,307.6,609.2,308.3z"/>
			<path class="st1" d="M203.6,36c0.9,1,1.7,1.6,2,2.4c0.1,0.3-0.9,1.4-1.5,1.5c-0.8,0-2-0.4-1.8-1.6C202.6,37.4,203,36.7,203.6,36z
				"/>
			<path class="st1" d="M111,314.4c1.6,0.1,2.5,0.5,2.5,1.8c-0.1,0.6-0.6,1.2-1.1,1.5c-0.4,0.2-1.2-0.1-1.7-0.2L111,314.4z"/>
			<path class="st1" d="M13.4,469.2c1.5,0.2,1.8,0.9,1.9,1.8s-0.3,1.6-1.4,1.6S12,472,12.1,471C12.2,470.4,12.9,469.8,13.4,469.2z"
				/>
			<path class="st1" d="M242.7,195.6c-0.2,0.9-0.4,1.8-0.8,2.6c-0.2,0.3-1.4,0.2-1.8-0.1c-0.4-0.5-0.5-1.1-0.4-1.7
				c0.7-0.6,1.4-1,2.2-1.4L242.7,195.6z"/>
			<path class="st1" d="M475.9,402.6c-1.8,0.2-2.3-0.7-2.2-1.6c0.1-0.6,0.8-1.7,1.2-1.7c1,0,1.8,0.7,1.8,1.7c0,0.1,0,0.2,0,0.3
				C476.7,401.9,476,402.4,475.9,402.6z"/>
			<path class="st1" d="M72.9,132.6c-1.8,0.2-2.3-0.7-2.2-1.6c0.1-0.6,0.8-1.7,1.2-1.7c1,0,1.8,0.7,1.8,1.7c0,0.1,0,0.2,0,0.3
				C73.7,131.8,73,132.4,72.9,132.6z"/>
			<path class="st1" d="M522.3,286.3c-0.9-0.7-2.6,0.5-2.9-1.4c0-0.6,0.2-1.1,0.7-1.6c0.8,0.1,1.6,0.4,2.3,0.9
				c0.4,0.4,0.3,1.3,0.4,1.9L522.3,286.3z"/>
			<path class="st1" d="M119.4,16.3c-1-0.8-3.3,0.4-2.9-2.1c0.1-0.8,0.7-1.4,1.7-0.9C119.9,14,120.2,14.6,119.4,16.3z"/>
			<path class="st1" d="M116.1,460.2c-0.6,0.4-1.2,0.8-1.9,1c-0.8,0.1-1.5-0.4-1.6-1.2c0-0.2,0-0.3,0-0.5c0.1-0.6,1.2-1,1.8-1.6
				L116.1,460.2z"/>
			<path class="st1" d="M70.3,326c0.6-1.6,2-2.8,2.6-2.2c0.5,0.6,0.8,1.5,0.6,2.3C73.1,327.3,72.1,327.2,70.3,326z"/>
			<path class="st1" d="M453.6,85.6c1.6,0,2.3,0.6,2.2,1.6c-0.1,0.6-0.8,1.4-1.2,1.5c-0.9,0.1-1.7-0.5-1.8-1.3c0-0.1,0-0.2,0-0.3
				C452.7,86.4,453.4,85.9,453.6,85.6z"/>
			<path class="st1" d="M596.3,141.5c-1.5-1.6-1.7-2.6-0.7-3.5c0.8-0.7,1.5-0.3,2,0.4C598.3,139.5,597.8,140.6,596.3,141.5z"/>
			<path class="st1" d="M544.8,340.8c-1-1.1-1.8-1.6-2-2.4c-0.1-0.3,1-1.4,1.6-1.5c0.8,0.2,1.4,0.7,1.7,1.4
				C546.2,338.9,545.4,339.7,544.8,340.8z"/>
			<path class="st1" d="M209.7,146.3c0.7-0.8,1.2-1.7,1.7-1.8s1.7,1,1.6,1.2c-0.4,0.9-1,1.7-1.6,2.4L209.7,146.3z"/>
			<path class="st1" d="M612.7,416.3c0.7-0.8,1.3-1.8,1.7-1.7c0.7,0.2,1.8,1,1.7,1.4c-0.4,0.9-0.9,1.6-1.5,2.3L612.7,416.3z"/>
			<path class="st1" d="M140.9,69.9c-0.2-0.3-1.1-0.9-1.1-1.5c0-0.5,1-1.4,1.6-1.4c0.8-0.1,1.5,0.4,1.6,1.2c0,0.2,0,0.3,0,0.5
				C142.9,69.3,142.7,70.3,140.9,69.9z"/>
			<path class="st1" d="M265.8,252c2,1.2,2.4,1.9,1.6,3c-0.5,0.7-1,0.9-1.8,0.3C264.3,254.2,264.3,253.5,265.8,252z"/>
			<path class="st1" d="M526.5,279.4c-0.6,1,0.8,2.7-1.1,3c-0.7,0.1-2,0.1-1.8-1.5S524.1,279.2,526.5,279.4z"/>
			<path class="st1" d="M570.3,215.1c-0.5-0.9-0.9-1.8-1.2-2.8c-0.1-0.2,0.8-1.1,1-1c0.7,0.3,1.8,0.8,1.9,1.3c0,0.8-0.7,1.7-1,2.5
				H570.3z"/>
			<path class="st1" d="M620.5,171l2.2,1.8l-2.4,2.8C619,173.9,620,172.7,620.5,171z"/>
			<path class="st1" d="M485.7,393.6c1.4,0.7,3.2,0.1,3.4,2.4l-3.8,0.8L485.7,393.6z"/>
			<path class="st1" d="M316,405.5c1.6,0,2.4,0.7,2.4,1.8c-0.2,0.6-0.6,1.1-1.2,1.3c-1.5,0.3-1.6-1.1-1.8-2
				C315.3,406.3,315.8,405.8,316,405.5z"/>
			<path class="st1" d="M307.7,28.3c1.4,0.3,1.8,0.9,1.8,2s-0.8,1.3-1.3,1.1c-0.8-0.4-1.5-1-2.2-1.6L307.7,28.3z"/>
			<path class="st1" d="M82.6,123.5c1.5,0.8,3.3,0.2,3.4,2.3c-0.4,0.2-0.8,0.3-1.3,0.4c-0.8,0.1-1.6,0.1-2.4,0.1L82.6,123.5z"/>
			<path class="st1" d="M179.6,230.9c-1.4,0.1-1.3-1-1.2-1.7c0.2-0.6,0.6-1.2,1.2-1.4c0.7-0.2,1.5,0.3,1.7,1c0,0.2,0,0.4,0,0.5
				c0.1,0.8-0.5,1.5-1.3,1.6C179.9,230.9,179.7,230.9,179.6,230.9z"/>
			<path class="st1" d="M18.2,313.9c0.2,1.5-0.7,2.1-1.9,2.5c-0.8,0.2-1.6,0.1-1.8-0.9s0.5-1.5,1.3-1.5
				C16.6,313.9,17.4,313.9,18.2,313.9z"/>
			<path class="st1" d="M200.4,435.8c1.9-0.2,2,1,2.1,1.8s-0.6,1.9-1.4,1.5c-0.7-0.3-1.1-1.4-1.3-2.2
				C199.7,436.6,200.3,436,200.4,435.8z"/>
			<path class="st1" d="M226.9,358.7c-0.9-0.9-1.6-1.3-1.9-2c-0.1-0.3,1-1.5,1.2-1.5c0.8,0.4,1.5,0.9,2,1.6
				C228.4,357,227.6,357.9,226.9,358.7z"/>
			<path class="st1" d="M113.5,308.1l-2,2c-0.5-0.5-1.3-1-1.3-1.5c-0.1-1,0.7-1.8,1.6-1.9c0.1,0,0.2,0,0.3,0
				C112.4,306.7,112.8,307.4,113.5,308.1z"/>
			<path class="st1" d="M175.3,445.6c-0.1,1.5-0.7,2.2-1.8,2c-0.4-0.1-1.1-1-1.1-1.1c0.5-0.7,1.1-1.5,1.8-2.1L175.3,445.6z"/>
			<path class="st1" d="M226.2,227.6c0,0.8-0.1,1.6-0.3,2.3c-0.4,0.4-1,0.5-1.6,0.4c-0.6-0.3-0.9-0.9-1-1.6c0-1.7,1.7-0.4,2.2-1.4
				L226.2,227.6z"/>
			<path class="st1" d="M241.4,128.5c-1.5-0.2-1.9-1.1-1.7-1.9c0.1-0.6,1-1,1.5-1.4c0.5,0.6,1.2,1.1,1.4,1.8
				C242.7,127.3,241.8,128,241.4,128.5z"/>
			<path class="st1" d="M84.8,25c0.7,0.8,1.6,1.4,1.6,1.9S85.5,28,85,28.6c-0.5-0.6-1.3-1.1-1.5-1.8C83.3,26.5,84.2,25.8,84.8,25z"
				/>
			<path class="st1" d="M43,347.2l-1.2,1.7c-0.5-0.2-0.9-0.4-1.3-0.7c-0.5-0.4-1.7-0.5-0.8-1.7c0.7-0.9,1.4-1.3,2.3-0.5
				C42.4,346.4,42.7,346.8,43,347.2L43,347.2z"/>
			<path class="st1" d="M487.6,298.9c-0.4-0.7-1-1.3-1.1-2c0-0.4,1-1.3,1.4-1.2c0.6,0.1,1.5,0.9,1.6,1.4s-0.7,1.3-1.2,1.9
				L487.6,298.9z"/>
			<path class="st1" d="M73.1,460.1c-0.8,0.8-1.4,1.7-1.7,1.6c-0.6-0.2-1.6-1-1.6-1.5c0.1-0.7,0.9-1.2,1.5-1.9L73.1,460.1z"/>
			<path class="st1" d="M318.3,461.9c-1.3-1.3-1.5-2.3-0.8-3.3c0.2-0.3,1-0.5,1.1-0.4c0.5,0.4,1.2,1.2,1.1,1.6
				C319.6,460.5,318.8,461.1,318.3,461.9z"/>
			<path class="st1" d="M384.8,131.2c0.9,0.8,2.9,0.3,2.6,2.3c-0.1,0.4-1.1,0.9-1.6,0.8C383.9,133.9,384.1,132.7,384.8,131.2z"/>
			<path class="st1" d="M499.3,419.2l-2.1-1.8c0.6-0.4,1.2-1.1,1.8-1s1.3,0.8,2,1.2L499.3,419.2z"/>
			<path class="st1" d="M253.1,271.7c1.3-0.2,2.6-0.6,3.2,1.2c0.1,0.5-0.1,1-0.4,1.4c-0.2,0.2-0.9,0.1-1.2-0.1
				c-0.7-0.6-1.4-1.2-2-1.9L253.1,271.7z"/>
			<path class="st1" d="M96.4,149.2l-2.2-1.7c0.6-0.4,1.2-1.1,1.7-1.1c0.7,0.1,1.3,0.8,2,1.2L96.4,149.2z"/>
			<path class="st1" d="M114.2,272.3c1.4,0.9,1.7,1.8,0.6,2.8c-0.6,0.5-1.6,1-2.1,0C111.6,273.4,113.5,273.2,114.2,272.3z"/>
			<path class="st1" d="M174.8,290.7c-0.5,0.3-1.2,1-1.5,0.9c-0.7-0.2-1.1-1-1.7-1.5c0.6-0.4,1.1-1.2,1.7-1.2s1.1,0.7,1.6,1.1
				L174.8,290.7z"/>
			<path class="st1" d="M575.7,381.2c-0.9,0.6-1.4,1.4-1.9,1.4s-1.1-0.8-1.2-1.3c-0.2-0.7,0.1-1.4,0.8-1.6c0.2-0.1,0.4-0.1,0.7,0
				C574.5,379.6,575,380.4,575.7,381.2z"/>
			<path class="st1" d="M285,271.2c-0.9,0.7-1.4,1.4-2.1,1.6c-0.3,0.1-1.2-0.8-1.3-1.3c-0.1-1.2,1-1.5,1.9-1.7
				C283.8,269.7,284.2,270.5,285,271.2z"/>
			<path class="st1" d="M277.8,149.9c0.7,0.1,1.7,0,2.2,0.4c0.3,0.3,0.1,1.4-0.2,2c-0.2,0.4-1,0.4-1.6,0.6l-0.8-2.5L277.8,149.9z"/>
			<path class="st1" d="M620.5,427.4c-0.8,0.7-1.5,1.7-1.8,1.6c-0.6-0.2-1.1-1-1.6-1.5c0.5-0.5,1-1.2,1.6-1.4
				C619,425.9,619.7,426.7,620.5,427.4z"/>
			<path class="st1" d="M305.9,285.2c2.1-0.4,3.3-0.2,3.5,2.1c-0.7,0.1-1.6,0.6-2.2,0.2S306.4,286.1,305.9,285.2z"/>
			<path class="st1" d="M631.1,197.8c-0.2-0.3-0.7-0.9-0.6-1.1c0.5-0.8,1.1-1.6,1.8-2.3c0.3,0.3,0.9,0.6,1,1
				C633.3,196.7,632.3,197.7,631.1,197.8z"/>
			<path class="st1" d="M463.9,478.1c-0.7-0.9-1.5-1.4-1.5-2c0-0.4,0.9-1.3,1.4-1.3c0.8-0.1,1.5,0.4,1.6,1.2c0,0.2,0,0.3,0,0.5
				C465.2,476.9,464.6,477.3,463.9,478.1z"/>
			<path class="st1" d="M304.8,349.9c0.6,0.7,1.2,1.5,1.7,2.3c0.1,0.1-0.7,0.7-1,1.1c-0.7-0.7-1.4-1.4-2-2.1
				c-0.1-0.1,0.4-0.8,0.6-1.2L304.8,349.9z"/>
			<path class="st1" d="M172.7,111.1c-0.9,0.7-1.4,1.3-1.9,1.3s-1.1-0.8-1.2-1.3c-0.2-0.7,0.1-1.4,0.8-1.6c0.2-0.1,0.4-0.1,0.7,0
				C171.6,109.5,172,110.3,172.7,111.1z"/>
			<path class="st1" d="M239.1,402.7c0.4,1.2,1.7,2,0.4,3.1c-0.5,0.5-1.4,0.5-1.9,0c-0.2-0.2-0.3-0.4-0.4-0.7
				C236.8,403.7,238.1,403.4,239.1,402.7z"/>
			<path class="st1" d="M63.2,391c-0.3,0.7-0.5,1.6-1,2c-0.3,0.2-1.4-0.3-1.8-0.8s-0.1-1.1-0.1-1.7h2.5L63.2,391z"/>
			<path class="st1" d="M319.2,261.8c-0.9,1-1,2.6-2.6,2c-0.7-0.3-1-1.1-0.7-1.9c0.1-0.2,0.2-0.3,0.3-0.4
				C317.3,260.2,318.1,261.6,319.2,261.8z"/>
			<path class="st1" d="M416.4,252c0.8-0.6,1.4-1.4,1.7-1.3c0.6,0.1,1.5,0.9,1.4,1.3c-0.1,0.7-0.8,1.2-1.3,1.8L416.4,252z"/>
			<path class="st1" d="M147.6,430.3c1.7,0.2,2.5,0.8,2.1,2.4c-0.1,0.6-0.7,1-1.3,0.9c-0.1,0-0.3-0.1-0.4-0.2
				C146.3,432.7,148,431.4,147.6,430.3z"/>
			<path class="st1" d="M557.3,347.7c0.8,0.3,1.5,0.8,2.1,1.3c0.1,0.1-0.4,1.2-0.9,1.6c-0.5,0.2-1,0.2-1.5,0.1
				c-0.1-0.9-0.2-1.7-0.2-2.6L557.3,347.7z"/>
			<path class="st1" d="M154.3,77.7c0.7,0.3,1.4,0.8,2.1,1.3c0.1,0.1-0.4,1.2-0.8,1.5c-0.5,0.2-1,0.3-1.5,0.2
				c-0.2-0.8-0.3-1.7-0.4-2.5L154.3,77.7z"/>
			<path class="st1" d="M58.1,399.8c0.7,0.8,1.3,1.6,1.9,2.5c0,0.1-0.9,1-1.1,0.9c-0.8-0.3-1.4-0.8-2-1.5
				C56.9,401.6,57.5,400.8,58.1,399.8z"/>
			<path class="st1" d="M256.2,70.7c-0.4-0.7-0.6-1.5-0.6-2.3c0.1-0.4,1-0.8,1.6-1c0.2,0,0.8,0.7,0.9,1.1
				C258.4,69.8,257.6,70.3,256.2,70.7z"/>
			<path class="st1" d="M18.6,412.7c0.5,1.2,0.9,2.4-0.6,2.9c-0.7,0-1.4-0.4-1.7-1.1C15.9,412.7,17.6,413.1,18.6,412.7z"/>
			<path class="st1" d="M420.4,96.5l-1.6,1.4c-0.7-0.6-1.2-1.2-1.6-2c-0.2-0.5,0.1-1,0.5-1.1c0.2-0.1,0.5-0.1,0.7,0
				C419,95,419.6,95.7,420.4,96.5z"/>
			<path class="st1" d="M281.3,238.4c0.5,1.4,0.9,2.8-0.8,3.2c-0.4,0.1-1.4-0.9-1.4-1.5C279,238.8,280.2,238.8,281.3,238.4z"/>
			<path class="st1" d="M232.5,359.2c0.6-1.3,0.9-2.7,2.6-2.3c0.4,0.1,1,1.2,0.8,1.4C235.1,359.4,234,359.6,232.5,359.2z"/>
			<path class="st1" d="M591.7,152.5l1.9-1.7c0.4,0.5,1,1,1.2,1.6c0.2,0.8-0.2,1.7-1.2,1.5C593,153.8,592.5,153.2,591.7,152.5z"/>
			<path class="st1" d="M554,395.5c1.1-0.5,2-2,3.1-0.4c0.3,0.4,0.3,1.5,0,1.7C555.5,398,555.1,396.2,554,395.5z"/>
			<path class="st1" d="M407.6,111.4c1-1,1.8-2,3-0.9c0.8,0.8,0.3,1.6-0.4,2.1C408.6,113.6,408.5,111.8,407.6,111.4z"/>
			<path class="st1" d="M150.9,125.4c1.2-0.4,2.1-1.9,3.1-0.4c0.3,0.4,0.3,1.6,0,1.8C152.6,127.9,152.1,126.2,150.9,125.4z"/>
			<path class="st1" d="M148.9,388.2c-0.9,0.5-1.5,1.1-1.8,1c-0.6-0.4-1.2-0.9-1.7-1.5c0.5-0.4,1.1-1.2,1.6-1.2
				S148,387.4,148.9,388.2z"/>
			<path class="st1" d="M358.6,179.9c-0.4-0.5-1.1-1.1-1-1.6s0.9-1,1.4-1.5c0.4,0.5,1.2,0.9,1.2,1.4s-0.6,1-0.9,1.6L358.6,179.9z"/>
			<path class="st1" d="M81.4,242.5c0.5,0.6,0.9,1.3,1.3,2c0.1,0.2-0.9,1.1-1.1,1c-0.7-0.3-1.3-0.8-1.7-1.5c-0.2-0.3,0.5-1,0.8-1.5
				L81.4,242.5z"/>
			<path class="st1" d="M321.2,435.6c-0.1,1.4-0.7,1.9-1.6,1.7c-0.5-0.1-0.9-0.7-1.4-1.1c0.5-0.6,1-1.1,1.6-1.6
				C320,434.5,320.7,435.2,321.2,435.6z"/>
			<path class="st1" d="M55.4,388.8c-0.4-0.7-0.8-1.4-1.1-2.1c-0.1-0.4-0.1-1.1,0.2-1.2c0.4-0.2,1-0.3,1.5-0.1
				c0.4,0.2,0.6,0.6,0.7,1.1c-0.1,0.8-0.3,1.5-0.6,2.2L55.4,388.8z"/>
			<path class="st1" d="M254.2,75.1c1.3-2.3,1.6-2.4,3.4-1.1C256.4,76.4,256,76.5,254.2,75.1z"/>
			<path class="st1" d="M101.4,437c-0.8,0.6-1.2,1.2-1.6,1.2c-1.2,0-1.5-1-1.5-1.9c0-0.4,1-1.2,1.1-1.1
				C100.2,435.7,100.8,436.3,101.4,437z"/>
			<path class="st1" d="M465.3,104.4c-0.8,0.7-1.3,1.4-1.8,1.5s-1.3-1-1.2-1.3c0.2-0.7,0.9-1.2,1.4-1.7L465.3,104.4z"/>
			<path class="st1" d="M299,96.8c0.1,1.7-0.9,1.9-1.7,2c-0.3,0-1.1-0.7-1-1.1c0.1-0.9,0.6-1.9,1.8-1.7
				C298.4,96.2,298.8,96.7,299,96.8z"/>
			<path class="st1" d="M556.2,73.2c0.7,0.5,1.3,1,1.9,1.6c0.1,0.1-0.4,1.1-0.8,1.2s-1.6,0-1.6-0.2c-0.1-0.8-0.2-1.6-0.1-2.4
				L556.2,73.2z"/>
			<path class="st1" d="M162.9,112l-2,1.8c-0.4-0.5-1.1-0.9-1.2-1.5c-0.3-0.8,0.2-1.5,1.2-1.3C161.6,111.3,162.3,111.6,162.9,112z"
				/>
			<path class="st1" d="M564.2,380.8c0.3,0.5,1,1,0.9,1.3c-0.3,0.6-0.7,1.2-1.2,1.8c-0.4-0.5-1.1-0.9-1.2-1.5s0.5-1,0.8-1.6
				L564.2,380.8z"/>
			<path class="st1" d="M286.5,279.8c1-0.7,1.6-1.4,2.1-1.4s0.9,0.8,1.4,1.3c-0.5,0.5-1,1.2-1.6,1.4
				C288.1,281.2,287.5,280.4,286.5,279.8z"/>
			<path class="st1" d="M285.2,323.8c0.7,1,1.5,1.6,1.4,2c-0.1,0.6-0.9,1.2-1.3,1.7c-0.4-0.5-1.1-1-1.2-1.6S284.6,324.8,285.2,323.8
				z"/>
			<path class="st1" d="M308.7,188.6c1.2-0.4,2.2-1.3,3,0c0.4,0.6,0.3,1.4-0.2,1.9c-0.1,0.1-0.3,0.2-0.4,0.2
				C309.3,191.3,309.4,189.7,308.7,188.6z"/>
			<path class="st1" d="M220.9,181.2c-0.5,0.3-1.1,0.5-1.7,0.6c-0.8,0-1.2-0.5-1.2-1.4s0.7-1.5,1.5-1.3c0.6,0.2,1,0.9,1.5,1.4
				L220.9,181.2z"/>
			<path class="st1" d="M79.7,475.8c0.7,0.9,1.3,1.5,1.4,2c0,0.3-0.7,1-1.2,1.1c-0.9,0.2-1.7-0.3-1.5-1.4
				C78.4,477.1,79,476.7,79.7,475.8z"/>
			<path class="st1" d="M18,465.9c-0.7-1-1.4-1.5-1.3-2s0.9-1.3,1.3-1.3c0.6,0.2,1.1,0.7,1.3,1.3C19.5,464.4,18.7,464.9,18,465.9z"
				/>
			<path class="st1" d="M24.8,192.1c-0.7,0.7-1.4,1.6-1.6,1.4c-0.7-0.3-1.2-0.8-1.4-1.5c-0.1-0.4,0.8-1.3,1.3-1.4
				S24,191.5,24.8,192.1z"/>
			<path class="st1" d="M541.7,245.7c-0.4-0.9-1-1.6-0.9-2.1c0.3-0.6,0.8-1.1,1.4-1.2c1.3-0.2,0.8,1.2,1.3,1.8L541.7,245.7z"/>
			<path class="st1" d="M57.2,419.4c-0.5-0.6-1.1-1.1-1-1.4c0.2-0.6,0.9-1.5,1.2-1.4c0.7,0.3,1.3,0.7,1.8,1.2L57.2,419.4z"/>
			<path class="st1" d="M292.8,46.5c2.5-1.7,2.9-1.5,3.6,2.6L292.8,46.5z"/>
			<path class="st1" d="M277.5,158l-3,2.4c-0.3-0.7-0.4-1.5-0.6-2.2c1-0.4,2-0.8,3.1-1.1L277.5,158z"/>
			<path class="st1" d="M421.3,105.3c1.5,2,1.5,2,0,3.5C419.2,107.4,419.2,106.7,421.3,105.3z"/>
			<path class="st1" d="M46.2,325.5c0.4,0.5,1.1,1,1.2,1.7c0.2,1-0.6,1.5-1.5,1.3c-0.5-0.2-0.9-0.6-1-1.2c0.1-0.6,0.3-1.2,0.7-1.7
				L46.2,325.5z"/>
			<path class="st1" d="M476.1,82.5c-0.8,0.6-1.4,1.2-1.6,1.1c-0.6-0.2-1.2-0.7-1.5-1.3c-0.1-0.4,0.8-1,1.2-1.5L476.1,82.5z"/>
			<path class="st1" d="M610.7,436.9c0.9-0.6,1.5-1.1,2-1.1c0.3,0,1.1,0.9,1,1.2c-0.3,0.6-0.7,1.2-1.2,1.6L610.7,436.9z"/>
			<path class="st1" d="M162.9,79.1c-0.2-0.4-0.8-1.1-0.7-1.3c0.5-0.6,1.1-1.2,1.8-1.8c0.4,0.5,1.1,1.1,1,1.4
				c-0.4,0.7-0.8,1.2-1.4,1.7L162.9,79.1z"/>
			<path class="st1" d="M207.7,167c0.9-0.6,1.4-1.2,2-1.2c0.4,0,1.1,0.8,1.1,1.1c-0.3,0.6-0.7,1.2-1.2,1.7L207.7,167z"/>
			<path class="st1" d="M133.5,310.2c-0.7-0.9-1.2-1.9-1.7-3c-0.1-0.2,1.1-0.9,2-1.6v4.4L133.5,310.2z"/>
			<path class="st1" d="M73.7,270.9c-0.6-1-1.5-2-0.1-2.9c0.3-0.2,1.5,0.2,1.6,0.6C75.8,269.9,75.1,270.7,73.7,270.9z"/>
			<path class="st1" d="M566.2,349.6c-0.6-1-1.1-1.6-1-1.8c0.5-0.6,1.1-1.2,1.7-1.8c0.4,0.5,1.1,1,1,1.4
				C567.7,348.1,567.1,348.6,566.2,349.6z"/>
			<path class="st1" d="M14.6,448l-1.6-1.5l1.5-1.5c0.5,0.5,1.1,0.9,1.3,1.4C15.9,446.7,15.2,447.3,14.6,448z"/>
			<path class="st1" d="M454.3,67l1.3,2.7l-2.2,0.5v-3L454.3,67z"/>
			<path class="st1" d="M276.6,104.9c-0.7-0.3-1.4-0.7-1.9-1.2c-0.2-0.2,0-1.1,0.3-1.5c0.3-0.2,0.7-0.3,1.1-0.3
				c0.4,0.8,0.9,1.6,1.2,2.4L276.6,104.9z"/>
			<path class="st1" d="M433,325.2c-1,0.7-1.6,1.4-2.1,1.4c-0.6-0.1-1.2-0.6-1.4-1.2c-0.3-1,0.7-1.2,1.4-1.2S431.9,324.7,433,325.2z
				"/>
			<path class="st1" d="M13.8,281.4c-0.6,0.7-1,1.6-1.5,1.6c-1,0.1-1.3-0.9-1.1-1.6c0.1-0.6,0.7-1.1,1.1-1.6L13.8,281.4z"/>
			<path class="st1" d="M444.3,262.3c-0.7,0.2-1.5,0.2-2.2,0.1c-0.3-0.1-0.6-1-0.6-1.6c0-0.4,0.9-1,1-0.9c0.7,0.5,1.4,1.1,2,1.7
				L444.3,262.3z"/>
			<path class="st1" d="M116.2,336.7c-0.5,0.2-1.1,0.6-1.3,0.5c-0.7-0.5-1.3-1.2-1.9-1.8c0.4-0.3,0.9-1,1.1-0.9
				c0.8,0.5,1.5,1.1,2.2,1.7L116.2,336.7z"/>
			<path class="st1" d="M11.8,178.9c0.8-0.8,1.3-1.6,1.8-1.6s1.1,0.8,1.6,1.2c-0.6,0.6-1.2,1-1.9,1.5
				C13.1,180,12.6,179.5,11.8,178.9z"/>
			<path class="st1" d="M28.1,53.5c0.6,0.8,1.3,1.5,1.1,1.8c-0.3,0.6-0.8,1.1-1.5,1.2c-0.4,0-1.2-0.9-1.2-1.3S27.3,54.3,28.1,53.5z"
				/>
			<path class="st1" d="M55.2,471.4c0.7,1,1.3,1.5,1.3,2s-0.7,1-1,1.4c-0.6-0.5-1-1-1.4-1.6C54,473,54.6,472.3,55.2,471.4z"/>
			<path class="st1" d="M126.6,93.5c-1.1-0.2-2.5,0.7-2.6-1.1c0-0.5,0.8-1.4,1.2-1.4C126.8,91,126.5,92.3,126.6,93.5z"/>
			<path class="st1" d="M529.4,363.7c-0.8-0.1-1.5-0.2-2.3-0.5c-0.2-0.1-0.1-1.2,0.2-1.7c0.2-0.3,1.2-0.5,1.3-0.4
				c0.4,0.7,0.8,1.4,1.1,2.1L529.4,363.7z"/>
			<path class="st1" d="M365.8,435.1l-0.7-2.7c0.7-0.1,1.6-0.4,1.9-0.1c1,1-0.1,1.8-0.6,2.6L365.8,435.1z"/>
			<path class="st1" d="M108.7,400.6c-0.4-0.8-1-1.3-0.9-1.5c0.3-0.6,0.9-1.1,1.5-1.4c0.3-0.1,0.9,0.8,1.3,1.2L108.7,400.6z"/>
			<path class="st1" d="M330.4,404.6c0.2,1.3,0,2.3-1.3,2.6c-0.3,0.1-1.1-0.8-1.1-1.3C328,404.4,329.2,404.5,330.4,404.6z"/>
			<path class="st1" d="M161,427.8c1,2.8,0.8,3-3.2,2.8L161,427.8z"/>
			<path class="st1" d="M585.6,208.4l0.4-2.9l2.1,1l-1.7,2.2L585.6,208.4z"/>
			<path class="st1" d="M326.3,71.6c-1-0.3-2.4,0.6-2.7-1c-0.1-0.4,0.5-1.4,0.9-1.4C326.2,68.9,325.8,70.5,326.3,71.6z"/>
			<path class="st1" d="M621.1,96.7l2.7,0.2c-0.1,1.3-0.8,2.2-1.8,2.2c-0.4,0-0.9-1.3-1.3-2L621.1,96.7z"/>
			<path class="st1" d="M89.2,173.2c0.7-0.6,1.2-1.4,1.6-1.4c0.5,0.1,0.9,0.8,1.4,1.2c-0.5,0.5-1,1-1.6,1.5
				C90.5,174.6,89.8,173.8,89.2,173.2z"/>
			<path class="st1" d="M37.6,165.4l1.8-1.9c0.4,0.4,1.2,1,1.2,1.2c-0.3,0.7-0.7,1.2-1.3,1.6C39.1,166.4,38.4,165.9,37.6,165.4z"/>
			<path class="st1" d="M576.3,397.1c1.2-0.8,2.1-0.7,2.7,0.4c0.1,0.6-0.1,1.1-0.6,1.5C577,399.5,576.7,398.3,576.3,397.1z"/>
			<path class="st1" d="M440.7,435.4l1.7-1.8c0.4,0.4,1.3,1,1.2,1.3c-0.3,0.6-0.8,1.2-1.4,1.5C442,436.5,441.4,435.9,440.7,435.4z"
				/>
			<path class="st1" d="M173.5,126.7c0.8,0.1,1.5,0.2,2.3,0.5c0.2,0.1,0.4,0.9,0.2,1.3s-0.9,0.7-1,0.6c-0.7-0.5-1.3-1.1-1.9-1.7
				L173.5,126.7z"/>
			<path class="st1" d="M279.5,402.8c0.2,0.4,0.8,1,0.7,1.3c-0.4,0.6-0.8,1.1-1.4,1.5c-0.4-0.4-1.1-0.8-1-1.1c0.2-0.6,0.6-1.2,1-1.7
				L279.5,402.8z"/>
			<path class="st1" d="M289,374.5c-0.6-0.8-1.2-1.3-1.1-1.6c0.3-0.6,0.7-1.2,1.2-1.7c0.4,0.3,1.3,0.8,1.2,1
				C290,373,289.5,373.8,289,374.5z"/>
			<path class="st1" d="M196.1,206.6c-0.8,1.1-1.5,2.2-2.9,1.5c-0.3-0.4-0.4-1-0.2-1.5C193.9,205.6,194.9,206.1,196.1,206.6z"/>
			<path class="st1" d="M337.9,85.6c-1.1-0.8-1.8-1.6-0.7-2.7c0.5-0.3,1-0.3,1.5-0.1C339.7,84.1,338.5,84.8,337.9,85.6z"/>
			<path class="st1" d="M40.7,333.8c-0.4,0.7-0.9,1.4-1.5,2.1c-0.5-0.1-0.9-0.4-1.2-0.8c-0.2-0.4-0.1-1.3,0.1-1.4
				c0.7-0.3,1.4-0.4,2.2-0.5L40.7,333.8z"/>
			<path class="st1" d="M250.2,416.1c1.4,0.6,2,1.6,1.4,2.6c-0.2,0.3-1,0.6-1.2,0.5C248.9,418.2,249.7,417.1,250.2,416.1z"/>
			<path class="st1" d="M396.5,71.8c-0.2,0.9-0.4,1.7-0.7,2.6c0,0.1-1.1,0-1.2-0.3c-0.3-0.6-0.6-1.4-0.3-1.8s1.1-0.6,1.8-0.8
				L396.5,71.8z"/>
			<path class="st1" d="M605.9,292.9c-0.6-1-1.2-1.5-1.2-2.1c0-0.4,0.7-0.8,1.1-1.3c0.5,0.5,1.2,0.9,1.3,1.4S606.5,292,605.9,292.9z
				"/>
			<path class="st1" d="M209.7,378.8c-0.8-0.9-2-1.6-1.1-2.8c0.2-0.3,1.6-0.1,2,0.3C211.6,377.4,210.6,378.1,209.7,378.8z"/>
			<path class="st1" d="M525,349.5c0.3,1.5,0.2,2.4-1.4,2.5c-0.8,0.1-1-0.3-1-1.1C522.6,349,524,349.7,525,349.5z"/>
			<path class="st1" d="M259.4,310c-1,0.5-2,0.9-2.5-0.4c0-0.7,0.4-1.3,0.9-1.6C259.5,307.5,259.1,309.1,259.4,310z"/>
			<path class="st1" d="M175.7,37.7c0.9-0.9,0.8-2.6,2.4-2.1c0.4,0.3,0.6,0.9,0.6,1.4C178.1,38.1,177.1,38.1,175.7,37.7z"/>
			<path class="st1" d="M468.5,362.1c-0.3,0.2-0.9,0.6-1,0.5c-0.7-0.5-1.3-1-1.8-1.6c0.3-0.3,0.6-0.9,0.9-0.9
				C467.6,360.1,468.4,360.6,468.5,362.1z"/>
			<path class="st1" d="M578.8,307.7c0.7-1,0.7-2.5,2.3-2.2c0.4,0.3,0.7,0.9,0.6,1.4C581.2,308.2,580.1,308.2,578.8,307.7z"/>
			<path class="st1" d="M377.7,426.4c0.7,0.8,1.5,1.4,1.4,1.6c-0.4,0.6-0.9,1.1-1.4,1.6c-0.4-0.4-1-0.8-1-1.1
				C376.9,427.8,377.2,427.1,377.7,426.4z"/>
			<path class="st1" d="M104.5,315.8c-0.1-1.5,0.5-2.3,1.6-2c0.5,0.1,0.9,0.9,1.3,1.3c-0.4,0.3-0.9,0.5-1.3,0.7
				C105.6,315.9,105,315.9,104.5,315.8z"/>
			<path class="st1" d="M399,17.3c0.7,0.2,1.6,0.2,1.9,0.7s0.1,1.5,0.1,2.2l-0.8,0.2l-1.7-2.4L399,17.3z"/>
			<path class="st1" d="M620.6,321l1-2.5l2,1.2l-0.1,0.5l-2.2,1.1L620.6,321z"/>
			<path class="st1" d="M588.6,286c-1,0.6-1.6,1.7-2.6,0.7c-0.3-0.6-0.3-1.3,0-1.9C587.2,283.9,587.7,285.2,588.6,286z"/>
			<path class="st1" d="M185.6,16c-1,0.5-1.7,1.7-2.7,0.6c-0.3-0.6-0.3-1.3,0-1.9C184.3,13.8,184.7,15.2,185.6,16z"/>
			<path class="st1" d="M269.3,257c0.9,0.8,1.5,1.7,0.8,2.8c-0.5,0.3-1.2,0.2-1.7-0.1C267.7,258.7,268.3,257.8,269.3,257z"/>
			<path class="st1" d="M64.4,93.2c-0.6-0.7-1.1-1.5-1.6-2.3c-0.1-0.1,0.5-0.8,0.8-0.8c0.9-0.1,1.7,0.5,1.9,1.4c0,0.1,0,0.2,0,0.3
				C65.5,92.1,65,92.4,64.4,93.2z"/>
			<path class="st1" d="M225.6,236.1c-1,0.7-1.5,1.3-2,1.4c-0.4,0-1.3-0.8-1.2-1.1c0.2-0.6,0.7-1.2,1.3-1.5
				C223.9,234.8,224.6,235.5,225.6,236.1z"/>
			<path class="st1" d="M365.7,230c-0.8,0-1.7,0.3-2.2-0.1c-1-0.7-0.6-1.6,0.3-2.6l2.1,2L365.7,230z"/>
			<path class="st1" d="M312.8,205.4c1.1,0.3,2.4,0.2,2.4,1.8c0,0.4-0.8,1-1.1,1C312.7,207.9,312.5,206.8,312.8,205.4z"/>
			<path class="st1" d="M166.3,196.6c-0.4-0.5-0.8-1-1.1-1.6c0.6-0.6,1.2-1.1,1.9-1.6c0.1,0,0.9,0.8,0.8,1
				C167.4,195.2,166.9,195.9,166.3,196.6z"/>
			<path class="st1" d="M217.7,51c0.3-0.8,0.3-2.2,0.9-2.5c1.2-0.6,1.4,0.7,2.1,1.6l-2.4,1.2L217.7,51z"/>
			<path class="st1" d="M122,79.6c0.5,2.2-0.2,2.1-1.5,2.3c-0.2,0-0.9-0.6-0.9-1C119.5,79.5,119.8,79.4,122,79.6z"/>
			<path class="st1" d="M94.2,26.7c-0.9,0.6-1.4,1.3-1.8,1.2c-0.6-0.2-1.1-0.7-1.4-1.3c-0.1-0.2,0.7-1.1,1-1.1
				C92.6,25.6,93.2,26.1,94.2,26.7z"/>
			<path class="st1" d="M191.4,325.9l-1.4,1.4c-0.5-0.6-1-1.2-1.4-1.8c-0.1-0.1,0.8-1,1-1C190.2,324.9,190.8,325.4,191.4,325.9z"/>
			<path class="st1" d="M344,178.4c0.7,0.9,1.7,1.6,0.8,2.6c-0.7,0.2-1.4,0.1-2-0.4C342.1,179.5,343.1,179,344,178.4z"/>
			<path class="st1" d="M497.1,296.7c-0.9,0.7-1.4,1.4-1.7,1.3c-0.6-0.2-1.1-0.7-1.4-1.2c-0.1-0.2,0.6-1.2,1-1.2
				C495.6,295.6,496.1,296.1,497.1,296.7z"/>
			<path class="st1" d="M134.3,347.6c-0.6-0.8-1.9-1.4-0.9-2.7c0.2-0.3,1.1-0.1,1.6-0.1v2.7L134.3,347.6z"/>
			<path class="st1" d="M536.5,387.5c-1.3,0.9-2.1,1.8-3.1,0.8c-0.3-0.3,0.2-1.4,0.2-2.1L536.5,387.5z"/>
			<path class="st1" d="M194.6,315.4c1.2,0.8,2.4,1.2,1.8,2.7c-0.3,0.3-0.8,0.5-1.3,0.4C193.8,317.8,194.4,316.7,194.6,315.4z"/>
			<path class="st1" d="M133.1,118.2l-2.6,0.3c0-0.7-0.2-1.8,0.2-2.1c1.3-1,1.6,0.8,2.4,1.1L133.1,118.2z"/>
			<path class="st1" d="M338.4,22.5l-0.8-2.8l0.4-0.5c0.7,0.4,1.7,0.5,1.9,1.1C340.5,21.4,339.5,21.9,338.4,22.5z"/>
			<path class="st1" d="M386.1,433.4l-2.4-0.3l0.9-2.5l0.5,0.1l1.2,2.2L386.1,433.4z"/>
			<path class="st1" d="M238.3,469.9c0.5,0.4,1.2,0.7,1.5,1.2s-0.1,1.1-0.4,1.6c-0.1,0.2-1,0.2-1.1,0.2c-0.2-0.8-0.4-1.7-0.6-2.5
				L238.3,469.9z"/>
			<path class="st1" d="M383.4,345.7l-0.1-2.6l1.8,0.3l-0.8,2.5L383.4,345.7z"/>
			<path class="st1" d="M108.2,293.6c-0.1,1.2,0.4,2.4-1.2,2.6c-0.4,0-1.2-0.5-1.3-0.8C105.5,293.7,107,294,108.2,293.6z"/>
			<path class="st1" d="M118.4,185.6l-0.6,2.6c-0.7-0.2-1.3-0.5-1.9-0.8c-0.2-0.4-0.2-0.8,0-1.2
				C116.7,185.9,117.6,185.7,118.4,185.6z"/>
			<path class="st1" d="M181.9,453l1.5,1.8c-0.4,0.3-0.9,1-1.2,0.9c-0.6-0.3-1.1-0.7-1.4-1.2C180.7,454.4,181.3,453.8,181.9,453z"/>
			<path class="st1" d="M67,139.7c0.7,0.8,1.4,1.3,1.3,1.7s-0.7,0.9-1.1,1.4c-0.5-0.5-0.9-1-1.2-1.6C65.8,141,66.4,140.4,67,139.7z"
				/>
			<path class="st1" d="M234.7,132.5c0.8-0.7,1.3-1.4,1.7-1.3c0.6,0.2,1,0.7,1.1,1.3c0,0.5-0.6,1-0.9,1.5L234.7,132.5z"/>
			<path class="st1" d="M470,409.7c0.6,0.8,1.3,1.3,1.3,1.7s-0.7,0.9-1.1,1.4c-0.5-0.5-0.9-1.1-1.2-1.7
				C468.8,411,469.4,410.5,470,409.7z"/>
			<path class="st1" d="M474.9,77.3c-0.9,0.5-1.5,1-1.8,0.9c-0.6-0.3-1.1-0.8-1.4-1.4c-0.1-0.1,0.8-1,1-1
				C473.5,76.2,474.2,76.7,474.9,77.3z"/>
			<path class="st1" d="M14.5,383.7c0.6,0.2,1.4,0.2,1.8,0.5c0.4,0.4,0.1,1.1-0.1,1.6c-0.1,0.3-1.1,0.5-1.1,0.4
				c-0.4-0.7-0.8-1.4-1.1-2.1L14.5,383.7z"/>
			<path class="st1" d="M245.1,322.6c0.8,0.2,2,0.1,2.3,0.6c0.7,1.2-0.6,1.6-1.4,2.2l-1-2.1L245.1,322.6z"/>
			<path class="st1" d="M296.2,196.1l0.5-2.3c0.6,0.2,1.6,0.3,1.8,0.7c0.5,1.4-0.9,1.3-1.5,1.9L296.2,196.1z"/>
			<path class="st1" d="M247.1,313.9l1.5,1.6c-0.5,0.5-1.1,0.9-1.7,1.2c-0.2,0.1-1-0.7-0.9-1C246,315.2,246.5,314.7,247.1,313.9z"/>
			<path class="st1" d="M129.3,455c0.3-1.2,0.1-2.5,1.6-2.4c0.4,0,1.1,0.8,1.1,1.1C131.8,455.4,130.5,454.7,129.3,455z"/>
			<path class="st1" d="M99.7,309.5c-0.5-0.7-1.1-1.2-1.1-1.6s0.6-0.9,0.9-1.3l1.6,1.3L99.7,309.5z"/>
			<path class="st1" d="M559.8,321.3c0.9-0.9,1.8-1.2,2.7-0.3c0.1,0.5,0,1-0.4,1.4C561,323.1,560.3,322.3,559.8,321.3z"/>
			<path class="st1" d="M176.1,2.6c-0.8,0.9-1,2.1-2.4,1.6c-0.9-0.3-0.7-1.1-0.3-1.7C174.2,1.4,175.1,2,176.1,2.6z"/>
			<path class="st1" d="M185.6,293.9c0.5,1.1,0.9,2.1-0.3,2.7c-0.3,0.1-1.1-0.3-1.3-0.6C183.4,294.5,184.7,294.4,185.6,293.9z"/>
			<path class="st1" d="M630.5,43.7c0.7,0.7,1.4,1.3,1.3,1.4c-0.4,0.6-0.8,1.1-1.3,1.6c-0.3-0.3-0.9-0.7-0.9-1
				C629.8,45,630.1,44.3,630.5,43.7z"/>
			<path class="st1" d="M341.9,25.3c-0.5,0.5-0.8,1.2-1.4,1.5c-1,0.5-1.5-0.3-1.9-1.5l2.7-0.6L341.9,25.3z"/>
			<path class="st1" d="M579.1,272.5c-0.7,1-1,2.1-2.3,1.7c-0.9-0.3-0.7-1-0.3-1.7C577.2,271.4,578,272.1,579.1,272.5z"/>
			<path class="st1" d="M424.1,273.7c0.6,0.7,1.1,1.3,1.1,1.4c-0.4,0.6-0.9,1.1-1.5,1.6c-0.3-0.5-1-1-0.9-1.3
				C422.9,274.8,423.5,274.4,424.1,273.7z"/>
			<path class="st1" d="M375.3,38.4l-1.3,1.7c-0.5-0.6-1-1.3-1.4-2c-0.1-0.1,0.5-0.8,0.7-0.8C373.9,37.6,374.6,38,375.3,38.4z"/>
			<path class="st1" d="M156.8,51.3c0.9-0.9,1.8-1.2,2.7-0.3c0.1,0.5,0,1-0.4,1.4C158,53.1,157.3,52.3,156.8,51.3z"/>
			<path class="st1" d="M190.2,422.7c-0.5-0.5-0.9-1.1-1.2-1.7c-0.1-0.2,0.6-0.7,1-1.1c0.5,0.5,1,1,1.5,1.5
				C191.1,421.9,190.7,422.3,190.2,422.7z"/>
			<path class="st1" d="M11.2,419.3c0.6,0.8,1.2,1.4,1.1,1.6c-0.3,0.5-0.8,0.9-1.4,1.1c-0.3,0-1-0.8-1-1.2S10.6,420,11.2,419.3z"/>
			<path class="st1" d="M138.6,365.4c-1.1,0-2.2,0.2-2.4-1.1c-0.1-0.3,0.6-1,0.9-1C138.5,363.2,138.7,364.1,138.6,365.4z"/>
			<path class="st1" d="M366.5,121.1c1.2-0.1,2.3-0.3,2.6,1.2c0.1,0.3-0.5,1-0.8,1.1C366.6,123.6,366.8,122.2,366.5,121.1z"/>
			<path class="st1" d="M340.5,123l1.6-1.5c0.4,0.4,1.1,0.9,1,1.3s-0.7,1-1.1,1.5L340.5,123z"/>
			<path class="st1" d="M85.6,326.3l1.7,2.1l-0.2,0.5c-0.8-0.1-1.7,0-2.2-0.4s-0.1-1.3-0.1-2L85.6,326.3z"/>
			<path class="st1" d="M177,271.8c-1.1,0-2.2,0.9-2.6-0.7c0.1-0.6,0.4-1.1,1-1.4C176.7,269.6,176.7,270.8,177,271.8z"/>
			<path class="st1" d="M20.6,378.9l2.2,1.5c-0.6,0.5-1.2,0.9-1.9,1.2c-0.3,0.1-1.1-0.5-1-0.6C20.1,380.3,20.3,379.6,20.6,378.9z"/>
			<path class="st1" d="M79.7,422.9c-0.9,0.6-1.4,1.2-1.9,1.3s-1-0.5-1.4-0.8c0.6-0.5,1.3-0.9,1.9-1.3C78.5,422,79,422.5,79.7,422.9
				z"/>
			<path class="st1" d="M113.2,463.4c0.8-1,1.7-1.3,2.6-0.4c0.2,0.5,0.2,1,0,1.5C114.6,465.2,113.9,464.4,113.2,463.4z"/>
			<path class="st1" d="M218.9,200.3c-0.6,0.6-1,1.1-1.5,1.2c-0.3,0.1-0.8-0.6-1.2-0.9l1.4-1.5L218.9,200.3z"/>
			<path class="st1" d="M37.7,425.4c-0.9-0.6-2.3-0.5-1.7-2c0.4-0.4,0.9-0.6,1.5-0.5C38.8,423.4,38.1,424.3,37.7,425.4z"/>
			<path class="st1" d="M194.8,434.5V432c0.8,1,2.6-0.2,2.4,1.6C197,435.1,195.7,434.2,194.8,434.5z"/>
			<path class="st1" d="M374.5,80.3c-1.6-0.1-2.7-0.3-2.6-1.5c0-0.4,0.9-0.7,1.4-1.1L374.5,80.3z"/>
			<path class="st1" d="M579.3,92.3c0.7-0.6,1.2-1.3,1.5-1.3c0.5,0.1,1.2,0.8,1.2,1.1c-0.2,0.6-0.6,1.1-1.2,1.3
				C580.6,93.6,580,92.9,579.3,92.3z"/>
			<path class="st1" d="M228.6,227.8c0.8-1.2,1.7-1.3,2.6-0.5c0.2,0.4,0.2,0.9-0.1,1.3C230,229.7,229.4,228.5,228.6,227.8z"/>
			<path class="st1" d="M340.3,228.2l-1.1-2l1.7-0.6c0.5-0.2,1-0.2,1.5-0.1L340.3,228.2z"/>
			<path class="st1" d="M316.3,363.8c-0.3-2,0-2.3,1.6-2.4C318.6,363.5,318.4,363.9,316.3,363.8z"/>
			<path class="st1" d="M487.7,26.2c0.8,0.8,1.5,1.2,1.4,1.5c-0.3,0.6-0.6,1.2-1.1,1.6c-0.4-0.3-1-0.6-1-1
				C487.1,27.5,487.3,26.8,487.7,26.2z"/>
			<path class="st1" d="M79.8,364.9c0.3,0.8,0.7,1.5,0.9,2.3c0,0.1-0.4,0.6-0.6,0.6c-0.9-0.1-1.7-0.4-1.5-1.5
				c0.2-0.5,0.4-0.9,0.7-1.4L79.8,364.9z"/>
			<path class="st1" d="M193.2,124.1c0.6-0.1,1.4-0.4,1.9-0.1s0.4,1.1,0.5,1.7c0,0.2-0.6,0.7-0.7,0.6c-0.7-0.5-1.2-1-1.9-1.6
				L193.2,124.1z"/>
			<path class="st1" d="M19.9,447.8c-0.5-0.7-1.1-1.2-1-1.4c0.2-0.6,0.7-1,1.2-1.3c0.3-0.1,1.2,0.7,1.2,1
				C21.1,446.6,20.5,447,19.9,447.8z"/>
			<path class="st1" d="M596.2,394.1c0.7-0.1,1.4-0.4,1.9-0.1s0.4,1.1,0.5,1.7c0,0.2-0.6,0.7-0.7,0.6c-0.7-0.5-1.2-1-1.9-1.6
				L596.2,394.1z"/>
			<path class="st1" d="M166.4,392.4c-0.6-0.7-1.3-1.1-1.2-1.5s0.7-1.1,1.1-1.1c0.5,0.1,0.9,0.7,1.4,1L166.4,392.4z"/>
			<path class="st1" d="M150.4,409.5c0.7,0.8,1.8,1.4,0.8,2.6c-0.4,0.3-0.9,0.3-1.3,0.1C149,411.2,149.5,410.4,150.4,409.5z"/>
			<path class="st1" d="M399.5,387.3c1,0.5,2.1,0.7,1.5,1.9c-0.4,0.5-1,0.7-1.6,0.6C398.1,389,399.4,388.3,399.5,387.3z"/>
			<path class="st1" d="M58,268c-0.9,0.6-1.7,1.3-2.2,0.1c-0.2-0.5,0.1-1.6,0.5-1.8C57.8,265.8,57.3,267.5,58,268z"/>
			<path class="st1" d="M337.1,69.1c-0.5-0.9-1.1-1.8,0-2.5c0.3-0.2,1.4,0.3,1.6,0.8C339.1,68.5,338.1,68.8,337.1,69.1z"/>
			<path class="st1" d="M174.8,477.3l2.7,0.7c-0.3,0.5-0.6,1.3-1,1.4C175.4,479.7,175,478.9,174.8,477.3z"/>
			<path class="st1" d="M75.2,201.8c-0.7,0.5-1.1,1.2-1.5,1.1s-1.1-0.8-1.1-1.1c0.1-0.5,0.7-1,1.1-1.5L75.2,201.8z"/>
			<path class="st1" d="M274.2,398.7c-0.6,0.5-1.2,1-1.9,1.4c-0.2,0.1-1-0.6-1-1c0-0.7,0.5-1.3,1.2-1.3c0.1,0,0.3,0,0.4,0
				C273.3,397.9,273.6,398.3,274.2,398.7z"/>
			<path class="st1" d="M638.5,253.3c-1.3-0.6-2.6-0.4-2.2-1.9c0.3-0.5,0.8-0.8,1.3-0.9C639,251,638.1,252.1,638.5,253.3z"/>
			<path class="st1" d="M50.4,469.1c0.7-0.6,1.2-1.3,1.4-1.2c0.6,0.3,1,0.7,1.3,1.3c0.1,0.3-0.6,1.1-1,1.1S51.1,469.7,50.4,469.1z"
				/>
			<path class="st1" d="M21.1,3.6c0.4,0.4,0.7,0.9,1.1,1.4c-0.5,0.5-1.1,1-1.7,1.5c-0.3-0.4-0.8-0.9-0.7-1.2
				C20.1,4.7,20.6,4.1,21.1,3.6z"/>
			<path class="st1" d="M283.1,43.4c0.7,0,1.5-0.2,2,0.1s0.4,1.1,0.6,1.7l-0.5,0.5l-2.4-1.5L283.1,43.4z"/>
			<path class="st1" d="M276,8.9c-1.3,1.1-2.1,0.7-2.8-0.3c-0.2-0.2-0.1-1,0-1.1C274.5,6.9,275,8.1,276,8.9z"/>
			<path class="st1" d="M498,282.9c0-0.8,0.1-1.7,0.3-2.5c0-0.2,0.9-0.2,1.3-0.2c0,0.4,0.2,0.9,0.1,1.2c-0.3,0.6-0.7,1.1-1.1,1.7
				L498,282.9z"/>
			<path class="st1" d="M172.8,159.8c1.2-0.3,2,0.1,2.1,1.2c0,0.4-0.6,1.2-0.9,1.1C172.6,162,172.7,160.9,172.8,159.8z"/>
			<path class="st1" d="M555.8,354.1c-0.5-0.5-1.3-1.1-1.3-1.6s0.7-1.2,1.2-1.8l0.7,0.4l0.2,2.8L555.8,354.1z"/>
			<path class="st1" d="M335.3,51.6c-0.8-0.6-2,1.1-2.2-0.7c0-0.6,0.4-1.2,1-1.4C335.3,49.3,335.3,50.3,335.3,51.6z"/>
			<path class="st1" d="M602.2,301.8c-0.5-0.7-1.1-1.2-1-1.5c0.3-0.5,0.8-1,1.2-1.3c0.4,0.4,1.1,0.8,1.1,1.2
				S602.9,301.1,602.2,301.8z"/>
			<path class="st1" d="M113.4,270.3c-0.1-0.6-0.1-1.2,0-1.8c0.2-0.5,0.4-1,0.6-1.5c0.3,0.2,0.8,0.3,0.8,0.5
				c0.1,0.6,0.1,1.3-0.1,1.9C114.7,269.7,114,269.9,113.4,270.3z"/>
			<path class="st1" d="M372.4,123.8l-1.2-2.3l2.4-0.6l-0.7,2.8L372.4,123.8z"/>
			<path class="st1" d="M153.4,81.2v2.7l-0.4,0.2c-0.5-0.5-1.5-1-1.4-1.5c0.1-0.6,0.9-1.2,1.4-1.7L153.4,81.2z"/>
			<path class="st1" d="M575.7,429.8c1.3-0.3,2.1,0,2.1,1.2c0,0.4-0.7,1.2-0.9,1.1C575.6,432,575.7,430.9,575.7,429.8z"/>
			<path class="st1" d="M32.5,388.7c0.8,0.4,2.1,0.3,1.8,1.8c-0.1,0.3-0.9,0.5-1.3,0.7l-1-2.2L32.5,388.7z"/>
			<path class="st1" d="M305.9,256.6c-0.9,0.8-1.8,1-2.5-0.2c-0.2-0.3,0.1-1.2,0.3-1.2c0.9-0.3,1.8,0.2,2.1,1.1
				C305.9,256.4,305.9,256.5,305.9,256.6z"/>
			<path class="st1" d="M13,15l1.9,1l-1.3,1.5l-1.2-1.8L13,15z"/>
			<path class="st1" d="M416.1,285l1.8,1.1l-1.4,1.4l-1.1-1.8L416.1,285z"/>
			<path class="st1" d="M137.1,299.5c-0.4-0.5-1.2-1-1.2-1.5s0.7-1.1,1-1.7l0.6,0.1l0.2,2.8L137.1,299.5z"/>
			<path class="st1" d="M339.7,407.2v2.5l-0.5,0.2c-0.5-0.4-1.3-0.9-1.4-1.3s0.7-1.1,1.1-1.6L339.7,407.2z"/>
			<path class="st1" d="M72.2,483.7c-0.1,1.1-0.2,2.2-1.6,2c-0.3,0-0.9-0.6-0.9-0.9C69.9,483.3,71.1,483.7,72.2,483.7z"/>
			<path class="st1" d="M112.9,391.4l-1.6-1.8l1.6-0.8l0.7,2.2L112.9,391.4z"/>
			<path class="st1" d="M295.9,276c1.2,0.4,1.9,1.1,1.6,2.2c0,0.2-0.9,0.5-1.2,0.3C294.9,278.1,295.5,277.1,295.9,276z"/>
			<path class="st1" d="M203.6,417.1l-2,2.6c-1-2-0.4-2.9,1.5-3L203.6,417.1z"/>
			<path class="st1" d="M297.6,264.9c0.3-0.9-0.5-2.1,1.1-2.2c0.4,0,1.1,0.7,1.1,1C299.8,265.1,298.7,264.8,297.6,264.9z"/>
			<path class="st1" d="M82,204.7c-0.4-0.6-1-1.1-1.1-1.7c-0.1-0.4,0.6-0.9,1-1.5C83.1,202.5,83.4,203.5,82,204.7z"/>
			<path class="st1" d="M148.4,416.3l-1.7-1.5l1.2-1.3l1.3,2.1L148.4,416.3z"/>
			<path class="st1" d="M76.4,285.6c-0.2,1.7-0.6,2.5-1.8,2.1c-0.4-0.1-0.6-0.8-0.8-1.2L76.4,285.6z"/>
			<path class="st1" d="M38.6,398.5c-0.3-1.1-0.3-2.1,1-2.4c0.3,0,1,0.5,1,0.7C40.5,397.9,40,398.7,38.6,398.5z"/>
			<path class="st1" d="M350.4,369.2c-0.4-0.9-0.8-1.4-0.8-1.8c0.2-0.5,0.5-0.8,1-0.9c0.4,0,1.1,0.7,1,0.9
				C351.6,367.9,351.1,368.3,350.4,369.2z"/>
			<path class="st1" d="M295.6,440.8c-0.7-0.7-0.8-1.9-0.1-2.6c0,0,0.1-0.1,0.1-0.1c0.5,0,0.9,0.3,1.2,0.6
				C297.5,439.9,296.5,440.3,295.6,440.8z"/>
			<path class="st1" d="M89.5,330.5c0.9,0.7,1.2,1.5,0.3,2.1c-0.6,0.4-1.5,0.1-2.3,0.1v-0.5L89.5,330.5z"/>
			<path class="st1" d="M593.4,10.1c-0.5-0.8-1-1.3-1-1.8s0.5-0.9,0.9-1.3c0.4,0.4,1,0.8,1.2,1.4C594.5,8.8,593.9,9.3,593.4,10.1z"
				/>
			<path class="st1" d="M541.6,145.6l-2.2,0.4l0.1-1.9l2.1,0.5L541.6,145.6z"/>
			<path class="st1" d="M154.6,282.9c0.7-0.3,1-1.8,2-0.7c0.3,0.3,0.1,1.1,0.1,1.6l-2.2-0.3L154.6,282.9z"/>
			<path class="st1" d="M241.1,459.1c0.4,0.6,1,1.1,0.9,1.2c-0.3,0.5-0.8,0.9-1.3,1.2c-0.3,0.1-0.8-0.6-1.2-1L241.1,459.1z"/>
			<path class="st1" d="M171.7,480c-1.3,0.1-1.8-0.5-1.8-1.5s0.7-1.4,1.8-1V480z"/>
			<path class="st1" d="M148.9,230.2v-1.5l2.8,0.1C151,230.2,150.3,230.8,148.9,230.2z"/>
			<path class="st1" d="M387.7,92.9c-0.6,0.1-1.3,0.1-1.9,0c-0.5-0.2-0.9-0.5-1.2-0.9c0-0.3,0.2-0.5,0.4-0.7
				c0.5-0.1,1.1-0.3,1.4-0.1S387.1,92.1,387.7,92.9z"/>
			<path class="st1" d="M163.4,420.5l2.1-1.8l0.5,0.3c-0.1,0.6-0.1,1.5-0.5,1.9s-1.2,0.2-1.8,0.3L163.4,420.5z"/>
			<path class="st1" d="M246.3,215.6l-1.7-1.5l1.5-1l0.9,2L246.3,215.6z"/>
			<path class="st1" d="M105.5,167l1-2l1.3,0.9l-1.6,1.6L105.5,167z"/>
			<path class="st1" d="M508.4,437l1.1-2l1.3,1l-1.7,1.5L508.4,437z"/>
			<path class="st1" d="M265.1,278.3c-0.4-0.8,0.3-3.3,1-3.5c0.3,0,0.6,0,0.9,0.2c0.1,0.1,0.3,0.4,0.2,0.5
				C266.5,276.5,265.8,277.4,265.1,278.3z"/>
			<path class="st1" d="M230.5,182.6c1.3,1.5,1.2,2-0.5,2.7C229.1,183.7,229.1,183.7,230.5,182.6z"/>
			<path class="st1" d="M147.6,357.4l0.5-2.4c0.6,0.2,1.5,0.3,1.6,0.6C150.1,356.9,149,357,147.6,357.4z"/>
			<path class="st1" d="M201.7,308.5l1.6,1.8c-0.5,0.3-1.1,1-1.4,0.9C200.9,310.9,200.8,310,201.7,308.5z"/>
			<path class="st1" d="M278.3,239.1c-0.6,0.6-1,1.1-1.5,1.3c-0.2,0.1-1.1-0.8-1-1c0.2-0.5,0.6-0.9,1.1-1.2
				C277.2,238.2,277.7,238.7,278.3,239.1z"/>
			<path class="st1" d="M307.2,439.5l-2.5,0.7l-0.2-1.4h2.6L307.2,439.5z"/>
			<path class="st1" d="M200.4,94.4c-0.6,0.6-1,1.1-1.5,1.3c-0.2,0.1-1.1-0.7-1-0.8c0.3-0.6,0.7-1.1,1.1-1.6L200.4,94.4z"/>
			<path class="st1" d="M126,354.6c-0.7,0.5-1.1,1-1.4,0.9c-0.5-0.2-0.9-0.5-1.2-1c-0.1-0.3,0.4-0.8,0.7-1.2L126,354.6z"/>
			<path class="st1" d="M291.4,184c-0.6,0.1-1.5,0.4-1.6,0.2c-0.4-0.6-0.6-1.3-0.8-2.1l0.5-0.3l2,1.6L291.4,184z"/>
			<path class="st1" d="M336.8,43.7c-0.5-0.5-0.8-1.1-1.2-1.8c-0.1-0.2,0.6-0.9,0.7-0.8c0.5,0.1,1,0.4,1.4,0.9
				C337.8,42.2,337.3,42.8,336.8,43.7z"/>
			<path class="st1" d="M603.5,364.4c-0.6,0.6-1,1.1-1.5,1.3c-0.2,0.1-1.1-0.7-1-0.8c0.3-0.6,0.7-1.1,1.2-1.5L603.5,364.4z"/>
			<path class="st1" d="M341.3,57.6l2.3-0.3l0.2,1.6l-2.5-0.3L341.3,57.6z"/>
			<path class="st1" d="M392.6,310.7l-0.6,2.8l-2-1.8l2.1-1.2L392.6,310.7z"/>
			<path class="st1" d="M432.4,402.8c0.1-0.7,0.3-1.3,0.5-2c0.2-0.4,0.5-0.8,0.8-1c0.1-0.1,0.7,0.3,0.7,0.5c0.1,0.5,0,1-0.2,1.5
				C433.8,402.2,433.2,402.4,432.4,402.8z"/>
			<path class="st1" d="M29.4,132.8c0.1-0.7,0.2-1.3,0.5-2c0.2-0.4,0.5-0.8,0.8-1c0.1-0.1,0.7,0.3,0.7,0.4c0.1,0.5,0,1-0.2,1.5
				C30.8,132.2,30.2,132.3,29.4,132.8z"/>
			<path class="st1" d="M540.6,29.9c0.5,0.7,1.1,1.3,1,1.4c-0.4,0.5-0.9,0.9-1.4,1.3c-0.3-0.4-0.8-0.8-0.8-1
				C539.8,31,540.2,30.4,540.6,29.9z"/>
			<path class="st1" d="M130.4,465.4c0.7,0.7,1.4,1.2,1.3,1.4c-0.2,0.5-0.7,0.9-1.1,1.3c-0.4-0.4-0.9-0.7-1-1.1
				S130,466.2,130.4,465.4z"/>
			<path class="st1" d="M114.4,341.2l-1.6,1.9c-0.8-0.6-1.7-1.3-0.8-2.2C112.3,340.6,113.3,341.1,114.4,341.2z"/>
			<path class="st1" d="M339.8,428l1-2.4l1.1,0.6l-1.2,2.1L339.8,428z"/>
			<path class="st1" d="M281.7,335.4c0.5,0.7,1,1.2,0.9,1.5s-0.6,0.8-1,1.2c-0.4-0.4-0.7-0.9-1-1.4
				C280.5,336.5,281.1,336,281.7,335.4z"/>
			<path class="st1" d="M83.8,218.9l1.7,1.3l-1.1,1.2l-1.4-1.8L83.8,218.9z"/>
			<path class="st1" d="M215.1,258.7c-0.6-0.1-1.3-0.3-1.9-0.6c-0.1-0.4-0.1-0.8,0.1-1.2c0.4-0.3,0.9-0.3,1.4-0.2
				c0.4,0.3,0.4,1,0.6,1.5L215.1,258.7z"/>
			<path class="st1" d="M360.4,66.4l1,2.3c-0.5,0.1-1.1,0.5-1.4,0.3C358.9,68.3,359.6,67.6,360.4,66.4z"/>
			<path class="st1" d="M143.8,257.4l1.9-0.8l0.6,2.7l-2.7-1.3L143.8,257.4z"/>
			<path class="st1" d="M146.8,468.4l0.6-2.3c0.6,0.2,1.2,0.4,1.7,0.7c0.1,0.4,0.1,0.8-0.1,1.1C148.2,468.1,147.5,468.3,146.8,468.4
				z"/>
			<path class="st1" d="M257,100.3l-1.1,1.8l-1.7-1.3l0.1-0.5l2.1-0.6L257,100.3z"/>
			<path class="st1" d="M330,37.2h1.6l0.5,1.7C330,39.4,329.8,39.2,330,37.2z"/>
			<path class="st1" d="M108.5,369.3c-0.7-1.5-0.5-2.7,0.8-3.6C109.7,366.3,109.7,366.3,108.5,369.3z"/>
			<path class="st1" d="M466.6,45c0.5,0.7,1,1.2,0.9,1.5c-0.2,0.5-0.7,0.9-1.2,1.1c-0.1,0.1-1-0.7-0.9-1
				C465.5,46.1,466,45.7,466.6,45z"/>
			<path class="st1" d="M355.4,61.9l2.8,0.2l0.1,0.7c-0.5,0.3-1.1,0.8-1.5,0.7c-0.6-0.2-1.1-0.8-1.6-1.2L355.4,61.9z"/>
			<path class="st1" d="M586.3,211.7c0.6,0,1.2,0.1,1.7,0.3c0.2,0.1,0.2,0.9,0.1,1.2s-0.8,0.6-0.9,0.5c-0.5-0.5-0.9-1-1.3-1.5
				L586.3,211.7z"/>
			<path class="st1" d="M138.1,445.3l2.1,1l-1.1,1.2l-1.6-1.4L138.1,445.3z"/>
			<path class="st1" d="M115.4,409.5c-1-0.7-1.3-1.4-0.5-2.3c0.2-0.3,1-0.4,1.2-0.3C117.1,408.1,115.9,408.6,115.4,409.5z"/>
			<path class="st1" d="M50.9,447.7c-0.2-0.4-0.7-0.8-0.6-1.2s0.5-0.8,0.8-1.2c0.3,0.4,0.9,0.7,1,1.1s-0.4,0.8-0.6,1.2L50.9,447.7z"
				/>
			<path class="st1" d="M244.7,256.6l1.8-0.7l0.6,1.6h-2.2L244.7,256.6z"/>
			<path class="st1" d="M100.8,100.9v-2.2c0.7-0.2,1.4,0.2,1.6,0.9c0.1,0.2,0.1,0.4,0,0.6c0,0.4-0.8,0.8-1.2,1.2L100.8,100.9z"/>
			<path class="st1" d="M503.8,371v-2.3c1.3-0.1,1.7,0.7,1.7,1.6c0,0.4-0.8,0.7-1.3,1.1L503.8,371z"/>
			<path class="st1" d="M69.6,253.9l-1.3,2.1c-0.3-0.3-0.8-0.6-0.8-1c-0.2-1.3,0.9-1.2,1.7-1.4L69.6,253.9z"/>
			<path class="st1" d="M31,447.5c-0.5-0.8-1-1.4-0.9-1.5c0.3-0.5,0.8-0.8,1.3-1c0.1-0.1,0.8,0.6,0.8,0.8
				C31.9,446.4,31.5,447,31,447.5z"/>
			<path class="st1" d="M247.8,365.8c-0.4,0.8-0.5,1.9-1.8,1.5c-0.3-0.1-0.4-0.6-0.6-0.9l2.2-1.3L247.8,365.8z"/>
			<path class="st1" d="M212.6,445.7c-0.8,0.5-1.2,1-1.6,1s-0.7-0.6-1-0.9c0.4-0.4,0.8-0.9,1.2-1
				C211.5,444.7,211.9,445.2,212.6,445.7z"/>
			<path class="st1" d="M329.1,49.2l-1.8-1l0.9-1.2l1.5,1.3L329.1,49.2z"/>
			<path class="st1" d="M124.1,312.4l-1.4-1.8c0.5-0.2,1.4-0.6,1.5-0.5c0.3,0.6,0.6,1.2,0.7,1.8L124.1,312.4z"/>
			<path class="st1" d="M349.6,172.8c0.6-0.6,1.6-0.6,2.2,0c0.1,0.1,0.1,0.1,0.2,0.2c0.1,0.4,0,0.9-0.3,1.2
				C350.4,174.7,350.1,173.6,349.6,172.8z"/>
			<path class="st1" d="M276,204.7l-0.7,2l-1.3-0.9l1.2-1.7L276,204.7z"/>
			<path class="st1" d="M528.1,202.2c0.2,0.7,0.3,1.4,0.4,2.1c-0.4,0.1-0.9,0.3-1.3,0.3l-0.2-2.3L528.1,202.2z"/>
			<path class="st1" d="M243.2,441.8c0.1,0.7,0.1,1.4,0.1,2.1c0,0.2-0.8,0.2-1.3,0.3l0.2-2.4L243.2,441.8z"/>
			<path class="st1" d="M150.5,462.6c0.4-0.5,0.9-0.9,1.4-1.3c0.1-0.1,0.7,0.5,1,0.9l-1.7,1.3L150.5,462.6z"/>
			<path class="st1" d="M188.1,107.2l-1.4,1.8l-0.9-1.3l1.8-1.2L188.1,107.2z"/>
			<path class="st1" d="M97.1,120.3l0.8-1.8c0.4,0.2,1.1,0.3,1.2,0.6c0.3,1.1-0.6,1.3-1.4,1.5L97.1,120.3z"/>
			<path class="st1" d="M500.1,390.3l0.8-1.9l1.2,0.7l-1.1,1.6L500.1,390.3z"/>
			<path class="st1" d="M88.9,69.7l1.5-1.6l0.9,1.1l-1.8,1.2L88.9,69.7z"/>
			<path class="st1" d="M591.1,377.3l-1.4,1.9l-0.9-1.3l1.8-1.1L591.1,377.3z"/>
			<path class="st1" d="M11.1,198.6l1.9,0.9l-0.9,1.2l-1.5-1.4L11.1,198.6z"/>
			<path class="st1" d="M491.9,339.8l1.5-1.6l0.8,1.1l-1.8,1.1L491.9,339.8z"/>
			<path class="st1" d="M269.4,285.5c-0.7,0.2-1.4,0.3-2.1,0.3c-0.3,0-0.4-0.9-0.6-1.4l0.4-0.5l2.4,1L269.4,285.5z"/>
			<path class="st1" d="M41.8,337.3c-0.8,0.4-1.3,0.8-1.7,0.8s-0.7-0.6-1-0.9c0.4-0.4,0.7-0.9,1.1-1S41.1,336.7,41.8,337.3z"/>
			<path class="st1" d="M58.4,327c-0.6,0.1-1.1,0.1-1.7,0c-0.4-0.1-0.7-0.5-1-0.8c0.4-0.2,0.9-0.8,1.2-0.7c0.6,0.3,1.2,0.7,1.8,1.1
				L58.4,327z"/>
			<path class="st1" d="M451.7,238.7l-1.4,1.4c-0.3-0.4-0.9-0.8-0.9-1.1s0.5-0.8,1-1C450.7,237.9,451.1,238.3,451.7,238.7z"/>
			<path class="st1" d="M26,456.7l-1.7,1.5l-0.7-1.1l1.8-1.2L26,456.7z"/>
			<path class="st1" d="M104.7,337.4l0.4,1.9l-1.4,0.2v-2L104.7,337.4z"/>
			<path class="st1" d="M202.6,426.4l-0.5,2.4c-0.4-0.1-1-0.2-1.1-0.5C200.7,427.5,200.9,426.7,202.6,426.4z"/>
			<path class="st1" d="M318.2,46.7l-1.7-1.4c0.5-0.2,1.1-0.8,1.3-0.7c0.5,0.4,0.9,0.9,1.2,1.5L318.2,46.7z"/>
			<path class="st1" d="M253.7,429.4c-0.5,0.2-1,0.7-1.4,0.6c-0.5-0.3-0.8-0.7-1-1.3c-0.1-0.1,0.6-0.8,0.9-0.8s0.7,0.5,1.1,0.8
				L253.7,429.4z"/>
			<path class="st1" d="M295.4,5.5c-1.8,0.3-2.1,0-2-1.6C295,3.7,295.2,3.9,295.4,5.5z"/>
			<path class="st1" d="M590.2,430.6l1.1,2.3l-2.8,0.3L590.2,430.6z"/>
			<path class="st1" d="M126.9,100.4l2.4-0.7l-0.2,2.4l-0.6,0.1L126.9,100.4z"/>
			<path class="st1" d="M53.3,262c-1.2,1.3-1.9,1.2-2.6,0.5c-0.2-0.2,0.1-0.7,0.2-1.1L53.3,262z"/>
			<path class="st1" d="M96.9,260.9c0.4,0.4,0.8,0.9,1,1.5c0.1,0.2-0.6,0.9-0.7,0.9c-0.5-0.3-1-0.6-1.4-1L96.9,260.9z"/>
			<path class="st1" d="M87.4,278.5c0.4,0.9,0.8,1.4,0.8,1.8c-0.2,0.4-0.5,0.7-1,0.8c-0.4-0.2-0.7-0.5-0.8-1
				C86.4,279.7,86.9,279.3,87.4,278.5z"/>
			<path class="st1" d="M494.4,195.6c-1.9-1.3-1.9-1.6,0-3.1V195.6z"/>
			<path class="st1" d="M187.2,160.6l1.1,2.4l-2.8,0.3L187.2,160.6z"/>
			<path class="st1" d="M233.1,168.4c-0.6,0.3-1.3,0.5-2,0.7c-0.3-0.6-0.6-1.3-0.8-2l2.7,0.7L233.1,168.4z"/>
			<path class="st1" d="M529.7,370.6l2.4-0.7v2.2l-0.6,0.2L529.7,370.6z"/>
			<path class="st1" d="M136,276.1c-0.3,0.6-0.6,1.2-1,1.7c-0.4-0.1-0.7-0.3-1.1-0.5l1.1-1.7L136,276.1z"/>
			<path class="st1" d="M220.9,65.2l1.6-1.8c0.3,0.3,0.5,0.6,0.7,0.9c-0.5,0.6-1.1,1.1-1.7,1.6L220.9,65.2z"/>
			<path class="st1" d="M295,289.1l1.5,1.2l-1.1,1l-1.1-1.6L295,289.1z"/>
			<path class="st1" d="M144.5,254.4l-1.1,2.2c-0.4-0.3-1.1-0.5-1.1-0.8C142.2,254.6,143.1,254.5,144.5,254.4z"/>
			<path class="st1" d="M137.7,474.4l1.4-1.8l0.5,0.1c0,0.7-0.1,1.4-0.3,2c-0.1,0.2-1,0.1-1.5,0.1L137.7,474.4z"/>
			<path class="st1" d="M321.7,251.8c-0.8,0.4-1.2,0.7-1.6,0.7s-0.7-0.6-1-0.9c0.3-0.3,0.7-1,0.9-0.9
				C320.5,250.8,320.9,251.3,321.7,251.8z"/>
			<path class="st1" d="M366,21.6l-0.2-2.3h1.3l-0.2,2.4L366,21.6z"/>
			<path class="st1" d="M114.6,352.1l-0.6,2.8c-0.7-0.7-1.4-1.3-1.3-1.5c0.4-0.6,0.9-1.2,1.4-1.7L114.6,352.1z"/>
			<path class="st1" d="M288.8,430.3l0.9-1.5l1.3,0.9l-1.4,1.3L288.8,430.3z"/>
			<path class="st1" d="M190.6,211.8l1.2,1.5c-0.4,0.3-0.8,0.7-1.1,0.7c-0.5-0.1-0.8-0.4-1-0.9C189.6,212.8,190.1,212.4,190.6,211.8
				z"/>
			<path class="st1" d="M46.5,211.4l0.3-2l1.3,0.4l-0.7,1.8L46.5,211.4z"/>
			<path class="st1" d="M449.5,124v-2.3l1.4,0.1l-0.7,2.3L449.5,124z"/>
			<path class="st1" d="M112.5,373l-1.1,1.4l-1.3-1.4l0.3-0.4h1.8L112.5,373z"/>
			<path class="st1" d="M309.3,192.7l-2.4-0.1c0.1-0.4,0-1.1,0.3-1.2C308.2,190.7,308.7,191.4,309.3,192.7z"/>
			<path class="st1" d="M332.6,140l2.3,1.4v0.4h-2.4L332.6,140z"/>
			<path class="st1" d="M302.7,425l1.7,0.9l-0.6,1.3l-1.6-1.4L302.7,425z"/>
			<path class="st1" d="M623.9,335.2l1.5-1.9l0.8,1l-1.8,1.4L623.9,335.2z"/>
			<path class="st1" d="M409.1,353.8l2.3-2.2C411.4,354.3,411.3,354.4,409.1,353.8z"/>
			<path class="st1" d="M427.3,298.9l-0.2-2.2h1.4l-0.5,2.2L427.3,298.9z"/>
			<path class="st1" d="M314.8,110.8l2.4-0.8l-0.5,3L314.8,110.8z"/>
			<path class="st1" d="M122.8,44.7l1.1-1.8l1.1,0.9l-1.6,1.5L122.8,44.7z"/>
			<path class="st1" d="M290,253.2v1.9l-1.4-0.1l0.4-2L290,253.2z"/>
			<path class="st1" d="M514.8,43l-1.5,2.2C512.4,43.3,512.5,43,514.8,43z"/>
			<path class="st1" d="M231,153.4c-0.4-0.6-0.3-1.4,0.3-1.8c0.1-0.1,0.2-0.1,0.4-0.2c0.2-0.1,0.8,0.4,0.8,0.4
				c-0.2,0.6-0.6,1.2-0.9,1.9L231,153.4z"/>
			<path class="st1" d="M88.1,286.2c0.3,0.7,0.7,1.2,0.6,1.4c-0.3,0.4-0.6,0.8-1,1.2c-0.3-0.4-0.8-0.8-0.8-1.1
				S87.6,286.9,88.1,286.2z"/>
			<path class="st1" d="M603.1,36.8l-1.5,1c-0.9-1.2-0.9-1.2,0.5-2.7L603.1,36.8z"/>
			<path class="st1" d="M260.8,422.2c-0.8,1.3-1.4,1.9-2.1,1c-0.2-0.3,0-0.9,0-1.3L260.8,422.2z"/>
			<path class="st1" d="M199.2,264.7v-2.3l0.4-0.3l1.5,1.6L199.2,264.7z"/>
			<path class="st1" d="M8.6,82.3C8.3,83.4,8.4,84.8,6,84l2.1-2.2L8.6,82.3z"/>
			<path class="st1" d="M200.5,407.1v-2l1.3,0.1l-0.3,1.9L200.5,407.1z"/>
			<path class="st1" d="M361.8,270.5l-1.6,1.7c-0.2-0.2-0.5-0.5-0.7-0.7c0.5-0.6,1.1-1.1,1.7-1.7L361.8,270.5z"/>
			<path class="st1" d="M204,451.2l0.9-2c0.4,0.3,1,0.5,1,0.9C206,451.1,205.4,451.5,204,451.2z"/>
			<path class="st1" d="M323.4,214.6c-0.7,0.5-1.1,1-1.3,0.9c-0.5-0.2-0.8-0.6-1.1-1c-0.1-0.1,0.5-0.8,0.8-0.8
				C322.2,213.8,322.6,214.2,323.4,214.6z"/>
			<path class="st1" d="M27.2,333.4c-0.2-0.7-0.3-1.5-0.4-2.3c0-0.1,0.6-0.2,0.9-0.4l0.5,2.4L27.2,333.4z"/>
			<path class="st1" d="M162,467.5l-2.1,0.2c0-0.5,0.1-1.1,0.3-1.6c0.3-0.3,0.8-0.3,1.2-0.1C161.8,466.2,161.8,466.8,162,467.5z"/>
			<path class="st1" d="M525.8,314.8l1-1.8l1.2,1l-1.6,1.3L525.8,314.8z"/>
			<path class="st1" d="M283.1,448l0.9,1.7l-1.2,0.5l-0.6-1.8L283.1,448z"/>
			<path class="st1" d="M178,208l1.3,1.4l-2.2,0.5l0.2-2L178,208z"/>
			<path class="st1" d="M202.4,245.3l1.6,1.3l-1.1,0.8l-1.1-1.6L202.4,245.3z"/>
			<path class="st1" d="M350.8,405.7l-2.3,0.1c0.1-0.4,0.1-1.1,0.2-1.1c0.7-0.1,1.4-0.1,2.1,0L350.8,405.7z"/>
			<path class="st1" d="M174.6,414.3l1,1.5c-0.5,0.3-1,0.6-1.5,0.8c-0.1,0-0.7-0.5-0.6-0.6C173.8,415.4,174.2,414.8,174.6,414.3z"/>
			<path class="st1" d="M241.7,153.8l2.3,1l-1.9,1.4l-0.9-1.9L241.7,153.8z"/>
			<path class="st1" d="M99.2,281.2c1.6,0.7,1.2,1.6,0.2,2.6C98.5,282.9,97.8,282.2,99.2,281.2z"/>
			<path class="st1" d="M445.3,148.1c-0.7,0.4-1.1,0.8-1.4,0.7c-0.4-0.1-0.8-0.6-1.1-1c0.3-0.3,0.7-0.8,1-0.8
				C444.3,147.1,444.6,147.6,445.3,148.1z"/>
			<path class="st1" d="M188.1,26.2l-0.3-2.6l2.1,1L188.1,26.2z"/>
			<path class="st1" d="M157.1,471.3l-1.3,1.4l-0.9-1.2l1.7-0.8L157.1,471.3z"/>
			<path class="st1" d="M555.9,464.7l2.5,0.9c-0.1,0.3-0.2,0.9-0.4,0.9C556.7,467,556.4,466.1,555.9,464.7z"/>
			<path class="st1" d="M555.5,374.6c-0.7,0.5-1.2,1-1.3,1c-0.4-0.4-0.8-0.8-1.2-1.3c0.3-0.2,0.6-0.6,0.9-0.6
				C554.5,374,555.1,374.3,555.5,374.6z"/>
			<path class="st1" d="M616.9,382.2l-1.5-1.3l0.9-0.9l1.3,1.4L616.9,382.2z"/>
			<path class="st1" d="M327.6,323l0.9-2.1c0.3,0.3,0.9,0.6,1,0.9C329.7,322.9,329.1,323.3,327.6,323z"/>
			<path class="st1" d="M572.9,219.3l0.9-1.7l1.8,1.4l-2.2,0.7L572.9,219.3z"/>
			<path class="st1" d="M508.7,315.5l1-1.9c0.3,0.3,1,0.9,1,1c-0.4,0.5-0.8,1-1.3,1.4L508.7,315.5z"/>
			<path class="st1" d="M151.2,106.1l-1.1-1.8c0.4-0.2,0.8-0.6,1-0.6c0.4,0.2,0.7,0.6,0.9,1C152.1,105,151.6,105.4,151.2,106.1z"/>
			<path class="st1" d="M590.8,295.6l0.7-1.6l1.4,0.7l-1.5,1.3L590.8,295.6z"/>
			<path class="st1" d="M213.9,112.2l-1.4-1.3l0.9-0.8l1.2,1.4L213.9,112.2z"/>
			<path class="st1" d="M130.8,221.1h2.1c-0.3,0.7-0.5,1.8-0.8,1.8C130.9,223,130.7,222.1,130.8,221.1z"/>
			<path class="st1" d="M264.5,227.6c-0.5-0.7-1.1-1.2-1-1.5s0.6-0.8,1-1.2c0.3,0.4,0.7,0.7,0.8,1.1S264.9,226.8,264.5,227.6z"/>
			<path class="st1" d="M46,382.7c-0.8,1.2-1.5,1.5-2.2,0.8c-0.2-0.2,0.1-0.9,0.1-1.3L46,382.7z"/>
			<path class="st1" d="M105.7,45.5l0.8-1.9l1.2,1l-1.4,1.4L105.7,45.5z"/>
			<path class="st1" d="M292.6,301l-1.5,1.1c-0.2-0.3-0.7-0.7-0.7-1s0.5-0.8,0.8-1.2L292.6,301z"/>
			<path class="st1" d="M241.3,433.1c0.5,0.5,1.1,0.9,1,1.1c-0.1,0.4-0.6,0.8-0.9,1.1c-0.3-0.4-0.8-0.7-0.9-1.1
				C240.4,434.1,240.9,433.7,241.3,433.1z"/>
			<path class="st1" d="M468.4,466.9l-1.4-1.3l1.1-0.9l1,1.5L468.4,466.9z"/>
			<path class="st1" d="M406.9,415.5c-0.5,0.4-1.1,0.8-1.6,1.2c-0.1,0.1-0.5-0.4-0.8-0.7c0.4-0.4,0.8-0.8,1.2-1.2
				C405.8,414.7,406.3,415.1,406.9,415.5z"/>
			<path class="st1" d="M132.5,485.7l-1.1,2.1c-0.3-0.2-0.6-0.4-0.8-0.7c0.4-0.7,0.9-1.3,1.3-1.9L132.5,485.7z"/>
			<path class="st1" d="M228.4,186.6l-1.9-1.1l0.8-1l1.6,1.4L228.4,186.6z"/>
			<path class="st1" d="M349.9,351.6l1,1.7l-1.2,0.7l-0.5-2L349.9,351.6z"/>
			<path class="st1" d="M123.9,199.9l0.3,2.3c-0.3,0-1,0.1-1,0c-0.2-0.7-0.3-1.5-0.3-2.2L123.9,199.9z"/>
			<path class="st1" d="M146.4,371.1c-0.6,0.5-0.9,1-1.2,1s-0.8-0.5-1.1-0.8c0.3-0.4,0.5-0.9,0.9-1S145.7,370.7,146.4,371.1z"/>
			<path class="st1" d="M2.2,147.1c-0.4-0.6-0.8-1.1-0.8-1.2c0.3-0.5,0.8-0.8,1.2-1.1c0,0,0.8,0.6,0.7,0.7
				C3.1,146.1,2.7,146.6,2.2,147.1z"/>
			<path class="st1" d="M237,254.9l1.2-1.4l0.9,1.1l-1.6,1L237,254.9z"/>
			<path class="st1" d="M262,260.7l1.5,0.8c-0.5,1.1-1.1,1.8-2.3,0.7L262,260.7z"/>
			<path class="st1" d="M308.2,341.6l-1.2,1.6c-0.3-0.4-1-0.8-0.9-1.1s0.6-0.9,1-1.1C307.2,340.9,307.7,341.3,308.2,341.6z"/>
			<path class="st1" d="M532.8,49.5l-1.6,0.4l-0.4-0.2l0.8-1.5l1.6,0.9L532.8,49.5z"/>
			<path class="st1" d="M20.3,320.4c0,0.6,0.2,1.3-0.1,1.6s-1,0.2-2.1,0.4l1.5-2.2L20.3,320.4z"/>
			<path class="st1" d="M232.9,279c1.3,0.7,0.8,1.4,0,2.2C231.4,280.1,231.4,279.8,232.9,279z"/>
			<path class="st1" d="M246.4,278.5c0.4,1.5-1,1.3-1.7,1.7C244.5,278.3,244.7,278.1,246.4,278.5z"/>
			<path class="st1" d="M19.1,292.4l1.3-1.4c0.3,0.3,0.8,0.5,0.8,0.8c0,1-0.7,1.2-1.6,1.1L19.1,292.4z"/>
			<path class="st1" d="M467.8,438c-0.3-0.1-0.7-0.2-1-0.2c-0.2,0-0.5,0.1-0.7,0.2l-0.4-0.3c0.3-0.5,0.6-1.5,1-1.5
				C467.6,436.2,468.1,436.8,467.8,438z"/>
			<path class="st1" d="M284,336.7l-0.2-2.5c1.9,0.7,1.9,0.9,0.7,2.5L284,336.7z"/>
			<path class="st1" d="M554.3,291.6l1.3,2.2c-1-0.2-1.7-0.2-2.1-0.6c-0.2-0.2,0.1-1,0.2-1.5L554.3,291.6z"/>
			<path class="st1" d="M311.8,217.6l1-1.9c0.3,0.2,0.9,0.6,0.8,0.6c-0.3,0.6-0.6,1.2-1,1.7L311.8,217.6z"/>
			<path class="st1" d="M119.3,325.3l-1.2,1.1c-0.3-0.4-0.8-0.8-0.8-1.1s0.6-0.7,1-0.9C118.5,324.3,118.9,324.9,119.3,325.3z"/>
			<path class="st1" d="M60.9,446.3l-1.6,2l-0.5-0.2l0.3-2L60.9,446.3z"/>
			<path class="st1" d="M332.7,207.9c0.4,0.6,0.9,1,0.9,1.3s-0.4,0.6-0.7,1c-0.4-0.3-0.8-0.7-1.1-1.1
				C331.7,209,332.2,208.5,332.7,207.9z"/>
			<path class="st1" d="M221,207.4c-0.6,0.5-0.9,0.9-1.1,0.9c-0.5-0.2-1-0.4-1.4-0.8c0.3-0.3,0.6-0.9,0.9-0.8
				C219.9,206.8,220.5,207.1,221,207.4z"/>
			<path class="st1" d="M298.4,298.2c0.5-1,0.8-2.3,2.9-1.9l-2.6,2.3L298.4,298.2z"/>
			<path class="st1" d="M523.5,321.4l-0.4,2.3l-1-0.2l0.5-2.3L523.5,321.4z"/>
			<path class="st1" d="M478.3,362c-0.4-0.5-0.8-1-1.2-1.5c0-0.1,0.5-0.8,0.7-0.7c0.5,0.1,0.9,0.4,1.1,0.8
				C479.1,360.8,478.7,361.3,478.3,362z"/>
			<path class="st1" d="M151.3,21.5l1.1,1.7l-0.2,0.4c-0.6-0.1-1.2-0.3-1.7-0.6c-0.2-0.2,0.2-1,0.3-1.5L151.3,21.5z"/>
			<path class="st1" d="M120.6,51.4c-0.1,0.7-0.2,1.5-0.4,2.2c-0.3,0-0.7,0-1-0.1l0.4-2.3L120.6,51.4z"/>
			<path class="st1" d="M543.2,387.1v-3.2C544.9,385.2,543.9,386.2,543.2,387.1z"/>
			<path class="st1" d="M366.5,60.8l-2.5-0.9c1.5-1.3,2.2-0.8,2.8,0.3L366.5,60.8z"/>
			<path class="st1" d="M75.1,89.3c0.4,0.6,0.9,1,0.9,1.4s-0.5,0.6-0.8,0.9c-0.3-0.3-0.8-0.6-1-1.1C74.1,90.3,74.6,89.9,75.1,89.3z"
				/>
			<path class="st1" d="M335.1,385l-1.7,1l-0.5-0.3c0.1-0.5,0.2-1.4,0.4-1.5c0.5-0.1,1.1,0.2,1.7,0.4L335.1,385z"/>
			<path class="st1" d="M41.7,413.8l-1.8,0.6c-0.1-0.4-0.3-1.2-0.2-1.2c0.5-0.2,1.1-0.3,1.7-0.4L41.7,413.8z"/>
			<path class="st1" d="M552.6,384.7l-2,0.3l0.1-1.4l1.8,0.2L552.6,384.7z"/>
			<path class="st1" d="M149.6,114.7l-2,0.2l0.2-1.4l1.8,0.2L149.6,114.7z"/>
			<path class="st1" d="M140.2,113.9c1.8,1.3,0.6,2.2,0.4,3.2h-0.4V113.9z"/>
			<path class="st1" d="M62.5,167.9c0.5-0.8,0.8-1.7,1.2-1.7c0.9,0,1.4,0.6,1.1,1.6L62.5,167.9z"/>
			<path class="st1" d="M198,178.9l-0.2-2l1.4,0.2l-0.3,1.8L198,178.9z"/>
			<path class="st1" d="M448.1,439.8c-0.5,0.3-1,0.5-1.5,0.7c-0.3,0-0.9-0.7-0.8-0.8c0.2-0.4,0.6-0.8,1-1c0.2-0.1,0.6,0.2,0.9,0.4
				L448.1,439.8z"/>
			<path class="st1" d="M182.1,124.6h-1.5l-0.3-0.4c0.4-0.4,0.7-0.9,1.2-1c0.3-0.1,0.7,0.6,1,1L182.1,124.6z"/>
			<path class="st1" d="M166.8,150.1l-0.2-2c0.3,0,0.7,0,1,0c0.1,0.6,0.2,1.3,0.2,1.9L166.8,150.1z"/>
			<path class="st1" d="M453.6,102.8c-0.7,0.4-1.1,0.8-1.5,0.8s-0.8-0.7-0.7-0.9c0.2-0.4,0.6-0.7,1-0.9
				C452.7,101.7,453,102.3,453.6,102.8z"/>
			<path class="st1" d="M414.6,153l-0.2-2.1c0.4,0.1,1.1,0.1,1.2,0.3c0,0.6,0,1.2-0.1,1.8L414.6,153z"/>
			<path class="st1" d="M334.7,160.7l-1.9-0.5c0.1-0.4,0.1-0.9,0.4-1.1C334.1,158.6,334.6,159.3,334.7,160.7z"/>
			<path class="st1" d="M197.3,170.5c-0.7,0.4-1,0.9-1.4,0.9s-0.7-0.5-1.1-0.8c0.3-0.3,0.5-0.9,0.8-0.9
				C196.1,169.8,196.5,170.1,197.3,170.5z"/>
			<path class="st1" d="M353,39.8l-2.4-0.8l1.7-1.1l1,1.5L353,39.8z"/>
			<path class="st1" d="M555,29.8c0.6,0.4,1.3,0.7,1.9,1.1c-0.1,0.3-0.3,0.6-0.5,0.8l-1.9-1.2L555,29.8z"/>
			<path class="st1" d="M570.9,420.5c-1.3-0.7-1.9-1.3-1.2-2.2c0.1-0.2,1-0.1,1,0C570.7,419,570.8,419.7,570.9,420.5z"/>
			<path class="st1" d="M253.4,350.4l2.3,1.3l-1.6,1.1L253.4,350.4z"/>
			<path class="st1" d="M639,416.4l-1.8-2c0.8,0.1,1.5,0.2,2.3,0.5c0.2,0.1,0,1,0,1.5L639,416.4z"/>
			<path class="st1" d="M31.5,380.6c0.4,0.7,0.9,1,0.9,1.4s-0.6,0.9-0.8,0.8c-0.4-0.2-0.8-0.6-1-1C30.5,381.7,31,381.2,31.5,380.6z"
				/>
			<path class="st1" d="M70.2,344.1l1.6,1.2c-0.3,0.2-0.7,0.7-0.8,0.7c-0.5-0.4-1-0.8-1.5-1.2L70.2,344.1z"/>
			<path class="st1" d="M585.4,394.7h-2c0.1-0.5,0.1-1,0.4-1.2c0.3-0.2,0.8-0.3,1.2-0.1C585.2,393.5,585.2,394.1,585.4,394.7z"/>
			<path class="st1" d="M256.5,319.5c-0.4,0.2-0.9,0.5-1.3,0.4s-0.7-0.6-1-0.9c0.4-0.2,0.8-0.6,1.1-0.5c0.4,0.1,0.9,0.3,1.2,0.6
				L256.5,319.5z"/>
			<path class="st1" d="M22.3,406.4l1.4-1.5c0.2,0.3,0.5,0.6,0.6,1c-0.5,0.4-1,0.8-1.5,1.1L22.3,406.4z"/>
			<path class="st1" d="M386.7,266.8c0.5,0.6,1,1.1,0.9,1.3c-0.1,0.4-0.6,0.7-1,1c-0.2-0.3-0.7-0.6-0.7-1S386.3,267.4,386.7,266.8z"
				/>
			<path class="st1" d="M40.6,444.1l0.5-1.7l1.2,0.5l-1,1.5L40.6,444.1z"/>
			<path class="st1" d="M172,225.7l2.6-1C174.3,226.6,173.7,226.8,172,225.7z"/>
			<path class="st1" d="M79.8,348.1c-0.4,0.1-1,0.4-1.3,0.2s-0.5-0.9-0.8-1.3l0.4-0.5l1.8,0.9L79.8,348.1z"/>
			<path class="st1" d="M359,25.2c0.4,0.8,0.8,1.3,0.7,1.6s-0.6,0.6-0.9,0.9c-0.2-0.4-0.6-0.7-0.6-1.1S358.6,26,359,25.2z"/>
			<path class="st1" d="M581,214.1c-1-0.3-2.3-0.1-2.3-2.2l2.7,1.9L581,214.1z"/>
			<path class="st1" d="M394.6,126.3l-1.4,1c-0.7-0.7-0.8-1.4,0.1-1.8c0.4-0.2,1,0.2,1.5,0.3L394.6,126.3z"/>
			<path class="st1" d="M19.1,348.9l-0.5,1.9l-0.4,0.1c-0.3-0.5-0.5-1.1-0.6-1.7c0-0.2,0.8-0.5,1.2-0.7L19.1,348.9z"/>
			<path class="st1" d="M460.6,205.1c-0.8,1-1.5,1.3-2.3,0l0.9-1.1L460.6,205.1z"/>
			<path class="st1" d="M603,465c-0.9,1.2-1.6,0.5-2.3-0.2C601.6,463.7,602.3,463.8,603,465z"/>
			<path class="st1" d="M130.5,378.2l-2.7-0.5l1.4-1.9L130.5,378.2z"/>
			<path class="st1" d="M624.2,152.7l-1.9-0.1l-0.2-0.4c0.5-0.3,0.9-0.9,1.4-0.9c0.3,0,0.7,0.7,1,1.1L624.2,152.7z"/>
			<path class="st1" d="M102.6,371.1l-0.9,3.1C100.6,372.7,100.4,371.8,102.6,371.1z"/>
			<path class="st1" d="M259.5,171.2l-1.9,0.7l0.2-2.7L259.5,171.2z"/>
			<path class="st1" d="M46.2,366.2l2.2,1.1C46.6,368.3,46.5,368.3,46.2,366.2z"/>
			<path class="st1" d="M256.1,299.8c0.1-1.5,0.1-1.5,1.7-1.4C257.9,299.9,257.9,300,256.1,299.8z"/>
			<path class="st1" d="M213.5,294.9c0.4-0.4,0.9-0.7,1.4-1c0.1-0.1,0.5,0.4,0.8,0.6l-1.5,1.2L213.5,294.9z"/>
			<path class="st1" d="M558.8,292.1c0.5,0.8,0.9,1.1,0.9,1.5s-0.6,0.6-0.9,0.8c-0.3-0.3-0.7-0.6-0.8-1S558.4,292.8,558.8,292.1z"/>
			<path class="st1" d="M385.5,31.6l-0.9,1.7l-1.7-1.7L385.5,31.6z"/>
			<path class="st1" d="M414.6,33.5l0.4-1.7l1.3,0.6l-1,1.4L414.6,33.5z"/>
			<path class="st1" d="M315.3,47l0.2,1.8h-1.3l0.2-1.8L315.3,47z"/>
			<path class="st1" d="M342.5,409.8c0.4,0.6,0.7,1.2,1,1.8c0,0.1-0.5,0.4-0.8,0.6l-1-1.9L342.5,409.8z"/>
			<path class="st1" d="M188,281l-1.7,0.2v-1.4l1.8,0.3L188,281z"/>
			<path class="st1" d="M255.4,277.4c-0.6,0.4-1.1,0.8-1.1,0.7c-0.4-0.4-0.7-0.8-1-1.3c-0.1-0.1,0.3-0.4,0.5-0.7L255.4,277.4z"/>
			<path class="st1" d="M599.6,290.3l-0.4,2.1c-0.3-0.1-0.8-0.2-0.8-0.3c0.1-0.7,0.2-1.3,0.3-2L599.6,290.3z"/>
			<path class="st1" d="M215.5,378.7l-0.9-1c0.4-0.2,0.8-0.7,1-0.7c0.4,0.2,0.7,0.6,0.9,1c0.1,0.3-0.1,0.8-0.2,1.2L215.5,378.7z"/>
			<path class="st1" d="M196.5,20.2l-0.2,2.1c-0.3,0-0.6-0.1-0.9-0.2c0-0.7,0.1-1.3,0.1-2L196.5,20.2z"/>
			<path class="st1" d="M205.5,337.7l2.1,0.7l-0.2,0.5c-0.9,0.4-1.8,0.6-2.2-0.7L205.5,337.7z"/>
			<path class="st1" d="M126.2,71l2.3,0.6c-1.4,1.3-1.6,1.3-2.4,0L126.2,71z"/>
			<path class="st1" d="M531.2,342c-1.2,0.9-1.8,0.7-2.3-0.5C529.9,340.6,530.6,341,531.2,342z"/>
			<path class="st1" d="M468.2,386.2l-0.9-2.2h2.4L468.2,386.2z"/>
			<path class="st1" d="M238.1,216.7c1-0.1,2.1-0.3,2,1.8l-2.3-1.3L238.1,216.7z"/>
			<path class="st1" d="M66.8,113.9l-1.6,2.2l-0.9-2.2H66.8z"/>
			<path class="st1" d="M89.9,469.2l1.9-1.3l0.5,2.1L89.9,469.2z"/>
			<path class="st1" d="M254.2,91.3c1.1,1.8,0.2,1.9-1.5,1.9L254.2,91.3z"/>
			<path class="st1" d="M114,228.1l-1.6,0.6l-0.4-1l1.7-0.4L114,228.1z"/>
			<path class="st1" d="M23.7,27.6c0.3-0.4,0.7-0.8,1.1-1.1c0.1-0.1,0.6,0.5,0.9,0.8l-1.5,1L23.7,27.6z"/>
			<path class="st1" d="M87.4,469.9l-1.5-0.9c0.3-0.3,0.7-0.8,0.8-0.8c0.5,0.3,0.9,0.6,1.3,1L87.4,469.9z"/>
			<path class="st1" d="M526.8,385.1l0.8-2.1c0.2,0.2,0.7,0.4,0.7,0.6C528.5,384.5,528.4,385.2,526.8,385.1z"/>
			<path class="st1" d="M140.5,96.2l1.6,0.8l-0.6,0.9l-1.4-1L140.5,96.2z"/>
			<path class="st1" d="M123.9,114.9l0.7-2c0.3,0.2,0.8,0.5,0.8,0.7c-0.2,0.6-0.4,1.1-0.7,1.6L123.9,114.9z"/>
			<path class="st1" d="M157.4,220.6c0.5,0.1,1,0.3,1.5,0.5c0.1,0.1-0.2,0.8-0.3,1.2l-1.5-0.8L157.4,220.6z"/>
			<path class="st1" d="M229.3,222.1l-1.2-2.1c0.9,0.2,1.7,0.1,1.9,0.5s-0.2,1-0.3,1.6L229.3,222.1z"/>
			<path class="st1" d="M80.5,434.9l2.2-1l-0.5,2l-1.7-0.3L80.5,434.9z"/>
			<path class="st1" d="M203.6,330.2h1.8c0,0.4,0.1,0.8,0,1.1s-0.6,0.5-0.9,0.7L203.6,330.2z"/>
			<path class="st1" d="M171.6,213.9l-1.9-1.3l0.4-0.7l2,1.2L171.6,213.9z"/>
			<path class="st1" d="M145.2,268.1l-0.9,1.6l-0.9-0.7l1.1-1.4L145.2,268.1z"/>
			<path class="st1" d="M110.2,301.7l-0.2,1.4c-1.6-0.1-1.6-0.1-1-1.9L110.2,301.7z"/>
			<path class="st1" d="M328.6,182.6l-1.1,1c-0.3-0.3-0.8-0.7-0.8-1s0.5-0.7,0.8-1L328.6,182.6z"/>
			<path class="st1" d="M59.9,307l0.8-1.6l1,0.5l-1,1.5L59.9,307z"/>
			<path class="st1" d="M155.1,311.5l0.9-1.8c0.3,0.2,0.5,0.3,0.7,0.5c-0.3,0.6-0.7,1.1-1,1.7L155.1,311.5z"/>
			<path class="st1" d="M301.3,179.4l0.9-1.5l0.9,0.6l-1.1,1.4L301.3,179.4z"/>
			<path class="st1" d="M302.7,364.6l0.5-2.6c1.1,1.7,1.1,1.8,0.1,2.8L302.7,364.6z"/>
			<path class="st1" d="M543.5,366.3l1.6,0.7l-0.7,1l-1.3-1L543.5,366.3z"/>
			<path class="st1" d="M240.2,75.4v-1.9c0.4,0,0.9-0.2,1.2,0s0.5,0.8,0.4,1C241.3,74.9,240.7,75.2,240.2,75.4z"/>
			<path class="st1" d="M178.7,75.8l2.1,0.8l-0.2,0.6C179.7,77.2,178.7,77.8,178.7,75.8z"/>
			<path class="st1" d="M277.6,340.8c-1.7-1-1.3-1.7,0.2-2.3L277.6,340.8z"/>
			<path class="st1" d="M493.1,385.1l1.2-1.2l0.9,0.9l-1.7,0.9L493.1,385.1z"/>
			<path class="st1" d="M444.4,284l-1.6,0.5l-0.2-1.1l1.7-0.2L444.4,284z"/>
			<path class="st1" d="M15.6,388l1.9,1l-1.3,1.4L15.6,388z"/>
			<path class="st1" d="M174.1,391.3h2.2C175.5,393.1,174.8,392.6,174.1,391.3z"/>
			<path class="st1" d="M6.9,337.9l-1.2,1.5c-0.2-0.2-0.5-0.4-0.6-0.6c0.4-0.5,0.8-1,1.2-1.4L6.9,337.9z"/>
			<path class="st1" d="M121.4,323.8c0.5,0.1,1,0.3,1.4,0.5c0.1,0.1-0.2,0.8-0.3,1.2l-1.5-0.9L121.4,323.8z"/>
			<path class="st1" d="M194.8,301.9l-1.4,1.2l-0.4-1.8h1.8L194.8,301.9z"/>
			<path class="st1" d="M58.8,5.9l0.1-1.3c1.7-0.2,1,1.3,1.5,2.1L58.8,5.9z"/>
			<path class="st1" d="M245.3,376.1l1.9-0.4l0.3,0.3c-0.3,0.4-0.6,1.2-0.9,1.2c-0.5,0-1-0.4-1.6-0.7L245.3,376.1z"/>
			<path class="st1" d="M460.4,462.6l-2.3,0.4c-0.2-0.8-0.2-1.5,0.9-1.5C459.4,461.6,459.7,462.1,460.4,462.6z"/>
			<path class="st1" d="M202.9,148.8c0.5,0.6,2-0.2,1.5,1.6C203.3,150.5,202.4,150.6,202.9,148.8z"/>
			<path class="st1" d="M427.9,462.3c0,0.8,0.2,1.6,0,1.7c-0.6,0.2-1.1,0.3-1.7,0.3l-0.1-0.4L427.9,462.3z"/>
			<path class="st1" d="M366,193.7c-0.1-0.6-0.1-1.2-0.1-1.8c0-0.1,0.5-0.2,0.8-0.3l0.2,2L366,193.7z"/>
			<path class="st1" d="M605.9,418.7c0.5,0.7,2.2,0,1.5,1.7C606.3,420.6,605.4,420.7,605.9,418.7z"/>
			<path class="st1" d="M92.5,350.4l-1.1-1.4l1.6-0.5l0.1,1.9L92.5,350.4z"/>
			<path class="st1" d="M244.1,117.1l1.3,1l-0.1,0.4l-2.2,0.3l-0.1-0.5L244.1,117.1z"/>
			<path class="st1" d="M265,212.6v1.6l-1.4-0.1l0.7-1.7L265,212.6z"/>
			<path class="st1" d="M90.1,115l1.2-1.1l0.8,0.9l-1.6,0.8L90.1,115z"/>
			<path class="st1" d="M85.2,468.7l-1.4-1.2c0.3-0.2,0.8-0.6,0.9-0.5c0.4,0.3,0.8,0.6,1.1,1L85.2,468.7z"/>
			<path class="st1" d="M224.3,233.4l0.6-2.4c1.8,1.3,0.6,1.8,0.1,2.5L224.3,233.4z"/>
			<path class="st1" d="M583.7,347.3c-1-0.1-2.1,0.5-2.3-1.1C582.4,346.1,583.4,345.6,583.7,347.3z"/>
			<path class="st1" d="M42.2,341.6l-1,1.5c-0.3-0.3-0.8-0.7-0.8-0.8c0.3-0.4,0.7-0.8,1-1.2L42.2,341.6z"/>
			<path class="st1" d="M314.8,267.5c1.6,1.3,0.9,1.9-0.5,2.7L314.8,267.5z"/>
			<path class="st1" d="M461.8,275.9l0.1-1.3c0.2,0,0.4-0.1,0.5,0c0.4,0.6,0.8,1.3,1.3,2l-0.4,0.2L461.8,275.9z"/>
		</g>
	</g>
</g>
</svg>
