<svg xmlns="http://www.w3.org/2000/svg" viewBox="0 0 504.25 441.1"><title>icon_up</title><g id="圖層_2" data-name="圖層 2"><g id="圖層_1-2" data-name="圖層 1"><g id="GLprSc"><path d="M66.63,197.06,191.2,72.73l20.5,20.66a14.17,14.17,0,0,0,24.18-8.77l5.94-69.23A14.17,14.17,0,0,0,226.47.06L158.79,6a14.17,14.17,0,0,0-8.88,24l18.87,19.24S84,133.37,43.57,173.77a14.17,14.17,0,0,0-.34,19.68l3,3.24A14.17,14.17,0,0,0,66.63,197.06Z"/></g><g id="_5czVW6" data-name="5czVW6"><path d="M107.07,409.06c0-2.76,0-4.88,0-7,0-26.33,0-52.65,0-79,0-17,9-26,25.74-26q48.49,0,97,0h6.87c0-2.42,0-4.5,0-6.58,0-26.66-.05-53.32.06-80a40.64,40.64,0,0,1,1.44-11.32c3-10.07,11.12-15.9,21.63-15.91q50.74-.06,101.47,0h5.94c0-2.23,0-4,0-5.79q0-39.74,0-79.48a43.18,43.18,0,0,1,.94-9.4C370.62,77.9,379.07,71,390,70.95q48.74-.17,97.47,0c10.09,0,16.76,6.62,16.74,16s-6.86,15.92-16.84,16c-26.83.12-53.65,0-80.48,0h-7.72c0,2.29,0,4.22,0,6.14q0,40,0,80c0,17.1-9.16,26.23-26.16,26.22q-49.49,0-99,0H268.7c0,2.33,0,4.12,0,5.91q0,40.49,0,81c0,7-1.35,13.57-6,19.1-5,5.94-11.6,7.89-19.15,7.87-32.82-.08-65.65,0-98.47,0h-5.76c-.09,2-.22,3.63-.22,5.24,0,26.32.05,52.65-.08,79a42,42,0,0,1-1.53,11.8c-3,9.8-11,15.89-21.2,15.93q-50,.2-100,0c-9.78,0-16.49-7.15-16.31-16.47.18-9,6.94-15.41,16.71-15.43,27.66-.07,55.32,0,83,0Z"/></g></g></g></svg>