<svg xmlns="http://www.w3.org/2000/svg" viewBox="0 0 436.24 414.2"><title>icon_down</title><g id="圖層_2" data-name="圖層 2"><g id="圖層_1-2" data-name="圖層 1"><path d="M177.36,347.77c0,7.55,3.15,10.73,10.53,10.75q28.72.09,57.45,0c8.42,0,11.48-3.08,11.48-11.51q0-98.42,0-196.83c0-7.78-3.11-10.95-10.94-11q-29.22-.12-58.45,0c-6.85,0-10,3.29-10,10.17q0,49.46,0,98.91h0Q177.34,298.07,177.36,347.77Z"/><path d="M419.17,383.53q-100.48,0-201,0t-201,0c-10.49,0-17.13,6-17.24,15.25s6.77,15.38,17.11,15.38q201,0,401.94,0c10.49,0,17.16-6,17.19-15.26S429.52,383.54,419.17,383.53Z"/><path d="M70.12,358.51q28.72.1,57.45,0c8.42,0,11.44-3.1,11.44-11.47q0-68.19,0-136.38c0-8.06-3.12-11.17-11.19-11.19q-28.48-.06-57,0c-8.38,0-11.4,3-11.4,11.45q0,33.72,0,67.44c0,23.15,0,46.29,0,69.44C59.5,355.24,62.72,358.49,70.12,358.51Z"/><path d="M295.19,348.35c.05,6.85,3.32,10.18,10.09,10.2q29.24.1,58.48,0c7.46,0,10.66-3.22,10.68-10.66q.05-33.74-.06-67.47c0-7.24-3.13-10.52-10.3-10.56q-29.24-.18-58.48,0c-7.2,0-10.31,3.33-10.36,10.5-.07,11.33,0,22.66,0,34h0C295.17,325.69,295.11,337,295.19,348.35Z"/><path d="M70.39,151.53a14.17,14.17,0,0,0,20.38.37L202.39,40.51,313.45,151.78l-20.66,20.5a14.17,14.17,0,0,0,8.77,24.18l69.23,5.94a14.17,14.17,0,0,0,15.33-15.36l-5.92-67.68a14.17,14.17,0,0,0-24-8.88l-19.24,18.87S252.81,44.57,212.41,4.15a14.38,14.38,0,0,0-20.19,0L190,6.32l-.55.51a14.29,14.29,0,0,0-1,1.07L77.65,118.47l.1.1-10,10a14.17,14.17,0,0,0-.34,19.68Z"/></g></g></svg>