<?xml version="1.0" encoding="utf-8"?>
<!-- Generator: Adobe Illustrator 20.0.0, SVG Export Plug-In . SVG Version: 6.00 Build 0)  -->
<svg version="1.1" id="圖層_1" xmlns="http://www.w3.org/2000/svg" xmlns:xlink="http://www.w3.org/1999/xlink" x="0px" y="0px"
	 viewBox="0 0 150 150" style="enable-background:new 0 0 150 150;" xml:space="preserve">
<style type="text/css">
	.st0{fill:#D10202;}
	.st1{fill:#ECAC00;}
</style>
<rect x="22" y="22" transform="matrix(0.7071 -0.7071 0.7071 0.7071 -31.066 75)" class="st0" width="106.1" height="106.1"/>
<path class="st1" d="M75,10L10,75l65,65l65-65L75,10z M75,136L14,75l61-61l61,61L75,136z"/>
<g>
	<path d="M108.2,86.9c-0.8,0.3-1.8,0.1-2.8-0.4c-1-0.2-1.7,0.6-2.2,1c-0.6,0.3-1.3,0.6-4.3-0.2c-9.3-3.6-15.7-7.2-19.1-10.7
		c-3.1-1-5.4-1.3-6.8-0.9c-2.9,2.5-5.9,5.6-9.1,9.4c-7.3,5.1-13,9.4-16.7,12.4c-2,1.7-2.9-0.5-2-2.4c3.6-3.3,6.5-6.3,9.6-9.5
		c3-2.9,6-5.6,8.4-8.5c-3,1-5.6,2.3-7.9,3.9c-1.4-0.1-2.7-1-4-2.4c-0.1-1.3,0.3-2.2,1.3-2.6c0.6-1.2,1-2.4,1.5-3.7
		c1.3-3.6,2.6-5.6,4-5.6c1.9,0.6,2.5,1.8,1.9,3.6c-1.3,1.4-2.4,2.9-3.6,4.6c3.1-1.2,5.9-2.2,8.2-2.8c0.1-1.3,0.6-2.3,1.4-2.9
		c1.6-0.3,2.8,0.1,3.6,1.2c1.7-2.1,3.3-4.2,4.7-6.2c0.3-0.8,0-0.8-0.6-0.8c-1.2,0.3-3,0.8-5.6,1.5c-3.3,1.1-5.8,1.1-6.8-0.4
		c-0.8-2.6-0.3-4.4,1.5-5.5h3.1c0.3-0.4,0.6-0.8,0.9-1.1c-0.6-0.1-1.3-0.3-2-0.6c-2.5-1.3-2.4-1.3-3.3-4.1c-1.3,0-2.6-0.5-4-1.4
		c-0.6-0.6-0.9-1.5-0.8-2.4c1-2.8,2.9-4.3,5.6-4.3c-0.1-1.6,0.6-2.8,2.2-3.6c1.4,1,2.9,1.6,4.6,1.9c0.4,0.3,0.7,0.6,0.8,0.8
		c2.5-0.1,4.3,0.3,5.5,1.3c0.3,2.4-0.7,4-3.1,4.9c-1.1,0.8-2.3,1.3-3.6,1.6c-0.3,1.4-0.4,2.6-0.3,4c0.9-1,1.9-1.8,2.9-2.6
		c2-0.9,3.5-1.3,4.6-0.8c1,3,0.8,4.9-1.2,5.3c-1.3,0.3-2.3,0.7-2.9,1.1c0.4,0.1,1,0,1.9-0.1c3.3-0.3,6.1-0.8,8.2-1.4
		c-0.1-1.1-0.1-2.2-0.1-3.6c0.8-1,1.9-1,3.1-0.3c2.2,1.9,3.3,4.3,3.2,7.3c-0.8,1.3-1.8,2.2-3,2.4c-2,0.6-3.2,0.2-3.2-1.3l0.3-1
		c-1.3,0.4-2.6,0.8-3.8,1.2c1.9,1.3,2.4,3,1.7,5.1c-1.3,0.8-2.4,1.7-3.6,2.6c0.9,0.2,2.6,0.8,3.2,1.1c0.6-0.6,1.7-1.8,2.2-2.4
		c2-2.3,3.6-4.2,5.1-5.6c1.6-1.3,3.2-1.5,4.8-0.3c0.5,2.1,0.1,3.5-1.5,4.1c-2,1-3.8,2.4-5.4,4c4-0.6,5.9-1.4,6.1-2.1
		c1-2.5,2.6-3.3,4.3-1.5c0.9,2.6,0.9,4.5-0.1,6c-1.9,1.3-3.4,1.4-4.5,0c-1.6,0.6-2.7,1-3.3,1.5c6.8,2.9,14.6,6.8,21.3,8.7
		c1.5,0.4,2.2,1.6,2,2.8C110.8,87,109.2,86.3,108.2,86.9z M71,106.9c-1.5,0.8-2.7,1.3-3.4,1.5c-1.1,0.3-1.5,0.1-1.5-0.6
		c3.2-4,6.8-7.7,10.9-11.2l2.7-4c2-2.2,3.5-2.6,4.3-1.8c1.4,0.9,1.5,2.5,0.4,4.6C81.5,101.2,77,105,71,106.9z M77.4,92.2
		c-4,3.3-7,4.9-9.1,4.5c-0.3-1.4,0.6-3,2.4-4.8c2.4-2.5,4-4.5,4.6-5.8c-0.1-0.3-0.5-0.4-1.4,0c-2.8,1.3-4.8,2-6.1,2.1
		c-1.4,0.1-1.9-0.4-1.4-1.5c0.4-1.7,1.3-3.1,2.6-4.3l4.3-3.8c1.7-1.2,3.3-1.6,4.9-1.2c2.3,2.4,3.3,4.2,1.9,5.2
		c-1.1,0.3-2,0.7-2.6,1.2c2.4,0.3,4,1.3,4.7,2.9C81.9,89,80.3,90.7,77.4,92.2z M93.7,50.9c-2.7,0.6-5.2,0.3-7.3-0.8l-4.2,2.9
		c-1.2,0.6-3.6,0.6-2.6-1.3c1.1-1.1,3.8-4.7,5-7.5c1.3-2.9,3.8-3,5.9-0.9c2.4-0.9,4.9-0.5,7.6,1.3C99.7,47.1,98,49.2,93.7,50.9z"/>
</g>
</svg>
