<svg xmlns="http://www.w3.org/2000/svg" viewBox="0 0 46.35 55.25"><title>pen</title><g id="圖層_2" data-name="圖層 2"><g id="圖層_1-2" data-name="圖層 1"><g id="rmMPb5"><path d="M26.64,39.26a1.11,1.11,0,0,1,.55,1c0,1.3,0,2.57-.09,3.82a12.17,12.17,0,0,1-3.54,8.08,10.64,10.64,0,0,1-5,2.58c-.24.06-.47.14-.7.21l-3.54.33c-1.15-.09-2.31-.13-3.45-.29a15.2,15.2,0,0,1-9.58-4.63c-.44-.48-.81-1-1.29-1.63,1.76.3,3,.71,4.73.36A6.84,6.84,0,0,0,8.46,46.8,35.5,35.5,0,0,0,11,43.45a13.31,13.31,0,0,1,7.31-5.71,27.55,27.55,0,0,1,4.14-.63,1.07,1.07,0,0,1,.67.13Z"/></g><path d="M24.14,35.59a1.34,1.34,0,0,1-.4-.55,4.69,4.69,0,0,1,.46-4.34L40.86,3.1A7.25,7.25,0,0,1,43.6.34c1.52-.8,2.64-.15,2.74,1.57a7.47,7.47,0,0,1-1,3.91L32.86,34.61c-.93,1.79-2.09,3.13-4.07,3.42a1.61,1.61,0,0,1-.9-.15Z"/></g></g></svg>