<svg xmlns="http://www.w3.org/2000/svg" viewBox="0 0 117.35 72.34"><defs><style>.cls-1{fill:#fff;}</style></defs><title>preview</title><g id="圖層_2" data-name="圖層 2"><g id="圖層_1-2" data-name="圖層 1"><g id="XMJUAN"><path class="cls-1" d="M0,36.08A94.33,94.33,0,0,1,15.32,18.54C24.17,10.6,34,4.46,45.71,1.63c16.39-4,31.47-.49,45.48,8.41a91.31,91.31,0,0,1,25.56,24.83c.5.71.94,1.26.23,2.26-9.9,13.77-21.91,25-38,31.26-17.3,6.7-34,4.68-49.91-4.49C17.41,57.15,8.06,47.83.38,36.77.25,36.58.16,36.37,0,36.08ZM83.67,17.31c3,6.43,4.21,13,2.57,19.93a26.48,26.48,0,0,1-11.3,16.43,27.7,27.7,0,0,1-33.18-2c-8-6.76-13.59-21.38-5-35.74A84.78,84.78,0,0,0,12,36.78c.37.5.66.93,1,1.32A81.22,81.22,0,0,0,35.4,57c14.88,8.35,29.92,8.83,45.13.89a80.2,80.2,0,0,0,22.42-17.77c1-1.06,1.84-2.17,2.79-3.29A76.67,76.67,0,0,0,83.67,17.31Zm-28.12,8.4a7,7,0,0,0-7.14-7.29,7.24,7.24,0,1,0-.05,14.48A7,7,0,0,0,55.55,25.72Z"/></g></g></g></svg>